<svg width="189" height="54" viewBox="0 0 189 54" fill="none" xmlns="http://www.w3.org/2000/svg">
<path d="M86.548 16.7V37H82.459V24.559L76.92 36.42H74.513L69.061 24.646V37H64.972V16.7H69.032L75.876 31.345L82.459 16.7H86.548ZM91.5725 25.98L90.0065 23.457C90.7991 22.7803 91.7368 22.2583 92.8195 21.891C93.9215 21.5237 95.0235 21.34 96.1255 21.34C98.3295 21.34 99.9535 21.8137 100.997 22.761C102.041 23.7083 102.563 25.1197 102.563 26.995V33.056C102.563 33.7907 102.834 34.158 103.375 34.158H104.1L103.781 36.797C103.375 37.1643 102.708 37.348 101.78 37.348C100.446 37.348 99.5668 36.797 99.1415 35.695C97.9815 36.8743 96.4928 37.464 94.6755 37.464C93.1095 37.464 91.8238 37.058 90.8185 36.246C89.8325 35.434 89.3395 34.2353 89.3395 32.65C89.3395 31.1613 89.8905 30.0497 90.9925 29.315C92.0945 28.561 93.5348 28.184 95.3135 28.184C96.5701 28.184 97.6335 28.2807 98.5035 28.474V27.314C98.5035 26.328 98.2618 25.6417 97.7785 25.255C97.2951 24.849 96.5701 24.646 95.6035 24.646C94.0375 24.646 92.6938 25.0907 91.5725 25.98ZM98.5615 32.824V30.968C97.7881 30.7553 96.8601 30.649 95.7775 30.649C94.0181 30.649 93.1385 31.2773 93.1385 32.534C93.1385 33.2107 93.3511 33.7037 93.7765 34.013C94.2211 34.303 94.7721 34.448 95.4295 34.448C96.8988 34.448 97.9428 33.9067 98.5615 32.824ZM106.829 16.7H113.934C116.467 16.7 118.4 17.309 119.734 18.527C121.088 19.745 121.764 21.369 121.764 23.399C121.764 25.371 121.078 27.0047 119.705 28.3C118.352 29.576 116.428 30.214 113.934 30.214H111.092V37H106.829V16.7ZM111.092 20.325V26.589H113.818C114.92 26.589 115.761 26.299 116.341 25.719C116.921 25.139 117.211 24.3173 117.211 23.254C117.211 22.2873 116.912 21.5623 116.312 21.079C115.732 20.5763 114.891 20.325 113.789 20.325H111.092ZM135.785 32.708L137.38 35.376C135.717 36.768 133.62 37.464 131.087 37.464C128.922 37.464 127.143 36.7777 125.751 35.405C124.359 34.0323 123.663 32.0507 123.663 29.46C123.663 27.0433 124.33 25.0907 125.664 23.602C127.017 22.094 128.786 21.34 130.971 21.34C132.112 21.34 133.136 21.543 134.045 21.949C134.954 22.355 135.688 22.8963 136.249 23.573C136.81 24.2497 137.235 25.0037 137.525 25.835C137.815 26.6663 137.96 27.546 137.96 28.474C137.96 29.286 137.892 30.0303 137.757 30.707H127.723C128.11 33.027 129.434 34.187 131.696 34.187C133.223 34.187 134.586 33.694 135.785 32.708ZM127.665 28.097H134.248C134.19 26.9757 133.881 26.096 133.32 25.458C132.759 24.82 132.005 24.501 131.058 24.501C129.067 24.501 127.936 25.6997 127.665 28.097ZM142.634 25.98L141.068 23.457C141.861 22.7803 142.798 22.2583 143.881 21.891C144.983 21.5237 146.085 21.34 147.187 21.34C149.391 21.34 151.015 21.8137 152.059 22.761C153.103 23.7083 153.625 25.1197 153.625 26.995V33.056C153.625 33.7907 153.896 34.158 154.437 34.158H155.162L154.843 36.797C154.437 37.1643 153.77 37.348 152.842 37.348C151.508 37.348 150.628 36.797 150.203 35.695C149.043 36.8743 147.554 37.464 145.737 37.464C144.171 37.464 142.885 37.058 141.88 36.246C140.894 35.434 140.401 34.2353 140.401 32.65C140.401 31.1613 140.952 30.0497 142.054 29.315C143.156 28.561 144.596 28.184 146.375 28.184C147.632 28.184 148.695 28.2807 149.565 28.474V27.314C149.565 26.328 149.323 25.6417 148.84 25.255C148.357 24.849 147.632 24.646 146.665 24.646C145.099 24.646 143.755 25.0907 142.634 25.98ZM149.623 32.824V30.968C148.85 30.7553 147.922 30.649 146.839 30.649C145.08 30.649 144.2 31.2773 144.2 32.534C144.2 33.2107 144.413 33.7037 144.838 34.013C145.283 34.303 145.834 34.448 146.491 34.448C147.96 34.448 149.004 33.9067 149.623 32.824ZM168.457 32.621L170.197 35.26C169.52 35.956 168.689 36.4973 167.703 36.884C166.717 37.2707 165.654 37.464 164.513 37.464C162.27 37.464 160.414 36.739 158.945 35.289C157.476 33.8197 156.741 31.8283 156.741 29.315C156.741 26.8403 157.476 24.8973 158.945 23.486C160.414 22.0553 162.241 21.34 164.426 21.34C166.591 21.34 168.389 21.9587 169.82 23.196L168.254 26.009C167.249 25.2357 166.118 24.849 164.861 24.849C163.662 24.849 162.686 25.2357 161.932 26.009C161.178 26.7823 160.801 27.8843 160.801 29.315C160.801 30.7263 161.178 31.8573 161.932 32.708C162.705 33.5393 163.682 33.955 164.861 33.955C166.195 33.955 167.394 33.5103 168.457 32.621ZM176.901 15.192V23.66C178.197 22.1713 179.782 21.427 181.657 21.427C183.262 21.427 184.519 21.862 185.427 22.732C186.355 23.602 186.819 24.965 186.819 26.821V37H182.759V27.488C182.759 26.6567 182.537 26.038 182.092 25.632C181.648 25.226 181.097 25.023 180.439 25.023C179.125 25.023 177.955 25.806 176.93 27.372V37H172.87V15.192H176.901Z" fill="#192F4D"/>
<g clip-path="url(#clip0_325_1126)">
<path fill-rule="evenodd" clip-rule="evenodd" d="M30.7452 9.1684C29.5119 9.76478 29.5332 11.4281 30.503 12.3959C31.8712 13.7612 32.9969 15.3994 33.7829 17.2708C34.4625 18.8889 34.8189 20.5532 34.9101 22.206C35.5916 26.7184 34.4667 35.311 33.5786 40.8605C33.292 42.6517 35.3252 43.9191 36.7615 42.8111C40.9343 39.5917 46.0872 35.3134 48.3152 32.2439C49.3745 31.036 50.2636 29.6462 50.9031 28.0756C53.9862 20.504 50.3475 11.8664 42.7759 8.7833C38.7337 7.13735 34.3877 7.40717 30.7452 9.1684Z" fill="#D6635C"/>
<path fill-rule="evenodd" clip-rule="evenodd" d="M31.0629 22.4999C32.0591 29.3034 28.9533 45.6631 28.9533 45.6631C28.9533 45.6631 28.3605 48.5684 26.8371 49.1886C25.3138 49.8089 22.8601 48.1442 22.8601 48.1442C22.8601 48.1442 9.2095 38.6077 5.17043 33.0432C4.11121 31.8353 3.22206 30.4455 2.58255 28.8749C-0.500568 21.3033 3.13817 12.6657 10.7098 9.58261C18.2814 6.49949 26.919 10.1382 30.0021 17.7098C30.6416 19.2804 30.9771 20.8957 31.0629 22.4999ZM14.1213 17.9608C11.1768 19.1598 9.76174 22.5188 10.9607 25.4634C12.1598 28.4079 15.5188 29.823 18.4633 28.624C21.4079 27.425 22.8229 24.066 21.6239 21.1214C20.4249 18.1768 17.0659 16.7618 14.1213 17.9608Z" fill="#E08A85"/>
<path d="M33.194 5.97218C29.988 6.82161 28.4731 9.08115 28.4584 9.1036C28.4129 9.16996 28.3313 9.19993 28.2567 9.17676C28.1806 9.15261 28.1284 9.08213 28.1287 9.00325C28.1314 8.7934 28.1786 3.83163 29.0334 2.52519C29.9226 1.16635 31.7497 0.784607 33.107 1.67278C34.1187 2.33474 34.6268 3.57345 34.3726 4.7557C34.2442 5.34709 33.7938 5.81326 33.194 5.97218ZM33.268 4.1868C33.4106 3.52783 33.1264 2.83532 32.5622 2.46615C32.4799 2.41229 32.3685 2.43557 32.3147 2.51788C32.2608 2.60018 32.2841 2.71159 32.3664 2.76545C32.8079 3.05433 33.0293 3.59459 32.9186 4.10993C32.8976 4.20734 32.959 4.30304 33.0549 4.32305C33.1523 4.34404 33.248 4.28271 33.268 4.1868Z" fill="#58A8A4"/>
</g>
<defs>
<clipPath id="clip0_325_1126">
<rect width="54" height="54" fill="white"/>
</clipPath>
</defs>
</svg>
