<svg width="107" height="22" viewBox="0 0 107 22" fill="none" xmlns="http://www.w3.org/2000/svg">
<path d="M15.8152 3.36467C16.7361 6.79576 14.6925 10.3236 11.2507 11.2443L5.63081 12.7476C4.70993 9.31655 6.75355 5.78872 10.1953 4.86802L15.8152 3.36467Z" fill="#E79E73"/>
<path d="M11.8287 12.1792C12.7507 15.6123 10.7135 19.1397 7.27846 20.058L1.66954 21.5573C0.747466 18.1242 2.78468 14.5968 6.21975 13.6785L11.8287 12.1792Z" fill="#E79E73"/>
<path fill-rule="evenodd" clip-rule="evenodd" d="M77.6216 3.90015V16.8203H75.5648V6.00712C75.5648 4.92584 76.387 4.02098 77.4655 3.91543L77.6216 3.90015ZM102.593 13.8922L100.683 16.8203H98.3874L101.399 12.3001L98.7179 8.29227L100.591 7.63345L102.758 11.0007L104.741 7.94455H107L103.952 12.6112L106.725 16.8203H104.448L102.593 13.8922ZM93.5199 9.57328C92.7119 9.57328 91.8551 9.77458 90.949 10.1772L90.3799 8.49355C90.6981 8.28615 91.1878 8.10315 91.849 7.94453C92.5222 7.78593 93.0671 7.70664 93.4833 7.70664C94.1689 7.70664 94.7932 7.84693 95.3564 8.12755C95.9318 8.40816 96.3849 8.79246 96.7154 9.28046C97.0459 9.75628 97.2112 10.2931 97.2112 10.8909V16.8203H95.8339L95.5218 15.9235C95.1788 16.2529 94.7871 16.5214 94.3464 16.7288C93.9056 16.9362 93.465 17.0399 93.0243 17.0399C91.9958 17.0399 91.2123 16.7836 90.6737 16.2712C90.1471 15.7588 89.884 15.0756 89.884 14.2216C89.884 13.331 90.184 12.6417 90.7838 12.1536C91.3959 11.6656 92.1978 11.4216 93.1894 11.4216H95.1361C95.1117 10.1894 94.5729 9.57328 93.5199 9.57328ZM93.1528 12.7942C92.6997 12.7942 92.3387 12.9345 92.0693 13.2151C91.8121 13.4835 91.6837 13.819 91.6837 14.2216C91.6837 14.5388 91.7999 14.8194 92.0325 15.0634C92.2652 15.2952 92.5835 15.4111 92.9875 15.4111C93.367 15.4111 93.7466 15.3196 94.1261 15.1366C94.5055 14.9536 94.8484 14.7035 95.1544 14.3863V12.7942H93.1528ZM81.5161 16.4725C82.2017 16.8629 83.0097 17.0582 83.9401 17.0582C84.8706 17.0582 85.6847 16.8629 86.3826 16.4725C87.0804 16.0821 87.6191 15.5331 87.9986 14.8255C88.3781 14.1179 88.5679 13.3005 88.5679 12.3732C88.5679 11.446 88.3781 10.6286 87.9986 9.92099C87.6313 9.21338 87.0988 8.67045 86.4009 8.29225C85.7153 7.90185 84.9073 7.70664 83.9769 7.70664C83.0464 7.70664 82.2323 7.90185 81.5344 8.29225C80.8366 8.68267 80.2979 9.23168 79.9184 9.9393C79.5511 10.6347 79.3675 11.446 79.3675 12.3732C79.3675 13.3127 79.5511 14.1362 79.9184 14.8438C80.2979 15.5392 80.8305 16.0821 81.5161 16.4725ZM85.7582 10.287C86.2112 10.8238 86.4377 11.5253 86.4377 12.3916C86.4377 13.2212 86.205 13.9105 85.7398 14.4595C85.2868 15.0085 84.6869 15.283 83.9401 15.283C83.1933 15.283 82.5934 15.0146 82.1405 14.4778C81.6997 13.941 81.4793 13.2395 81.4793 12.3732C81.4916 11.5314 81.7242 10.836 82.1772 10.287C82.6424 9.73799 83.2423 9.46348 83.9769 9.46348C84.7237 9.46348 85.3174 9.73799 85.7582 10.287ZM68.1887 9.59159H69.5477V21.0294C70.6937 21.0294 71.6228 20.1023 71.6228 18.9587V9.59159H73.9367L73.2756 8.01776H71.6228V7.34064C71.6228 6.85261 71.7208 6.46831 71.9166 6.18771C72.1125 5.9071 72.4186 5.76679 72.8348 5.76679C73.0552 5.76679 73.3613 5.83999 73.753 5.9864L74.3223 4.44916C74.1509 4.31497 73.9 4.20515 73.5694 4.11976C73.2511 4.02215 72.9573 3.97335 72.6879 3.97335C71.7085 3.97335 70.9372 4.25395 70.374 4.81518C69.8231 5.36418 69.5477 6.1206 69.5477 7.08444V8.01776H68.1887V9.59159Z" fill="#29485A"/>
<path fill-rule="evenodd" clip-rule="evenodd" d="M53.326 16.8204H52.5732L52.371 16.125C52.0161 16.4178 51.6304 16.6496 51.2142 16.8204C50.7978 16.979 50.3694 17.0583 49.9288 17.0583C48.6431 17.0583 47.6453 16.6313 46.9353 15.7773C46.2253 14.9233 45.8701 13.7887 45.8701 12.3734C45.8826 11.4828 46.0477 10.6837 46.366 9.97607C46.6967 9.26846 47.168 8.71334 47.7801 8.31073C48.4044 7.90812 49.1452 7.70682 50.0021 7.70682C50.7123 7.70682 51.4346 7.97523 52.169 8.51204V4.08333C52.7799 3.9964 53.326 4.46925 53.326 5.08477V16.8204ZM52.169 15.1551V9.53687C51.863 9.25627 51.5325 9.04275 51.1774 8.89634C50.8347 8.73774 50.4246 8.65845 49.9471 8.65845C49.0043 8.65845 48.2821 9.00616 47.7801 9.70156C47.2904 10.3848 47.0393 11.2693 47.0271 12.3551C47.0271 13.502 47.266 14.417 47.7433 15.1002C48.2208 15.7712 48.9432 16.1067 49.9102 16.1067C50.7795 16.1067 51.5325 15.7895 52.169 15.1551ZM55.8637 5.33836C56.5152 5.33836 57.0434 5.86537 57.0434 6.51549V7.57409C56.3919 7.57409 55.8637 7.04708 55.8637 6.39695V5.33836ZM55.89 7.94471C56.5291 7.94471 57.047 8.46158 57.047 9.09916V16.8205C56.4082 16.8205 55.89 16.3036 55.89 15.666V7.94471ZM60.7448 16.4544C61.3569 16.857 62.0794 17.0583 62.9118 17.0583C63.7933 17.0583 64.5646 16.8631 65.2256 16.4727C65.8867 16.0701 66.3948 15.5211 66.7499 14.8257C67.105 14.1181 67.2824 13.319 67.2824 12.4283C67.2824 10.9521 66.9213 9.79917 66.1989 8.96955C65.4766 8.12773 64.4606 7.70682 63.1504 7.70682C62.2936 7.70682 61.5406 7.90812 60.8916 8.31073C60.2551 8.71334 59.7654 9.26846 59.4225 9.97607C59.0798 10.6715 58.9022 11.4584 58.89 12.3368C58.89 13.2518 59.0493 14.0693 59.3675 14.7891C59.6858 15.4967 60.145 16.0518 60.7448 16.4544ZM65.3543 9.70156C65.8684 10.397 66.1256 11.312 66.1256 12.4466C66.1134 13.5202 65.8318 14.3987 65.2807 15.0819C64.7422 15.7651 63.9953 16.1067 63.0403 16.1067C62.0733 16.1067 61.3325 15.759 60.8183 15.0636C60.3042 14.3682 60.047 13.4532 60.047 12.3185C60.0592 11.2449 60.3347 10.3665 60.8733 9.68326C61.4243 9.00004 62.1773 8.65845 63.1321 8.65845C64.0993 8.65845 64.8401 9.00614 65.3543 9.70156ZM41.3595 15.5577C40.7474 15.8993 40.2087 16.0701 39.7435 16.0701C38.5927 16.0701 38.0173 15.3381 38.0173 13.8741V7.94471H36.8787V14.0937C36.8787 14.9843 37.1052 15.698 37.5582 16.2348C38.0112 16.7716 38.6968 17.04 39.615 17.04C40.1659 17.04 40.7596 16.8875 41.3963 16.5825C42.0329 16.2653 42.541 15.8871 42.9205 15.4479L42.9802 15.8941C43.0512 16.4244 43.5045 16.8204 44.0407 16.8204V7.92643H42.9021V14.2584C42.4981 14.7708 41.9839 15.2039 41.3595 15.5577ZM33.08 8.12773H34.6961L35.0817 8.98785H33.08V14.5695C33.08 15.0331 33.178 15.3991 33.3738 15.6675C33.582 15.9359 33.9003 16.0701 34.3288 16.0701C34.5736 16.0701 34.8246 16.0152 35.0817 15.9054L35.3021 16.8387C35.2653 16.8509 35.1429 16.8875 34.9348 16.9485C34.7267 17.0217 34.4451 17.0583 34.09 17.0583C33.4289 17.0583 32.9025 16.857 32.5107 16.4544C32.119 16.0396 31.9231 15.454 31.9231 14.6976V8.98785H30.6192L30.6009 8.12773H31.9231V7.0445C31.9231 6.31235 32.3872 5.66035 33.08 5.41926V8.12773ZM24.6519 16.857C25.2151 16.9912 25.7048 17.0583 26.121 17.0583C27.2474 17.0583 28.1166 16.8387 28.7287 16.3995C29.3409 15.9481 29.6469 15.332 29.6469 14.5512C29.6469 13.4165 28.6553 12.5015 26.672 11.8061C25.9374 11.5621 25.3681 11.312 24.9641 11.0558C24.5723 10.7874 24.3703 10.4641 24.3581 10.0859C24.3581 9.65885 24.5601 9.31114 24.9641 9.04275C25.3681 8.76215 25.8823 8.62183 26.5067 8.62183C26.9841 8.62183 27.3943 8.67673 27.7371 8.78655C28.0799 8.89634 28.4533 9.04884 28.8573 9.24405L29.2246 8.43883C28.943 8.23143 28.5267 8.06063 27.9758 7.92643C27.4249 7.78002 26.9474 7.70682 26.5434 7.70682C25.5395 7.70682 24.7437 7.92643 24.1561 8.36563C23.5684 8.79264 23.2746 9.39046 23.2746 10.1591C23.2746 10.7935 23.5378 11.312 24.0642 11.7146C24.6029 12.1172 25.3008 12.4588 26.1578 12.7394C27.7738 13.3007 28.5818 13.9351 28.5818 14.6427C28.5818 15.1307 28.3676 15.5028 27.9391 15.759C27.5106 16.0152 26.9168 16.1433 26.1578 16.1433C25.3865 16.1433 24.5723 15.9359 23.7153 15.5211L23.348 16.3629C23.6664 16.5703 24.101 16.735 24.6519 16.857Z" fill="#29485A"/>
</svg>
