<svg width="1440" height="679" viewBox="0 0 1440 679" fill="none" xmlns="http://www.w3.org/2000/svg">
<path d="M1440 255.555H1405.7C1371.4 255.555 1303 255.555 1234 244.929C1165.7 234.701 1097 212.854 1029 234.403C960 255.555 891 319.11 823 324.373C754.3 330.033 686 276.409 617 292.595C548.6 308.186 480 393.588 411 403.816C342.9 414.442 274 350.887 206 319.11C137.1 287.332 69 287.332 34 287.332H0V192H34.3C68.6 192 137 192 206 192C274.3 192 343 192 411 192C480 192 549 192 617 192C685.7 192 754 192 823 192C891.4 192 960 192 1029 192C1097.1 192 1166 192 1234 192C1302.9 192 1371 192 1406 192H1440V255.555Z" fill="#9BCAC7"/>
<path d="M0 150.147H34.3C68.6 150.147 137 150.147 206 160.822C274.3 171.099 343 193.048 411 171.398C480 150.147 549 86.2936 617 81.0058C685.7 75.3189 754 129.195 823 112.932C891.4 97.2684 960 11.4657 1029 1.18932C1097.1 -9.48614 1166 54.3671 1234 86.2936C1302.9 118.22 1371 118.22 1406 118.22H1440V214H1405.7C1371.4 214 1303 214 1234 214C1165.7 214 1097 214 1029 214C960 214 891 214 823 214C754.3 214 686 214 617 214C548.6 214 480 214 411 214C342.9 214 274 214 206 214C137.1 214 69 214 34 214H0V150.147Z" fill="#9BCAC7"/>
<rect width="517" height="122" transform="matrix(-1 0 0 1 1440 160)" fill="#9BCAC7"/>
<ellipse cx="82.3677" cy="71.8699" rx="82.3677" ry="71.8699" transform="matrix(-1 0 0 1 1378.61 87.5356)" fill="#9BCAC7"/>
<mask id="mask0_69_770" style="mask-type:alpha" maskUnits="userSpaceOnUse" x="1206" y="78" width="180" height="164">
<path d="M1211.08 159.743C1211.08 201.452 1248.56 236.083 1295.85 236.083C1343.15 236.083 1380.62 201.452 1380.62 159.743C1380.62 118.034 1343.15 83.4033 1295.85 83.4033C1248.56 83.4033 1211.08 118.034 1211.08 159.743Z" stroke="#252C29" stroke-width="10" stroke-miterlimit="10"/>
</mask>
<g mask="url(#mask0_69_770)">
<rect width="277.789" height="142.125" transform="matrix(-1 0 0 1 1435.14 18.0879)" fill="#2F3733"/>
</g>
<mask id="mask1_69_770" style="mask-type:alpha" maskUnits="userSpaceOnUse" x="1229" y="98" width="135" height="124">
<path d="M1252.63 119.737C1228.42 141.827 1228.42 177.642 1252.63 199.732C1276.84 221.822 1316.09 221.822 1340.3 199.732C1364.52 177.642 1364.52 141.827 1340.3 119.737C1316.09 97.6472 1276.84 97.6472 1252.63 119.737Z" stroke="#252C29" stroke-width="10" stroke-miterlimit="10"/>
</mask>
<g mask="url(#mask1_69_770)">
<path d="M1432.64 35.3125H1155.95V145.287H1294.67H1432.64V35.3125Z" fill="#2F3733"/>
</g>
<mask id="mask2_69_770" style="mask-type:alpha" maskUnits="userSpaceOnUse" x="1248" y="115" width="97" height="89">
<path d="M1265.24 133.004C1249.11 148.709 1249.96 173.411 1267.22 188.175C1284.49 202.939 1311.56 202.108 1327.69 186.403C1343.82 170.698 1342.98 145.997 1325.71 131.233C1308.44 116.469 1281.37 117.3 1265.24 133.004Z" stroke="#252C29" stroke-width="10" stroke-miterlimit="10"/>
</mask>
<g mask="url(#mask2_69_770)">
<rect width="276.916" height="109.96" transform="matrix(-1 0 0 1 1433.3 36.0127)" fill="#2F3733"/>
</g>
<mask id="mask3_69_770" style="mask-type:alpha" maskUnits="userSpaceOnUse" x="1270" y="135" width="53" height="49">
<path d="M1275.42 159.743C1275.42 169.686 1284.41 178.511 1296.47 178.511C1308.54 178.511 1317.52 169.686 1317.52 159.743C1317.52 149.799 1308.54 140.975 1296.47 140.975C1284.41 140.975 1275.42 149.799 1275.42 159.743Z" stroke="#252C29" stroke-width="10" stroke-miterlimit="10"/>
</mask>
<g mask="url(#mask3_69_770)">
<rect width="276.916" height="122.178" transform="matrix(-1 0 0 1 1433.3 36.0127)" fill="#2F3733"/>
</g>
<ellipse cx="82.3677" cy="71.8699" rx="82.3677" ry="71.8699" transform="matrix(-1 0 0 1 1188.03 87.5356)" fill="#9BCAC7"/>
<mask id="mask4_69_770" style="mask-type:alpha" maskUnits="userSpaceOnUse" x="1015" y="78" width="181" height="164">
<path d="M1020.51 159.743C1020.51 201.452 1057.99 236.083 1105.28 236.083C1152.57 236.083 1190.05 201.452 1190.05 159.743C1190.05 118.034 1152.57 83.4033 1105.28 83.4033C1057.99 83.4033 1020.51 118.034 1020.51 159.743Z" stroke="#252C29" stroke-width="10" stroke-miterlimit="10"/>
</mask>
<g mask="url(#mask4_69_770)">
<rect width="277.789" height="142.125" transform="matrix(-1 0 0 1 1244.56 18.0879)" fill="#2F3733"/>
</g>
<mask id="mask5_69_770" style="mask-type:alpha" maskUnits="userSpaceOnUse" x="1038" y="98" width="136" height="124">
<path d="M1062.05 119.737C1037.84 141.827 1037.84 177.642 1062.05 199.732C1086.26 221.822 1125.52 221.822 1149.73 199.732C1173.94 177.642 1173.94 141.827 1149.73 119.737C1125.52 97.6472 1086.26 97.6472 1062.05 119.737Z" stroke="#252C29" stroke-width="10" stroke-miterlimit="10"/>
</mask>
<g mask="url(#mask5_69_770)">
<path d="M1241.33 35.8535H965.156V145.677H1103.62H1241.33V35.8535Z" fill="#2F3733"/>
</g>
<mask id="mask6_69_770" style="mask-type:alpha" maskUnits="userSpaceOnUse" x="1057" y="115" width="97" height="89">
<path d="M1074.66 133.004C1058.53 148.709 1059.38 173.411 1076.65 188.175C1093.92 202.939 1120.99 202.108 1137.12 186.403C1153.25 170.698 1152.4 145.997 1135.13 131.233C1117.86 116.469 1090.79 117.3 1074.66 133.004Z" stroke="#252C29" stroke-width="10" stroke-miterlimit="10"/>
</mask>
<g mask="url(#mask6_69_770)">
<rect width="276.916" height="109.96" transform="matrix(-1 0 0 1 1242.72 36.0127)" fill="#2F3733"/>
</g>
<mask id="mask7_69_770" style="mask-type:alpha" maskUnits="userSpaceOnUse" x="1079" y="135" width="53" height="49">
<path d="M1084.85 159.743C1084.85 169.686 1093.83 178.511 1105.9 178.511C1117.96 178.511 1126.95 169.686 1126.95 159.743C1126.95 149.799 1117.96 140.975 1105.9 140.975C1093.83 140.975 1084.85 149.799 1084.85 159.743Z" stroke="#252C29" stroke-width="10" stroke-miterlimit="10"/>
</mask>
<g mask="url(#mask7_69_770)">
<rect width="276.916" height="122.178" transform="matrix(-1 0 0 1 1242.72 36.0127)" fill="#2F3733"/>
</g>
<ellipse cx="82" cy="70.5" rx="82" ry="70.5" transform="matrix(-1 0 0 1 1282.76 118.238)" fill="#9BCAC7"/>
<mask id="mask8_69_770" style="mask-type:alpha" maskUnits="userSpaceOnUse" x="1110" y="114" width="181" height="164">
<path d="M1115.56 195.743C1115.56 237.452 1153.03 272.083 1200.32 272.083C1247.62 272.083 1285.09 237.452 1285.09 195.743C1285.09 154.034 1247.62 119.403 1200.32 119.403C1153.03 119.403 1115.56 154.034 1115.56 195.743Z" stroke="#252C29" stroke-width="10" stroke-miterlimit="10"/>
</mask>
<g mask="url(#mask8_69_770)">
<rect width="276.746" height="121.158" transform="matrix(-1 0 0 1 1339.31 54.5366)" fill="#2F3733"/>
</g>
<mask id="mask9_69_770" style="mask-type:alpha" maskUnits="userSpaceOnUse" x="1133" y="134" width="136" height="124">
<path d="M1157.1 155.737C1132.89 177.827 1132.89 213.642 1157.1 235.732C1181.31 257.822 1220.56 257.822 1244.77 235.732C1268.99 213.642 1268.99 177.827 1244.77 155.737C1220.56 133.647 1181.31 133.647 1157.1 155.737Z" stroke="#252C29" stroke-width="10" stroke-miterlimit="10"/>
</mask>
<g mask="url(#mask9_69_770)">
<path d="M1336.38 71.8535H1060.2V183.292H1198.67H1336.38V71.8535Z" fill="#2F3733"/>
</g>
<mask id="mask10_69_770" style="mask-type:alpha" maskUnits="userSpaceOnUse" x="1152" y="151" width="97" height="89">
<path d="M1169.71 169.004C1153.58 184.709 1154.43 209.411 1171.7 224.175C1188.96 238.939 1216.03 238.108 1232.16 222.403C1248.29 206.698 1247.45 181.997 1230.18 167.233C1212.91 152.469 1185.84 153.3 1169.71 169.004Z" stroke="#252C29" stroke-width="10" stroke-miterlimit="10"/>
</mask>
<g mask="url(#mask10_69_770)">
<rect width="276.916" height="109.96" transform="matrix(-1 0 0 1 1337.77 72.0127)" fill="#2F3733"/>
</g>
<mask id="mask11_69_770" style="mask-type:alpha" maskUnits="userSpaceOnUse" x="1174" y="171" width="53" height="49">
<path d="M1179.89 195.743C1179.89 205.686 1188.88 214.511 1200.94 214.511C1213.01 214.511 1221.99 205.686 1221.99 195.743C1221.99 185.799 1213.01 176.975 1200.94 176.975C1188.88 176.975 1179.89 185.799 1179.89 195.743Z" stroke="#252C29" stroke-width="10" stroke-miterlimit="10"/>
</mask>
<g mask="url(#mask11_69_770)">
<rect width="276.916" height="122.178" transform="matrix(-1 0 0 1 1337.77 72.0122)" fill="#2F3733"/>
</g>
<ellipse cx="82.3677" cy="71.8699" rx="82.3677" ry="71.8699" transform="matrix(-1 0 0 1 1003.08 140.536)" fill="#9BCAC7"/>
<mask id="mask12_69_770" style="mask-type:alpha" maskUnits="userSpaceOnUse" x="830" y="131" width="181" height="164">
<path d="M835.555 212.743C835.555 254.452 873.032 289.083 920.325 289.083C967.617 289.083 1005.09 254.452 1005.09 212.743C1005.09 171.034 967.617 136.403 920.325 136.403C873.032 136.403 835.555 171.034 835.555 212.743Z" stroke="#252C29" stroke-width="10" stroke-miterlimit="10"/>
</mask>
<g mask="url(#mask12_69_770)">
<rect width="278" height="131" transform="matrix(-1 0 0 1 1060 71)" fill="#2F3733"/>
</g>
<mask id="mask13_69_770" style="mask-type:alpha" maskUnits="userSpaceOnUse" x="853" y="151" width="136" height="124">
<path d="M877.099 172.737C852.888 194.827 852.888 230.642 877.099 252.732C901.31 274.822 940.564 274.822 964.775 252.732C988.986 230.642 988.986 194.827 964.775 172.737C940.564 150.647 901.31 150.647 877.099 172.737Z" stroke="#252C29" stroke-width="10" stroke-miterlimit="10"/>
</mask>
<g mask="url(#mask13_69_770)">
<path d="M1056 89H780V199H918.377H1056V89Z" fill="#2F3733"/>
</g>
<mask id="mask14_69_770" style="mask-type:alpha" maskUnits="userSpaceOnUse" x="872" y="168" width="97" height="89">
<path d="M889.71 186.004C873.58 201.709 874.427 226.411 891.695 241.175C908.963 255.939 936.035 255.108 952.164 239.403C968.294 223.698 967.447 198.997 950.179 184.233C932.911 169.469 905.839 170.3 889.71 186.004Z" stroke="#252C29" stroke-width="10" stroke-miterlimit="10"/>
</mask>
<g mask="url(#mask14_69_770)">
<rect width="276.916" height="109.96" transform="matrix(-1 0 0 1 1057.77 89.0127)" fill="#2F3733"/>
</g>
<mask id="mask15_69_770" style="mask-type:alpha" maskUnits="userSpaceOnUse" x="894" y="188" width="53" height="49">
<path d="M899.895 212.743C899.895 222.686 908.878 231.511 920.944 231.511C933.011 231.511 941.994 222.686 941.994 212.743C941.994 202.799 933.011 193.975 920.944 193.975C908.878 193.975 899.895 202.799 899.895 212.743Z" stroke="#252C29" stroke-width="10" stroke-miterlimit="10"/>
</mask>
<g mask="url(#mask15_69_770)">
<rect width="276.916" height="122.178" transform="matrix(-1 0 0 1 1057.77 89.0127)" fill="#2F3733"/>
</g>
<path fill-rule="evenodd" clip-rule="evenodd" d="M838.01 202H680C677.239 202 675 199.761 675 197C675 194.239 677.239 192 680 192H841.163C839.775 195.218 838.712 198.558 838.01 202ZM993.009 202C992.297 198.558 991.222 195.218 989.825 192H1344V202H993.009Z" fill="#2F3733"/>
<ellipse cx="82.5" cy="53.5" rx="82.5" ry="53.5" transform="matrix(-1 0 0 1 1101 175)" fill="#9BCAC7"/>
<mask id="mask16_69_770" style="mask-type:alpha" maskUnits="userSpaceOnUse" x="928" y="165" width="181" height="163">
<path d="M933.681 246.647C933.681 288.355 971.158 322.986 1018.45 322.986C1065.74 322.986 1103.22 288.355 1103.22 246.647C1103.22 204.938 1065.74 170.307 1018.45 170.307C971.158 170.307 933.681 204.938 933.681 246.647Z" stroke="#252C29" stroke-width="10" stroke-miterlimit="10"/>
</mask>
<g mask="url(#mask16_69_770)">
<path d="M1155.01 105.44H878.264V226.598H1155.01V105.44Z" fill="#2F3733"/>
</g>
<mask id="mask17_69_770" style="mask-type:alpha" maskUnits="userSpaceOnUse" x="951" y="185" width="136" height="123">
<path d="M975.225 206.641C951.014 228.731 951.014 264.546 975.225 286.635C999.436 308.725 1038.69 308.725 1062.9 286.635C1087.11 264.546 1087.11 228.731 1062.9 206.641C1038.69 184.551 999.436 184.551 975.225 206.641Z" stroke="#252C29" stroke-width="10" stroke-miterlimit="10"/>
</mask>
<g mask="url(#mask17_69_770)">
<path d="M1154.5 122.757H878.328V234.196H1016.79H1154.5V122.757Z" fill="#2F3733"/>
</g>
<mask id="mask18_69_770" style="mask-type:alpha" maskUnits="userSpaceOnUse" x="971" y="202" width="97" height="89">
<path d="M987.835 219.908C971.705 235.612 972.553 260.314 989.821 275.078C1007.09 289.842 1034.16 289.011 1050.29 273.306C1066.42 257.602 1065.57 232.9 1048.3 218.136C1031.04 203.372 1003.97 204.203 987.835 219.908Z" stroke="#252C29" stroke-width="10" stroke-miterlimit="10"/>
</mask>
<g mask="url(#mask18_69_770)">
<rect width="229.338" height="111.439" transform="matrix(-1 0 0 1 1107.67 122.757)" fill="#2F3733"/>
</g>
<mask id="mask19_69_770" style="mask-type:alpha" maskUnits="userSpaceOnUse" x="993" y="222" width="53" height="49">
<path d="M998.02 246.646C998.02 256.59 1007 265.414 1019.07 265.414C1031.14 265.414 1040.12 256.59 1040.12 246.646C1040.12 236.703 1031.14 227.878 1019.07 227.878C1007 227.878 998.02 236.703 998.02 246.646Z" stroke="#252C29" stroke-width="10" stroke-miterlimit="10"/>
</mask>
<g mask="url(#mask19_69_770)">
<rect width="276.916" height="122.178" transform="matrix(-1 0 0 1 1155.9 122.916)" fill="#2F3733"/>
</g>
<path d="M1440 197H1082" stroke="#2F3733" stroke-width="10"/>
<path d="M1440 213.965H1092" stroke="#2F3733" stroke-width="10"/>
<path d="M1440 163H1277" stroke="#2F3733" stroke-width="10"/>
<path d="M1123 163H984" stroke="#2F3733" stroke-width="10"/>
<path d="M139.998 254.253C137.236 254.253 134.998 252.014 134.998 249.253C134.998 246.492 137.236 244.253 139.998 244.253V254.253ZM1440 254.253H139.998V244.253H1440V254.253Z" fill="#2F3733"/>
<path d="M347 218.5C344.238 218.5 342 216.261 342 213.5C342 210.739 344.238 208.5 347 208.5V218.5ZM941 218.5H347V208.5H941V218.5Z" fill="#2F3733"/>
<path d="M606 270C603.239 270 601 267.761 601 265C601 262.239 603.239 260 606 260V270ZM1440 270H606V260H1440V270Z" fill="#2F3733"/>
<path d="M865 287C862.239 287 860 284.761 860 282C860 279.239 862.239 277 865 277V287ZM1440 287H865V277H1440V287Z" fill="#2F3733"/>
<path fill-rule="evenodd" clip-rule="evenodd" d="M1121.78 185H1059.5V175H1123.96C1123.06 178.256 1122.33 181.595 1121.78 185ZM1278.8 185C1278.28 181.578 1277.6 178.241 1276.73 175H1440V185H1278.8Z" fill="#2F3733"/>
<path fill-rule="evenodd" clip-rule="evenodd" d="M939.661 236H432.995C430.234 236 427.995 233.761 427.995 231C427.995 228.239 430.234 226 432.995 226H941.492C940.549 229.237 939.928 232.577 939.661 236ZM1096.21 236C1095.93 232.577 1095.3 229.237 1094.35 226H1440V236H1096.21Z" fill="#2F3733"/>
<rect y="275" width="1440" height="404" fill="#9BCAC7"/>
</svg>
