<svg width="1440" height="499" viewBox="0 0 1440 499" fill="none" xmlns="http://www.w3.org/2000/svg">
<mask id="mask0_308_1844" style="mask-type:alpha" maskUnits="userSpaceOnUse" x="0" y="0" width="1440" height="106">
<rect width="1440" height="106" transform="matrix(1 0 0 -1 0 106)" fill="#D9D9D9"/>
</mask>
<g mask="url(#mask0_308_1844)">
<path d="M-95 60.8273H-58.4372C-21.8743 60.8273 51.0382 60.8273 124.59 64.2989C197.396 67.6407 270.628 74.7786 343.115 67.7381C416.667 60.8273 490.219 40.0624 562.705 38.3428C635.937 36.4935 708.743 54.0138 782.295 48.7252C855.208 43.6314 928.333 15.7286 1001.89 12.3868C1074.48 8.91514 1147.92 29.68 1220.41 40.0624C1293.86 50.4448 1366.45 50.4448 1403.76 50.4448H1440V81.5921H1403.44C1366.87 81.5921 1293.96 81.5921 1220.41 81.5921C1147.6 81.5921 1074.37 81.5921 1001.89 81.5921C928.333 81.5921 854.781 81.5921 782.295 81.5921C709.063 81.5921 636.257 81.5921 562.705 81.5921C489.792 81.5921 416.667 81.5921 343.115 81.5921C270.522 81.5921 197.076 81.5921 124.59 81.5921C51.1448 81.5921 -21.4479 81.5921 -58.7569 81.5921H-95V60.8273Z" fill="#468681"/>
<path d="M1440 95.2569H1403.44C1366.87 95.2569 1293.96 95.2569 1220.41 92.4311C1147.6 89.711 1074.37 83.9011 1001.89 89.6318C928.333 95.2569 854.781 112.159 782.295 113.558C709.063 115.063 636.257 100.803 562.705 105.107C489.792 109.254 416.667 131.965 343.115 134.685C270.522 137.511 197.076 120.609 124.59 112.159C51.1448 103.708 -21.4479 103.708 -58.7569 103.708H-95V78.3553H-58.4371C-21.8742 78.3553 51.0382 78.3553 124.59 78.3553C197.396 78.3553 270.628 78.3553 343.115 78.3553C416.667 78.3553 490.219 78.3553 562.705 78.3553C635.937 78.3553 708.743 78.3553 782.295 78.3553C855.208 78.3553 928.333 78.3553 1001.89 78.3553C1074.48 78.3553 1147.92 78.3553 1220.41 78.3553C1293.86 78.3553 1366.45 78.3553 1403.76 78.3553H1440V95.2569Z" fill="#468681"/>
</g>
<path d="M1440 88.9829H1405.7C1371.4 88.9829 1303 88.9829 1234 94.3853C1165.7 99.5857 1097 110.693 1029 99.7372C960 88.9829 891 56.6695 823 53.9936C754.3 51.1157 686 78.3801 617 70.1503C548.6 62.2234 480 18.8023 411 13.6019C342.9 8.19947 274 40.5129 206 56.6695C137.1 72.8262 69.0001 72.8262 34.0001 72.8262H0.00012207V121.296H34.3002C68.6002 121.296 137 121.296 206 121.296C274.3 121.296 343 121.296 411 121.296C480 121.296 549 121.296 617 121.296C685.7 121.296 754 121.296 823 121.296C891.4 121.296 960 121.296 1029 121.296C1097.1 121.296 1166 121.296 1234 121.296C1302.9 121.296 1371 121.296 1406 121.296H1440V88.9829Z" fill="#356461"/>
<path d="M0.00012207 126.163H34.3001C68.6001 126.163 137 126.163 206 121.98C274.3 117.953 343 109.352 411 117.836C480 126.163 549 151.185 617 153.257C685.7 155.486 754 134.374 823 140.746C891.4 146.884 960 180.507 1029 184.534C1097.1 188.717 1166 163.696 1234 151.185C1302.9 138.674 1371 138.674 1406 138.674H1440V101.142H1405.7C1371.4 101.142 1303 101.142 1234 101.142C1165.7 101.142 1097 101.142 1029 101.142C960 101.142 891 101.142 823 101.142C754.3 101.142 686 101.142 617 101.142C548.6 101.142 480 101.142 411 101.142C342.9 101.142 274 101.142 206 101.142C137.1 101.142 69.0001 101.142 34.0001 101.142H0.00012207V126.163Z" fill="#356461"/>
<rect y="122" width="1440" height="377" fill="#EEE6DD"/>
<path d="M0 98.7735H34.3C68.6 98.7735 137 98.7735 206 103.166C274.3 107.393 343 116.424 411 107.517C480 98.7735 549 72.503 617 70.3274C685.7 67.9877 754 90.1535 823 83.4627C891.4 77.0182 960 41.7172 1029 37.4893C1097.1 33.0972 1166 59.3677 1234 72.503C1302.9 85.6382 1371 85.6382 1406 85.6382H1440V125.044H1405.7C1371.4 125.044 1303 125.044 1234 125.044C1165.7 125.044 1097 125.044 1029 125.044C960 125.044 891 125.044 823 125.044C754.3 125.044 686 125.044 617 125.044C548.6 125.044 480 125.044 411 125.044C342.9 125.044 274 125.044 206 125.044C137.1 125.044 69 125.044 34 125.044H0V98.7735Z" fill="#EEE6DD"/>
<path d="M1440 136.024H1405.7C1371.4 136.024 1303 136.024 1234 133.679C1165.7 131.422 1097 126.602 1029 131.357C960 136.024 891 150.048 823 151.209C754.3 152.458 686 140.625 617 144.197C548.6 147.637 480 166.482 411 168.739C342.9 171.083 274 157.06 206 150.048C137.1 143.036 69 143.036 34 143.036H0V122H34.3C68.6 122 137 122 206 122C274.3 122 343 122 411 122C480 122 549 122 617 122C685.7 122 754 122 823 122C891.4 122 960 122 1029 122C1097.1 122 1166 122 1234 122C1302.9 122 1371 122 1406 122H1440V136.024Z" fill="#EEE6DD"/>
</svg>
