<svg width="1440" height="265" viewBox="0 0 1440 265" fill="none" xmlns="http://www.w3.org/2000/svg">
<path d="M1440 55.1568H1405.7C1371.4 55.1568 1303 55.1568 1234 59.0785C1165.7 62.8535 1097 70.9168 1029 62.9635C960 55.1568 891 31.7002 823 29.7577C754.3 27.6686 686 47.4601 617 41.486C548.6 35.7318 480 4.21195 411 0.436899C342.9 -3.48476 274 19.9719 206 31.7002C137.1 43.4285 69 43.4285 34 43.4285H0V78.6135H34.3C68.6 78.6135 137 78.6135 206 78.6135C274.3 78.6135 343 78.6135 411 78.6135C480 78.6135 549 78.6135 617 78.6135C685.7 78.6135 754 78.6135 823 78.6135C891.4 78.6135 960 78.6135 1029 78.6135C1097.1 78.6135 1166 78.6135 1234 78.6135C1302.9 78.6135 1371 78.6135 1406 78.6135H1440V55.1568Z" fill="#9BCAC7"/>
<path d="M0 92.5842H34.3C68.6 92.5842 137 92.5842 206 88.6441C274.3 84.8514 343 76.7503 411 84.7409C480 92.5842 549 116.151 617 118.103C685.7 120.202 754 100.317 823 106.319C891.4 112.1 960 143.768 1029 147.561C1097.1 151.501 1166 127.934 1234 116.151C1302.9 104.368 1371 104.368 1406 104.368H1440V69.0175H1405.7C1371.4 69.0175 1303 69.0175 1234 69.0175C1165.7 69.0175 1097 69.0175 1029 69.0175C960 69.0175 891 69.0175 823 69.0175C754.3 69.0175 686 69.0175 617 69.0175C548.6 69.0175 480 69.0175 411 69.0175C342.9 69.0175 274 69.0175 206 69.0175C137.1 69.0175 69 69.0175 34 69.0175H0V92.5842Z" fill="#9BCAC7"/>
<rect x="-7.62939e-05" y="85" width="1440" height="180" fill="#356461"/>
<path d="M-7.62939e-05 61.7735H34.2999C68.5999 61.7735 137 61.7735 206 66.1656C274.3 70.3935 343 79.424 411 70.5166C480 61.7735 549 35.503 617 33.3274C685.7 30.9877 754 53.1535 823 46.4627C891.4 40.0182 960 4.71722 1029 0.48931C1097.1 -3.90279 1166 22.3677 1234 35.503C1302.9 48.6382 1371 48.6382 1406 48.6382H1440V88.044H1405.7C1371.4 88.044 1303 88.044 1234 88.044C1165.7 88.044 1097 88.044 1029 88.044C960 88.044 891 88.044 823 88.044C754.3 88.044 686 88.044 617 88.044C548.6 88.044 480 88.044 411 88.044C342.9 88.044 274 88.044 206 88.044C137.1 88.044 68.9999 88.044 33.9999 88.044H-7.62939e-05V61.7735Z" fill="#356461"/>
<path d="M1440 99.0238H1405.7C1371.4 99.0238 1303 99.0238 1234 96.6792C1165.7 94.4223 1097 89.6016 1029 94.3565C960 99.0238 891 113.048 823 114.209C754.3 115.458 686 103.625 617 107.197C548.6 110.637 480 129.482 411 131.739C342.9 134.083 274 120.06 206 113.048C137.1 106.036 68.9999 106.036 33.9999 106.036H-0.00012207V85H34.2999C68.5999 85 137 85 206 85C274.3 85 343 85 411 85C480 85 549 85 617 85C685.7 85 754 85 823 85C891.4 85 960 85 1029 85C1097.1 85 1166 85 1234 85C1302.9 85 1371 85 1406 85H1440V99.0238Z" fill="#356461"/>
</svg>
