<svg width="1441" height="675" viewBox="0 0 1441 675" fill="none" xmlns="http://www.w3.org/2000/svg">
<path d="M0 267.283H34.3C68.6 267.283 137 267.283 206 272.92C274.3 278.346 343 289.937 411 278.505C480 267.283 549 233.566 617 230.774C685.7 227.771 754 256.22 823 247.633C891.4 239.361 960 194.054 1029 188.628C1097.1 182.991 1166 216.708 1234 233.566C1302.9 250.425 1371 250.425 1406 250.425H1440V301H1405.7C1371.4 301 1303 301 1234 301C1165.7 301 1097 301 1029 301C960 301 891 301 823 301C754.3 301 686 301 617 301C548.6 301 480 301 411 301C342.9 301 274 301 206 301C137.1 301 69 301 34 301H0V267.283Z" fill="#2F3733"/>
<path d="M1440 251.555H1405.7C1371.4 251.555 1303 251.555 1234 240.929C1165.7 230.701 1097 208.854 1029 230.403C960 251.555 891 315.11 823 320.373C754.3 326.033 686 272.409 617 288.595C548.6 304.186 480 389.588 411 399.816C342.9 410.442 274 346.887 206 315.11C137.1 283.332 69 283.332 34 283.332H0V188H34.3C68.6 188 137 188 206 188C274.3 188 343 188 411 188C480 188 549 188 617 188C685.7 188 754 188 823 188C891.4 188 960 188 1029 188C1097.1 188 1166 188 1234 188C1302.9 188 1371 188 1406 188H1440V251.555Z" fill="#9BCAC7"/>
<path d="M0 150.147H34.3C68.6 150.147 137 150.147 206 160.822C274.3 171.099 343 193.048 411 171.398C480 150.147 549 86.2936 617 81.0058C685.7 75.3189 754 129.195 823 112.932C891.4 97.2684 960 11.4657 1029 1.18932C1097.1 -9.48614 1166 54.3671 1234 86.2936C1302.9 118.22 1371 118.22 1406 118.22H1440V214H1405.7C1371.4 214 1303 214 1234 214C1165.7 214 1097 214 1029 214C960 214 891 214 823 214C754.3 214 686 214 617 214C548.6 214 480 214 411 214C342.9 214 274 214 206 214C137.1 214 69 214 34 214H0V150.147Z" fill="#9BCAC7"/>
<rect width="517" height="122" transform="matrix(-1 0 0 1 1440 156)" fill="#9BCAC7"/>
<ellipse cx="82.3677" cy="71.8699" rx="82.3677" ry="71.8699" transform="matrix(-1 0 0 1 1378.61 83.5352)" fill="#9BCAC7"/>
<mask id="mask0_120_5921" style="mask-type:alpha" maskUnits="userSpaceOnUse" x="1206" y="74" width="180" height="164">
<path d="M1211.08 155.743C1211.08 197.452 1248.56 232.083 1295.85 232.083C1343.15 232.083 1380.62 197.452 1380.62 155.743C1380.62 114.034 1343.15 79.4033 1295.85 79.4033C1248.56 79.4033 1211.08 114.034 1211.08 155.743Z" stroke="#252C29" stroke-width="10" stroke-miterlimit="10"/>
</mask>
<g mask="url(#mask0_120_5921)">
<rect width="277.789" height="142.125" transform="matrix(-1 0 0 1 1435.14 14.0879)" fill="#2F3733"/>
</g>
<mask id="mask1_120_5921" style="mask-type:alpha" maskUnits="userSpaceOnUse" x="1229" y="94" width="135" height="124">
<path d="M1252.63 115.737C1228.42 137.827 1228.42 173.642 1252.63 195.732C1276.84 217.822 1316.09 217.822 1340.3 195.732C1364.52 173.642 1364.52 137.827 1340.3 115.737C1316.09 93.6472 1276.84 93.6472 1252.63 115.737Z" stroke="#252C29" stroke-width="10" stroke-miterlimit="10"/>
</mask>
<g mask="url(#mask1_120_5921)">
<path d="M1432.64 31.3125H1155.95V141.287H1294.67H1432.64V31.3125Z" fill="#2F3733"/>
</g>
<mask id="mask2_120_5921" style="mask-type:alpha" maskUnits="userSpaceOnUse" x="1248" y="111" width="97" height="89">
<path d="M1265.24 129.004C1249.11 144.709 1249.96 169.411 1267.22 184.175C1284.49 198.939 1311.56 198.108 1327.69 182.403C1343.82 166.698 1342.98 141.997 1325.71 127.233C1308.44 112.469 1281.37 113.3 1265.24 129.004Z" stroke="#252C29" stroke-width="10" stroke-miterlimit="10"/>
</mask>
<g mask="url(#mask2_120_5921)">
<rect width="276.916" height="109.96" transform="matrix(-1 0 0 1 1433.3 32.0127)" fill="#2F3733"/>
</g>
<mask id="mask3_120_5921" style="mask-type:alpha" maskUnits="userSpaceOnUse" x="1270" y="131" width="53" height="49">
<path d="M1275.42 155.743C1275.42 165.687 1284.41 174.511 1296.47 174.511C1308.54 174.511 1317.52 165.687 1317.52 155.743C1317.52 145.8 1308.54 136.976 1296.47 136.976C1284.41 136.976 1275.42 145.8 1275.42 155.743Z" stroke="#252C29" stroke-width="10" stroke-miterlimit="10"/>
</mask>
<g mask="url(#mask3_120_5921)">
<rect width="276.916" height="122.178" transform="matrix(-1 0 0 1 1433.3 32.0127)" fill="#2F3733"/>
</g>
<ellipse cx="82.3677" cy="71.8699" rx="82.3677" ry="71.8699" transform="matrix(-1 0 0 1 1188.03 83.5352)" fill="#9BCAC7"/>
<mask id="mask4_120_5921" style="mask-type:alpha" maskUnits="userSpaceOnUse" x="1015" y="74" width="181" height="164">
<path d="M1020.51 155.743C1020.51 197.452 1057.99 232.083 1105.28 232.083C1152.57 232.083 1190.05 197.452 1190.05 155.743C1190.05 114.034 1152.57 79.4033 1105.28 79.4033C1057.99 79.4033 1020.51 114.034 1020.51 155.743Z" stroke="#252C29" stroke-width="10" stroke-miterlimit="10"/>
</mask>
<g mask="url(#mask4_120_5921)">
<rect width="277.789" height="142.125" transform="matrix(-1 0 0 1 1244.56 14.0879)" fill="#2F3733"/>
</g>
<mask id="mask5_120_5921" style="mask-type:alpha" maskUnits="userSpaceOnUse" x="1038" y="94" width="136" height="124">
<path d="M1062.05 115.737C1037.84 137.827 1037.84 173.642 1062.05 195.732C1086.26 217.822 1125.52 217.822 1149.73 195.732C1173.94 173.642 1173.94 137.827 1149.73 115.737C1125.52 93.6472 1086.26 93.6472 1062.05 115.737Z" stroke="#252C29" stroke-width="10" stroke-miterlimit="10"/>
</mask>
<g mask="url(#mask5_120_5921)">
<path d="M1241.33 31.8535H965.156V141.677H1103.62H1241.33V31.8535Z" fill="#2F3733"/>
</g>
<mask id="mask6_120_5921" style="mask-type:alpha" maskUnits="userSpaceOnUse" x="1057" y="111" width="97" height="89">
<path d="M1074.66 129.004C1058.53 144.709 1059.38 169.411 1076.65 184.175C1093.92 198.939 1120.99 198.108 1137.12 182.403C1153.25 166.698 1152.4 141.997 1135.13 127.233C1117.86 112.469 1090.79 113.3 1074.66 129.004Z" stroke="#252C29" stroke-width="10" stroke-miterlimit="10"/>
</mask>
<g mask="url(#mask6_120_5921)">
<rect width="276.916" height="109.96" transform="matrix(-1 0 0 1 1242.72 32.0127)" fill="#2F3733"/>
</g>
<mask id="mask7_120_5921" style="mask-type:alpha" maskUnits="userSpaceOnUse" x="1079" y="131" width="53" height="49">
<path d="M1084.85 155.743C1084.85 165.687 1093.83 174.511 1105.9 174.511C1117.96 174.511 1126.95 165.687 1126.95 155.743C1126.95 145.8 1117.96 136.976 1105.9 136.976C1093.83 136.976 1084.85 145.8 1084.85 155.743Z" stroke="#252C29" stroke-width="10" stroke-miterlimit="10"/>
</mask>
<g mask="url(#mask7_120_5921)">
<rect width="276.916" height="122.178" transform="matrix(-1 0 0 1 1242.72 32.0127)" fill="#2F3733"/>
</g>
<ellipse cx="82" cy="70.5" rx="82" ry="70.5" transform="matrix(-1 0 0 1 1282.76 114.238)" fill="#9BCAC7"/>
<mask id="mask8_120_5921" style="mask-type:alpha" maskUnits="userSpaceOnUse" x="1110" y="110" width="181" height="164">
<path d="M1115.56 191.743C1115.56 233.452 1153.03 268.083 1200.32 268.083C1247.62 268.083 1285.09 233.452 1285.09 191.743C1285.09 150.034 1247.62 115.403 1200.32 115.403C1153.03 115.403 1115.56 150.034 1115.56 191.743Z" stroke="#252C29" stroke-width="10" stroke-miterlimit="10"/>
</mask>
<g mask="url(#mask8_120_5921)">
<rect width="276.746" height="121.158" transform="matrix(-1 0 0 1 1339.31 50.5361)" fill="#2F3733"/>
</g>
<mask id="mask9_120_5921" style="mask-type:alpha" maskUnits="userSpaceOnUse" x="1133" y="130" width="136" height="124">
<path d="M1157.1 151.737C1132.89 173.827 1132.89 209.642 1157.1 231.732C1181.31 253.822 1220.56 253.822 1244.77 231.732C1268.99 209.642 1268.99 173.827 1244.77 151.737C1220.56 129.647 1181.31 129.647 1157.1 151.737Z" stroke="#252C29" stroke-width="10" stroke-miterlimit="10"/>
</mask>
<g mask="url(#mask9_120_5921)">
<path d="M1336.38 67.8535H1060.2V179.292H1198.67H1336.38V67.8535Z" fill="#2F3733"/>
</g>
<mask id="mask10_120_5921" style="mask-type:alpha" maskUnits="userSpaceOnUse" x="1152" y="147" width="97" height="89">
<path d="M1169.71 165.004C1153.58 180.709 1154.43 205.411 1171.7 220.175C1188.96 234.939 1216.03 234.108 1232.16 218.403C1248.29 202.698 1247.45 177.997 1230.18 163.233C1212.91 148.469 1185.84 149.3 1169.71 165.004Z" stroke="#252C29" stroke-width="10" stroke-miterlimit="10"/>
</mask>
<g mask="url(#mask10_120_5921)">
<rect width="276.916" height="109.96" transform="matrix(-1 0 0 1 1337.77 68.0127)" fill="#2F3733"/>
</g>
<mask id="mask11_120_5921" style="mask-type:alpha" maskUnits="userSpaceOnUse" x="1174" y="167" width="53" height="49">
<path d="M1179.89 191.743C1179.89 201.687 1188.88 210.511 1200.94 210.511C1213.01 210.511 1221.99 201.687 1221.99 191.743C1221.99 181.8 1213.01 172.976 1200.94 172.976C1188.88 172.976 1179.89 181.8 1179.89 191.743Z" stroke="#252C29" stroke-width="10" stroke-miterlimit="10"/>
</mask>
<g mask="url(#mask11_120_5921)">
<rect width="276.916" height="122.178" transform="matrix(-1 0 0 1 1337.77 68.0127)" fill="#2F3733"/>
</g>
<ellipse cx="82.3677" cy="71.8699" rx="82.3677" ry="71.8699" transform="matrix(-1 0 0 1 1003.08 136.535)" fill="#9BCAC7"/>
<mask id="mask12_120_5921" style="mask-type:alpha" maskUnits="userSpaceOnUse" x="830" y="127" width="181" height="164">
<path d="M835.555 208.743C835.555 250.452 873.032 285.083 920.325 285.083C967.617 285.083 1005.09 250.452 1005.09 208.743C1005.09 167.034 967.617 132.403 920.325 132.403C873.032 132.403 835.555 167.034 835.555 208.743Z" stroke="#252C29" stroke-width="10" stroke-miterlimit="10"/>
</mask>
<g mask="url(#mask12_120_5921)">
<rect width="278" height="131" transform="matrix(-1 0 0 1 1060 67)" fill="#2F3733"/>
</g>
<mask id="mask13_120_5921" style="mask-type:alpha" maskUnits="userSpaceOnUse" x="853" y="147" width="136" height="124">
<path d="M877.099 168.737C852.888 190.827 852.888 226.642 877.099 248.732C901.31 270.822 940.564 270.822 964.775 248.732C988.986 226.642 988.986 190.827 964.775 168.737C940.564 146.647 901.31 146.647 877.099 168.737Z" stroke="#252C29" stroke-width="10" stroke-miterlimit="10"/>
</mask>
<g mask="url(#mask13_120_5921)">
<path d="M1056 85H780V195H918.377H1056V85Z" fill="#2F3733"/>
</g>
<mask id="mask14_120_5921" style="mask-type:alpha" maskUnits="userSpaceOnUse" x="872" y="164" width="97" height="89">
<path d="M889.71 182.004C873.58 197.709 874.427 222.411 891.695 237.175C908.963 251.939 936.035 251.108 952.164 235.403C968.294 219.698 967.447 194.997 950.179 180.233C932.911 165.469 905.839 166.3 889.71 182.004Z" stroke="#252C29" stroke-width="10" stroke-miterlimit="10"/>
</mask>
<g mask="url(#mask14_120_5921)">
<rect width="276.916" height="109.96" transform="matrix(-1 0 0 1 1057.77 85.0127)" fill="#2F3733"/>
</g>
<mask id="mask15_120_5921" style="mask-type:alpha" maskUnits="userSpaceOnUse" x="894" y="184" width="53" height="49">
<path d="M899.894 208.743C899.894 218.687 908.877 227.511 920.944 227.511C933.011 227.511 941.994 218.687 941.994 208.743C941.994 198.8 933.011 189.976 920.944 189.976C908.877 189.976 899.894 198.8 899.894 208.743Z" stroke="#252C29" stroke-width="10" stroke-miterlimit="10"/>
</mask>
<g mask="url(#mask15_120_5921)">
<rect width="276.916" height="122.178" transform="matrix(-1 0 0 1 1057.77 85.0127)" fill="#2F3733"/>
</g>
<rect y="305" width="1440" height="370" fill="#9BCAC7"/>
<path d="M0 263.514H34.3C68.6 263.514 137 263.514 206 269.523C274.3 275.307 343 287.662 411 275.475C480 263.514 549 227.572 617 224.596C685.7 221.395 754 251.72 823 242.567C891.4 233.75 960 185.454 1029 179.669C1097.1 173.661 1166 209.602 1234 227.572C1302.9 245.543 1371 245.543 1406 245.543H1440V299.455H1405.7C1371.4 299.455 1303 299.455 1234 299.455C1165.7 299.455 1097 299.455 1029 299.455C960 299.455 891 299.455 823 299.455C754.3 299.455 686 299.455 617 299.455C548.6 299.455 480 299.455 411 299.455C342.9 299.455 274 299.455 206 299.455C137.1 299.455 69 299.455 34 299.455H0V263.514Z" fill="#468681"/>
<path d="M1440 342.463H1405.7C1371.4 342.463 1303 342.463 1234 334.531C1165.7 326.896 1097 310.588 1029 326.673C960 342.463 891 389.905 823 393.834C754.3 398.059 686 358.03 617 370.113C548.6 381.751 480 445.502 411 453.137C342.9 461.069 274 413.626 206 389.905C137.1 366.184 69 366.184 34 366.184H0V295.021H34.3C68.6 295.021 137 295.021 206 295.021C274.3 295.021 343 295.021 411 295.021C480 295.021 549 295.021 617 295.021C685.7 295.021 754 295.021 823 295.021C891.4 295.021 960 295.021 1029 295.021C1097.1 295.021 1166 295.021 1234 295.021C1302.9 295.021 1371 295.021 1406 295.021H1440V342.463Z" fill="#468681"/>
<path fill-rule="evenodd" clip-rule="evenodd" d="M838.01 198H680C677.239 198 675 195.761 675 193C675 190.239 677.239 188 680 188H841.163C839.775 191.218 838.712 194.558 838.01 198ZM993.009 198C992.297 194.558 991.222 191.218 989.825 188H1344V198H993.009Z" fill="#2F3733"/>
<ellipse cx="82.5" cy="53.5" rx="82.5" ry="53.5" transform="matrix(-1 0 0 1 1101 171)" fill="#468681"/>
<mask id="mask16_120_5921" style="mask-type:alpha" maskUnits="userSpaceOnUse" x="928" y="161" width="181" height="163">
<path d="M933.681 242.647C933.681 284.355 971.158 318.986 1018.45 318.986C1065.74 318.986 1103.22 284.355 1103.22 242.647C1103.22 200.938 1065.74 166.307 1018.45 166.307C971.158 166.307 933.681 200.938 933.681 242.647Z" stroke="#252C29" stroke-width="10" stroke-miterlimit="10"/>
</mask>
<g mask="url(#mask16_120_5921)">
<path d="M1155.01 101.44H878.264V222.599H1155.01V101.44Z" fill="#2F3733"/>
</g>
<mask id="mask17_120_5921" style="mask-type:alpha" maskUnits="userSpaceOnUse" x="951" y="181" width="136" height="123">
<path d="M975.225 202.64C951.014 224.73 951.014 260.545 975.225 282.635C999.436 304.725 1038.69 304.725 1062.9 282.635C1087.11 260.545 1087.11 224.73 1062.9 202.64C1038.69 180.551 999.436 180.551 975.225 202.64Z" stroke="#252C29" stroke-width="10" stroke-miterlimit="10"/>
</mask>
<g mask="url(#mask17_120_5921)">
<path d="M1154.5 118.757H878.328V230.196H1016.79H1154.5V118.757Z" fill="#2F3733"/>
</g>
<mask id="mask18_120_5921" style="mask-type:alpha" maskUnits="userSpaceOnUse" x="971" y="198" width="97" height="89">
<path d="M987.836 215.908C971.706 231.612 972.553 256.314 989.821 271.078C1007.09 285.842 1034.16 285.011 1050.29 269.306C1066.42 253.602 1065.57 228.9 1048.3 214.136C1031.04 199.372 1003.97 200.203 987.836 215.908Z" stroke="#252C29" stroke-width="10" stroke-miterlimit="10"/>
</mask>
<g mask="url(#mask18_120_5921)">
<rect width="229.338" height="111.439" transform="matrix(-1 0 0 1 1107.67 118.757)" fill="#2F3733"/>
</g>
<mask id="mask19_120_5921" style="mask-type:alpha" maskUnits="userSpaceOnUse" x="993" y="218" width="53" height="49">
<path d="M998.02 242.647C998.02 252.59 1007 261.414 1019.07 261.414C1031.14 261.414 1040.12 252.59 1040.12 242.647C1040.12 232.703 1031.14 223.879 1019.07 223.879C1007 223.879 998.02 232.703 998.02 242.647Z" stroke="#252C29" stroke-width="10" stroke-miterlimit="10"/>
</mask>
<g mask="url(#mask19_120_5921)">
<rect width="276.916" height="122.178" transform="matrix(-1 0 0 1 1155.9 118.916)" fill="#2F3733"/>
</g>
<path d="M1440 193H1082" stroke="#2F3733" stroke-width="10"/>
<path d="M1440 209.965H1092" stroke="#2F3733" stroke-width="10"/>
<path d="M1440 159H1277" stroke="#2F3733" stroke-width="10"/>
<path d="M139.998 250.253C137.236 250.253 134.998 248.014 134.998 245.253C134.998 242.492 137.236 240.253 139.998 240.253V250.253ZM1440 250.253H139.998V240.253H1440V250.253Z" fill="#2F3733"/>
<path d="M347 214.5C344.238 214.5 342 212.261 342 209.5C342 206.739 344.238 204.5 347 204.5V214.5ZM941 214.5H347V204.5H941V214.5Z" fill="#2F3733"/>
<path d="M606 266C603.239 266 601 263.761 601 261C601 258.239 603.239 256 606 256V266ZM1440 266H606V256H1440V266Z" fill="#2F3733"/>
<path d="M865 283C862.239 283 860 280.761 860 278C860 275.239 862.239 273 865 273V283ZM1440 283H865V273H1440V283Z" fill="#2F3733"/>
<path fill-rule="evenodd" clip-rule="evenodd" d="M1121.78 181H1059.5V171H1123.96C1123.06 174.256 1122.33 177.595 1121.78 181ZM1278.8 181C1278.28 177.578 1277.6 174.241 1276.73 171H1440V181H1278.8Z" fill="#2F3733"/>
<path fill-rule="evenodd" clip-rule="evenodd" d="M940.167 232H433C430.239 232 428 229.761 428 227C428 224.239 430.239 222 433 222H942C941.056 225.237 940.434 228.577 940.167 232ZM1096.87 232C1096.59 228.577 1095.96 225.237 1095.01 222H1441V232H1096.87Z" fill="#2F3733"/>
<path d="M1123 159H984" stroke="#2F3733" stroke-width="10"/>
</svg>
