<svg width="1441" height="111" viewBox="0 0 1441 111" fill="none" xmlns="http://www.w3.org/2000/svg">
<g clip-path="url(#clip0_347_1850)">
<path d="M-94 68.8303H-57.4372C-20.8743 68.8303 52.0382 68.8303 125.59 66.6852C198.396 64.6204 271.628 60.2099 344.115 64.5602C417.667 68.8303 491.219 81.6606 563.705 82.7231C636.937 83.8658 709.743 73.0403 783.295 76.308C856.208 79.4554 929.333 96.6961 1002.89 98.761C1075.48 100.906 1148.92 88.0758 1221.41 81.6606C1294.86 75.2455 1367.45 79 1404.76 79H1441V56H1404.44C1367.87 56 1294.96 56 1221.41 56C1148.6 56 1075.37 56 1002.89 56C929.333 56 855.781 56 783.295 56C710.063 56 637.257 56 563.705 56C490.792 56 417.667 56 344.115 56C271.522 56 198.076 56 125.59 56C52.1448 56 -20.4479 56 -57.7569 56H-94V68.8303Z" fill="#468681"/>
<path d="M1441.32 29.5H1404.76C1368.19 29.5 1295.28 31.2209 1221.73 34.0644C1148.92 36.8016 1075.37 52.4194 1002.89 46.6528C929.333 40.9923 855.781 23.9847 783.295 22.5763C710.063 21.0616 637.257 35.4117 563.705 31.0802C490.792 26.908 417.667 4.05392 344.115 1.31679C271.522 -1.5267 198.076 15.481 125.59 23.9847C52.1448 32.4886 -20.4479 32.4886 -57.7569 32.4886H-94V58H-57.4371C-20.8742 58 52.0382 58 125.59 58C198.396 58 271.628 58 344.115 58C417.667 58 491.219 58 563.705 58C636.937 58 709.743 58 783.295 58C856.208 58 929.333 58 1002.89 58C1075.48 58 1148.92 58 1221.41 58C1294.86 58 1367.45 58 1404.76 58H1441L1441.32 29.5Z" fill="#468681"/>
<path d="M0 54.96H34.3238C68.6476 54.96 137.095 54.96 206.143 56.8057C274.49 58.5824 343.238 62.3774 411.285 58.6343C480.333 54.96 549.381 43.9199 617.428 43.0057C686.176 42.0225 754.524 51.3374 823.571 48.5257C892.019 45.8174 960.667 30.9823 1029.71 29.2056C1097.86 27.3599 1166.81 38.3999 1234.86 43.9199C1303.8 49.4399 1371.95 49.4399 1406.98 49.4399H1441V66H1406.68C1372.35 66 1303.9 66 1234.86 66C1166.51 66 1097.76 66 1029.71 66C960.667 66 891.619 66 823.571 66C754.824 66 686.476 66 617.428 66C548.981 66 480.333 66 411.285 66C343.138 66 274.19 66 206.143 66C137.195 66 69.0479 66 34.0236 66H0V54.96Z" fill="#2F3733"/>
<path d="M1441 74.8638H1406.68C1372.35 74.8638 1303.9 74.8638 1234.86 73.1478C1166.51 71.4959 1097.76 67.9676 1029.71 71.4478C960.667 74.8638 891.619 85.1281 823.572 85.9781C754.824 86.8923 686.476 78.2318 617.429 80.846C548.981 83.3639 480.333 97.1565 411.285 98.8084C343.138 100.525 274.19 90.2602 206.143 85.1281C137.195 79.996 69.0479 79.996 34.0236 79.996H0V64.5996H34.3238C68.6477 64.5996 137.095 64.5996 206.143 64.5996C274.491 64.5996 343.238 64.5996 411.285 64.5996C480.333 64.5996 549.381 64.5996 617.429 64.5996C686.176 64.5996 754.524 64.5996 823.572 64.5996C892.019 64.5996 960.667 64.5996 1029.71 64.5996C1097.86 64.5996 1166.81 64.5996 1234.86 64.5996C1303.8 64.5996 1371.95 64.5996 1406.98 64.5996H1441V74.8638Z" fill="#2F3733"/>
<path d="M0 61.1543H34.3238C68.6476 61.1543 137.095 61.1543 206.143 60.3406C274.49 59.5573 343.238 57.8842 411.285 59.5345C480.333 61.1543 549.381 66.0215 617.428 66.4246C686.176 66.8581 754.524 62.7514 823.571 63.991C892.019 65.185 960.667 71.7253 1029.71 72.5086C1097.86 73.3224 1166.81 68.4552 1234.86 66.0215C1303.8 63.5879 1371.95 63.5879 1406.98 63.5879H1441V56.2871H1406.68C1372.35 56.2871 1303.9 56.2871 1234.86 56.2871C1166.51 56.2871 1097.76 56.2871 1029.71 56.2871C960.667 56.2871 891.619 56.2871 823.571 56.2871C754.824 56.2871 686.476 56.2871 617.428 56.2871C548.981 56.2871 480.333 56.2871 411.285 56.2871C343.138 56.2871 274.19 56.2871 206.143 56.2871C137.195 56.2871 69.0479 56.2871 34.0236 56.2871H0V61.1543Z" fill="#9BCAC7"/>
<path d="M1441 48.6454H1406.68C1372.35 48.6454 1303.9 48.6454 1234.86 50.0422C1166.51 51.3868 1097.76 54.2588 1029.71 51.4259C960.667 48.6454 891.619 40.2907 823.572 39.5989C754.824 38.8549 686.476 45.9041 617.429 43.7763C548.981 41.7267 480.333 30.5003 411.285 29.1556C343.138 27.7589 274.19 36.1135 206.143 40.2907C137.195 44.4681 69.0479 44.4681 34.0236 44.4681H0V57H34.3238C68.6477 57 137.095 57 206.143 57C274.491 57 343.238 57 411.285 57C480.333 57 549.381 57 617.429 57C686.176 57 754.524 57 823.572 57C892.019 57 960.667 57 1029.71 57C1097.86 57 1166.81 57 1234.86 57C1303.8 57 1371.95 57 1406.98 57H1441V48.6454Z" fill="#9BCAC7"/>
</g>
<defs>
<clipPath id="clip0_347_1850">
<rect width="1441" height="111" fill="white"/>
</clipPath>
</defs>
</svg>
