<svg width="1441" height="106" viewBox="0 0 1441 106" fill="none" xmlns="http://www.w3.org/2000/svg">
<mask id="mask0_260_1748" style="mask-type:alpha" maskUnits="userSpaceOnUse" x="0" y="0" width="1441" height="106">
<rect width="1441" height="106" fill="#D9D9D9"/>
</mask>
<g mask="url(#mask0_260_1748)">
<path d="M-94 63.8303H-57.4372C-20.8743 63.8303 52.0382 63.8303 125.59 61.6852C198.396 59.6204 271.628 55.2099 344.115 59.5602C417.667 63.8303 491.219 76.6606 563.705 77.7231C636.937 78.8658 709.743 68.0403 783.295 71.308C856.208 74.4554 929.333 91.6961 1002.89 93.761C1075.48 95.9061 1148.92 83.0758 1221.41 76.6606C1294.86 70.2455 1367.45 70.2455 1404.76 70.2455H1441V51H1404.44C1367.87 51 1294.96 51 1221.41 51C1148.6 51 1075.37 51 1002.89 51C929.333 51 855.781 51 783.295 51C710.063 51 637.257 51 563.705 51C490.792 51 417.667 51 344.115 51C271.522 51 198.076 51 125.59 51C52.1448 51 -20.4479 51 -57.7569 51H-94V63.8303Z" fill="#468681"/>
<path d="M1441 42.5567H1404.44C1367.87 42.5567 1294.96 42.5567 1221.41 44.3027C1148.6 45.9834 1075.37 49.5733 1002.89 46.0324C929.333 42.5567 855.781 32.1134 783.295 31.2486C710.063 30.3185 637.257 39.13 563.705 36.4703C490.792 33.9084 417.667 19.8752 344.115 18.1945C271.522 16.4485 198.076 26.8918 125.59 32.1134C52.1448 37.3351 -20.4479 37.3351 -57.7569 37.3351H-94V53H-57.4371C-20.8742 53 52.0382 53 125.59 53C198.396 53 271.628 53 344.115 53C417.667 53 491.219 53 563.705 53C636.937 53 709.743 53 783.295 53C856.208 53 929.333 53 1002.89 53C1075.48 53 1148.92 53 1221.41 53C1294.86 53 1367.45 53 1404.76 53H1441V42.5567Z" fill="#468681"/>
<path d="M0 51.8906H34.3238C68.6476 51.8906 137.095 51.8906 206.143 53.447C274.49 54.9452 343.238 58.1453 411.285 54.9889C480.333 51.8906 549.381 42.5811 617.428 41.8102C686.176 40.9811 754.524 48.8359 823.571 46.4649C892.019 44.1812 960.667 31.6716 1029.71 30.1734C1097.86 28.617 1166.81 37.9264 1234.86 42.5811C1303.8 47.2358 1371.95 47.2358 1406.98 47.2358H1441V61.2H1406.68C1372.35 61.2 1303.9 61.2 1234.86 61.2C1166.51 61.2 1097.76 61.2 1029.71 61.2C960.667 61.2 891.619 61.2 823.571 61.2C754.824 61.2 686.476 61.2 617.428 61.2C548.981 61.2 480.333 61.2 411.285 61.2C343.138 61.2 274.19 61.2 206.143 61.2C137.195 61.2 69.0479 61.2 34.0236 61.2H0V51.8906Z" fill="#2F3733"/>
<path d="M1441 69.8642H1406.68C1372.35 69.8642 1303.9 69.8642 1234.86 68.1482C1166.51 66.4963 1097.76 62.968 1029.71 66.4482C960.667 69.8642 891.619 80.1285 823.572 80.9785C754.824 81.8927 686.476 73.2322 617.429 75.8464C548.981 78.3643 480.333 92.1569 411.285 93.8088C343.138 95.5249 274.19 85.2606 206.143 80.1285C137.195 74.9964 69.048 74.9964 34.0237 74.9964H7.24792e-05V59.6H34.3239C68.6478 59.6 137.095 59.6 206.143 59.6C274.491 59.6 343.238 59.6 411.285 59.6C480.333 59.6 549.381 59.6 617.429 59.6C686.176 59.6 754.524 59.6 823.572 59.6C892.019 59.6 960.667 59.6 1029.71 59.6C1097.86 59.6 1166.81 59.6 1234.86 59.6C1303.8 59.6 1371.95 59.6 1406.98 59.6H1441V69.8642Z" fill="#2F3733"/>
<path d="M0 56.1551H34.3238C68.6476 56.1551 137.095 56.1551 206.143 55.3414C274.49 54.5581 343.238 52.885 411.285 54.5353C480.333 56.1551 549.381 61.0223 617.428 61.4254C686.176 61.8589 754.524 57.7522 823.571 58.9918C892.019 60.1858 960.667 66.7261 1029.71 67.5094C1097.86 68.3232 1166.81 63.456 1234.86 61.0223C1303.8 58.5887 1371.95 58.5887 1406.98 58.5887H1441V51.2879H1406.68C1372.35 51.2879 1303.9 51.2879 1234.86 51.2879C1166.51 51.2879 1097.76 51.2879 1029.71 51.2879C960.667 51.2879 891.619 51.2879 823.571 51.2879C754.824 51.2879 686.476 51.2879 617.428 51.2879C548.981 51.2879 480.333 51.2879 411.285 51.2879C343.138 51.2879 274.19 51.2879 206.143 51.2879C137.195 51.2879 69.0479 51.2879 34.0236 51.2879H0V56.1551Z" fill="#9BCAC7"/>
<path d="M1441 46.2543H1406.68C1372.35 46.2543 1303.9 46.2543 1234.86 47.2394C1166.51 48.1876 1097.76 50.213 1029.71 48.2152C960.667 46.2543 891.619 40.3624 823.572 39.8745C754.824 39.3498 686.476 44.3211 617.429 42.8205C548.981 41.3751 480.333 33.4579 411.285 32.5096C343.138 31.5246 274.19 37.4165 206.143 40.3624C137.195 43.3084 69.048 43.3084 34.0237 43.3084H7.24792e-05V52.1462H34.3239C68.6478 52.1462 137.095 52.1462 206.143 52.1462C274.491 52.1462 343.238 52.1462 411.285 52.1462C480.333 52.1462 549.381 52.1462 617.429 52.1462C686.176 52.1462 754.524 52.1462 823.572 52.1462C892.019 52.1462 960.667 52.1462 1029.71 52.1462C1097.86 52.1462 1166.81 52.1462 1234.86 52.1462C1303.8 52.1462 1371.95 52.1462 1406.98 52.1462H1441V46.2543Z" fill="#9BCAC7"/>
</g>
</svg>
