<svg width="197" height="54" viewBox="0 0 197 54" fill="none" xmlns="http://www.w3.org/2000/svg">
<mask id="mask0_461_1882" style="mask-type:alpha" maskUnits="userSpaceOnUse" x="8" y="12" width="38" height="38">
<path fill-rule="evenodd" clip-rule="evenodd" d="M13.009 23.1163C8.21563 31.4186 10.8174 41.4254 18.2021 45.6385C25.5868 49.8515 35.5911 47.0365 40.3844 38.7341C45.1777 30.4317 42.576 20.4249 35.1913 16.2119C27.8067 11.9989 17.8023 14.8139 13.009 23.1163ZM17.138 47.4815C8.51887 42.5642 5.81121 31.1654 11.0903 22.0217C16.3695 12.8778 28.5487 10.1855 36.8359 14.8947C45.123 19.6041 47.5822 30.6849 42.3031 39.8287C37.024 48.9725 25.7572 52.3988 17.138 47.4815Z" fill="#252C29"/>
</mask>
<g mask="url(#mask0_461_1882)">
<path d="M68.6444 20.6817L44.679 62.1914L21.3748 48.8962L45.3402 7.38647L68.6444 20.6817Z" fill="#79B9B5"/>
</g>
<mask id="mask1_461_1882" style="mask-type:alpha" maskUnits="userSpaceOnUse" x="12" y="16" width="29" height="29">
<path fill-rule="evenodd" clip-rule="evenodd" d="M15.461 34.2079C16.9815 40.5116 23.2746 44.1018 29.517 42.2269C35.7594 40.352 39.5872 33.7219 38.0667 27.4182C36.5462 21.1144 30.2531 17.5242 24.0107 19.3992C17.7683 21.2741 13.9405 27.9041 15.461 34.2079ZM30.0234 44.3263C22.6328 46.5461 15.1822 42.2954 13.382 34.8323C11.5818 27.3691 16.1137 19.5195 23.5043 17.2997C30.8949 15.0799 38.3455 19.3306 40.1457 26.7938C41.9459 34.2569 37.414 42.1065 30.0234 44.3263Z" fill="#252C29"/>
</mask>
<g mask="url(#mask1_461_1882)">
<path d="M64.7656 19.4487L43.5779 56.1472L22.3549 44.0393L32.9777 25.64L43.5426 7.34082L64.7656 19.4487Z" fill="#79B9B5"/>
</g>
<mask id="mask2_461_1882" style="mask-type:alpha" maskUnits="userSpaceOnUse" x="16" y="20" width="21" height="21">
<path fill-rule="evenodd" clip-rule="evenodd" d="M18.915 32.5014C19.7896 36.7252 23.8755 39.2299 28.0204 38.1296C32.1652 37.0293 34.8423 32.7292 33.9678 28.5056C33.0932 24.2818 29.0073 21.7771 24.8624 22.8773C20.7175 23.9776 18.0405 28.2777 18.915 32.5014ZM28.4578 40.2419C23.1409 41.6533 17.928 38.4374 16.8144 33.0591C15.7008 27.6807 19.1082 22.1765 24.425 20.765C29.7419 19.3537 34.9547 22.5695 36.0684 27.948C37.182 33.3263 33.7746 38.8305 28.4578 40.2419Z" fill="#252C29"/>
</mask>
<g mask="url(#mask2_461_1882)">
<path d="M64.6499 18.7669L45.4927 51.9484L25.144 40.4406L32.1224 19.0933L43.9608 6.96362L64.6499 18.7669Z" fill="#79B9B5"/>
</g>
<path d="M18.7095 34.9608C21.7949 34.5705 24.5965 35.6191 25.6116 36.1922C24.1149 33.0366 23.2141 30.9503 19.0315 31.4604C14.9326 31.9604 14.2741 31.3554 12.7937 30.3237C13.3225 31.6999 14.8527 35.4489 18.7095 34.9608Z" fill="#356461"/>
<path d="M11.9459 38.1028C9.67976 40.2205 8.71091 43.0362 8.50976 44.1793C7.01314 41.0237 5.96725 39.0053 9.02451 36.1224C12.0206 33.2973 12.0759 32.6444 12.2172 30.8525C12.9487 32.1337 14.7787 35.4558 11.9459 38.1028Z" fill="#356461"/>
<path d="M15.6436 46.3324C12.5582 46.7228 9.75656 45.6742 8.74146 45.1011C10.2381 48.2568 11.139 50.3431 15.3216 49.8329C19.4204 49.333 20.079 49.9379 21.5594 50.9696C21.0306 49.5934 19.5004 45.8445 15.6436 46.3324Z" fill="#79B9B5"/>
<path d="M22.4071 43.1903C24.6732 41.0726 25.6421 38.2569 25.8432 37.1138C27.3399 40.2694 28.3858 42.2878 25.3284 45.1707C22.3324 47.9959 22.2771 48.6488 22.1358 50.4405C21.4043 49.1594 19.5743 45.8374 22.4071 43.1903Z" fill="#79B9B5"/>
<path d="M39.8752 17.1379C33.8691 7.39634 22.062 9.52588 16.8718 11.9042C21.6573 12.0451 24.4676 15.0154 25.2745 16.4829C18.3161 13.199 13.4816 17.2023 11.9341 19.6144C16.9015 17.7637 21.2016 18.7683 22.7308 19.502C10.0217 19.8469 10.4976 26.8112 12.3242 30.2502C11.7069 22.1039 19.8599 23.8959 28.2083 24.0995C34.887 24.2624 38.7441 19.5903 39.8752 17.1379Z" fill="#356461"/>
<path d="M33.8832 17.9402C34.6972 17.9711 35.3827 17.3242 35.4145 16.4953C35.4463 15.6665 34.8122 14.9696 33.9983 14.9388C33.1844 14.908 32.4988 15.5549 32.467 16.3837C32.4352 17.2125 33.0693 17.9094 33.8832 17.9402Z" fill="#234341"/>
<path d="M40.18 13.5571C41.3917 13.603 42.4125 12.6399 42.4598 11.406C42.5071 10.172 41.5631 9.13449 40.3513 9.08849C39.1395 9.04263 38.1189 10.0057 38.0715 11.2397C38.0242 12.4737 38.9682 13.5113 40.18 13.5571Z" fill="#EAA89F"/>
<path d="M39.1065 6.86337C39.7254 6.88682 40.2468 6.39493 40.2709 5.7647C40.295 5.13447 39.813 4.60457 39.1941 4.58113C38.5752 4.55769 38.0539 5.04958 38.0297 5.67979C38.0056 6.31002 38.4876 6.83992 39.1065 6.86337Z" fill="#EAA89F"/>
<path d="M43.2111 4.62382C43.6301 4.63969 43.9831 4.30665 43.9994 3.87998C44.0158 3.4533 43.6893 3.09456 43.2704 3.07867C42.8513 3.0628 42.4984 3.39583 42.482 3.82251C42.4657 4.24917 42.7922 4.60793 43.2111 4.62382Z" fill="#EAA89F"/>
<path d="M54.116 34.742C55.18 34.742 56.0993 34.9427 56.874 35.344C57.658 35.736 58.2553 36.3007 58.666 37.038C59.086 37.7753 59.296 38.6433 59.296 39.642C59.296 40.6407 59.086 41.5087 58.666 42.246C58.2553 42.974 57.658 43.534 56.874 43.926C56.0993 44.3087 55.18 44.5 54.116 44.5H51.078V34.742H54.116ZM54.116 43.45C55.376 43.45 56.3373 43.1187 57 42.456C57.6627 41.784 57.994 40.846 57.994 39.642C57.994 38.4287 57.658 37.4813 56.986 36.8C56.3233 36.1187 55.3667 35.778 54.116 35.778H52.352V43.45H54.116ZM67.9764 40.37C67.9764 40.6127 67.9624 40.8693 67.9344 41.14H61.8024C61.8491 41.896 62.1058 42.4887 62.5724 42.918C63.0484 43.338 63.6224 43.548 64.2944 43.548C64.8451 43.548 65.3024 43.422 65.6664 43.17C66.0398 42.9087 66.3011 42.5633 66.4504 42.134H67.8224C67.6171 42.8713 67.2064 43.4733 66.5904 43.94C65.9744 44.3973 65.2091 44.626 64.2944 44.626C63.5664 44.626 62.9131 44.4627 62.3344 44.136C61.7651 43.8093 61.3171 43.3473 60.9904 42.75C60.6638 42.1433 60.5004 41.4433 60.5004 40.65C60.5004 39.8567 60.6591 39.1613 60.9764 38.564C61.2938 37.9667 61.7371 37.5093 62.3064 37.192C62.8851 36.8653 63.5478 36.702 64.2944 36.702C65.0224 36.702 65.6664 36.8607 66.2264 37.178C66.7864 37.4953 67.2158 37.934 67.5144 38.494C67.8224 39.0447 67.9764 39.67 67.9764 40.37ZM66.6604 40.104C66.6604 39.6187 66.5531 39.2033 66.3384 38.858C66.1238 38.5033 65.8298 38.2373 65.4564 38.06C65.0924 37.8733 64.6864 37.78 64.2384 37.78C63.5944 37.78 63.0438 37.9853 62.5864 38.396C62.1384 38.8067 61.8818 39.376 61.8164 40.104H66.6604ZM65.6104 34.658L62.6284 36.254V35.302L65.6104 33.552V34.658ZM72.5141 43.324L74.8941 36.828H76.2521L73.2421 44.5H71.7581L68.7481 36.828H70.1201L72.5141 43.324ZM84.5057 40.37C84.5057 40.6127 84.4917 40.8693 84.4637 41.14H78.3317C78.3784 41.896 78.6351 42.4887 79.1017 42.918C79.5777 43.338 80.1517 43.548 80.8237 43.548C81.3744 43.548 81.8317 43.422 82.1957 43.17C82.5691 42.9087 82.8304 42.5633 82.9797 42.134H84.3517C84.1464 42.8713 83.7357 43.4733 83.1197 43.94C82.5037 44.3973 81.7384 44.626 80.8237 44.626C80.0957 44.626 79.4424 44.4627 78.8637 44.136C78.2944 43.8093 77.8464 43.3473 77.5197 42.75C77.1931 42.1433 77.0297 41.4433 77.0297 40.65C77.0297 39.8567 77.1884 39.1613 77.5057 38.564C77.8231 37.9667 78.2664 37.5093 78.8357 37.192C79.4144 36.8653 80.0771 36.702 80.8237 36.702C81.5517 36.702 82.1957 36.8607 82.7557 37.178C83.3157 37.4953 83.7451 37.934 84.0437 38.494C84.3517 39.0447 84.5057 39.67 84.5057 40.37ZM83.1897 40.104C83.1897 39.6187 83.0824 39.2033 82.8677 38.858C82.6531 38.5033 82.3591 38.2373 81.9857 38.06C81.6217 37.8733 81.2157 37.78 80.7677 37.78C80.1237 37.78 79.5731 37.9853 79.1157 38.396C78.6677 38.8067 78.4111 39.376 78.3457 40.104H83.1897ZM87.4614 34.14V44.5H86.1874V34.14H87.4614ZM92.9787 44.626C92.26 44.626 91.6067 44.4627 91.0187 44.136C90.44 43.8093 89.9827 43.3473 89.6467 42.75C89.32 42.1433 89.1567 41.4433 89.1567 40.65C89.1567 39.866 89.3247 39.1753 89.6607 38.578C90.006 37.9713 90.4727 37.5093 91.0607 37.192C91.6487 36.8653 92.3067 36.702 93.0347 36.702C93.7627 36.702 94.4207 36.8653 95.0087 37.192C95.5967 37.5093 96.0587 37.9667 96.3947 38.564C96.74 39.1613 96.9127 39.8567 96.9127 40.65C96.9127 41.4433 96.7354 42.1433 96.3807 42.75C96.0354 43.3473 95.564 43.8093 94.9667 44.136C94.3694 44.4627 93.7067 44.626 92.9787 44.626ZM92.9787 43.506C93.436 43.506 93.8654 43.3987 94.2667 43.184C94.668 42.9693 94.99 42.6473 95.2327 42.218C95.4847 41.7887 95.6107 41.266 95.6107 40.65C95.6107 40.034 95.4894 39.5113 95.2467 39.082C95.004 38.6527 94.6867 38.3353 94.2947 38.13C93.9027 37.9153 93.478 37.808 93.0207 37.808C92.554 37.808 92.1247 37.9153 91.7327 38.13C91.35 38.3353 91.042 38.6527 90.8087 39.082C90.5754 39.5113 90.4587 40.034 90.4587 40.65C90.4587 41.2753 90.5707 41.8027 90.7947 42.232C91.028 42.6613 91.336 42.9833 91.7187 43.198C92.1014 43.4033 92.5214 43.506 92.9787 43.506ZM99.8618 38.242C100.114 37.8033 100.487 37.4393 100.982 37.15C101.486 36.8513 102.069 36.702 102.732 36.702C103.413 36.702 104.029 36.8653 104.58 37.192C105.14 37.5187 105.578 37.9807 105.896 38.578C106.213 39.166 106.372 39.852 106.372 40.636C106.372 41.4107 106.213 42.1013 105.896 42.708C105.578 43.3147 105.14 43.786 104.58 44.122C104.029 44.458 103.413 44.626 102.732 44.626C102.078 44.626 101.5 44.4813 100.996 44.192C100.501 43.8933 100.123 43.5247 99.8618 43.086V48.14H98.5878V36.828H99.8618V38.242ZM105.07 40.636C105.07 40.0573 104.953 39.5533 104.72 39.124C104.486 38.6947 104.169 38.368 103.768 38.144C103.376 37.92 102.942 37.808 102.466 37.808C101.999 37.808 101.565 37.9247 101.164 38.158C100.772 38.382 100.454 38.7133 100.212 39.152C99.9784 39.5813 99.8618 40.0807 99.8618 40.65C99.8618 41.2287 99.9784 41.7373 100.212 42.176C100.454 42.6053 100.772 42.9367 101.164 43.17C101.565 43.394 101.999 43.506 102.466 43.506C102.942 43.506 103.376 43.394 103.768 43.17C104.169 42.9367 104.486 42.6053 104.72 42.176C104.953 41.7373 105.07 41.224 105.07 40.636ZM109.323 38.242C109.575 37.8033 109.948 37.4393 110.443 37.15C110.947 36.8513 111.53 36.702 112.193 36.702C112.874 36.702 113.49 36.8653 114.041 37.192C114.601 37.5187 115.039 37.9807 115.357 38.578C115.674 39.166 115.833 39.852 115.833 40.636C115.833 41.4107 115.674 42.1013 115.357 42.708C115.039 43.3147 114.601 43.786 114.041 44.122C113.49 44.458 112.874 44.626 112.193 44.626C111.539 44.626 110.961 44.4813 110.457 44.192C109.962 43.8933 109.584 43.5247 109.323 43.086V48.14H108.049V36.828H109.323V38.242ZM114.531 40.636C114.531 40.0573 114.414 39.5533 114.181 39.124C113.947 38.6947 113.63 38.368 113.229 38.144C112.837 37.92 112.403 37.808 111.927 37.808C111.46 37.808 111.026 37.9247 110.625 38.158C110.233 38.382 109.915 38.7133 109.673 39.152C109.439 39.5813 109.323 40.0807 109.323 40.65C109.323 41.2287 109.439 41.7373 109.673 42.176C109.915 42.6053 110.233 42.9367 110.625 43.17C111.026 43.394 111.46 43.506 111.927 43.506C112.403 43.506 112.837 43.394 113.229 43.17C113.63 42.9367 113.947 42.6053 114.181 42.176C114.414 41.7373 114.531 41.224 114.531 40.636ZM124.51 40.37C124.51 40.6127 124.496 40.8693 124.468 41.14H118.336C118.382 41.896 118.639 42.4887 119.106 42.918C119.582 43.338 120.156 43.548 120.828 43.548C121.378 43.548 121.836 43.422 122.2 43.17C122.573 42.9087 122.834 42.5633 122.984 42.134H124.356C124.15 42.8713 123.74 43.4733 123.124 43.94C122.508 44.3973 121.742 44.626 120.828 44.626C120.1 44.626 119.446 44.4627 118.868 44.136C118.298 43.8093 117.85 43.3473 117.524 42.75C117.197 42.1433 117.034 41.4433 117.034 40.65C117.034 39.8567 117.192 39.1613 117.51 38.564C117.827 37.9667 118.27 37.5093 118.84 37.192C119.418 36.8653 120.081 36.702 120.828 36.702C121.556 36.702 122.2 36.8607 122.76 37.178C123.32 37.4953 123.749 37.934 124.048 38.494C124.356 39.0447 124.51 39.67 124.51 40.37ZM123.194 40.104C123.194 39.6187 123.086 39.2033 122.872 38.858C122.657 38.5033 122.363 38.2373 121.99 38.06C121.626 37.8733 121.22 37.78 120.772 37.78C120.128 37.78 119.577 37.9853 119.12 38.396C118.672 38.8067 118.415 39.376 118.35 40.104H123.194ZM132.995 36.828V44.5H131.721V43.366C131.479 43.758 131.138 44.066 130.699 44.29C130.27 44.5047 129.794 44.612 129.271 44.612C128.674 44.612 128.137 44.4907 127.661 44.248C127.185 43.996 126.807 43.6227 126.527 43.128C126.257 42.6333 126.121 42.0313 126.121 41.322V36.828H127.381V41.154C127.381 41.91 127.573 42.4933 127.955 42.904C128.338 43.3053 128.861 43.506 129.523 43.506C130.205 43.506 130.741 43.296 131.133 42.876C131.525 42.456 131.721 41.8447 131.721 41.042V36.828H132.995ZM137.862 44.626C137.274 44.626 136.747 44.528 136.28 44.332C135.814 44.1267 135.445 43.8467 135.174 43.492C134.904 43.128 134.754 42.7127 134.726 42.246H136.042C136.08 42.6287 136.257 42.9413 136.574 43.184C136.901 43.4267 137.326 43.548 137.848 43.548C138.334 43.548 138.716 43.4407 138.996 43.226C139.276 43.0113 139.416 42.7407 139.416 42.414C139.416 42.078 139.267 41.8307 138.968 41.672C138.67 41.504 138.208 41.3407 137.582 41.182C137.013 41.0327 136.546 40.8833 136.182 40.734C135.828 40.5753 135.52 40.3467 135.258 40.048C135.006 39.74 134.88 39.3387 134.88 38.844C134.88 38.452 134.997 38.0927 135.23 37.766C135.464 37.4393 135.795 37.1827 136.224 36.996C136.654 36.8 137.144 36.702 137.694 36.702C138.544 36.702 139.23 36.9167 139.752 37.346C140.275 37.7753 140.555 38.3633 140.592 39.11H139.318C139.29 38.7087 139.127 38.3867 138.828 38.144C138.539 37.9013 138.147 37.78 137.652 37.78C137.195 37.78 136.831 37.878 136.56 38.074C136.29 38.27 136.154 38.5267 136.154 38.844C136.154 39.096 136.234 39.306 136.392 39.474C136.56 39.6327 136.766 39.7633 137.008 39.866C137.26 39.9593 137.606 40.0667 138.044 40.188C138.595 40.3373 139.043 40.4867 139.388 40.636C139.734 40.776 140.028 40.9907 140.27 41.28C140.522 41.5693 140.653 41.9473 140.662 42.414C140.662 42.834 140.546 43.212 140.312 43.548C140.079 43.884 139.748 44.15 139.318 44.346C138.898 44.5327 138.413 44.626 137.862 44.626ZM149.461 40.37C149.461 40.6127 149.447 40.8693 149.419 41.14H143.287C143.333 41.896 143.59 42.4887 144.057 42.918C144.533 43.338 145.107 43.548 145.779 43.548C146.329 43.548 146.787 43.422 147.151 43.17C147.524 42.9087 147.785 42.5633 147.935 42.134H149.307C149.101 42.8713 148.691 43.4733 148.075 43.94C147.459 44.3973 146.693 44.626 145.779 44.626C145.051 44.626 144.397 44.4627 143.819 44.136C143.249 43.8093 142.801 43.3473 142.475 42.75C142.148 42.1433 141.985 41.4433 141.985 40.65C141.985 39.8567 142.143 39.1613 142.461 38.564C142.778 37.9667 143.221 37.5093 143.791 37.192C144.369 36.8653 145.032 36.702 145.779 36.702C146.507 36.702 147.151 36.8607 147.711 37.178C148.271 37.4953 148.7 37.934 148.999 38.494C149.307 39.0447 149.461 39.67 149.461 40.37ZM148.145 40.104C148.145 39.6187 148.037 39.2033 147.823 38.858C147.608 38.5033 147.314 38.2373 146.941 38.06C146.577 37.8733 146.171 37.78 145.723 37.78C145.079 37.78 144.528 37.9853 144.071 38.396C143.623 38.8067 143.366 39.376 143.301 40.104H148.145ZM165.095 36.828L162.701 44.5H161.385L159.537 38.41L157.689 44.5H156.373L153.965 36.828H155.267L157.031 43.268L158.935 36.828H160.237L162.099 43.282L163.835 36.828H165.095ZM173.359 40.37C173.359 40.6127 173.345 40.8693 173.317 41.14H167.185C167.232 41.896 167.489 42.4887 167.955 42.918C168.431 43.338 169.005 43.548 169.677 43.548C170.228 43.548 170.685 43.422 171.049 43.17C171.423 42.9087 171.684 42.5633 171.833 42.134H173.205C173 42.8713 172.589 43.4733 171.973 43.94C171.357 44.3973 170.592 44.626 169.677 44.626C168.949 44.626 168.296 44.4627 167.717 44.136C167.148 43.8093 166.7 43.3473 166.373 42.75C166.047 42.1433 165.883 41.4433 165.883 40.65C165.883 39.8567 166.042 39.1613 166.359 38.564C166.677 37.9667 167.12 37.5093 167.689 37.192C168.268 36.8653 168.931 36.702 169.677 36.702C170.405 36.702 171.049 36.8607 171.609 37.178C172.169 37.4953 172.599 37.934 172.897 38.494C173.205 39.0447 173.359 39.67 173.359 40.37ZM172.043 40.104C172.043 39.6187 171.936 39.2033 171.721 38.858C171.507 38.5033 171.213 38.2373 170.839 38.06C170.475 37.8733 170.069 37.78 169.621 37.78C168.977 37.78 168.427 37.9853 167.969 38.396C167.521 38.8067 167.265 39.376 167.199 40.104H172.043ZM176.315 38.256C176.576 37.7987 176.959 37.4253 177.463 37.136C177.967 36.8467 178.541 36.702 179.185 36.702C179.876 36.702 180.496 36.8653 181.047 37.192C181.598 37.5187 182.032 37.9807 182.349 38.578C182.666 39.166 182.825 39.852 182.825 40.636C182.825 41.4107 182.666 42.1013 182.349 42.708C182.032 43.3147 181.593 43.786 181.033 44.122C180.482 44.458 179.866 44.626 179.185 44.626C178.522 44.626 177.939 44.4813 177.435 44.192C176.94 43.9027 176.567 43.534 176.315 43.086V44.5H175.041V34.14H176.315V38.256ZM181.523 40.636C181.523 40.0573 181.406 39.5533 181.173 39.124C180.94 38.6947 180.622 38.368 180.221 38.144C179.829 37.92 179.395 37.808 178.919 37.808C178.452 37.808 178.018 37.9247 177.617 38.158C177.225 38.382 176.908 38.7133 176.665 39.152C176.432 39.5813 176.315 40.0807 176.315 40.65C176.315 41.2287 176.432 41.7373 176.665 42.176C176.908 42.6053 177.225 42.9367 177.617 43.17C178.018 43.394 178.452 43.506 178.919 43.506C179.395 43.506 179.829 43.394 180.221 43.17C180.622 42.9367 180.94 42.6053 181.173 42.176C181.406 41.7373 181.523 41.224 181.523 40.636Z" fill="#2F3733"/>
<path d="M57.6032 14.239C59.112 14.239 60.3608 14.4345 61.3493 14.8254C62.3379 15.1992 63.1183 15.7006 63.6907 16.3294C64.2803 16.9412 64.6879 17.6465 64.9133 18.4452C65.1561 19.2271 65.2776 20.0343 65.2776 20.867V21.8868C65.2776 22.7195 65.1388 23.5438 64.8613 24.3596C64.6012 25.1753 64.1676 25.9146 63.5606 26.5774C62.9536 27.2232 62.1644 27.75 61.1932 28.1579C60.222 28.5658 59.0253 28.7697 57.6032 28.7697C56.181 28.7697 54.9843 28.5658 54.0131 28.1579C53.0419 27.75 52.2528 27.2232 51.6457 26.5774C51.0387 25.9146 50.5964 25.1753 50.3189 24.3596C50.0588 23.5438 49.9287 22.7195 49.9287 21.8868V20.867C49.9287 20.0343 50.0415 19.2271 50.2669 18.4452C50.5097 17.6465 50.9173 16.9412 51.4897 16.3294C52.0793 15.7006 52.8684 15.1992 53.857 14.8254C54.8456 14.4345 56.0943 14.239 57.6032 14.239ZM53.831 21.8868C53.831 22.7365 53.9697 23.4163 54.2472 23.9262C54.542 24.419 54.8802 24.8014 55.2618 25.0733C55.6607 25.3452 56.0769 25.5237 56.5105 25.6086C56.9441 25.6766 57.3083 25.7106 57.6032 25.7106C58.002 25.7106 58.4183 25.6596 58.8519 25.5576C59.2854 25.4387 59.6931 25.2348 60.0746 24.9458C60.4561 24.6569 60.7683 24.2661 61.0111 23.7732C61.2539 23.2803 61.3754 22.6516 61.3754 21.8868V20.867C61.3754 20.1703 61.2539 19.5924 61.0111 19.1336C60.7683 18.6747 60.4561 18.3093 60.0746 18.0374C59.6931 17.7655 59.2854 17.5786 58.8519 17.4766C58.4183 17.3576 58.002 17.2981 57.6032 17.2981C57.2216 17.2981 56.8054 17.3576 56.3544 17.4766C55.9209 17.5786 55.5133 17.7655 55.1318 18.0374C54.7502 18.3093 54.438 18.6747 54.1952 19.1336C53.9524 19.5924 53.831 20.1703 53.831 20.867V21.8868Z" fill="#2F3733"/>
<path d="M71.4003 18.2415C71.487 17.6637 71.6431 17.1539 71.8686 16.712C72.1117 16.2701 72.4585 15.8962 72.9095 15.5903C73.3772 15.2674 73.9757 15.0294 74.7045 14.8765C75.4498 14.7065 76.3779 14.6216 77.488 14.6216H78.2685V18.3944H77.7477C76.7246 18.3944 75.8577 18.4624 75.1462 18.5984C74.4354 18.7343 73.8455 18.9043 73.3772 19.1082C72.9268 19.3122 72.5707 19.5331 72.311 19.771C72.0505 20.009 71.8598 20.2385 71.7384 20.4594C71.6343 20.6633 71.565 20.8418 71.5303 20.9947C71.513 21.1476 71.5044 21.2327 71.5044 21.2496V28.3875H67.6021V14.6216H71.5044L71.1662 17.9101L71.3743 18.1905L71.4003 18.2415Z" fill="#2F3733"/>
<path d="M83.9974 28.3875H80.1477V14.6216H83.9974V28.3875ZM82.5146 13.9842H81.6563C81.2225 13.9842 80.8499 13.8313 80.5376 13.5254C80.2254 13.2195 80.0693 12.8456 80.0693 12.4038V11.588C80.0693 11.1631 80.2254 10.7977 80.5376 10.4918C80.8499 10.1859 81.2225 10.033 81.6563 10.033H82.5146C82.9484 10.033 83.3211 10.1859 83.6333 10.4918C83.9456 10.7977 84.1017 11.1631 84.1017 11.588V12.4038C84.1017 12.8456 83.9456 13.2195 83.6333 13.5254C83.3211 13.8313 82.9484 13.9842 82.5146 13.9842Z" fill="#2F3733"/>
</svg>
