<svg width="120" height="60" viewBox="0 0 120 60" fill="none" xmlns="http://www.w3.org/2000/svg">
<mask id="mask0_453_9554" style="mask-type:alpha" maskUnits="userSpaceOnUse" x="8" y="12" width="38" height="38">
<path fill-rule="evenodd" clip-rule="evenodd" d="M13.009 22.6163C8.21563 30.9186 10.8174 40.9254 18.2021 45.1385C25.5868 49.3515 35.5911 46.5365 40.3844 38.2341C45.1777 29.9317 42.576 19.9249 35.1913 15.7119C27.8067 11.4989 17.8023 14.3139 13.009 22.6163ZM17.138 46.9815C8.51887 42.0642 5.81121 30.6654 11.0903 21.5217C16.3695 12.3778 28.5487 9.68548 36.8359 14.3947C45.123 19.1041 47.5822 30.1849 42.3031 39.3287C37.024 48.4725 25.7572 51.8988 17.138 46.9815Z" fill="#252C29"/>
</mask>
<g mask="url(#mask0_453_9554)">
<path d="M68.6444 20.1817L44.679 61.6914L21.3748 48.3962L45.3402 6.88647L68.6444 20.1817Z" fill="#79B9B5"/>
</g>
<mask id="mask1_453_9554" style="mask-type:alpha" maskUnits="userSpaceOnUse" x="12" y="16" width="29" height="29">
<path fill-rule="evenodd" clip-rule="evenodd" d="M15.461 33.7079C16.9815 40.0116 23.2746 43.6018 29.517 41.7269C35.7594 39.852 39.5872 33.2219 38.0667 26.9182C36.5462 20.6144 30.2531 17.0242 24.0107 18.8992C17.7683 20.7741 13.9405 27.4041 15.461 33.7079ZM30.0234 43.8263C22.6328 46.0461 15.1822 41.7954 13.382 34.3323C11.5818 26.8691 16.1137 19.0195 23.5043 16.7997C30.8949 14.5799 38.3455 18.8306 40.1457 26.2938C41.9459 33.7569 37.414 41.6065 30.0234 43.8263Z" fill="#252C29"/>
</mask>
<g mask="url(#mask1_453_9554)">
<path d="M64.7656 18.9487L43.5779 55.6472L22.3549 43.5393L32.9777 25.14L43.5426 6.84082L64.7656 18.9487Z" fill="#79B9B5"/>
</g>
<mask id="mask2_453_9554" style="mask-type:alpha" maskUnits="userSpaceOnUse" x="16" y="19" width="21" height="22">
<path fill-rule="evenodd" clip-rule="evenodd" d="M18.915 32.0014C19.7896 36.2252 23.8755 38.7299 28.0204 37.6296C32.1652 36.5293 34.8423 32.2292 33.9678 28.0056C33.0932 23.7818 29.0073 21.2771 24.8624 22.3773C20.7175 23.4776 18.0405 27.7777 18.915 32.0014ZM28.4578 39.7419C23.1409 41.1533 17.928 37.9374 16.8144 32.5591C15.7008 27.1807 19.1082 21.6765 24.425 20.265C29.7419 18.8537 34.9547 22.0695 36.0684 27.448C37.182 32.8263 33.7746 38.3305 28.4578 39.7419Z" fill="#252C29"/>
</mask>
<g mask="url(#mask2_453_9554)">
<path d="M64.6499 18.2669L45.4927 51.4484L25.144 39.9406L32.1224 18.5933L43.9608 6.46362L64.6499 18.2669Z" fill="#79B9B5"/>
</g>
<path d="M18.7095 34.4608C21.7949 34.0705 24.5965 35.1191 25.6116 35.6922C24.1149 32.5366 23.2141 30.4503 19.0315 30.9604C14.9326 31.4604 14.2741 30.8554 12.7937 29.8237C13.3225 31.1999 14.8527 34.9489 18.7095 34.4608Z" fill="#356461"/>
<path d="M11.9459 37.6028C9.67976 39.7205 8.71091 42.5362 8.50976 43.6793C7.01314 40.5237 5.96725 38.5053 9.02451 35.6224C12.0206 32.7973 12.0759 32.1444 12.2172 30.3525C12.9487 31.6337 14.7787 34.9558 11.9459 37.6028Z" fill="#356461"/>
<path d="M15.6436 45.8324C12.5582 46.2228 9.75656 45.1742 8.74146 44.6011C10.2381 47.7568 11.139 49.8431 15.3216 49.3329C19.4204 48.833 20.079 49.4379 21.5594 50.4696C21.0306 49.0934 19.5004 45.3445 15.6436 45.8324Z" fill="#79B9B5"/>
<path d="M22.4071 42.6903C24.6732 40.5726 25.6421 37.7569 25.8432 36.6138C27.3399 39.7694 28.3858 41.7878 25.3284 44.6707C22.3324 47.4959 22.2771 48.1488 22.1358 49.9405C21.4043 48.6594 19.5743 45.3374 22.4071 42.6903Z" fill="#79B9B5"/>
<path d="M39.8752 16.6379C33.8691 6.89634 22.062 9.02588 16.8718 11.4042C21.6573 11.5451 24.4676 14.5154 25.2745 15.9829C18.3161 12.699 13.4816 16.7023 11.9341 19.1144C16.9015 17.2637 21.2016 18.2683 22.7308 19.002C10.0217 19.3469 10.4976 26.3112 12.3242 29.7502C11.7069 21.6039 19.8599 23.3959 28.2083 23.5995C34.887 23.7624 38.7441 19.0903 39.8752 16.6379Z" fill="#356461"/>
<path d="M33.8832 17.4402C34.6972 17.4711 35.3827 16.8242 35.4145 15.9953C35.4463 15.1665 34.8122 14.4696 33.9983 14.4388C33.1844 14.408 32.4988 15.0549 32.467 15.8837C32.4352 16.7125 33.0693 17.4094 33.8832 17.4402Z" fill="#234341"/>
<path d="M40.18 13.0571C41.3917 13.103 42.4125 12.1399 42.4598 10.906C42.5071 9.67204 41.5631 8.63449 40.3513 8.58849C39.1395 8.54263 38.1189 9.50574 38.0715 10.7397C38.0242 11.9737 38.9682 13.0113 40.18 13.0571Z" fill="#EAA89F"/>
<path d="M39.1065 6.36337C39.7254 6.38682 40.2468 5.89493 40.2709 5.2647C40.295 4.63447 39.813 4.10457 39.1941 4.08113C38.5752 4.05769 38.0539 4.54958 38.0297 5.17979C38.0056 5.81002 38.4876 6.33992 39.1065 6.36337Z" fill="#EAA89F"/>
<path d="M43.2111 4.12382C43.6301 4.13969 43.9831 3.80665 43.9994 3.37998C44.0158 2.9533 43.6893 2.59456 43.2704 2.57867C42.8513 2.5628 42.4984 2.89583 42.482 3.32251C42.4657 3.74917 42.7922 4.10793 43.2111 4.12382Z" fill="#EAA89F"/>
<path d="M58.4949 30.6299C59.1331 30.6299 59.7631 30.705 60.3845 30.8554C61.0228 31.0057 61.5938 31.2562 62.0977 31.6069C62.6016 31.941 63.0047 32.3919 63.3071 32.9598C63.6262 33.511 63.7857 34.1958 63.7857 35.0143V44.5346H60.0066V37.5196C60.0066 36.8348 59.9394 36.2419 59.805 35.7408C59.6874 35.2397 59.5027 34.8305 59.2507 34.5132C58.9988 34.1791 58.6797 33.937 58.2933 33.7866C57.9238 33.6196 57.4871 33.5361 56.9832 33.5361C56.5465 33.5361 56.1686 33.5778 55.8495 33.6613C55.5303 33.7281 55.2532 33.8284 55.018 33.962C54.7829 34.0956 54.5813 34.2459 54.4134 34.413C54.2622 34.5799 54.1362 34.7554 54.0355 34.9391C53.9347 35.1228 53.8591 35.3065 53.8087 35.4903C53.7583 35.674 53.7247 35.8493 53.7079 36.0164V44.5346H49.9287V31.0057H53.7079L53.3049 34.413L53.4812 34.5883C53.5651 33.937 53.7415 33.3691 54.0102 32.8847C54.279 32.3836 54.6233 31.9661 55.0433 31.632C55.48 31.298 55.9838 31.0474 56.5549 30.8804C57.1428 30.7133 57.7895 30.6299 58.4949 30.6299Z" fill="#2F3733"/>
<path d="M73.4144 30.6548C74.6569 30.6548 75.69 30.8301 76.513 31.1809C77.336 31.515 77.9914 31.9659 78.4784 32.5338C78.982 33.1017 79.3346 33.7531 79.5367 34.488C79.7382 35.2062 79.8389 35.9411 79.8389 36.6927V44.5345H76.0597L76.3367 42.2046L76.1605 42.0041V41.954C76.0928 42.3883 75.959 42.7891 75.7576 43.1566C75.5554 43.5073 75.2871 43.8163 74.9511 44.0835C74.6151 44.3341 74.2036 44.5261 73.7166 44.6598C73.2295 44.8101 72.6669 44.8936 72.0281 44.9103H72.0029C71.3818 44.9103 70.7183 44.8602 70.0129 44.76C69.3242 44.6598 68.686 44.4677 68.0981 44.1837C67.5102 43.8998 67.0231 43.499 66.6368 42.9812C66.2505 42.4467 66.0574 41.7619 66.0574 40.9268C66.0574 40.4424 66.1161 39.9413 66.2337 39.4235C66.3513 38.9058 66.6116 38.4298 67.0147 37.9955C67.4346 37.5612 68.0393 37.2105 68.8287 36.9433C69.6182 36.6593 70.6764 36.5173 72.0029 36.5173H76.0597V35.9411C76.0597 35.3899 75.959 34.9556 75.7576 34.6383C75.5554 34.3209 75.3123 34.0788 75.0267 33.9117C74.741 33.7447 74.4468 33.6445 74.1446 33.6111C73.859 33.561 73.6159 33.536 73.4144 33.536C73.2123 33.536 72.9525 33.5526 72.6331 33.586C72.3137 33.6194 72.0029 33.7113 71.7009 33.8617C71.4154 34.012 71.1634 34.2375 70.9451 34.5381C70.7267 34.8388 70.6176 35.248 70.6176 35.7658H66.8887C66.8887 35.0977 67.0064 34.463 67.2415 33.8617C67.4767 33.2436 67.8546 32.7008 68.3752 32.2332C68.8959 31.7488 69.5678 31.3646 70.3908 31.0807C71.2306 30.7967 72.2382 30.6548 73.4144 30.6548ZM71.9526 42.2797C72.6583 42.2797 73.2461 42.2296 73.7166 42.1294C74.2036 42.0291 74.5986 41.9039 74.9008 41.7536C75.2029 41.6033 75.4295 41.4362 75.5806 41.2525C75.749 41.0687 75.8662 40.8934 75.9338 40.7263C76.0008 40.5593 76.0346 40.4174 76.0346 40.3005C76.0511 40.1668 76.0597 40.075 76.0597 40.0248V39.148L72.0029 39.0477C71.7345 39.0477 71.4658 39.0728 71.197 39.1229C70.9451 39.1564 70.71 39.2315 70.4916 39.3484C70.29 39.4486 70.122 39.5906 69.9877 39.7743C69.8701 39.958 69.8113 40.1835 69.8113 40.4508C69.8113 40.6846 69.8617 40.9101 69.9625 41.1272C70.0633 41.3276 70.2061 41.5197 70.3908 41.7034C70.5756 41.8705 70.7939 42.0125 71.0459 42.1294C71.3146 42.2296 71.6169 42.2797 71.9526 42.2797Z" fill="#2F3733"/>
<path d="M91.8488 45.5868C91.6474 46.0879 91.4208 46.589 91.1683 47.09C90.9165 47.5911 90.5891 48.0421 90.1863 48.4429C89.7999 48.8438 89.3042 49.1695 88.6992 49.4201C88.1114 49.6706 87.364 49.7959 86.4575 49.7959H82.5517V47.04H85.4496C86.0712 47.04 86.5748 47.0149 86.9611 46.9648C87.3474 46.9314 87.6668 46.8395 87.9186 46.6892C88.1704 46.5389 88.3719 46.3134 88.5229 46.0127C88.6913 45.7288 88.8589 45.3363 89.0273 44.8352L89.2287 44.284H86.0035L81.292 31.0056H84.9453L89.0776 43.7829H89.405L93.7632 31.0056H97.4165L92.3776 44.284L91.8488 45.5868Z" fill="#2F3733"/>
<path d="M105.375 30.6548C106.618 30.6548 107.65 30.8301 108.473 31.1809C109.296 31.515 109.952 31.9659 110.439 32.5338C110.942 33.1017 111.296 33.7531 111.497 34.488C111.699 35.2062 111.799 35.9411 111.799 36.6927V44.5345H108.02L108.297 42.2046L108.121 42.0041V41.954C108.054 42.3883 107.919 42.7891 107.718 43.1566C107.517 43.5073 107.247 43.8163 106.911 44.0835C106.575 44.3341 106.164 44.5261 105.677 44.6598C105.19 44.8101 104.627 44.8936 103.989 44.9103H103.964C103.342 44.9103 102.679 44.8602 101.973 44.76C101.285 44.6598 100.647 44.4677 100.059 44.1837C99.4707 43.8998 98.9836 43.499 98.5973 42.9812C98.211 42.4467 98.0181 41.7619 98.0181 40.9268C98.0181 40.4424 98.0771 39.9413 98.1944 39.4235C98.3124 38.9058 98.5721 38.4298 98.9757 37.9955C99.3951 37.5612 100 37.2105 100.789 36.9433C101.579 36.6593 102.637 36.5173 103.964 36.5173H108.02V35.9411C108.02 35.3899 107.919 34.9556 107.718 34.6383C107.517 34.3209 107.273 34.0788 106.987 33.9117C106.701 33.7447 106.408 33.6445 106.106 33.6111C105.82 33.561 105.576 33.536 105.375 33.536C105.173 33.536 104.913 33.5526 104.593 33.586C104.275 33.6194 103.964 33.7113 103.662 33.8617C103.376 34.012 103.124 34.2375 102.906 34.5381C102.687 34.8388 102.578 35.248 102.578 35.7658H98.8498C98.8498 35.0977 98.9671 34.463 99.2023 33.8617C99.4376 33.2436 99.8153 32.7008 100.336 32.2332C100.857 31.7488 101.528 31.3646 102.351 31.0807C103.191 30.7967 104.199 30.6548 105.375 30.6548ZM103.914 42.2797C104.619 42.2797 105.206 42.2296 105.677 42.1294C106.164 42.0291 106.559 41.9039 106.861 41.7536C107.163 41.6033 107.391 41.4362 107.542 41.2525C107.709 41.0687 107.827 40.8934 107.894 40.7263C107.961 40.5593 107.995 40.4174 107.995 40.3005C108.011 40.1668 108.02 40.075 108.02 40.0248V39.148L103.964 39.0477C103.695 39.0477 103.427 39.0728 103.158 39.1229C102.906 39.1564 102.67 39.2315 102.452 39.3484C102.25 39.4486 102.083 39.5906 101.948 39.7743C101.831 39.958 101.772 40.1835 101.772 40.4508C101.772 40.6846 101.822 40.9101 101.923 41.1272C102.024 41.3276 102.167 41.5197 102.351 41.7034C102.536 41.8705 102.755 42.0125 103.006 42.1294C103.276 42.2296 103.578 42.2797 103.914 42.2797Z" fill="#2F3733"/>
<path d="M57.6032 13.739C59.112 13.739 60.3608 13.9345 61.3493 14.3254C62.3379 14.6992 63.1183 15.2006 63.6907 15.8294C64.2803 16.4412 64.6879 17.1465 64.9133 17.9452C65.1561 18.7271 65.2776 19.5343 65.2776 20.367V21.3868C65.2776 22.2195 65.1388 23.0438 64.8613 23.8596C64.6012 24.6753 64.1676 25.4146 63.5606 26.0774C62.9536 26.7232 62.1644 27.25 61.1932 27.6579C60.222 28.0658 59.0253 28.2697 57.6032 28.2697C56.181 28.2697 54.9843 28.0658 54.0131 27.6579C53.0419 27.25 52.2528 26.7232 51.6457 26.0774C51.0387 25.4146 50.5964 24.6753 50.3189 23.8596C50.0588 23.0438 49.9287 22.2195 49.9287 21.3868V20.367C49.9287 19.5343 50.0415 18.7271 50.2669 17.9452C50.5097 17.1465 50.9173 16.4412 51.4897 15.8294C52.0793 15.2006 52.8684 14.6992 53.857 14.3254C54.8456 13.9345 56.0943 13.739 57.6032 13.739ZM53.831 21.3868C53.831 22.2365 53.9697 22.9163 54.2472 23.4262C54.542 23.919 54.8802 24.3014 55.2618 24.5733C55.6607 24.8452 56.0769 25.0237 56.5105 25.1086C56.9441 25.1766 57.3083 25.2106 57.6032 25.2106C58.002 25.2106 58.4183 25.1596 58.8519 25.0576C59.2854 24.9387 59.6931 24.7348 60.0746 24.4458C60.4561 24.1569 60.7683 23.7661 61.0111 23.2732C61.2539 22.7803 61.3754 22.1516 61.3754 21.3868V20.367C61.3754 19.6703 61.2539 19.0924 61.0111 18.6336C60.7683 18.1747 60.4561 17.8093 60.0746 17.5374C59.6931 17.2655 59.2854 17.0786 58.8519 16.9766C58.4183 16.8576 58.002 16.7981 57.6032 16.7981C57.2216 16.7981 56.8054 16.8576 56.3544 16.9766C55.9209 17.0786 55.5133 17.2655 55.1318 17.5374C54.7502 17.8093 54.438 18.1747 54.1952 18.6336C53.9524 19.0924 53.831 19.6703 53.831 20.367V21.3868Z" fill="#2F3733"/>
<path d="M71.4003 17.7415C71.487 17.1637 71.6431 16.6539 71.8686 16.212C72.1117 15.7701 72.4585 15.3962 72.9095 15.0903C73.3772 14.7674 73.9757 14.5294 74.7045 14.3765C75.4498 14.2065 76.3779 14.1216 77.488 14.1216H78.2685V17.8944H77.7477C76.7246 17.8944 75.8577 17.9624 75.1462 18.0984C74.4354 18.2343 73.8455 18.4043 73.3772 18.6082C72.9268 18.8122 72.5707 19.0331 72.311 19.271C72.0505 19.509 71.8598 19.7385 71.7384 19.9594C71.6343 20.1633 71.565 20.3418 71.5303 20.4947C71.513 20.6476 71.5044 20.7327 71.5044 20.7496V27.8875H67.6021V14.1216H71.5044L71.1662 17.4101L71.3743 17.6905L71.4003 17.7415Z" fill="#2F3733"/>
<path d="M83.9974 27.8875H80.1477V14.1216H83.9974V27.8875ZM82.5146 13.4842H81.6563C81.2225 13.4842 80.8499 13.3313 80.5376 13.0254C80.2254 12.7195 80.0693 12.3456 80.0693 11.9038V11.088C80.0693 10.6631 80.2254 10.2977 80.5376 9.9918C80.8499 9.68586 81.2225 9.53296 81.6563 9.53296H82.5146C82.9484 9.53296 83.3211 9.68586 83.6333 9.9918C83.9456 10.2977 84.1017 10.6631 84.1017 11.088V11.9038C84.1017 12.3456 83.9456 12.7195 83.6333 13.0254C83.3211 13.3313 82.9484 13.4842 82.5146 13.4842Z" fill="#2F3733"/>
</svg>
