<svg width="1440" height="337" viewBox="0 0 1440 337" fill="none" xmlns="http://www.w3.org/2000/svg">
<path d="M-98 131.806H-61.3657C-24.7314 131.806 48.3236 131.806 122.019 125.819C194.968 120.057 268.343 107.749 340.971 119.889C414.667 131.806 488.362 167.611 560.99 170.576C634.366 173.765 707.314 143.554 781.01 152.673C854.065 161.457 927.333 209.571 1001.03 215.333C1073.76 221.319 1147.35 185.514 1219.98 167.611C1293.57 149.708 1366.3 149.708 1403.69 149.708H1440V96H1403.37C1366.73 96 1293.68 96 1219.98 96C1147.03 96 1073.66 96 1001.03 96C927.333 96 853.637 96 781.01 96C707.634 96 634.686 96 560.99 96C487.935 96 414.667 96 340.971 96C268.236 96 194.647 96 122.019 96C48.4304 96 -24.3042 96 -61.6861 96H-98V131.806Z" fill="#468681"/>
<path d="M1440 83.4929H1403.37C1366.73 83.4929 1293.68 83.4929 1219.98 89.4292C1147.03 95.1436 1073.66 107.349 1001.03 95.3101C927.333 83.4929 853.638 47.9857 781.01 45.0453C707.634 41.8829 634.686 71.8421 560.99 62.7989C487.935 54.0885 414.667 6.37578 340.971 0.66135C268.236 -5.275 194.647 30.2321 122.02 47.9857C48.4304 65.7393 -24.3041 65.7393 -61.686 65.7393H-97.9999V119H-61.3656C-24.7313 119 48.3237 119 122.02 119C194.968 119 268.343 119 340.971 119C414.667 119 488.363 119 560.99 119C634.366 119 707.314 119 781.01 119C854.065 119 927.333 119 1001.03 119C1073.76 119 1147.35 119 1219.98 119C1293.57 119 1366.3 119 1403.69 119H1440V83.4929Z" fill="#468681"/>
<path d="M-4 210.667H30.3C64.6 210.667 133 210.667 202 214.589C270.3 218.364 339 226.427 407 218.474C476 210.667 545 187.211 613 185.268C681.7 183.179 750 202.971 819 196.997C887.4 191.242 956 159.722 1025 155.947C1093.1 152.026 1162 175.482 1230 187.211C1298.9 198.939 1367 198.939 1402 198.939H1436V234.124H1401.7C1367.4 234.124 1299 234.124 1230 234.124C1161.7 234.124 1093 234.124 1025 234.124C956 234.124 887 234.124 819 234.124C750.3 234.124 682 234.124 613 234.124C544.6 234.124 476 234.124 407 234.124C338.9 234.124 270 234.124 202 234.124C133.1 234.124 65 234.124 30 234.124H-4V210.667Z" fill="#2F3733"/>
<path d="M1440 253.612H1405.6C1371.21 253.612 1302.62 253.612 1233.43 247.825C1164.94 242.255 1096.05 230.357 1027.86 242.093C958.667 253.612 889.475 288.224 821.286 291.09C752.395 294.173 683.906 264.969 614.714 273.784C546.124 282.275 477.333 328.785 408.142 334.355C339.852 340.142 270.761 305.53 202.572 288.224C133.481 270.918 65.1917 270.918 30.0944 270.918H-4V219H30.3953C64.7905 219 133.38 219 202.572 219C271.062 219 339.953 219 408.142 219C477.333 219 546.525 219 614.714 219C683.605 219 752.094 219 821.286 219C889.876 219 958.667 219 1027.86 219C1096.15 219 1165.24 219 1233.43 219C1302.52 219 1370.81 219 1405.91 219H1440V253.612Z" fill="#2F3733"/>
<path d="M-4 210.007H30.3953C64.7906 210.007 133.381 210.007 202.572 200.977C271.062 192.286 339.953 173.721 408.142 192.033C477.333 210.007 546.525 264.013 614.714 268.486C683.605 273.296 752.094 227.728 821.286 241.482C889.876 254.731 958.667 327.302 1027.86 335.994C1096.15 345.023 1165.24 291.017 1233.43 264.013C1302.52 237.01 1370.81 237.01 1405.91 237.01H1440V156H1405.6C1371.21 156 1302.62 156 1233.43 156C1164.94 156 1096.05 156 1027.86 156C958.667 156 889.475 156 821.286 156C752.395 156 683.906 156 614.714 156C546.124 156 477.333 156 408.142 156C339.853 156 270.761 156 202.572 156C133.481 156 65.1917 156 30.0944 156H-4V210.007Z" fill="#9BCAC7"/>
<path d="M1440 128.171H1405.6C1371.21 128.171 1302.62 128.171 1233.43 136.502C1164.94 144.521 1096.05 161.65 1027.86 144.754C958.668 128.171 889.476 78.3413 821.287 74.2148C752.397 69.7769 683.907 111.82 614.716 99.1295C546.126 86.9057 477.335 19.9475 408.144 11.9281C339.855 3.59727 270.763 53.4266 202.575 78.3413C133.483 103.256 65.1943 103.256 30.0973 103.256H-3.99719V178H30.3981C64.7933 178 133.383 178 202.575 178C271.064 178 339.955 178 408.144 178C477.335 178 546.527 178 614.716 178C683.606 178 752.096 178 821.287 178C889.877 178 958.668 178 1027.86 178C1096.15 178 1165.24 178 1233.43 178C1302.52 178 1370.81 178 1405.91 178H1440V128.171Z" fill="#9BCAC7"/>
<rect x="-3.99731" y="123.51" width="518.435" height="122" fill="#9BCAC7"/>
<ellipse cx="140.16" cy="122.916" rx="82.5964" ry="71.8699" fill="#9BCAC7"/>
<mask id="mask0_48_10611" style="mask-type:alpha" maskUnits="userSpaceOnUse" x="50" y="41" width="181" height="164">
<path d="M225.567 123.254C225.567 164.951 187.992 199.594 140.549 199.594C93.105 199.594 55.5298 164.951 55.5298 123.254C55.5298 81.5574 93.105 46.9141 140.549 46.9141C187.992 46.9141 225.567 81.5574 225.567 123.254Z" stroke="#252C29" stroke-width="10" stroke-miterlimit="10"/>
</mask>
<g mask="url(#mask0_48_10611)">
<rect x="0.880127" y="-18.4011" width="278.56" height="142.125" fill="#2F3733"/>
</g>
<mask id="mask1_48_10611" style="mask-type:alpha" maskUnits="userSpaceOnUse" x="72" y="61" width="136" height="124">
<path d="M183.899 83.2427C208.18 105.335 208.18 141.155 183.899 163.247C159.618 185.34 120.25 185.34 95.969 163.247C71.6878 141.155 71.6878 105.335 95.969 83.2427C120.25 61.15 159.618 61.1501 183.899 83.2427Z" stroke="#252C29" stroke-width="10" stroke-miterlimit="10"/>
</mask>
<g mask="url(#mask1_48_10611)">
<path d="M3.38403 -1.17676H280.846V108.798H141.736H3.38403V-1.17676Z" fill="#2F3733"/>
</g>
<mask id="mask2_48_10611" style="mask-type:alpha" maskUnits="userSpaceOnUse" x="91" y="79" width="98" height="89">
<path d="M171.255 96.5094C187.432 112.216 186.582 136.923 169.263 151.69C151.943 166.457 124.791 165.625 108.614 149.919C92.4373 134.212 93.2867 109.505 110.606 94.738C127.926 79.9707 155.078 80.8026 171.255 96.5094Z" stroke="#252C29" stroke-width="10" stroke-miterlimit="10"/>
</mask>
<g mask="url(#mask2_48_10611)">
<rect x="2.72095" y="-0.476807" width="277.684" height="109.96" fill="#2F3733"/>
</g>
<mask id="mask3_48_10611" style="mask-type:alpha" maskUnits="userSpaceOnUse" x="113" y="99" width="54" height="49">
<path d="M161.049 123.254C161.049 133.185 152.047 142.021 139.927 142.021C127.807 142.021 118.805 133.185 118.805 123.254C118.805 113.322 127.807 104.486 139.927 104.486C152.047 104.486 161.049 113.322 161.049 123.254Z" stroke="#252C29" stroke-width="10" stroke-miterlimit="10"/>
</mask>
<g mask="url(#mask3_48_10611)">
<rect x="2.7207" y="-0.476562" width="277.684" height="122.178" fill="#2F3733"/>
</g>
<ellipse cx="331.265" cy="122.916" rx="82.5964" ry="71.8699" fill="#9BCAC7"/>
<mask id="mask4_48_10611" style="mask-type:alpha" maskUnits="userSpaceOnUse" x="241" y="41" width="181" height="164">
<path d="M416.672 123.254C416.672 164.951 379.097 199.594 331.654 199.594C284.21 199.594 246.635 164.951 246.635 123.254C246.635 81.5574 284.21 46.9141 331.654 46.9141C379.097 46.9141 416.672 81.5574 416.672 123.254Z" stroke="#252C29" stroke-width="10" stroke-miterlimit="10"/>
</mask>
<g mask="url(#mask4_48_10611)">
<rect x="191.985" y="-18.4011" width="278.56" height="142.125" fill="#2F3733"/>
</g>
<mask id="mask5_48_10611" style="mask-type:alpha" maskUnits="userSpaceOnUse" x="263" y="61" width="136" height="124">
<path d="M375.004 83.2427C399.286 105.335 399.286 141.155 375.004 163.247C350.723 185.34 311.356 185.34 287.074 163.247C262.793 141.155 262.793 105.335 287.074 83.2427C311.356 61.15 350.723 61.1501 375.004 83.2427Z" stroke="#252C29" stroke-width="10" stroke-miterlimit="10"/>
</mask>
<g mask="url(#mask5_48_10611)">
<path d="M195.224 -0.635742H472.165V109.188H333.317H195.224V-0.635742Z" fill="#2F3733"/>
</g>
<mask id="mask6_48_10611" style="mask-type:alpha" maskUnits="userSpaceOnUse" x="282" y="79" width="98" height="89">
<path d="M362.36 96.5094C378.537 112.216 377.687 136.923 360.368 151.69C343.048 166.457 315.896 165.625 299.719 149.919C283.543 134.212 284.392 109.505 301.712 94.738C319.031 79.9707 346.183 80.8026 362.36 96.5094Z" stroke="#252C29" stroke-width="10" stroke-miterlimit="10"/>
</mask>
<g mask="url(#mask6_48_10611)">
<rect x="193.826" y="-0.476807" width="277.684" height="109.96" fill="#2F3733"/>
</g>
<mask id="mask7_48_10611" style="mask-type:alpha" maskUnits="userSpaceOnUse" x="304" y="99" width="54" height="49">
<path d="M352.154 123.254C352.154 133.185 343.153 142.021 331.032 142.021C318.912 142.021 309.91 133.185 309.91 123.254C309.91 113.322 318.912 104.486 331.032 104.486C343.153 104.486 352.154 113.322 352.154 123.254Z" stroke="#252C29" stroke-width="10" stroke-miterlimit="10"/>
</mask>
<g mask="url(#mask7_48_10611)">
<rect x="193.825" y="-0.476562" width="277.684" height="122.178" fill="#2F3733"/>
</g>
<ellipse cx="235.909" cy="152.249" rx="82.2276" ry="70.5" fill="#9BCAC7"/>
<mask id="mask8_48_10611" style="mask-type:alpha" maskUnits="userSpaceOnUse" x="146" y="77" width="181" height="164">
<path d="M321.362 159.254C321.362 200.951 283.787 235.594 236.343 235.594C188.9 235.594 151.325 200.951 151.325 159.254C151.325 117.557 188.9 82.9141 236.343 82.9141C283.787 82.9141 321.362 117.557 321.362 159.254Z" stroke="#252C29" stroke-width="10" stroke-miterlimit="10"/>
</mask>
<g mask="url(#mask8_48_10611)">
<rect x="96.9763" y="18.0474" width="277.514" height="121.158" fill="#2F3733"/>
</g>
<mask id="mask9_48_10611" style="mask-type:alpha" maskUnits="userSpaceOnUse" x="168" y="97" width="136" height="124">
<path d="M279.694 119.243C303.976 141.335 303.976 177.155 279.694 199.247C255.413 221.34 216.045 221.34 191.764 199.247C167.483 177.155 167.483 141.335 191.764 119.243C216.045 97.15 255.413 97.1501 279.694 119.243Z" stroke="#252C29" stroke-width="10" stroke-miterlimit="10"/>
</mask>
<g mask="url(#mask9_48_10611)">
<path d="M99.9141 35.3643H376.855V146.803H238.006H99.9141V35.3643Z" fill="#2F3733"/>
</g>
<mask id="mask10_48_10611" style="mask-type:alpha" maskUnits="userSpaceOnUse" x="187" y="115" width="97" height="89">
<path d="M267.05 132.51C283.226 148.217 282.377 172.923 265.058 187.69C247.738 202.458 220.586 201.626 204.409 185.919C188.232 170.212 189.082 145.506 206.401 130.738C223.721 115.971 250.873 116.803 267.05 132.51Z" stroke="#252C29" stroke-width="10" stroke-miterlimit="10"/>
</mask>
<g mask="url(#mask10_48_10611)">
<rect x="98.5161" y="35.5232" width="277.684" height="109.96" fill="#2F3733"/>
</g>
<mask id="mask11_48_10611" style="mask-type:alpha" maskUnits="userSpaceOnUse" x="209" y="135" width="53" height="49">
<path d="M256.844 159.254C256.844 169.185 247.842 178.021 235.722 178.021C223.601 178.021 214.6 169.185 214.6 159.254C214.6 149.322 223.601 140.486 235.722 140.486C247.842 140.486 256.844 149.322 256.844 159.254Z" stroke="#252C29" stroke-width="10" stroke-miterlimit="10"/>
</mask>
<g mask="url(#mask11_48_10611)">
<rect x="98.5156" y="35.5232" width="277.684" height="122.178" fill="#2F3733"/>
</g>
<ellipse cx="516.732" cy="175.916" rx="82.5964" ry="71.8699" fill="#9BCAC7"/>
<mask id="mask12_48_10611" style="mask-type:alpha" maskUnits="userSpaceOnUse" x="427" y="94" width="181" height="164">
<path d="M602.139 176.254C602.139 217.951 564.564 252.594 517.121 252.594C469.677 252.594 432.102 217.951 432.102 176.254C432.102 134.557 469.677 99.9141 517.121 99.9141C564.564 99.9141 602.139 134.557 602.139 176.254Z" stroke="#252C29" stroke-width="10" stroke-miterlimit="10"/>
</mask>
<g mask="url(#mask12_48_10611)">
<rect x="377.058" y="34.5105" width="278.772" height="131" fill="#2F3733"/>
</g>
<mask id="mask13_48_10611" style="mask-type:alpha" maskUnits="userSpaceOnUse" x="449" y="114" width="135" height="124">
<path d="M560.471 136.243C584.753 158.335 584.753 194.155 560.471 216.247C536.19 238.34 496.823 238.34 472.541 216.247C448.26 194.155 448.26 158.335 472.541 136.243C496.823 114.15 536.19 114.15 560.471 136.243Z" stroke="#252C29" stroke-width="10" stroke-miterlimit="10"/>
</mask>
<g mask="url(#mask13_48_10611)">
<path d="M381.069 52.5105H657.835V162.51H519.074H381.069V52.5105Z" fill="#2F3733"/>
</g>
<mask id="mask14_48_10611" style="mask-type:alpha" maskUnits="userSpaceOnUse" x="468" y="132" width="97" height="89">
<path d="M547.827 149.509C564.004 165.216 563.155 189.923 545.835 204.69C528.515 219.457 501.363 218.625 485.186 202.919C469.01 187.212 469.859 162.505 487.179 147.738C504.498 132.971 531.65 133.803 547.827 149.509Z" stroke="#252C29" stroke-width="10" stroke-miterlimit="10"/>
</mask>
<g mask="url(#mask14_48_10611)">
<rect x="379.293" y="52.5232" width="277.684" height="109.96" fill="#2F3733"/>
</g>
<mask id="mask15_48_10611" style="mask-type:alpha" maskUnits="userSpaceOnUse" x="490" y="152" width="53" height="49">
<path d="M537.621 176.254C537.621 186.185 528.62 195.021 516.499 195.021C504.379 195.021 495.377 186.185 495.377 176.254C495.377 166.322 504.379 157.486 516.499 157.486C528.62 157.486 537.621 166.322 537.621 176.254Z" stroke="#252C29" stroke-width="10" stroke-miterlimit="10"/>
</mask>
<g mask="url(#mask15_48_10611)">
<rect x="379.292" y="52.5234" width="277.684" height="122.178" fill="#2F3733"/>
</g>
<path fill-rule="evenodd" clip-rule="evenodd" d="M599.664 165.51H758.112C760.874 165.51 763.112 163.272 763.112 160.51C763.112 157.749 760.874 155.51 758.112 155.51H596.502C597.894 158.728 598.96 162.068 599.664 165.51ZM444.234 165.51C444.948 162.068 446.026 158.728 447.428 155.51H92.2693V165.51H444.234Z" fill="#2F3733"/>
<ellipse cx="418.673" cy="192.01" rx="82.729" ry="53.5" fill="#9BCAC7"/>
<mask id="mask16_48_10611" style="mask-type:alpha" maskUnits="userSpaceOnUse" x="328" y="128" width="181" height="164">
<path d="M503.741 210.157C503.741 251.854 466.166 286.497 418.723 286.497C371.279 286.497 333.704 251.854 333.704 210.157C333.704 168.461 371.279 133.817 418.723 133.817C466.166 133.817 503.741 168.461 503.741 210.157Z" stroke="#252C29" stroke-width="10" stroke-miterlimit="10"/>
</mask>
<g mask="url(#mask16_48_10611)">
<path d="M281.784 68.9504H559.298V190.109H281.784V68.9504Z" fill="#2F3733"/>
</g>
<mask id="mask17_48_10611" style="mask-type:alpha" maskUnits="userSpaceOnUse" x="350" y="148" width="136" height="124">
<path d="M462.074 170.146C486.355 192.239 486.355 228.058 462.074 250.151C437.792 272.243 398.425 272.243 374.143 250.151C349.862 228.058 349.862 192.239 374.143 170.146C398.425 148.053 437.792 148.053 462.074 170.146Z" stroke="#252C29" stroke-width="10" stroke-miterlimit="10"/>
</mask>
<g mask="url(#mask17_48_10611)">
<path d="M282.293 86.2673H559.234V197.706H420.385H282.293V86.2673Z" fill="#2F3733"/>
</g>
<mask id="mask18_48_10611" style="mask-type:alpha" maskUnits="userSpaceOnUse" x="369" y="166" width="98" height="88">
<path d="M449.429 183.413C465.606 199.12 464.756 223.826 447.437 238.593C430.117 253.361 402.965 252.529 386.788 236.822C370.611 221.115 371.461 196.409 388.78 181.641C406.1 166.874 433.252 167.706 449.429 183.413Z" stroke="#252C29" stroke-width="10" stroke-miterlimit="10"/>
</mask>
<g mask="url(#mask18_48_10611)">
<rect x="329.26" y="86.2673" width="229.974" height="111.439" fill="#2F3733"/>
</g>
<mask id="mask19_48_10611" style="mask-type:alpha" maskUnits="userSpaceOnUse" x="391" y="186" width="54" height="48">
<path d="M439.223 210.157C439.223 220.088 430.221 228.924 418.101 228.924C405.981 228.924 396.979 220.088 396.979 210.157C396.979 200.226 405.981 191.389 418.101 191.389C430.221 191.389 439.223 200.226 439.223 210.157Z" stroke="#252C29" stroke-width="10" stroke-miterlimit="10"/>
</mask>
<g mask="url(#mask19_48_10611)">
<rect x="280.895" y="86.4263" width="277.684" height="122.178" fill="#2F3733"/>
</g>
<path d="M-3.99731 160.51H354.996" stroke="#2F3733" stroke-width="10"/>
<path d="M-3.99731 177.475H344.969" stroke="#2F3733" stroke-width="10"/>
<path d="M-3.99731 126.51H159.455" stroke="#2F3733" stroke-width="10"/>
<path d="M313.883 126.51H453.269" stroke="#2F3733" stroke-width="10"/>
<path d="M1299.61 217.764C1302.38 217.764 1304.61 215.525 1304.61 212.764C1304.61 210.002 1302.38 207.764 1299.61 207.764V217.764ZM-3.99976 217.764H1299.61V207.764H-3.99976V217.764Z" fill="#2F3733"/>
<path d="M1092.04 182.01C1094.8 182.01 1097.04 179.772 1097.04 177.01C1097.04 174.249 1094.8 172.01 1092.04 172.01V182.01ZM496.387 182.01H1092.04V172.01H496.387V182.01Z" fill="#2F3733"/>
<path d="M832.318 233.51C835.079 233.51 837.318 231.272 837.318 228.51C837.318 225.749 835.079 223.51 832.318 223.51V233.51ZM-3.99731 233.51H832.318V223.51H-3.99731V233.51Z" fill="#2F3733"/>
<path d="M572.599 250.51C575.36 250.51 577.599 248.272 577.599 245.51C577.599 242.749 575.36 240.51 572.599 240.51V250.51ZM-3.99731 250.51H572.599V240.51H-3.99731V250.51Z" fill="#2F3733"/>
<path fill-rule="evenodd" clip-rule="evenodd" d="M315.108 148.51H377.559V138.51H312.917C313.824 141.767 314.556 145.106 315.108 148.51ZM157.655 148.51C158.167 145.089 158.858 141.751 159.726 138.51H-3.99731V148.51H157.655Z" fill="#2F3733"/>
<path fill-rule="evenodd" clip-rule="evenodd" d="M497.223 199.51H1005.8C1008.56 199.51 1010.8 197.272 1010.8 194.51C1010.8 191.749 1008.56 189.51 1005.8 189.51H495.385C496.332 192.748 496.956 196.087 497.223 199.51ZM340.09 199.51C340.363 196.087 340.996 192.748 341.953 189.51H-5V199.51H340.09Z" fill="#2F3733"/>
</svg>
