<svg width="1440" height="282" viewBox="0 0 1440 282" fill="none" xmlns="http://www.w3.org/2000/svg">
<path d="M0 141.628H34.3C68.6 141.628 137 141.628 206 136.34C274.3 131.25 343 120.378 411 131.102C480 141.628 549 173.256 617 175.876C685.7 178.693 754 152.006 823 160.062C891.4 167.82 960 210.321 1029 215.411C1097.1 220.699 1166 189.071 1234 173.256C1302.9 157.442 1371 157.442 1406 157.442H1440V110H1405.7C1371.4 110 1303 110 1234 110C1165.7 110 1097 110 1029 110C960 110 891 110 823 110C754.3 110 686 110 617 110C548.6 110 480 110 411 110C342.9 110 274 110 206 110C137.1 110 69 110 34 110H0V141.628Z" fill="#468681"/>
<path d="M1440 83.4929H1405.7C1371.4 83.4929 1303 83.4929 1234 89.4292C1165.7 95.1436 1097 107.349 1029 95.3101C960 83.4929 891 47.9857 823 45.0453C754.3 41.8829 686 71.8421 617 62.7989C548.6 54.0885 480 6.37578 411 0.66135C342.9 -5.275 274 30.2321 206 47.9857C137.1 65.7393 69 65.7393 34 65.7393H0V119H34.3C68.6 119 137 119 206 119C274.3 119 343 119 411 119C480 119 549 119 617 119C685.7 119 754 119 823 119C891.4 119 960 119 1029 119C1097.1 119 1166 119 1234 119C1302.9 119 1371 119 1406 119H1440V83.4929Z" fill="#468681"/>
<path d="M0 168.904H34.3C68.6 168.904 137 168.904 206 172.096C274.3 175.17 343 181.734 411 175.259C480 168.904 549 149.807 617 148.226C685.7 146.525 754 162.638 823 157.774C891.4 153.09 960 127.429 1029 124.356C1097.1 121.163 1166 140.259 1234 149.807C1302.9 159.356 1371 159.356 1406 159.356H1440V188H1405.7C1371.4 188 1303 188 1234 188C1165.7 188 1097 188 1029 188C960 188 891 188 823 188C754.3 188 686 188 617 188C548.6 188 480 188 411 188C342.9 188 274 188 206 188C137.1 188 69 188 34 188H0V168.904Z" fill="#2F3733"/>
<path d="M1440 203.616H1405.7C1371.4 203.616 1303 203.616 1234 198.897C1165.7 194.353 1097 184.649 1029 194.221C960 203.616 891 231.848 823 234.185C754.3 236.7 686 212.88 617 220.07C548.6 226.995 480 264.931 411 269.474C342.9 274.194 274 245.963 206 231.848C137.1 217.732 69 217.732 34 217.732H0V175.385H34.3C68.6 175.385 137 175.385 206 175.385C274.3 175.385 343 175.385 411 175.385C480 175.385 549 175.385 617 175.385C685.7 175.385 754 175.385 823 175.385C891.4 175.385 960 175.385 1029 175.385C1097.1 175.385 1166 175.385 1234 175.385C1302.9 175.385 1371 175.385 1406 175.385H1440V203.616Z" fill="#2F3733"/>
<path d="M0 193.596H34.3C68.6 193.596 137 193.596 206 187.31C274.3 181.26 343 168.336 411 181.083C480 193.596 549 231.192 617 234.305C685.7 237.653 754 205.932 823 215.507C891.4 224.73 960 275.249 1029 281.3C1097.1 287.585 1166 249.989 1234 231.192C1302.9 212.394 1371 212.394 1406 212.394H1440V156H1405.7C1371.4 156 1303 156 1234 156C1165.7 156 1097 156 1029 156C960 156 891 156 823 156C754.3 156 686 156 617 156C548.6 156 480 156 411 156C342.9 156 274 156 206 156C137.1 156 69 156 34 156H0V193.596Z" fill="#9BCAC7"/>
<path d="M1440 128.171H1405.7C1371.4 128.171 1303 128.171 1234 136.502C1165.7 144.521 1097 161.65 1029 144.754C960 128.171 891 78.3413 823 74.2148C754.3 69.7769 686 111.82 617 99.1295C548.6 86.9057 480 19.9475 411 11.9281C342.9 3.59727 274 53.4266 206 78.3413C137.1 103.256 69 103.256 34 103.256H0V178H34.3C68.6 178 137 178 206 178C274.3 178 343 178 411 178C480 178 549 178 617 178C685.7 178 754 178 823 178C891.4 178 960 178 1029 178C1097.1 178 1166 178 1234 178C1302.9 178 1371 178 1406 178H1440V128.171Z" fill="#9BCAC7"/>
<rect y="124" width="513" height="54" fill="#9BCAC7"/>
<ellipse cx="139.5" cy="114.5" rx="82.5" ry="63.5" fill="#9BCAC7"/>
<mask id="mask0_120_2228" style="mask-type:alpha" maskUnits="userSpaceOnUse" x="49" y="41" width="181" height="164">
<path d="M224.567 123.254C224.567 164.951 186.992 199.594 139.549 199.594C92.105 199.594 54.5298 164.951 54.5298 123.254C54.5298 81.5574 92.105 46.9141 139.549 46.9141C186.992 46.9141 224.567 81.5574 224.567 123.254Z" stroke="#252C29" stroke-width="10" stroke-miterlimit="10"/>
</mask>
<g mask="url(#mask0_120_2228)">
<rect x="-0.120117" y="-18.4014" width="278.56" height="142.125" fill="#2F3733"/>
</g>
<mask id="mask1_120_2228" style="mask-type:alpha" maskUnits="userSpaceOnUse" x="71" y="61" width="136" height="124">
<path d="M182.899 83.2427C207.18 105.335 207.18 141.155 182.899 163.247C158.618 185.34 119.25 185.34 94.969 163.247C70.6878 141.155 70.6878 105.335 94.969 83.2427C119.25 61.15 158.618 61.1501 182.899 83.2427Z" stroke="#252C29" stroke-width="10" stroke-miterlimit="10"/>
</mask>
<g mask="url(#mask1_120_2228)">
<path d="M2.38428 -1.17676H279.846V108.798H140.736H2.38428V-1.17676Z" fill="#2F3733"/>
</g>
<mask id="mask2_120_2228" style="mask-type:alpha" maskUnits="userSpaceOnUse" x="90" y="79" width="98" height="89">
<path d="M170.255 96.5099C186.432 112.217 185.582 136.923 168.263 151.691C150.943 166.458 123.791 165.626 107.614 149.919C91.4373 134.212 92.2867 109.506 109.606 94.7385C126.926 79.9712 154.078 80.8031 170.255 96.5099Z" stroke="#252C29" stroke-width="10" stroke-miterlimit="10"/>
</mask>
<g mask="url(#mask2_120_2228)">
<rect x="1.7207" y="-0.476562" width="277.684" height="109.96" fill="#2F3733"/>
</g>
<mask id="mask3_120_2228" style="mask-type:alpha" maskUnits="userSpaceOnUse" x="112" y="99" width="54" height="49">
<path d="M160.049 123.254C160.049 133.185 151.047 142.022 138.927 142.022C126.807 142.022 117.805 133.185 117.805 123.254C117.805 113.323 126.807 104.486 138.927 104.486C151.047 104.486 160.049 113.323 160.049 123.254Z" stroke="#252C29" stroke-width="10" stroke-miterlimit="10"/>
</mask>
<g mask="url(#mask3_120_2228)">
<rect x="1.7207" y="-0.476074" width="277.684" height="122.178" fill="#2F3733"/>
</g>
<ellipse cx="330.5" cy="114.5" rx="82.5" ry="63.5" fill="#9BCAC7"/>
<mask id="mask4_120_2228" style="mask-type:alpha" maskUnits="userSpaceOnUse" x="240" y="41" width="181" height="164">
<path d="M415.672 123.254C415.672 164.951 378.097 199.594 330.654 199.594C283.21 199.594 245.635 164.951 245.635 123.254C245.635 81.5574 283.21 46.9141 330.654 46.9141C378.097 46.9141 415.672 81.5574 415.672 123.254Z" stroke="#252C29" stroke-width="10" stroke-miterlimit="10"/>
</mask>
<g mask="url(#mask4_120_2228)">
<rect x="190.985" y="-18.4014" width="278.56" height="142.125" fill="#2F3733"/>
</g>
<mask id="mask5_120_2228" style="mask-type:alpha" maskUnits="userSpaceOnUse" x="262" y="61" width="136" height="124">
<path d="M374.004 83.2427C398.285 105.335 398.285 141.155 374.004 163.247C349.723 185.34 310.355 185.34 286.074 163.247C261.793 141.155 261.793 105.335 286.074 83.2427C310.355 61.15 349.723 61.1501 374.004 83.2427Z" stroke="#252C29" stroke-width="10" stroke-miterlimit="10"/>
</mask>
<g mask="url(#mask5_120_2228)">
<path d="M194.224 -0.635742H471.165V109.188H332.316H194.224V-0.635742Z" fill="#2F3733"/>
</g>
<mask id="mask6_120_2228" style="mask-type:alpha" maskUnits="userSpaceOnUse" x="281" y="79" width="98" height="89">
<path d="M361.36 96.5099C377.536 112.217 376.687 136.923 359.368 151.691C342.048 166.458 314.896 165.626 298.719 149.919C282.542 134.212 283.392 109.506 300.711 94.7385C318.031 79.9712 345.183 80.8031 361.36 96.5099Z" stroke="#252C29" stroke-width="10" stroke-miterlimit="10"/>
</mask>
<g mask="url(#mask6_120_2228)">
<rect x="192.826" y="-0.476562" width="277.684" height="109.96" fill="#2F3733"/>
</g>
<mask id="mask7_120_2228" style="mask-type:alpha" maskUnits="userSpaceOnUse" x="303" y="99" width="54" height="49">
<path d="M351.154 123.254C351.154 133.185 342.152 142.022 330.032 142.022C317.911 142.022 308.91 133.185 308.91 123.254C308.91 113.323 317.911 104.486 330.032 104.486C342.152 104.486 351.154 113.323 351.154 123.254Z" stroke="#252C29" stroke-width="10" stroke-miterlimit="10"/>
</mask>
<g mask="url(#mask7_120_2228)">
<rect x="192.825" y="-0.476074" width="277.684" height="122.178" fill="#2F3733"/>
</g>
<ellipse cx="235" cy="130" rx="74" ry="48" fill="#9BCAC7"/>
<mask id="mask8_120_2228" style="mask-type:alpha" maskUnits="userSpaceOnUse" x="145" y="77" width="181" height="164">
<path d="M320.362 159.254C320.362 200.951 282.786 235.594 235.343 235.594C187.899 235.594 150.324 200.951 150.324 159.254C150.324 117.557 187.899 82.9141 235.343 82.9141C282.786 82.9141 320.362 117.557 320.362 159.254Z" stroke="#252C29" stroke-width="10" stroke-miterlimit="10"/>
</mask>
<g mask="url(#mask8_120_2228)">
<rect x="95.9761" y="18.0474" width="277.514" height="121.158" fill="#2F3733"/>
</g>
<mask id="mask9_120_2228" style="mask-type:alpha" maskUnits="userSpaceOnUse" x="167" y="97" width="136" height="124">
<path d="M278.694 119.243C302.975 141.335 302.975 177.155 278.694 199.247C254.413 221.34 215.045 221.34 190.764 199.247C166.483 177.155 166.483 141.335 190.764 119.243C215.045 97.15 254.413 97.1501 278.694 119.243Z" stroke="#252C29" stroke-width="10" stroke-miterlimit="10"/>
</mask>
<g mask="url(#mask9_120_2228)">
<path d="M98.9136 35.3643H375.854V146.803H237.006H98.9136V35.3643Z" fill="#2F3733"/>
</g>
<mask id="mask10_120_2228" style="mask-type:alpha" maskUnits="userSpaceOnUse" x="186" y="115" width="97" height="89">
<path d="M266.05 132.51C282.226 148.217 281.377 172.923 264.058 187.691C246.738 202.458 219.586 201.626 203.409 185.919C187.232 170.212 188.082 145.506 205.401 130.738C222.721 115.971 249.873 116.803 266.05 132.51Z" stroke="#252C29" stroke-width="10" stroke-miterlimit="10"/>
</mask>
<g mask="url(#mask10_120_2228)">
<rect x="97.5161" y="35.5234" width="277.684" height="109.96" fill="#2F3733"/>
</g>
<mask id="mask11_120_2228" style="mask-type:alpha" maskUnits="userSpaceOnUse" x="208" y="135" width="53" height="49">
<path d="M255.844 159.254C255.844 169.185 246.842 178.022 234.722 178.022C222.601 178.022 213.6 169.185 213.6 159.254C213.6 149.323 222.601 140.486 234.722 140.486C246.842 140.486 255.844 149.323 255.844 159.254Z" stroke="#252C29" stroke-width="10" stroke-miterlimit="10"/>
</mask>
<g mask="url(#mask11_120_2228)">
<rect x="97.5156" y="35.5234" width="277.684" height="122.178" fill="#2F3733"/>
</g>
<path fill-rule="evenodd" clip-rule="evenodd" d="M757.112 165.511H91.269V155.511H757.112C759.874 155.511 762.112 157.749 762.112 160.511C762.112 163.272 759.874 165.511 757.112 165.511Z" fill="#2F3733"/>
<path d="M-0.000488281 160.755H353.997" stroke="#2F3733" stroke-width="10"/>
<path d="M-0.000488281 126.255H158.456" stroke="#2F3733" stroke-width="10"/>
<path d="M452.268 131.511C455.03 131.511 457.268 129.272 457.268 126.511C457.268 123.749 455.03 121.511 452.268 121.511V131.511ZM312.882 131.511H452.268V121.511H312.882V131.511Z" fill="#2F3733"/>
<path d="M1091.04 182.505C1093.8 182.505 1096.04 180.267 1096.04 177.505C1096.04 174.744 1093.8 172.505 1091.04 172.505V182.505ZM-0.000488281 182.505H1091.04V172.505H-0.000488281V182.505Z" fill="#2F3733"/>
<path fill-rule="evenodd" clip-rule="evenodd" d="M314.147 148.755H376.559C379.32 148.755 381.559 146.517 381.559 143.755C381.559 140.994 379.32 138.755 376.559 138.755H311.985C312.882 142.012 313.604 145.351 314.147 148.755ZM156.618 148.755C157.121 145.334 157.803 141.997 158.66 138.755H-0.000488281V148.755H156.618Z" fill="#2F3733"/>
</svg>
