<svg width="389" height="95" viewBox="0 0 389 95" fill="none" xmlns="http://www.w3.org/2000/svg">
<path d="M370.792 3.8147e-06L11.6469 0C8.55796 0 5.59552 1.23703 3.4113 3.43896C1.22708 5.64088 0 8.62733 0 11.7413L-0.00012207 66.707C-0.00012207 69.821 1.22696 72.8075 3.41118 75.0094C5.5954 77.2113 8.55784 78.4484 11.6468 78.4484L357.398 78.4484L382.051 94.2337C382.603 94.6449 383.253 94.9013 383.935 94.9769C384.616 95.0526 385.306 94.9447 385.933 94.6642C386.594 94.347 387.152 93.848 387.544 93.2248C387.935 92.6016 388.144 91.8795 388.146 91.1418L382.051 70.5569L382.051 11.7413C382.053 8.69397 380.879 5.76533 378.778 3.57432C376.677 1.38331 373.813 0.101582 370.792 3.8147e-06Z" fill="white"/>
</svg>
