<svg width="283" height="95" viewBox="0 0 283 95" fill="none" xmlns="http://www.w3.org/2000/svg">
<path d="M17.3541 0L270.499 4.57764e-05C273.588 4.57764e-05 276.551 1.23708 278.735 3.439C280.919 5.64093 282.146 8.62738 282.146 11.7414L282.146 66.7071C282.146 69.821 280.919 72.8075 278.735 75.0095C276.551 77.2114 273.588 78.4484 270.499 78.4484L30.7482 78.4484L6.09543 94.2337C5.54376 94.6448 4.89372 94.9013 4.21176 94.9769C3.5298 95.0526 2.84012 94.9447 2.21298 94.6642C1.55232 94.347 0.99401 93.848 0.602478 93.2248C0.210946 92.6016 0.00213251 91.8795 6.10352e-05 91.1418L6.09543 70.5569L6.09531 11.7413C6.09363 8.69397 7.26725 5.76533 9.36819 3.57432C11.4691 1.38331 14.3329 0.101578 17.3541 0Z" fill="white"/>
</svg>
