<svg width="389" height="95" viewBox="0 0 389 95" fill="none" xmlns="http://www.w3.org/2000/svg">
<path d="M370.792 3.8147e-06L11.6469 0C8.55796 0 5.59552 1.23703 3.4113 3.43896C1.22708 5.64088 0 8.62733 0 11.7413L-0.00012207 66.707C-0.00012207 69.821 1.22696 72.8075 3.41118 75.0094C5.5954 77.2113 8.55784 78.4484 11.6468 78.4484L357.398 78.4484L382.051 94.2337C382.603 94.6449 383.253 94.9013 383.935 94.9769C384.616 95.0526 385.306 94.9447 385.933 94.6642C386.594 94.347 387.152 93.848 387.544 93.2248C387.935 92.6016 388.144 91.8795 388.146 91.1418L382.051 70.5569L382.051 11.7413C382.053 8.69397 380.879 5.76533 378.778 3.57432C376.677 1.38331 373.813 0.101582 370.792 3.8147e-06Z" fill="white"/>
<path d="M25.224 28.496C24.8293 28.496 24.536 28.4 24.344 28.208C24.1627 28.016 24.072 27.7707 24.072 27.472V27.2C24.072 26.944 24.1093 26.6773 24.184 26.4C24.2693 26.1227 24.3813 25.8507 24.52 25.584C24.6587 25.3173 24.824 25.0613 25.016 24.816C25.208 24.5707 25.4213 24.352 25.656 24.16H26.888C26.5573 24.4907 26.28 24.816 26.056 25.136C25.8427 25.4453 25.6827 25.792 25.576 26.176C25.8533 26.2293 26.056 26.352 26.184 26.544C26.312 26.7253 26.376 26.9387 26.376 27.184V27.472C26.376 27.7707 26.28 28.016 26.088 28.208C25.9067 28.4 25.6187 28.496 25.224 28.496ZM28.696 28.496C28.3013 28.496 28.008 28.4 27.816 28.208C27.6347 28.016 27.544 27.7707 27.544 27.472V27.2C27.544 26.944 27.5813 26.6773 27.656 26.4C27.7413 26.1227 27.8533 25.8507 27.992 25.584C28.1307 25.3173 28.296 25.0613 28.488 24.816C28.68 24.5707 28.8933 24.352 29.128 24.16H30.36C30.0293 24.4907 29.752 24.816 29.528 25.136C29.3147 25.4453 29.1547 25.792 29.048 26.176C29.3253 26.2293 29.528 26.352 29.656 26.544C29.784 26.7253 29.848 26.9387 29.848 27.184V27.472C29.848 27.7707 29.752 28.016 29.56 28.208C29.3787 28.4 29.0907 28.496 28.696 28.496ZM44.7169 27.456H44.6369L43.7569 29.264L41.3089 33.728L38.8609 29.264L37.9809 27.456H37.9009V36H36.1729V24.832H38.3169L41.3089 30.512H41.4049L44.3969 24.832H46.4449V36H44.7169V27.456ZM55.1721 36C54.7135 36 54.3615 35.872 54.1161 35.616C53.8708 35.3493 53.7215 35.0133 53.6681 34.608H53.5881C53.4281 35.1307 53.1348 35.5253 52.7081 35.792C52.2815 36.0587 51.7641 36.192 51.1561 36.192C50.2921 36.192 49.6255 35.968 49.1561 35.52C48.6975 35.072 48.4681 34.4693 48.4681 33.712C48.4681 32.88 48.7668 32.256 49.3641 31.84C49.9721 31.424 50.8575 31.216 52.0201 31.216H53.5241V30.512C53.5241 30 53.3855 29.6053 53.1081 29.328C52.8308 29.0507 52.3988 28.912 51.8121 28.912C51.3215 28.912 50.9215 29.0187 50.6121 29.232C50.3028 29.4453 50.0415 29.7173 49.8281 30.048L48.7881 29.104C49.0655 28.6347 49.4548 28.2507 49.9561 27.952C50.4575 27.6427 51.1135 27.488 51.9241 27.488C53.0015 27.488 53.8281 27.7387 54.4041 28.24C54.9801 28.7413 55.2681 29.4613 55.2681 30.4V34.576H56.1481V36H55.1721ZM51.6521 34.864C52.1961 34.864 52.6441 34.7467 52.9961 34.512C53.3481 34.2667 53.5241 33.9413 53.5241 33.536V32.336H52.0521C50.8468 32.336 50.2441 32.7093 50.2441 33.456V33.744C50.2441 34.1173 50.3668 34.4 50.6121 34.592C50.8681 34.7733 51.2148 34.864 51.6521 34.864ZM123.408 32.496V29.952C124.272 29.9093 124.933 29.728 125.391 29.408C125.861 29.0773 126.096 28.592 126.096 27.952V27.728C126.096 27.2373 125.946 26.8587 125.648 26.592C125.349 26.3147 124.949 26.176 124.448 26.176C123.914 26.176 123.488 26.3307 123.168 26.64C122.848 26.9493 122.629 27.344 122.512 27.824L120.992 27.216C121.088 26.8853 121.226 26.5653 121.408 26.256C121.6 25.9467 121.84 25.6747 122.128 25.44C122.416 25.1947 122.757 25.0027 123.152 24.864C123.546 24.7147 124 24.64 124.512 24.64C125.034 24.64 125.509 24.7147 125.936 24.864C126.362 25.0133 126.725 25.2267 127.024 25.504C127.322 25.7707 127.552 26.1013 127.712 26.496C127.872 26.88 127.952 27.3067 127.952 27.776C127.952 28.256 127.866 28.688 127.696 29.072C127.536 29.4453 127.317 29.7653 127.04 30.032C126.773 30.2987 126.469 30.5173 126.128 30.688C125.786 30.848 125.434 30.96 125.072 31.024V32.496H123.408ZM124.256 36.192C123.85 36.192 123.552 36.096 123.36 35.904C123.178 35.7013 123.088 35.4453 123.088 35.136V34.864C123.088 34.5547 123.178 34.304 123.36 34.112C123.552 33.9093 123.85 33.808 124.256 33.808C124.661 33.808 124.954 33.9093 125.136 34.112C125.328 34.304 125.424 34.5547 125.424 34.864V35.136C125.424 35.4453 125.328 35.7013 125.136 35.904C124.954 36.096 124.661 36.192 124.256 36.192ZM133.642 36V24.832H140.618V26.432H135.45V29.536H140.042V31.136H135.45V36H133.642ZM143.519 26.192C143.156 26.192 142.889 26.1067 142.719 25.936C142.559 25.7653 142.479 25.5467 142.479 25.28V25.008C142.479 24.7413 142.559 24.5227 142.719 24.352C142.889 24.1813 143.156 24.096 143.519 24.096C143.881 24.096 144.143 24.1813 144.303 24.352C144.463 24.5227 144.543 24.7413 144.543 25.008V25.28C144.543 25.5467 144.463 25.7653 144.303 25.936C144.143 26.1067 143.881 26.192 143.519 26.192ZM142.639 27.68H144.383V36H142.639V27.68ZM145.945 36L148.873 31.792L146.025 27.68H148.041L149.913 30.576H149.961L151.881 27.68H153.737L150.889 31.776L153.785 36H151.769L149.849 32.976H149.801L147.801 36H145.945ZM158.403 36.192C157.805 36.192 157.272 36.0907 156.803 35.888C156.333 35.6853 155.933 35.3973 155.603 35.024C155.272 34.64 155.016 34.1813 154.835 33.648C154.664 33.104 154.579 32.5013 154.579 31.84C154.579 31.1787 154.664 30.5813 154.835 30.048C155.016 29.504 155.272 29.0453 155.603 28.672C155.933 28.288 156.333 27.9947 156.803 27.792C157.272 27.5893 157.805 27.488 158.403 27.488C159.011 27.488 159.544 27.5947 160.003 27.808C160.472 28.0213 160.861 28.32 161.171 28.704C161.48 29.0773 161.709 29.5147 161.859 30.016C162.019 30.5173 162.099 31.056 162.099 31.632V32.288H156.387V32.56C156.387 33.2 156.573 33.728 156.947 34.144C157.331 34.5493 157.875 34.752 158.579 34.752C159.091 34.752 159.523 34.64 159.875 34.416C160.227 34.192 160.525 33.888 160.771 33.504L161.795 34.512C161.485 35.024 161.037 35.4347 160.451 35.744C159.864 36.0427 159.181 36.192 158.403 36.192ZM158.403 28.848C158.104 28.848 157.827 28.9013 157.571 29.008C157.325 29.1147 157.112 29.264 156.931 29.456C156.76 29.648 156.627 29.8773 156.531 30.144C156.435 30.4107 156.387 30.704 156.387 31.024V31.136H160.259V30.976C160.259 30.336 160.093 29.824 159.763 29.44C159.432 29.0453 158.979 28.848 158.403 28.848ZM164.029 36V27.68H165.773V29.28H165.853C165.971 28.8533 166.216 28.48 166.589 28.16C166.963 27.84 167.48 27.68 168.141 27.68H168.605V29.36H167.917C167.224 29.36 166.691 29.472 166.317 29.696C165.955 29.92 165.773 30.2507 165.773 30.688V36H164.029ZM175.712 36C175.114 36 174.666 35.8507 174.368 35.552C174.08 35.2427 173.936 34.816 173.936 34.272V24.16H175.68V34.576H176.832V36H175.712ZM181.762 36.192C181.165 36.192 180.631 36.0907 180.162 35.888C179.693 35.6853 179.293 35.3973 178.962 35.024C178.631 34.64 178.375 34.1813 178.194 33.648C178.023 33.104 177.938 32.5013 177.938 31.84C177.938 31.1787 178.023 30.5813 178.194 30.048C178.375 29.504 178.631 29.0453 178.962 28.672C179.293 28.288 179.693 27.9947 180.162 27.792C180.631 27.5893 181.165 27.488 181.762 27.488C182.37 27.488 182.903 27.5947 183.362 27.808C183.831 28.0213 184.221 28.32 184.53 28.704C184.839 29.0773 185.069 29.5147 185.218 30.016C185.378 30.5173 185.458 31.056 185.458 31.632V32.288H179.746V32.56C179.746 33.2 179.933 33.728 180.306 34.144C180.69 34.5493 181.234 34.752 181.938 34.752C182.45 34.752 182.882 34.64 183.234 34.416C183.586 34.192 183.885 33.888 184.13 33.504L185.154 34.512C184.845 35.024 184.397 35.4347 183.81 35.744C183.223 36.0427 182.541 36.192 181.762 36.192ZM181.762 28.848C181.463 28.848 181.186 28.9013 180.93 29.008C180.685 29.1147 180.471 29.264 180.29 29.456C180.119 29.648 179.986 29.8773 179.89 30.144C179.794 30.4107 179.746 30.704 179.746 31.024V31.136H183.618V30.976C183.618 30.336 183.453 29.824 183.122 29.44C182.791 29.0453 182.338 28.848 181.762 28.848ZM190.029 36.192C189.239 36.192 188.578 36.0533 188.045 35.776C187.511 35.4987 187.047 35.1147 186.653 34.624L187.773 33.6C188.082 33.9733 188.423 34.2667 188.797 34.48C189.181 34.6827 189.623 34.784 190.125 34.784C190.637 34.784 191.015 34.688 191.261 34.496C191.517 34.2933 191.645 34.016 191.645 33.664C191.645 33.3973 191.554 33.1733 191.373 32.992C191.202 32.8 190.898 32.6773 190.461 32.624L189.693 32.528C188.839 32.4213 188.167 32.176 187.677 31.792C187.197 31.3973 186.957 30.816 186.957 30.048C186.957 29.6427 187.031 29.2853 187.181 28.976C187.33 28.656 187.538 28.3893 187.805 28.176C188.082 27.952 188.407 27.7813 188.781 27.664C189.165 27.5467 189.586 27.488 190.045 27.488C190.791 27.488 191.399 27.6053 191.869 27.84C192.349 28.0747 192.775 28.4 193.149 28.816L192.077 29.84C191.863 29.584 191.581 29.3653 191.229 29.184C190.887 28.992 190.493 28.896 190.045 28.896C189.565 28.896 189.207 28.992 188.973 29.184C188.749 29.376 188.637 29.6267 188.637 29.936C188.637 30.256 188.738 30.496 188.941 30.656C189.143 30.816 189.469 30.9333 189.917 31.008L190.685 31.104C191.602 31.2427 192.269 31.5147 192.685 31.92C193.111 32.3147 193.325 32.848 193.325 33.52C193.325 33.9253 193.245 34.2933 193.085 34.624C192.935 34.944 192.717 35.2213 192.429 35.456C192.141 35.6907 191.794 35.872 191.389 36C190.983 36.128 190.53 36.192 190.029 36.192ZM199.076 27.68H200.82V29.056H200.9C201.081 28.5547 201.375 28.1707 201.78 27.904C202.196 27.6267 202.681 27.488 203.236 27.488C204.292 27.488 205.108 27.872 205.684 28.64C206.26 29.3973 206.548 30.464 206.548 31.84C206.548 33.216 206.26 34.288 205.684 35.056C205.108 35.8133 204.292 36.192 203.236 36.192C202.681 36.192 202.196 36.0533 201.78 35.776C201.375 35.4987 201.081 35.1147 200.9 34.624H200.82V39.2H199.076V27.68ZM202.708 34.688C203.316 34.688 203.801 34.496 204.164 34.112C204.527 33.7173 204.708 33.2 204.708 32.56V31.12C204.708 30.48 204.527 29.968 204.164 29.584C203.801 29.1893 203.316 28.992 202.708 28.992C202.175 28.992 201.727 29.1253 201.364 29.392C201.001 29.648 200.82 29.9893 200.82 30.416V33.264C200.82 33.6907 201.001 34.0373 201.364 34.304C201.727 34.56 202.175 34.688 202.708 34.688ZM208.545 36V27.68H210.289V29.28H210.369C210.486 28.8533 210.732 28.48 211.105 28.16C211.478 27.84 211.996 27.68 212.657 27.68H213.121V29.36H212.433C211.74 29.36 211.206 29.472 210.833 29.696C210.47 29.92 210.289 30.2507 210.289 30.688V36H208.545ZM217.856 36.192C217.28 36.192 216.752 36.0907 216.272 35.888C215.802 35.6853 215.402 35.3973 215.072 35.024C214.741 34.64 214.485 34.1813 214.304 33.648C214.122 33.104 214.032 32.5013 214.032 31.84C214.032 31.1787 214.122 30.5813 214.304 30.048C214.485 29.504 214.741 29.0453 215.072 28.672C215.402 28.288 215.802 27.9947 216.272 27.792C216.752 27.5893 217.28 27.488 217.856 27.488C218.432 27.488 218.954 27.5893 219.424 27.792C219.904 27.9947 220.309 28.288 220.64 28.672C220.97 29.0453 221.226 29.504 221.408 30.048C221.589 30.5813 221.68 31.1787 221.68 31.84C221.68 32.5013 221.589 33.104 221.408 33.648C221.226 34.1813 220.97 34.64 220.64 35.024C220.309 35.3973 219.904 35.6853 219.424 35.888C218.954 36.0907 218.432 36.192 217.856 36.192ZM217.856 34.752C218.453 34.752 218.933 34.5707 219.296 34.208C219.658 33.8347 219.84 33.28 219.84 32.544V31.136C219.84 30.4 219.658 29.8507 219.296 29.488C218.933 29.1147 218.453 28.928 217.856 28.928C217.258 28.928 216.778 29.1147 216.416 29.488C216.053 29.8507 215.872 30.4 215.872 31.136V32.544C215.872 33.28 216.053 33.8347 216.416 34.208C216.778 34.5707 217.258 34.752 217.856 34.752ZM223.623 24.16H225.367V29.056H225.447C225.628 28.5547 225.922 28.1707 226.327 27.904C226.743 27.6267 227.228 27.488 227.783 27.488C228.839 27.488 229.655 27.872 230.231 28.64C230.807 29.3973 231.095 30.464 231.095 31.84C231.095 33.216 230.807 34.288 230.231 35.056C229.655 35.8133 228.839 36.192 227.783 36.192C227.228 36.192 226.743 36.0533 226.327 35.776C225.922 35.4987 225.628 35.1147 225.447 34.624H225.367V36H223.623V24.16ZM227.255 34.688C227.863 34.688 228.348 34.496 228.711 34.112C229.074 33.7173 229.255 33.2 229.255 32.56V31.12C229.255 30.48 229.074 29.968 228.711 29.584C228.348 29.1893 227.863 28.992 227.255 28.992C226.722 28.992 226.274 29.1253 225.911 29.392C225.548 29.648 225.367 29.9893 225.367 30.416V33.264C225.367 33.6907 225.548 34.0373 225.911 34.304C226.274 34.56 226.722 34.688 227.255 34.688ZM234.868 36C234.27 36 233.822 35.8507 233.524 35.552C233.236 35.2427 233.092 34.816 233.092 34.272V24.16H234.836V34.576H235.988V36H234.868ZM240.918 36.192C240.321 36.192 239.788 36.0907 239.318 35.888C238.849 35.6853 238.449 35.3973 238.118 35.024C237.788 34.64 237.532 34.1813 237.35 33.648C237.18 33.104 237.094 32.5013 237.094 31.84C237.094 31.1787 237.18 30.5813 237.35 30.048C237.532 29.504 237.788 29.0453 238.118 28.672C238.449 28.288 238.849 27.9947 239.318 27.792C239.788 27.5893 240.321 27.488 240.918 27.488C241.526 27.488 242.06 27.5947 242.518 27.808C242.988 28.0213 243.377 28.32 243.686 28.704C243.996 29.0773 244.225 29.5147 244.374 30.016C244.534 30.5173 244.614 31.056 244.614 31.632V32.288H238.902V32.56C238.902 33.2 239.089 33.728 239.462 34.144C239.846 34.5493 240.39 34.752 241.094 34.752C241.606 34.752 242.038 34.64 242.39 34.416C242.742 34.192 243.041 33.888 243.286 33.504L244.31 34.512C244.001 35.024 243.553 35.4347 242.966 35.744C242.38 36.0427 241.697 36.192 240.918 36.192ZM240.918 28.848C240.62 28.848 240.342 28.9013 240.086 29.008C239.841 29.1147 239.628 29.264 239.446 29.456C239.276 29.648 239.142 29.8773 239.046 30.144C238.95 30.4107 238.902 30.704 238.902 31.024V31.136H242.774V30.976C242.774 30.336 242.609 29.824 242.278 29.44C241.948 29.0453 241.494 28.848 240.918 28.848ZM238.886 24.016L240.406 23.28L241.862 26.16L240.774 26.688L238.886 24.016ZM246.545 36V27.68H248.289V29.056H248.369C248.454 28.8427 248.556 28.64 248.673 28.448C248.801 28.256 248.95 28.0907 249.121 27.952C249.302 27.8027 249.51 27.6907 249.745 27.616C249.99 27.5307 250.273 27.488 250.593 27.488C251.158 27.488 251.66 27.6267 252.097 27.904C252.534 28.1813 252.854 28.608 253.057 29.184H253.105C253.254 28.7147 253.542 28.3147 253.969 27.984C254.396 27.6533 254.945 27.488 255.617 27.488C256.449 27.488 257.094 27.7707 257.553 28.336C258.012 28.8907 258.241 29.6853 258.241 30.72V36H256.497V30.928C256.497 30.288 256.374 29.808 256.129 29.488C255.884 29.1573 255.494 28.992 254.961 28.992C254.737 28.992 254.524 29.024 254.321 29.088C254.118 29.1413 253.937 29.2267 253.777 29.344C253.628 29.4613 253.505 29.6107 253.409 29.792C253.313 29.9733 253.265 30.1813 253.265 30.416V36H251.521V30.928C251.521 29.6373 251.014 28.992 250.001 28.992C249.788 28.992 249.574 29.024 249.361 29.088C249.158 29.1413 248.977 29.2267 248.817 29.344C248.657 29.4613 248.529 29.6107 248.433 29.792C248.337 29.9733 248.289 30.1813 248.289 30.416V36H246.545ZM263.918 36.192C263.321 36.192 262.788 36.0907 262.318 35.888C261.849 35.6853 261.449 35.3973 261.118 35.024C260.788 34.64 260.532 34.1813 260.35 33.648C260.18 33.104 260.094 32.5013 260.094 31.84C260.094 31.1787 260.18 30.5813 260.35 30.048C260.532 29.504 260.788 29.0453 261.118 28.672C261.449 28.288 261.849 27.9947 262.318 27.792C262.788 27.5893 263.321 27.488 263.918 27.488C264.526 27.488 265.06 27.5947 265.518 27.808C265.988 28.0213 266.377 28.32 266.686 28.704C266.996 29.0773 267.225 29.5147 267.374 30.016C267.534 30.5173 267.614 31.056 267.614 31.632V32.288H261.902V32.56C261.902 33.2 262.089 33.728 262.462 34.144C262.846 34.5493 263.39 34.752 264.094 34.752C264.606 34.752 265.038 34.64 265.39 34.416C265.742 34.192 266.041 33.888 266.286 33.504L267.31 34.512C267.001 35.024 266.553 35.4347 265.966 35.744C265.38 36.0427 264.697 36.192 263.918 36.192ZM263.918 28.848C263.62 28.848 263.342 28.9013 263.086 29.008C262.841 29.1147 262.628 29.264 262.446 29.456C262.276 29.648 262.142 29.8773 262.046 30.144C261.95 30.4107 261.902 30.704 261.902 31.024V31.136H265.774V30.976C265.774 30.336 265.609 29.824 265.278 29.44C264.948 29.0453 264.494 28.848 263.918 28.848ZM272.185 36.192C271.396 36.192 270.734 36.0533 270.201 35.776C269.668 35.4987 269.204 35.1147 268.809 34.624L269.929 33.6C270.238 33.9733 270.58 34.2667 270.953 34.48C271.337 34.6827 271.78 34.784 272.281 34.784C272.793 34.784 273.172 34.688 273.417 34.496C273.673 34.2933 273.801 34.016 273.801 33.664C273.801 33.3973 273.71 33.1733 273.529 32.992C273.358 32.8 273.054 32.6773 272.617 32.624L271.849 32.528C270.996 32.4213 270.324 32.176 269.833 31.792C269.353 31.3973 269.113 30.816 269.113 30.048C269.113 29.6427 269.188 29.2853 269.337 28.976C269.486 28.656 269.694 28.3893 269.961 28.176C270.238 27.952 270.564 27.7813 270.937 27.664C271.321 27.5467 271.742 27.488 272.201 27.488C272.948 27.488 273.556 27.6053 274.025 27.84C274.505 28.0747 274.932 28.4 275.305 28.816L274.233 29.84C274.02 29.584 273.737 29.3653 273.385 29.184C273.044 28.992 272.649 28.896 272.201 28.896C271.721 28.896 271.364 28.992 271.129 29.184C270.905 29.376 270.793 29.6267 270.793 29.936C270.793 30.256 270.894 30.496 271.097 30.656C271.3 30.816 271.625 30.9333 272.073 31.008L272.841 31.104C273.758 31.2427 274.425 31.5147 274.841 31.92C275.268 32.3147 275.481 32.848 275.481 33.52C275.481 33.9253 275.401 34.2933 275.241 34.624C275.092 34.944 274.873 35.2213 274.585 35.456C274.297 35.6907 273.95 35.872 273.545 36C273.14 36.128 272.686 36.192 272.185 36.192ZM286.464 34.624H286.384C286.203 35.1147 285.904 35.4987 285.488 35.776C285.083 36.0533 284.603 36.192 284.048 36.192C282.992 36.192 282.176 35.8133 281.6 35.056C281.024 34.288 280.736 33.216 280.736 31.84C280.736 30.464 281.024 29.3973 281.6 28.64C282.176 27.872 282.992 27.488 284.048 27.488C284.603 27.488 285.083 27.6267 285.488 27.904C285.904 28.1707 286.203 28.5547 286.384 29.056H286.464V24.16H288.208V36H286.464V34.624ZM284.576 34.688C285.11 34.688 285.558 34.56 285.92 34.304C286.283 34.0373 286.464 33.6907 286.464 33.264V30.416C286.464 29.9893 286.283 29.648 285.92 29.392C285.558 29.1253 285.11 28.992 284.576 28.992C283.968 28.992 283.483 29.1893 283.12 29.584C282.758 29.968 282.576 30.48 282.576 31.12V32.56C282.576 33.2 282.758 33.7173 283.12 34.112C283.483 34.496 283.968 34.688 284.576 34.688ZM293.965 36.192C293.368 36.192 292.834 36.0907 292.365 35.888C291.896 35.6853 291.496 35.3973 291.165 35.024C290.834 34.64 290.578 34.1813 290.397 33.648C290.226 33.104 290.141 32.5013 290.141 31.84C290.141 31.1787 290.226 30.5813 290.397 30.048C290.578 29.504 290.834 29.0453 291.165 28.672C291.496 28.288 291.896 27.9947 292.365 27.792C292.834 27.5893 293.368 27.488 293.965 27.488C294.573 27.488 295.106 27.5947 295.565 27.808C296.034 28.0213 296.424 28.32 296.733 28.704C297.042 29.0773 297.272 29.5147 297.421 30.016C297.581 30.5173 297.661 31.056 297.661 31.632V32.288H291.949V32.56C291.949 33.2 292.136 33.728 292.509 34.144C292.893 34.5493 293.437 34.752 294.141 34.752C294.653 34.752 295.085 34.64 295.437 34.416C295.789 34.192 296.088 33.888 296.333 33.504L297.357 34.512C297.048 35.024 296.6 35.4347 296.013 35.744C295.426 36.0427 294.744 36.192 293.965 36.192ZM293.965 28.848C293.666 28.848 293.389 28.9013 293.133 29.008C292.888 29.1147 292.674 29.264 292.493 29.456C292.322 29.648 292.189 29.8773 292.093 30.144C291.997 30.4107 291.949 30.704 291.949 31.024V31.136H295.821V30.976C295.821 30.336 295.656 29.824 295.325 29.44C294.994 29.0453 294.541 28.848 293.965 28.848ZM306.589 36.192C305.992 36.192 305.458 36.0907 304.989 35.888C304.52 35.6853 304.125 35.3973 303.805 35.024C303.485 34.64 303.24 34.1813 303.069 33.648C302.898 33.104 302.813 32.5013 302.813 31.84C302.813 31.1787 302.898 30.5813 303.069 30.048C303.24 29.504 303.485 29.0453 303.805 28.672C304.125 28.288 304.52 27.9947 304.989 27.792C305.458 27.5893 305.992 27.488 306.589 27.488C307.421 27.488 308.104 27.6747 308.637 28.048C309.17 28.4213 309.56 28.9173 309.805 29.536L308.365 30.208C308.248 29.824 308.04 29.52 307.741 29.296C307.453 29.0613 307.069 28.944 306.589 28.944C305.949 28.944 305.464 29.1467 305.133 29.552C304.813 29.9467 304.653 30.464 304.653 31.104V32.592C304.653 33.232 304.813 33.7547 305.133 34.16C305.464 34.5547 305.949 34.752 306.589 34.752C307.101 34.752 307.506 34.6293 307.805 34.384C308.114 34.128 308.36 33.792 308.541 33.376L309.869 34.08C309.592 34.7627 309.176 35.2853 308.621 35.648C308.066 36.0107 307.389 36.192 306.589 36.192ZM314.7 36.192C314.124 36.192 313.596 36.0907 313.116 35.888C312.646 35.6853 312.246 35.3973 311.916 35.024C311.585 34.64 311.329 34.1813 311.148 33.648C310.966 33.104 310.876 32.5013 310.876 31.84C310.876 31.1787 310.966 30.5813 311.148 30.048C311.329 29.504 311.585 29.0453 311.916 28.672C312.246 28.288 312.646 27.9947 313.116 27.792C313.596 27.5893 314.124 27.488 314.7 27.488C315.276 27.488 315.798 27.5893 316.268 27.792C316.748 27.9947 317.153 28.288 317.484 28.672C317.814 29.0453 318.07 29.504 318.252 30.048C318.433 30.5813 318.524 31.1787 318.524 31.84C318.524 32.5013 318.433 33.104 318.252 33.648C318.07 34.1813 317.814 34.64 317.484 35.024C317.153 35.3973 316.748 35.6853 316.268 35.888C315.798 36.0907 315.276 36.192 314.7 36.192ZM314.7 34.752C315.297 34.752 315.777 34.5707 316.14 34.208C316.502 33.8347 316.684 33.28 316.684 32.544V31.136C316.684 30.4 316.502 29.8507 316.14 29.488C315.777 29.1147 315.297 28.928 314.7 28.928C314.102 28.928 313.622 29.1147 313.26 29.488C312.897 29.8507 312.716 30.4 312.716 31.136V32.544C312.716 33.28 312.897 33.8347 313.26 34.208C313.622 34.5707 314.102 34.752 314.7 34.752ZM325.699 34.624H325.619C325.437 35.1147 325.139 35.4987 324.723 35.776C324.317 36.0533 323.837 36.192 323.283 36.192C322.227 36.192 321.411 35.8133 320.835 35.056C320.259 34.288 319.971 33.216 319.971 31.84C319.971 30.464 320.259 29.3973 320.835 28.64C321.411 27.872 322.227 27.488 323.283 27.488C323.837 27.488 324.317 27.6267 324.723 27.904C325.139 28.1707 325.437 28.5547 325.619 29.056H325.699V24.16H327.443V36H325.699V34.624ZM323.811 34.688C324.344 34.688 324.792 34.56 325.155 34.304C325.517 34.0373 325.699 33.6907 325.699 33.264V30.416C325.699 29.9893 325.517 29.648 325.155 29.392C324.792 29.1253 324.344 28.992 323.811 28.992C323.203 28.992 322.717 29.1893 322.355 29.584C321.992 29.968 321.811 30.48 321.811 31.12V32.56C321.811 33.2 321.992 33.7173 322.355 34.112C322.717 34.496 323.203 34.688 323.811 34.688ZM333.2 36.192C332.602 36.192 332.069 36.0907 331.6 35.888C331.13 35.6853 330.73 35.3973 330.4 35.024C330.069 34.64 329.813 34.1813 329.632 33.648C329.461 33.104 329.376 32.5013 329.376 31.84C329.376 31.1787 329.461 30.5813 329.632 30.048C329.813 29.504 330.069 29.0453 330.4 28.672C330.73 28.288 331.13 27.9947 331.6 27.792C332.069 27.5893 332.602 27.488 333.2 27.488C333.808 27.488 334.341 27.5947 334.8 27.808C335.269 28.0213 335.658 28.32 335.968 28.704C336.277 29.0773 336.506 29.5147 336.656 30.016C336.816 30.5173 336.896 31.056 336.896 31.632V32.288H331.184V32.56C331.184 33.2 331.37 33.728 331.744 34.144C332.128 34.5493 332.672 34.752 333.376 34.752C333.888 34.752 334.32 34.64 334.672 34.416C335.024 34.192 335.322 33.888 335.568 33.504L336.592 34.512C336.282 35.024 335.834 35.4347 335.248 35.744C334.661 36.0427 333.978 36.192 333.2 36.192ZM333.2 28.848C332.901 28.848 332.624 28.9013 332.368 29.008C332.122 29.1147 331.909 29.264 331.728 29.456C331.557 29.648 331.424 29.8773 331.328 30.144C331.232 30.4107 331.184 30.704 331.184 31.024V31.136H335.056V30.976C335.056 30.336 334.89 29.824 334.56 29.44C334.229 29.0453 333.776 28.848 333.2 28.848ZM29.48 58.624H29.4C29.2187 59.1147 28.92 59.4987 28.504 59.776C28.0987 60.0533 27.6187 60.192 27.064 60.192C26.008 60.192 25.192 59.8133 24.616 59.056C24.04 58.288 23.752 57.216 23.752 55.84C23.752 54.464 24.04 53.3973 24.616 52.64C25.192 51.872 26.008 51.488 27.064 51.488C27.6187 51.488 28.0987 51.6267 28.504 51.904C28.92 52.1707 29.2187 52.5547 29.4 53.056H29.48V51.68H31.224V63.2H29.48V58.624ZM27.592 58.688C28.1253 58.688 28.5733 58.56 28.936 58.304C29.2987 58.0373 29.48 57.6907 29.48 57.264V54.416C29.48 53.9893 29.2987 53.648 28.936 53.392C28.5733 53.1253 28.1253 52.992 27.592 52.992C26.984 52.992 26.4987 53.1893 26.136 53.584C25.7733 53.968 25.592 54.48 25.592 55.12V56.56C25.592 57.2 25.7733 57.7173 26.136 58.112C26.4987 58.496 26.984 58.688 27.592 58.688ZM38.7568 58.624H38.6928C38.6181 58.8267 38.5168 59.024 38.3888 59.216C38.2714 59.408 38.1168 59.5787 37.9248 59.728C37.7434 59.8667 37.5194 59.9787 37.2528 60.064C36.9968 60.1493 36.6981 60.192 36.3568 60.192C35.4928 60.192 34.8208 59.9147 34.3408 59.36C33.8714 58.8053 33.6368 58.0107 33.6368 56.976V51.68H35.3808V56.752C35.3808 58.0427 35.9141 58.688 36.9808 58.688C37.2048 58.688 37.4234 58.6613 37.6368 58.608C37.8501 58.544 38.0368 58.4533 38.1968 58.336C38.3674 58.2187 38.5008 58.0693 38.5968 57.888C38.7034 57.7067 38.7568 57.4933 38.7568 57.248V51.68H40.5008V60H38.7568V58.624ZM46.262 60.192C45.6647 60.192 45.1313 60.0907 44.662 59.888C44.1927 59.6853 43.7927 59.3973 43.462 59.024C43.1313 58.64 42.8753 58.1813 42.694 57.648C42.5233 57.104 42.438 56.5013 42.438 55.84C42.438 55.1787 42.5233 54.5813 42.694 54.048C42.8753 53.504 43.1313 53.0453 43.462 52.672C43.7927 52.288 44.1927 51.9947 44.662 51.792C45.1313 51.5893 45.6647 51.488 46.262 51.488C46.87 51.488 47.4033 51.5947 47.862 51.808C48.3313 52.0213 48.7207 52.32 49.03 52.704C49.3393 53.0773 49.5687 53.5147 49.718 54.016C49.878 54.5173 49.958 55.056 49.958 55.632V56.288H44.246V56.56C44.246 57.2 44.4327 57.728 44.806 58.144C45.19 58.5493 45.734 58.752 46.438 58.752C46.95 58.752 47.382 58.64 47.734 58.416C48.086 58.192 48.3847 57.888 48.63 57.504L49.654 58.512C49.3447 59.024 48.8967 59.4347 48.31 59.744C47.7233 60.0427 47.0407 60.192 46.262 60.192ZM46.262 52.848C45.9633 52.848 45.686 52.9013 45.43 53.008C45.1847 53.1147 44.9713 53.264 44.79 53.456C44.6193 53.648 44.486 53.8773 44.39 54.144C44.294 54.4107 44.246 54.704 44.246 55.024V55.136H48.118V54.976C48.118 54.336 47.9527 53.824 47.622 53.44C47.2913 53.0453 46.838 52.848 46.262 52.848ZM55.6699 51.68H57.4139V61.12C57.4139 61.76 57.2485 62.2667 56.9179 62.64C56.5979 63.0133 56.0859 63.2 55.3819 63.2H54.3739V61.776H55.6699V51.68ZM56.5499 50.192C56.1872 50.192 55.9205 50.1067 55.7499 49.936C55.5899 49.7653 55.5099 49.5467 55.5099 49.28V49.008C55.5099 48.7413 55.5899 48.5227 55.7499 48.352C55.9205 48.1813 56.1872 48.096 56.5499 48.096C56.9125 48.096 57.1739 48.1813 57.3339 48.352C57.4939 48.5227 57.5739 48.7413 57.5739 49.008V49.28C57.5739 49.5467 57.4939 49.7653 57.3339 49.936C57.1739 50.1067 56.9125 50.192 56.5499 50.192ZM59.9043 52.96V48.16H61.4563V52.96H59.9043ZM70.0471 60C69.5885 60 69.2365 59.872 68.9911 59.616C68.7458 59.3493 68.5965 59.0133 68.5431 58.608H68.4631C68.3031 59.1307 68.0098 59.5253 67.5831 59.792C67.1565 60.0587 66.6391 60.192 66.0311 60.192C65.1671 60.192 64.5005 59.968 64.0311 59.52C63.5725 59.072 63.3431 58.4693 63.3431 57.712C63.3431 56.88 63.6418 56.256 64.2391 55.84C64.8471 55.424 65.7325 55.216 66.8951 55.216H68.3991V54.512C68.3991 54 68.2605 53.6053 67.9831 53.328C67.7058 53.0507 67.2738 52.912 66.6871 52.912C66.1965 52.912 65.7965 53.0187 65.4871 53.232C65.1778 53.4453 64.9165 53.7173 64.7031 54.048L63.6631 53.104C63.9405 52.6347 64.3298 52.2507 64.8311 51.952C65.3325 51.6427 65.9885 51.488 66.7991 51.488C67.8765 51.488 68.7031 51.7387 69.2791 52.24C69.8551 52.7413 70.1431 53.4613 70.1431 54.4V58.576H71.0231V60H70.0471ZM66.5271 58.864C67.0711 58.864 67.5191 58.7467 67.8711 58.512C68.2231 58.2667 68.3991 57.9413 68.3991 57.536V56.336H66.9271C65.7218 56.336 65.1191 56.7093 65.1191 57.456V57.744C65.1191 58.1173 65.2418 58.4 65.4871 58.592C65.7431 58.7733 66.0898 58.864 66.5271 58.864ZM73.6124 50.192C73.2497 50.192 72.983 50.1067 72.8124 49.936C72.6524 49.7653 72.5724 49.5467 72.5724 49.28V49.008C72.5724 48.7413 72.6524 48.5227 72.8124 48.352C72.983 48.1813 73.2497 48.096 73.6124 48.096C73.975 48.096 74.2364 48.1813 74.3964 48.352C74.5564 48.5227 74.6364 48.7413 74.6364 49.008V49.28C74.6364 49.5467 74.5564 49.7653 74.3964 49.936C74.2364 50.1067 73.975 50.192 73.6124 50.192ZM72.7324 51.68H74.4764V60H72.7324V51.68ZM83.964 60.192C83.3667 60.192 82.8333 60.0907 82.364 59.888C81.8947 59.6853 81.5 59.3973 81.18 59.024C80.86 58.64 80.6147 58.1813 80.444 57.648C80.2733 57.104 80.188 56.5013 80.188 55.84C80.188 55.1787 80.2733 54.5813 80.444 54.048C80.6147 53.504 80.86 53.0453 81.18 52.672C81.5 52.288 81.8947 51.9947 82.364 51.792C82.8333 51.5893 83.3667 51.488 83.964 51.488C84.796 51.488 85.4787 51.6747 86.012 52.048C86.5453 52.4213 86.9347 52.9173 87.18 53.536L85.74 54.208C85.6227 53.824 85.4147 53.52 85.116 53.296C84.828 53.0613 84.444 52.944 83.964 52.944C83.324 52.944 82.8387 53.1467 82.508 53.552C82.188 53.9467 82.028 54.464 82.028 55.104V56.592C82.028 57.232 82.188 57.7547 82.508 58.16C82.8387 58.5547 83.324 58.752 83.964 58.752C84.476 58.752 84.8813 58.6293 85.18 58.384C85.4893 58.128 85.7347 57.792 85.916 57.376L87.244 58.08C86.9667 58.7627 86.5507 59.2853 85.996 59.648C85.4413 60.0107 84.764 60.192 83.964 60.192ZM88.9043 60V51.68H90.6483V53.28H90.7283C90.8456 52.8533 91.0909 52.48 91.4643 52.16C91.8376 51.84 92.3549 51.68 93.0163 51.68H93.4803V53.36H92.7923C92.0989 53.36 91.5656 53.472 91.1923 53.696C90.8296 53.92 90.6483 54.2507 90.6483 54.688V60H88.9043ZM98.2151 60.192C97.6178 60.192 97.0845 60.0907 96.6151 59.888C96.1458 59.6853 95.7458 59.3973 95.4151 59.024C95.0845 58.64 94.8285 58.1813 94.6471 57.648C94.4765 57.104 94.3911 56.5013 94.3911 55.84C94.3911 55.1787 94.4765 54.5813 94.6471 54.048C94.8285 53.504 95.0845 53.0453 95.4151 52.672C95.7458 52.288 96.1458 51.9947 96.6151 51.792C97.0845 51.5893 97.6178 51.488 98.2151 51.488C98.8231 51.488 99.3565 51.5947 99.8151 51.808C100.284 52.0213 100.674 52.32 100.983 52.704C101.292 53.0773 101.522 53.5147 101.671 54.016C101.831 54.5173 101.911 55.056 101.911 55.632V56.288H96.1991V56.56C96.1991 57.2 96.3858 57.728 96.7591 58.144C97.1431 58.5493 97.6871 58.752 98.3911 58.752C98.9031 58.752 99.3351 58.64 99.6871 58.416C100.039 58.192 100.338 57.888 100.583 57.504L101.607 58.512C101.298 59.024 100.85 59.4347 100.263 59.744C99.6765 60.0427 98.9938 60.192 98.2151 60.192ZM98.2151 52.848C97.9165 52.848 97.6391 52.9013 97.3831 53.008C97.1378 53.1147 96.9245 53.264 96.7431 53.456C96.5725 53.648 96.4391 53.8773 96.3431 54.144C96.2471 54.4107 96.1991 54.704 96.1991 55.024V55.136H100.071V54.976C100.071 54.336 99.9058 53.824 99.5751 53.44C99.2445 53.0453 98.7911 52.848 98.2151 52.848ZM98.4231 50.688L97.3351 50.16L98.7911 47.28L100.311 48.016L98.4231 50.688ZM107.106 60.192C106.508 60.192 105.975 60.0907 105.506 59.888C105.036 59.6853 104.636 59.3973 104.306 59.024C103.975 58.64 103.719 58.1813 103.538 57.648C103.367 57.104 103.282 56.5013 103.282 55.84C103.282 55.1787 103.367 54.5813 103.538 54.048C103.719 53.504 103.975 53.0453 104.306 52.672C104.636 52.288 105.036 51.9947 105.506 51.792C105.975 51.5893 106.508 51.488 107.106 51.488C107.714 51.488 108.247 51.5947 108.706 51.808C109.175 52.0213 109.564 52.32 109.874 52.704C110.183 53.0773 110.412 53.5147 110.562 54.016C110.722 54.5173 110.802 55.056 110.802 55.632V56.288H105.09V56.56C105.09 57.2 105.276 57.728 105.65 58.144C106.034 58.5493 106.578 58.752 107.282 58.752C107.794 58.752 108.226 58.64 108.578 58.416C108.93 58.192 109.228 57.888 109.474 57.504L110.498 58.512C110.188 59.024 109.74 59.4347 109.154 59.744C108.567 60.0427 107.884 60.192 107.106 60.192ZM107.106 52.848C106.807 52.848 106.53 52.9013 106.274 53.008C106.028 53.1147 105.815 53.264 105.634 53.456C105.463 53.648 105.33 53.8773 105.234 54.144C105.138 54.4107 105.09 54.704 105.09 55.024V55.136H108.962V54.976C108.962 54.336 108.796 53.824 108.466 53.44C108.135 53.0453 107.682 52.848 107.106 52.848ZM107.314 50.688L106.226 50.16L107.682 47.28L109.202 48.016L107.314 50.688ZM117.586 48C117.991 48 118.284 48.096 118.466 48.288C118.647 48.48 118.738 48.7307 118.738 49.04V49.312C118.738 49.568 118.7 49.8347 118.626 50.112C118.551 50.3787 118.444 50.6453 118.306 50.912C118.167 51.1787 118.002 51.4347 117.81 51.68C117.618 51.9253 117.404 52.144 117.17 52.336H115.922C116.263 52.0053 116.54 51.68 116.754 51.36C116.967 51.04 117.132 50.6933 117.25 50.32C116.972 50.2667 116.764 50.1493 116.626 49.968C116.498 49.7867 116.434 49.5733 116.434 49.328V49.04C116.434 48.7307 116.524 48.48 116.706 48.288C116.887 48.096 117.18 48 117.586 48ZM121.042 48C121.447 48 121.74 48.096 121.922 48.288C122.103 48.48 122.194 48.7307 122.194 49.04V49.312C122.194 49.568 122.156 49.8347 122.082 50.112C122.007 50.3787 121.9 50.6453 121.762 50.912C121.623 51.1787 121.458 51.4347 121.266 51.68C121.074 51.9253 120.86 52.144 120.626 52.336H119.378C119.719 52.0053 119.996 51.68 120.21 51.36C120.423 51.04 120.588 50.6933 120.706 50.32C120.428 50.2667 120.22 50.1493 120.082 49.968C119.954 49.7867 119.89 49.5733 119.89 49.328V49.04C119.89 48.7307 119.98 48.48 120.162 48.288C120.343 48.096 120.636 48 121.042 48Z" fill="#2C294B"/>
<path d="M61.6386 27.68H63.3826V29.056H63.4626C63.644 28.5547 63.9373 28.1707 64.3426 27.904C64.7586 27.6267 65.244 27.488 65.7986 27.488C66.8546 27.488 67.6706 27.872 68.2466 28.64C68.8226 29.3973 69.1106 30.464 69.1106 31.84C69.1106 33.216 68.8226 34.288 68.2466 35.056C67.6706 35.8133 66.8546 36.192 65.7986 36.192C65.244 36.192 64.7586 36.0533 64.3426 35.776C63.9373 35.4987 63.644 35.1147 63.4626 34.624H63.3826V39.2H61.6386V27.68ZM65.2706 34.688C65.8786 34.688 66.364 34.496 66.7266 34.112C67.0893 33.7173 67.2706 33.2 67.2706 32.56V31.12C67.2706 30.48 67.0893 29.968 66.7266 29.584C66.364 29.1893 65.8786 28.992 65.2706 28.992C64.7373 28.992 64.2893 29.1253 63.9266 29.392C63.564 29.648 63.3826 29.9893 63.3826 30.416V33.264C63.3826 33.6907 63.564 34.0373 63.9266 34.304C64.2893 34.56 64.7373 34.688 65.2706 34.688ZM77.2034 36C76.7447 36 76.3927 35.872 76.1474 35.616C75.902 35.3493 75.7527 35.0133 75.6994 34.608H75.6194C75.4594 35.1307 75.166 35.5253 74.7394 35.792C74.3127 36.0587 73.7954 36.192 73.1874 36.192C72.3234 36.192 71.6567 35.968 71.1874 35.52C70.7287 35.072 70.4994 34.4693 70.4994 33.712C70.4994 32.88 70.798 32.256 71.3954 31.84C72.0034 31.424 72.8887 31.216 74.0514 31.216H75.5554V30.512C75.5554 30 75.4167 29.6053 75.1394 29.328C74.862 29.0507 74.43 28.912 73.8434 28.912C73.3527 28.912 72.9527 29.0187 72.6434 29.232C72.334 29.4453 72.0727 29.7173 71.8594 30.048L70.8194 29.104C71.0967 28.6347 71.486 28.2507 71.9874 27.952C72.4887 27.6427 73.1447 27.488 73.9554 27.488C75.0327 27.488 75.8594 27.7387 76.4354 28.24C77.0114 28.7413 77.2994 29.4613 77.2994 30.4V34.576H78.1794V36H77.2034ZM73.6834 34.864C74.2274 34.864 74.6754 34.7467 75.0274 34.512C75.3794 34.2667 75.5554 33.9413 75.5554 33.536V32.336H74.0834C72.878 32.336 72.2754 32.7093 72.2754 33.456V33.744C72.2754 34.1173 72.398 34.4 72.6434 34.592C72.8994 34.7733 73.246 34.864 73.6834 34.864ZM82.5286 36.192C81.7393 36.192 81.078 36.0533 80.5446 35.776C80.0113 35.4987 79.5473 35.1147 79.1526 34.624L80.2726 33.6C80.582 33.9733 80.9233 34.2667 81.2966 34.48C81.6806 34.6827 82.1233 34.784 82.6246 34.784C83.1366 34.784 83.5153 34.688 83.7606 34.496C84.0166 34.2933 84.1446 34.016 84.1446 33.664C84.1446 33.3973 84.054 33.1733 83.8726 32.992C83.702 32.8 83.398 32.6773 82.9606 32.624L82.1926 32.528C81.3393 32.4213 80.6673 32.176 80.1766 31.792C79.6966 31.3973 79.4566 30.816 79.4566 30.048C79.4566 29.6427 79.5313 29.2853 79.6806 28.976C79.83 28.656 80.038 28.3893 80.3046 28.176C80.582 27.952 80.9073 27.7813 81.2806 27.664C81.6646 27.5467 82.086 27.488 82.5446 27.488C83.2913 27.488 83.8993 27.6053 84.3686 27.84C84.8486 28.0747 85.2753 28.4 85.6486 28.816L84.5766 29.84C84.3633 29.584 84.0806 29.3653 83.7286 29.184C83.3873 28.992 82.9926 28.896 82.5446 28.896C82.0646 28.896 81.7073 28.992 81.4726 29.184C81.2486 29.376 81.1366 29.6267 81.1366 29.936C81.1366 30.256 81.238 30.496 81.4406 30.656C81.6433 30.816 81.9686 30.9333 82.4166 31.008L83.1846 31.104C84.102 31.2427 84.7686 31.5147 85.1846 31.92C85.6113 32.3147 85.8246 32.848 85.8246 33.52C85.8246 33.9253 85.7446 34.2933 85.5846 34.624C85.4353 34.944 85.2166 35.2213 84.9286 35.456C84.6406 35.6907 84.294 35.872 83.8886 36C83.4833 36.128 83.03 36.192 82.5286 36.192ZM90.3411 36.192C89.5518 36.192 88.8905 36.0533 88.3571 35.776C87.8238 35.4987 87.3598 35.1147 86.9651 34.624L88.0851 33.6C88.3945 33.9733 88.7358 34.2667 89.1091 34.48C89.4931 34.6827 89.9358 34.784 90.4371 34.784C90.9491 34.784 91.3278 34.688 91.5731 34.496C91.8291 34.2933 91.9571 34.016 91.9571 33.664C91.9571 33.3973 91.8665 33.1733 91.6851 32.992C91.5145 32.8 91.2105 32.6773 90.7731 32.624L90.0051 32.528C89.1518 32.4213 88.4798 32.176 87.9891 31.792C87.5091 31.3973 87.2691 30.816 87.2691 30.048C87.2691 29.6427 87.3438 29.2853 87.4931 28.976C87.6425 28.656 87.8505 28.3893 88.1171 28.176C88.3945 27.952 88.7198 27.7813 89.0931 27.664C89.4771 27.5467 89.8985 27.488 90.3571 27.488C91.1038 27.488 91.7118 27.6053 92.1811 27.84C92.6611 28.0747 93.0878 28.4 93.4611 28.816L92.3891 29.84C92.1758 29.584 91.8931 29.3653 91.5411 29.184C91.1998 28.992 90.8051 28.896 90.3571 28.896C89.8771 28.896 89.5198 28.992 89.2851 29.184C89.0611 29.376 88.9491 29.6267 88.9491 29.936C88.9491 30.256 89.0505 30.496 89.2531 30.656C89.4558 30.816 89.7811 30.9333 90.2291 31.008L90.9971 31.104C91.9145 31.2427 92.5811 31.5147 92.9971 31.92C93.4238 32.3147 93.6371 32.848 93.6371 33.52C93.6371 33.9253 93.5571 34.2933 93.3971 34.624C93.2478 34.944 93.0291 35.2213 92.7411 35.456C92.4531 35.6907 92.1065 35.872 91.7011 36C91.2958 36.128 90.8425 36.192 90.3411 36.192ZM96.4874 26.192C96.1247 26.192 95.858 26.1067 95.6874 25.936C95.5274 25.7653 95.4474 25.5467 95.4474 25.28V25.008C95.4474 24.7413 95.5274 24.5227 95.6874 24.352C95.858 24.1813 96.1247 24.096 96.4874 24.096C96.85 24.096 97.1114 24.1813 97.2714 24.352C97.4314 24.5227 97.5114 24.7413 97.5114 25.008V25.28C97.5114 25.5467 97.4314 25.7653 97.2714 25.936C97.1114 26.1067 96.85 26.192 96.4874 26.192ZM95.6074 27.68H97.3514V36H95.6074V27.68ZM103.106 36.192C102.53 36.192 102.002 36.0907 101.522 35.888C101.052 35.6853 100.652 35.3973 100.322 35.024C99.9911 34.64 99.7351 34.1813 99.5538 33.648C99.3724 33.104 99.2818 32.5013 99.2818 31.84C99.2818 31.1787 99.3724 30.5813 99.5538 30.048C99.7351 29.504 99.9911 29.0453 100.322 28.672C100.652 28.288 101.052 27.9947 101.522 27.792C102.002 27.5893 102.53 27.488 103.106 27.488C103.682 27.488 104.204 27.5893 104.674 27.792C105.154 27.9947 105.559 28.288 105.89 28.672C106.22 29.0453 106.476 29.504 106.658 30.048C106.839 30.5813 106.93 31.1787 106.93 31.84C106.93 32.5013 106.839 33.104 106.658 33.648C106.476 34.1813 106.22 34.64 105.89 35.024C105.559 35.3973 105.154 35.6853 104.674 35.888C104.204 36.0907 103.682 36.192 103.106 36.192ZM103.106 34.752C103.703 34.752 104.183 34.5707 104.546 34.208C104.908 33.8347 105.09 33.28 105.09 32.544V31.136C105.09 30.4 104.908 29.8507 104.546 29.488C104.183 29.1147 103.703 28.928 103.106 28.928C102.508 28.928 102.028 29.1147 101.666 29.488C101.303 29.8507 101.122 30.4 101.122 31.136V32.544C101.122 33.28 101.303 33.8347 101.666 34.208C102.028 34.5707 102.508 34.752 103.106 34.752ZM108.873 36V27.68H110.617V29.056H110.697C110.878 28.608 111.15 28.2347 111.513 27.936C111.886 27.6373 112.393 27.488 113.033 27.488C113.886 27.488 114.548 27.7707 115.017 28.336C115.497 28.8907 115.737 29.6853 115.737 30.72V36H113.993V30.944C113.993 29.6427 113.47 28.992 112.425 28.992C112.201 28.992 111.977 29.024 111.753 29.088C111.54 29.1413 111.348 29.2267 111.177 29.344C111.006 29.4613 110.868 29.6107 110.761 29.792C110.665 29.9733 110.617 30.1867 110.617 30.432V36H108.873Z" fill="#DA6858"/>
<path fill-rule="evenodd" clip-rule="evenodd" d="M119.734 38.9581C119.758 39.3993 119.419 39.7758 118.977 39.7989L72.0418 42.2587C71.6006 42.2818 71.2242 41.9429 71.2011 41.5016C71.1779 41.0604 71.5169 40.684 71.9581 40.6609L118.894 38.2011C119.335 38.1779 119.711 38.5169 119.734 38.9581Z" fill="#356461"/>
<path fill-rule="evenodd" clip-rule="evenodd" d="M116.7 42.9608C116.721 43.3744 116.404 43.7273 115.99 43.749L80.0393 45.6331C79.6256 45.6548 79.2727 45.337 79.251 44.9234C79.2294 44.5097 79.5471 44.1568 79.9608 44.1351L115.911 42.251C116.325 42.2294 116.678 42.5471 116.7 42.9608Z" fill="#2F3733"/>
</svg>
