<svg width="1441" height="543" viewBox="0 0 1441 543" fill="none" xmlns="http://www.w3.org/2000/svg">
<mask id="mask0_48_21924" style="mask-type:alpha" maskUnits="userSpaceOnUse" x="0" y="0" width="1441" height="543">
<rect width="1441" height="543" fill="#D9D9D9"/>
</mask>
<g mask="url(#mask0_48_21924)">
<path d="M-94 221.997H-57.4372C-20.8743 221.997 52.0382 221.997 125.59 215.988C198.396 210.203 271.628 197.849 344.115 210.035C417.667 221.997 491.219 257.938 563.705 260.914C636.937 264.115 709.743 233.79 783.295 242.944C856.208 251.76 929.333 300.057 1002.89 305.841C1075.48 311.85 1148.92 275.908 1221.41 257.938C1294.86 239.967 1367.45 239.967 1404.76 239.967H1441V186.055H1404.44C1367.87 186.055 1294.96 186.055 1221.41 186.055C1148.6 186.055 1075.37 186.055 1002.89 186.055C929.333 186.055 855.781 186.055 783.295 186.055C710.063 186.055 637.257 186.055 563.705 186.055C490.792 186.055 417.667 186.055 344.115 186.055C271.522 186.055 198.076 186.055 125.59 186.055C52.1448 186.055 -20.4479 186.055 -57.7569 186.055H-94V221.997Z" fill="#468681"/>
<path d="M1441 156.39H1404.44C1367.87 156.39 1294.96 156.39 1221.41 165.27C1148.6 173.819 1075.37 192.078 1002.89 174.068C929.333 156.39 855.781 103.273 783.295 98.8745C710.063 94.1438 637.257 138.961 563.705 125.433C490.792 112.403 417.667 41.0271 344.115 32.4786C271.522 23.5982 198.076 76.7149 125.59 103.273C52.1448 129.832 -20.4479 129.832 -57.7569 129.832H-94V209.507H-57.4371C-20.8742 209.507 52.0382 209.507 125.59 209.507C198.396 209.507 271.628 209.507 344.115 209.507C417.667 209.507 491.219 209.507 563.705 209.507C636.937 209.507 709.743 209.507 783.295 209.507C856.208 209.507 929.333 209.507 1002.89 209.507C1075.48 209.507 1148.92 209.507 1221.41 209.507C1294.86 209.507 1367.45 209.507 1404.76 209.507H1441V156.39Z" fill="#468681"/>
<path d="M0.000488281 325.283H34.3243C68.6481 325.283 137.096 325.283 206.143 330.92C274.491 336.346 343.239 347.937 411.286 336.505C480.334 325.283 549.381 291.566 617.429 288.774C686.176 285.771 754.524 314.22 823.572 305.633C892.019 297.361 960.667 252.054 1029.71 246.628C1097.86 240.991 1166.81 274.708 1234.86 291.566C1303.8 308.425 1371.95 308.425 1406.98 308.425H1441V359H1406.68C1372.35 359 1303.9 359 1234.86 359C1166.51 359 1097.76 359 1029.71 359C960.667 359 891.619 359 823.572 359C754.824 359 686.477 359 617.429 359C548.981 359 480.334 359 411.286 359C343.138 359 274.191 359 206.143 359C137.196 359 69.0484 359 34.0241 359H0.000488281V325.283Z" fill="#2F3733"/>
<path d="M1441 386.829H1406.68C1372.35 386.829 1303.9 386.829 1234.86 378.498C1166.51 370.479 1097.76 353.35 1029.71 370.246C960.667 386.829 891.619 436.659 823.572 440.785C754.824 445.223 686.477 403.18 617.429 415.871C548.981 428.094 480.334 495.052 411.286 503.072C343.139 511.403 274.191 461.573 206.144 436.659C137.196 411.744 69.0486 411.744 34.0244 411.744H0.000759125V337H34.3246C68.6484 337 137.096 337 206.144 337C274.491 337 343.239 337 411.286 337C480.334 337 549.382 337 617.429 337C686.177 337 754.524 337 823.572 337C892.019 337 960.667 337 1029.71 337C1097.86 337 1166.81 337 1234.86 337C1303.8 337 1371.95 337 1406.98 337H1441V386.829Z" fill="#2F3733"/>
<path d="M0.000488281 309.555H34.3243C68.6481 309.555 137.096 309.555 206.143 298.929C274.491 288.701 343.239 266.854 411.286 288.403C480.334 309.555 549.381 373.11 617.429 378.373C686.176 384.033 754.524 330.409 823.572 346.595C892.019 362.186 960.667 447.588 1029.71 457.816C1097.86 468.442 1166.81 404.887 1234.86 373.11C1303.8 341.332 1371.95 341.332 1406.98 341.332H1441V246H1406.68C1372.35 246 1303.9 246 1234.86 246C1166.51 246 1097.76 246 1029.71 246C960.667 246 891.619 246 823.572 246C754.824 246 686.477 246 617.429 246C548.981 246 480.334 246 411.286 246C343.138 246 274.191 246 206.143 246C137.196 246 69.0484 246 34.0241 246H0.000488281V309.555Z" fill="#9BCAC7"/>
<path d="M1441 204.147H1406.68C1372.35 204.147 1303.9 204.147 1234.86 214.822C1166.51 225.099 1097.76 247.048 1029.71 225.398C960.667 204.147 891.619 140.294 823.572 135.006C754.824 129.319 686.477 183.195 617.429 166.932C548.981 151.268 480.334 65.4657 411.286 55.1893C343.139 44.5139 274.191 108.367 206.144 140.294C137.196 172.22 69.0486 172.22 34.0244 172.22H0.000759125V268H34.3246C68.6484 268 137.096 268 206.144 268C274.491 268 343.239 268 411.286 268C480.334 268 549.382 268 617.429 268C686.177 268 754.524 268 823.572 268C892.019 268 960.667 268 1029.71 268C1097.86 268 1166.81 268 1234.86 268C1303.8 268 1371.95 268 1406.98 268H1441V204.147Z" fill="#9BCAC7"/>
<rect x="0.000488281" y="214" width="517.359" height="122" fill="#9BCAC7"/>
<ellipse cx="143.859" cy="213.406" rx="82.4249" ry="71.8699" fill="#9BCAC7"/>
<mask id="mask1_48_21924" style="mask-type:alpha" maskUnits="userSpaceOnUse" x="54" y="132" width="181" height="164">
<path d="M229.078 213.743C229.078 255.449 191.576 290.083 144.246 290.083C96.9163 290.083 59.4146 255.449 59.4146 213.743C59.4146 172.037 96.9164 137.403 144.246 137.403C191.576 137.403 229.078 172.037 229.078 213.743Z" stroke="#252C29" stroke-width="10" stroke-miterlimit="10"/>
</mask>
<g mask="url(#mask1_48_21924)">
<rect x="4.86768" y="72.0879" width="277.982" height="142.125" fill="#2F3733"/>
</g>
<mask id="mask2_48_21924" style="mask-type:alpha" maskUnits="userSpaceOnUse" x="76" y="152" width="135" height="124">
<path d="M187.503 173.736C211.731 195.826 211.731 231.642 187.503 253.733C163.274 275.824 123.992 275.824 99.7636 253.733C75.5351 231.642 75.5351 195.826 99.7636 173.736C123.992 151.645 163.274 151.645 187.503 173.736Z" stroke="#252C29" stroke-width="10" stroke-miterlimit="10"/>
</mask>
<g mask="url(#mask2_48_21924)">
<path d="M7.3667 89.3125H284.252V199.287H145.431H7.3667V89.3125Z" fill="#2F3733"/>
</g>
<mask id="mask3_48_21924" style="mask-type:alpha" maskUnits="userSpaceOnUse" x="95" y="169" width="97" height="89">
<path d="M174.884 187.003C191.026 202.708 190.178 227.411 172.897 242.176C155.616 256.941 128.524 256.11 112.383 240.404C96.2413 224.699 97.0894 199.996 114.37 185.231C131.651 170.467 158.743 171.298 174.884 187.003Z" stroke="#252C29" stroke-width="10" stroke-miterlimit="10"/>
</mask>
<g mask="url(#mask3_48_21924)">
<rect x="6.70508" y="90.0127" width="277.108" height="109.96" fill="#2F3733"/>
</g>
<mask id="mask4_48_21924" style="mask-type:alpha" maskUnits="userSpaceOnUse" x="117" y="189" width="53" height="49">
<path d="M164.694 213.743C164.694 223.683 155.706 232.511 143.626 232.511C131.546 232.511 122.558 223.683 122.558 213.743C122.558 203.802 131.546 194.975 143.626 194.975C155.706 194.975 164.694 203.802 164.694 213.743Z" stroke="#252C29" stroke-width="10" stroke-miterlimit="10"/>
</mask>
<g mask="url(#mask4_48_21924)">
<rect x="6.70459" y="90.0127" width="277.108" height="122.178" fill="#2F3733"/>
</g>
<ellipse cx="334.567" cy="213.406" rx="82.4249" ry="71.8699" fill="#9BCAC7"/>
<mask id="mask5_48_21924" style="mask-type:alpha" maskUnits="userSpaceOnUse" x="245" y="132" width="180" height="164">
<path d="M419.787 213.743C419.787 255.449 382.285 290.083 334.955 290.083C287.625 290.083 250.123 255.449 250.123 213.743C250.123 172.037 287.625 137.403 334.955 137.403C382.285 137.403 419.787 172.037 419.787 213.743Z" stroke="#252C29" stroke-width="10" stroke-miterlimit="10"/>
</mask>
<g mask="url(#mask5_48_21924)">
<rect x="195.576" y="72.0879" width="277.982" height="142.125" fill="#2F3733"/>
</g>
<mask id="mask6_48_21924" style="mask-type:alpha" maskUnits="userSpaceOnUse" x="267" y="152" width="135" height="124">
<path d="M378.211 173.736C402.44 195.826 402.44 231.642 378.211 253.733C353.983 275.824 314.701 275.824 290.472 253.733C266.244 231.642 266.244 195.826 290.472 173.736C314.701 151.645 353.983 151.645 378.211 173.736Z" stroke="#252C29" stroke-width="10" stroke-miterlimit="10"/>
</mask>
<g mask="url(#mask6_48_21924)">
<path d="M198.809 89.8535H475.174V199.677H336.614H198.809V89.8535Z" fill="#2F3733"/>
</g>
<mask id="mask7_48_21924" style="mask-type:alpha" maskUnits="userSpaceOnUse" x="286" y="169" width="97" height="89">
<path d="M365.593 187.003C381.734 202.708 380.886 227.411 363.605 242.176C346.325 256.941 319.233 256.11 303.091 240.404C286.95 224.699 287.798 199.996 305.079 185.231C322.359 170.467 349.451 171.298 365.593 187.003Z" stroke="#252C29" stroke-width="10" stroke-miterlimit="10"/>
</mask>
<g mask="url(#mask7_48_21924)">
<rect x="197.413" y="90.0127" width="277.108" height="109.96" fill="#2F3733"/>
</g>
<mask id="mask8_48_21924" style="mask-type:alpha" maskUnits="userSpaceOnUse" x="308" y="189" width="53" height="49">
<path d="M355.403 213.743C355.403 223.683 346.415 232.511 334.335 232.511C322.254 232.511 313.267 223.683 313.267 213.743C313.267 203.802 322.254 194.975 334.335 194.975C346.415 194.975 355.403 203.802 355.403 213.743Z" stroke="#252C29" stroke-width="10" stroke-miterlimit="10"/>
</mask>
<g mask="url(#mask8_48_21924)">
<rect x="197.413" y="90.0127" width="277.108" height="122.178" fill="#2F3733"/>
</g>
<ellipse cx="239.408" cy="242.738" rx="82.0569" ry="70.5" fill="#9BCAC7"/>
<mask id="mask9_48_21924" style="mask-type:alpha" maskUnits="userSpaceOnUse" x="150" y="168" width="180" height="164">
<path d="M324.674 249.743C324.674 291.449 287.172 326.083 239.842 326.083C192.512 326.083 155.01 291.449 155.01 249.743C155.01 208.037 192.512 173.403 239.842 173.403C287.172 173.403 324.674 208.037 324.674 249.743Z" stroke="#252C29" stroke-width="10" stroke-miterlimit="10"/>
</mask>
<g mask="url(#mask9_48_21924)">
<rect x="100.765" y="108.537" width="276.938" height="121.158" fill="#2F3733"/>
</g>
<mask id="mask10_48_21924" style="mask-type:alpha" maskUnits="userSpaceOnUse" x="171" y="188" width="136" height="124">
<path d="M283.099 209.736C307.327 231.826 307.327 267.642 283.099 289.733C258.87 311.824 219.588 311.824 195.36 289.733C171.131 267.642 171.131 231.826 195.36 209.736C219.588 187.645 258.87 187.645 283.099 209.736Z" stroke="#252C29" stroke-width="10" stroke-miterlimit="10"/>
</mask>
<g mask="url(#mask10_48_21924)">
<path d="M103.696 125.854H380.062V237.292H241.502H103.696V125.854Z" fill="#2F3733"/>
</g>
<mask id="mask11_48_21924" style="mask-type:alpha" maskUnits="userSpaceOnUse" x="191" y="205" width="97" height="89">
<path d="M270.48 223.003C286.622 238.708 285.774 263.411 268.493 278.176C251.212 292.941 224.121 292.11 207.979 276.404C191.837 260.699 192.686 235.996 209.966 221.231C227.247 206.467 254.339 207.298 270.48 223.003Z" stroke="#252C29" stroke-width="10" stroke-miterlimit="10"/>
</mask>
<g mask="url(#mask11_48_21924)">
<rect x="102.301" y="126.013" width="277.108" height="109.96" fill="#2F3733"/>
</g>
<mask id="mask12_48_21924" style="mask-type:alpha" maskUnits="userSpaceOnUse" x="213" y="225" width="53" height="49">
<path d="M260.29 249.743C260.29 259.683 251.303 268.511 239.222 268.511C227.142 268.511 218.154 259.683 218.154 249.743C218.154 239.802 227.142 230.975 239.222 230.975C251.303 230.975 260.29 239.802 260.29 249.743Z" stroke="#252C29" stroke-width="10" stroke-miterlimit="10"/>
</mask>
<g mask="url(#mask12_48_21924)">
<rect x="102.301" y="126.012" width="277.108" height="122.178" fill="#2F3733"/>
</g>
<ellipse cx="519.649" cy="266.406" rx="82.4249" ry="71.8699" fill="#9BCAC7"/>
<mask id="mask13_48_21924" style="mask-type:alpha" maskUnits="userSpaceOnUse" x="430" y="185" width="180" height="164">
<path d="M604.868 266.743C604.868 308.449 567.367 343.083 520.036 343.083C472.706 343.083 435.205 308.449 435.205 266.743C435.205 225.037 472.706 190.403 520.036 190.403C567.367 190.403 604.868 225.037 604.868 266.743Z" stroke="#252C29" stroke-width="10" stroke-miterlimit="10"/>
</mask>
<g mask="url(#mask13_48_21924)">
<rect x="380.264" y="125" width="278.193" height="131" fill="#2F3733"/>
</g>
<mask id="mask14_48_21924" style="mask-type:alpha" maskUnits="userSpaceOnUse" x="452" y="205" width="135" height="124">
<path d="M563.293 226.736C587.522 248.826 587.522 284.642 563.293 306.733C539.065 328.824 499.783 328.824 475.554 306.733C451.326 284.642 451.326 248.826 475.554 226.736C499.783 204.645 539.065 204.645 563.293 226.736Z" stroke="#252C29" stroke-width="10" stroke-miterlimit="10"/>
</mask>
<g mask="url(#mask14_48_21924)">
<path d="M384.267 143H660.459V253H521.986H384.267V143Z" fill="#2F3733"/>
</g>
<mask id="mask15_48_21924" style="mask-type:alpha" maskUnits="userSpaceOnUse" x="471" y="222" width="97" height="89">
<path d="M550.675 240.003C566.816 255.708 565.968 280.411 548.687 295.176C531.407 309.941 504.315 309.11 488.173 293.404C472.032 277.699 472.88 252.996 490.161 238.231C507.441 223.467 534.533 224.298 550.675 240.003Z" stroke="#252C29" stroke-width="10" stroke-miterlimit="10"/>
</mask>
<g mask="url(#mask15_48_21924)">
<rect x="382.495" y="143.013" width="277.108" height="109.96" fill="#2F3733"/>
</g>
<mask id="mask16_48_21924" style="mask-type:alpha" maskUnits="userSpaceOnUse" x="493" y="242" width="53" height="49">
<path d="M540.485 266.743C540.485 276.683 531.497 285.511 519.417 285.511C507.336 285.511 498.349 276.683 498.349 266.743C498.349 256.802 507.336 247.975 519.417 247.975C531.497 247.975 540.485 256.802 540.485 266.743Z" stroke="#252C29" stroke-width="10" stroke-miterlimit="10"/>
</mask>
<g mask="url(#mask16_48_21924)">
<rect x="382.495" y="143.013" width="277.108" height="122.178" fill="#2F3733"/>
</g>
<path fill-rule="evenodd" clip-rule="evenodd" d="M602.408 256H760.528C763.289 256 765.528 253.761 765.528 251C765.528 248.239 763.289 246 760.528 246H599.253C600.641 249.218 601.705 252.558 602.408 256ZM447.301 256C448.013 252.558 449.089 249.218 450.488 246H96.0669V256H447.301Z" fill="#2F3733"/>
<ellipse cx="421.793" cy="282.5" rx="82.5573" ry="53.5" fill="#9BCAC7"/>
<mask id="mask17_48_21924" style="mask-type:alpha" maskUnits="userSpaceOnUse" x="332" y="219" width="180" height="163">
<path d="M506.674 300.647C506.674 342.352 469.172 376.986 421.842 376.986C374.512 376.986 337.01 342.352 337.01 300.647C337.01 258.941 374.512 224.307 421.842 224.307C469.172 224.307 506.674 258.941 506.674 300.647Z" stroke="#252C29" stroke-width="10" stroke-miterlimit="10"/>
</mask>
<g mask="url(#mask17_48_21924)">
<path d="M285.188 159.44H562.126V280.598H285.188V159.44Z" fill="#2F3733"/>
</g>
<mask id="mask18_48_21924" style="mask-type:alpha" maskUnits="userSpaceOnUse" x="353" y="239" width="136" height="123">
<path d="M465.099 260.64C489.327 282.73 489.327 318.546 465.099 340.637C440.87 362.727 401.588 362.727 377.36 340.637C353.131 318.546 353.131 282.73 377.36 260.64C401.588 238.549 440.87 238.549 465.099 260.64Z" stroke="#252C29" stroke-width="10" stroke-miterlimit="10"/>
</mask>
<g mask="url(#mask18_48_21924)">
<path d="M285.696 176.757H562.062V288.196H423.502H285.696V176.757Z" fill="#2F3733"/>
</g>
<mask id="mask19_48_21924" style="mask-type:alpha" maskUnits="userSpaceOnUse" x="373" y="256" width="97" height="89">
<path d="M452.48 273.906C468.622 289.612 467.774 314.315 450.493 329.079C433.212 343.844 406.121 343.013 389.979 327.308C373.837 311.603 374.686 286.9 391.966 272.135C409.247 257.37 436.339 258.201 452.48 273.906Z" stroke="#252C29" stroke-width="10" stroke-miterlimit="10"/>
</mask>
<g mask="url(#mask19_48_21924)">
<rect x="332.565" y="176.757" width="229.497" height="111.439" fill="#2F3733"/>
</g>
<mask id="mask20_48_21924" style="mask-type:alpha" maskUnits="userSpaceOnUse" x="395" y="276" width="53" height="49">
<path d="M442.29 300.646C442.29 310.587 433.303 319.414 421.222 319.414C409.142 319.414 400.154 310.587 400.154 300.646C400.154 290.706 409.142 281.878 421.222 281.878C433.303 281.878 442.29 290.706 442.29 300.646Z" stroke="#252C29" stroke-width="10" stroke-miterlimit="10"/>
</mask>
<g mask="url(#mask20_48_21924)">
<rect x="284.3" y="176.916" width="277.108" height="122.178" fill="#2F3733"/>
</g>
<path d="M0.000488281 251H358.249" stroke="#2F3733" stroke-width="10"/>
<path d="M0.000488281 267.965H348.242" stroke="#2F3733" stroke-width="10"/>
<path d="M0.000488281 217H163.114" stroke="#2F3733" stroke-width="10"/>
<path d="M317.221 217H456.317" stroke="#2F3733" stroke-width="10"/>
<path d="M1300.9 308.253C1303.67 308.253 1305.9 306.014 1305.9 303.253C1305.9 300.492 1303.67 298.253 1300.9 298.253V308.253ZM-0.00195312 308.253H1300.9V298.253H-0.00195313L-0.00195312 308.253Z" fill="#2F3733"/>
<path d="M1093.76 272.5C1096.52 272.5 1098.76 270.261 1098.76 267.5C1098.76 264.739 1096.52 262.5 1093.76 262.5V272.5ZM499.346 272.5H1093.76V262.5H499.346V272.5Z" fill="#2F3733"/>
<path d="M834.579 324C837.341 324 839.579 321.761 839.579 319C839.579 316.239 837.341 314 834.579 314V324ZM0.000488281 324H834.579V314H0.000488281V324Z" fill="#2F3733"/>
<path d="M575.4 341C578.161 341 580.4 338.761 580.4 336C580.4 333.239 578.161 331 575.4 331V341ZM0.000488281 341H575.4V331H0.000488281V341Z" fill="#2F3733"/>
<path fill-rule="evenodd" clip-rule="evenodd" d="M318.443 239H380.765V229H316.257C317.162 232.256 317.892 235.595 318.443 239ZM161.317 239C161.828 235.578 162.518 232.241 163.384 229H0.000488281V239H161.317Z" fill="#2F3733"/>
<path fill-rule="evenodd" clip-rule="evenodd" d="M500.686 290H1007.7C1010.47 290 1012.7 287.761 1012.7 285C1012.7 282.239 1010.47 280 1007.7 280H498.854C499.798 283.237 500.419 286.577 500.686 290ZM344.034 290C344.306 286.577 344.937 283.237 345.891 280H0V290H344.034Z" fill="#2F3733"/>
</g>
</svg>
