<svg width="1441" height="543" viewBox="0 0 1441 543" fill="none" xmlns="http://www.w3.org/2000/svg">
<mask id="mask0_48_21924" style="mask-type:alpha" maskUnits="userSpaceOnUse" x="0" y="0" width="1441" height="543">
<rect width="1441" height="543" fill="#D9D9D9"/>
</mask>
<g mask="url(#mask0_48_21924)">
<path d="M-94 221.997H-57.4372C-20.8743 221.997 52.0382 221.997 125.59 215.988C198.396 210.203 271.628 197.849 344.115 210.035C417.667 221.997 491.219 257.938 563.705 260.914C636.937 264.115 709.743 233.79 783.295 242.944C856.208 251.76 929.333 300.057 1002.89 305.841C1075.48 311.85 1148.92 275.908 1221.41 257.938C1294.86 239.967 1367.45 239.967 1404.76 239.967H1441V186.055H1404.44C1367.87 186.055 1294.96 186.055 1221.41 186.055C1148.6 186.055 1075.37 186.055 1002.89 186.055C929.333 186.055 855.781 186.055 783.295 186.055C710.063 186.055 637.257 186.055 563.705 186.055C490.792 186.055 417.667 186.055 344.115 186.055C271.522 186.055 198.076 186.055 125.59 186.055C52.1448 186.055 -20.4479 186.055 -57.7569 186.055H-94V221.997Z" fill="#468681"/>
<path d="M1441 156.39H1404.44C1367.87 156.39 1294.96 156.39 1221.41 165.27C1148.6 173.819 1075.37 192.078 1002.89 174.068C929.333 156.39 855.781 103.273 783.295 98.8745C710.063 94.1438 637.257 138.961 563.705 125.433C490.792 112.403 417.667 41.0271 344.115 32.4786C271.522 23.5982 198.076 76.7149 125.59 103.273C52.1448 129.832 -20.4479 129.832 -57.757 129.832H-94V209.507H-57.4371C-20.8743 209.507 52.0382 209.507 125.59 209.507C198.396 209.507 271.629 209.507 344.115 209.507C417.667 209.507 491.219 209.507 563.705 209.507C636.937 209.507 709.743 209.507 783.295 209.507C856.208 209.507 929.333 209.507 1002.89 209.507C1075.48 209.507 1148.92 209.507 1221.41 209.507C1294.86 209.507 1367.45 209.507 1404.76 209.507H1441V156.39Z" fill="#468681"/>
<path d="M0 262.283H34.3238C68.6476 262.283 137.095 262.283 206.143 267.92C274.49 273.346 343.238 284.937 411.285 273.505C480.333 262.283 549.381 228.566 617.428 225.774C686.176 222.771 754.523 251.22 823.571 242.633C892.019 234.361 960.666 189.054 1029.71 183.628C1097.86 177.991 1166.81 211.708 1234.86 228.566C1303.8 245.425 1371.95 245.425 1406.98 245.425H1441V296H1406.68C1372.35 296 1303.9 296 1234.86 296C1166.51 296 1097.76 296 1029.71 296C960.666 296 891.618 296 823.571 296C754.823 296 686.476 296 617.428 296C548.981 296 480.333 296 411.285 296C343.138 296 274.19 296 206.143 296C137.195 296 69.0479 296 34.0236 296H0V262.283Z" fill="#2F3733"/>
<path d="M1441 323.829H1406.68C1372.35 323.829 1303.9 323.829 1234.86 315.498C1166.51 307.479 1097.76 290.35 1029.71 307.246C960.666 323.829 891.619 373.659 823.571 377.785C754.824 382.223 686.476 340.18 617.428 352.871C548.981 365.094 480.333 432.052 411.285 440.072C343.138 448.403 274.19 398.573 206.143 373.659C137.195 348.744 69.0482 348.744 34.0239 348.744H0.000270844V274H34.3241C68.6479 274 137.095 274 206.143 274C274.491 274 343.238 274 411.285 274C480.333 274 549.381 274 617.428 274C686.176 274 754.523 274 823.571 274C892.019 274 960.666 274 1029.71 274C1097.86 274 1166.81 274 1234.86 274C1303.8 274 1371.95 274 1406.98 274H1441V323.829Z" fill="#2F3733"/>
<path d="M0.000701904 309.555H34.3245C68.6483 309.555 137.096 309.555 206.144 298.929C274.491 288.701 343.239 266.854 411.286 288.403C480.334 309.555 549.382 373.11 617.429 378.373C686.177 384.033 754.524 330.409 823.572 346.595C892.019 362.186 960.667 447.588 1029.71 457.816C1097.86 468.442 1166.81 404.887 1234.86 373.11C1303.8 341.332 1371.95 341.332 1406.98 341.332H1441V246H1406.68C1372.35 246 1303.9 246 1234.86 246C1166.51 246 1097.76 246 1029.71 246C960.667 246 891.619 246 823.572 246C754.824 246 686.477 246 617.429 246C548.981 246 480.334 246 411.286 246C343.139 246 274.191 246 206.144 246C137.196 246 69.0486 246 34.0243 246H0.000701904V309.555Z" fill="#9BCAC7"/>
<path d="M1441 204.147H1406.68C1372.35 204.147 1303.91 204.147 1234.86 214.822C1166.51 225.099 1097.76 247.048 1029.72 225.398C960.667 204.147 891.619 140.294 823.572 135.006C754.824 129.319 686.477 183.195 617.429 166.932C548.982 151.268 480.334 65.4657 411.286 55.1893C343.139 44.5139 274.191 108.367 206.144 140.294C137.196 172.22 69.0488 172.22 34.0245 172.22H0.000976562V268H34.3248C68.6487 268 137.096 268 206.144 268C274.491 268 343.239 268 411.286 268C480.334 268 549.382 268 617.429 268C686.177 268 754.524 268 823.572 268C892.02 268 960.667 268 1029.72 268C1097.86 268 1166.81 268 1234.86 268C1303.81 268 1371.95 268 1406.98 268H1441V204.147Z" fill="#9BCAC7"/>
<rect y="214" width="517" height="39" fill="#9BCAC7"/>
</g>
</svg>
