<svg width="120" height="129" viewBox="0 0 120 129" fill="none" xmlns="http://www.w3.org/2000/svg">
<path d="M43.7454 78.0831C43.7454 78.0831 12.7833 80.7222 12.2197 43.8834C12.2197 43.8834 47.1158 43.2733 46.0957 75.5475L33.6286 65.5674L43.7454 78.0831Z" fill="#214521"/>
<path d="M42.5027 78.3405C39.1351 78.3405 29.6862 77.694 22.2408 71.0079C15.6297 65.072 12.1832 55.9455 12 43.8861V43.665L12.2198 43.6594C12.3861 43.6566 28.6745 43.4915 38.6251 53.5107C44.0245 58.9457 46.6143 66.3622 46.324 75.5502L46.3099 75.9952L35.094 67.0171L44.1851 78.2649L43.768 78.3013C43.7455 78.3013 43.289 78.3377 42.5056 78.3377L42.5027 78.3405ZM12.4481 44.1044C12.6679 55.9259 16.0636 64.8677 22.5396 70.6805C30.6133 77.929 41.0796 77.971 43.3002 77.8843L32.1689 64.112L45.8844 75.0912C46.0732 66.2362 43.5257 59.0828 38.3038 53.8241C29.1197 44.5746 14.4292 44.1212 12.4453 44.1016L12.4481 44.1044Z" fill="#214521"/>
<path d="M57.5456 77.1847C57.5456 77.1847 17.9574 44.3759 60.6201 0.313721C60.6201 0.313721 102.46 40.0772 63.3001 76.9188L60.3468 50.6981L57.5484 77.1819L57.5456 77.1847Z" fill="#214521"/>
<path d="M57.7261 77.6184L57.4049 77.3525C57.2499 77.2238 41.7928 64.1904 40.6712 43.8917C39.8624 29.2687 46.5215 14.5561 60.4625 0.159768L60.6175 0.000244141L60.7781 0.154171C60.9725 0.338883 80.3214 18.9976 80.2622 42.2853C80.2312 54.9128 74.5753 66.6197 63.4581 77.0839L63.134 77.3889L60.3582 52.7523L57.7289 77.6184H57.7261ZM60.6259 0.627145C46.885 14.8779 40.3189 29.4226 41.1164 43.8609C42.1338 62.3405 55.1532 74.747 57.371 76.734L60.3413 48.6466L63.475 76.4542C74.2851 66.1579 79.7831 54.6638 79.8169 42.2881C79.8733 20.313 62.4858 2.47147 60.6287 0.629944L60.6259 0.627145Z" fill="#214521"/>
<path d="M77.0665 78.0828C77.0665 78.0828 108.029 80.722 108.592 43.8831C108.592 43.8831 73.6961 43.273 74.7163 75.5472L87.1834 65.5672L77.0665 78.0828Z" fill="#214521"/>
<path d="M78.3121 78.3404C77.5287 78.3404 77.0722 78.304 77.0496 78.304L76.6325 78.2676L85.7236 67.0198L74.5077 75.9979L74.4936 75.5529C74.2034 66.3649 76.7932 58.9484 82.1926 53.5134C92.1432 43.4914 108.432 43.6677 108.598 43.6621L108.82 43.6677V43.8888C108.632 55.951 105.188 65.0747 98.5768 71.0107C91.1315 77.6967 81.6825 78.3432 78.3149 78.3432L78.3121 78.3404ZM77.5146 77.8842C79.738 77.957 90.2072 77.9262 98.2809 70.6776C104.754 64.8648 108.147 55.9231 108.367 44.1043C106.386 44.1211 91.6923 44.5745 82.5082 53.8269C77.2863 59.0856 74.7388 66.2389 74.9276 75.0939L88.6431 64.1148L77.5118 77.887L77.5146 77.8842Z" fill="#214521"/>
<path d="M34.4453 120.813C33.6619 121.504 32.498 121.851 30.9566 121.851H27.9131V128.059H27V113.914H30.9566C32.5262 113.914 33.6957 114.275 34.4679 114.992C35.24 115.711 35.6233 116.682 35.6233 117.902C35.6233 119.123 35.2316 120.122 34.4453 120.813ZM34.7102 117.902C34.7102 116.867 34.4115 116.078 33.8169 115.535C33.2223 114.992 32.267 114.718 30.9566 114.718H27.9131V121.045H30.9566C33.459 121.045 34.7102 119.999 34.7102 117.902Z" fill="#214521"/>
<path d="M38.9882 113.145V128.056H38.0752V113.145H38.9882Z" fill="#214521"/>
<path d="M42.4487 119.613C42.9024 118.767 43.5308 118.115 44.3368 117.659C45.1399 117.203 46.0586 116.973 47.0872 116.973C48.2511 116.973 49.2374 117.256 50.049 117.819C50.8606 118.384 51.4299 119.1 51.7539 119.974V117.113H52.667V128.056H51.7539V125.173C51.4299 126.061 50.8578 126.788 50.0405 127.359C49.2233 127.93 48.237 128.216 47.0872 128.216C46.0586 128.216 45.1428 127.983 44.3368 127.522C43.5308 127.057 42.9024 126.399 42.4487 125.546C41.995 124.692 41.7695 123.701 41.7695 122.574C41.7695 121.446 41.995 120.458 42.4487 119.613ZM51.1537 120.046C50.7535 119.313 50.2096 118.751 49.5192 118.353C48.8288 117.956 48.0594 117.76 47.2056 117.76C46.3517 117.76 45.5288 117.95 44.8525 118.334C44.1762 118.717 43.6492 119.271 43.2687 119.996C42.8911 120.721 42.6995 121.58 42.6995 122.576C42.6995 123.573 42.8883 124.429 43.2687 125.157C43.6464 125.882 44.179 126.438 44.8609 126.83C45.5429 127.219 46.3263 127.415 47.2056 127.415C48.0848 127.415 48.8316 127.217 49.5277 126.822C50.2237 126.424 50.7676 125.862 51.1621 125.129C51.5538 124.395 51.7511 123.547 51.7511 122.579C51.7511 121.611 51.551 120.782 51.1537 120.049V120.046Z" fill="#214521"/>
<path d="M64.1677 118.093C64.9934 118.893 65.4048 120.077 65.4048 121.65V128.059H64.5115V121.712C64.5115 120.407 64.1789 119.411 63.5167 118.72C62.8544 118.028 61.9555 117.681 60.817 117.681C59.6785 117.681 58.6752 118.056 57.9651 118.809C57.2549 119.562 56.8999 120.676 56.8999 122.154V128.059H55.9868V117.116H56.8999V119.433C57.2099 118.613 57.7284 117.986 58.4526 117.55C59.1769 117.113 60.011 116.895 60.9579 116.895C62.2711 116.895 63.3391 117.295 64.1648 118.093H64.1677Z" fill="#214521"/>
<path d="M69.9922 117.9V125.134C69.9922 125.94 70.1416 126.494 70.4375 126.797C70.7362 127.099 71.2632 127.25 72.0212 127.25H73.2584V128.056H71.8775C70.9165 128.056 70.2092 127.832 69.7583 127.381C69.3046 126.931 69.0792 126.184 69.0792 125.134V117.9H67.4165V117.113H69.0792V114.331H69.9922V117.113H73.2584V117.9H69.9922Z" fill="#214521"/>
<path d="M85.5539 122.937H76.0373C76.0626 123.917 76.2796 124.745 76.6854 125.417C77.0912 126.089 77.6267 126.592 78.2889 126.928C78.9512 127.264 79.6754 127.432 80.4588 127.432C81.541 127.432 82.4484 127.166 83.1783 126.637C83.9081 126.105 84.3675 125.386 84.5591 124.471H85.5116C85.2946 125.588 84.7395 126.489 83.849 127.18C82.9556 127.871 81.8256 128.218 80.4616 128.218C79.433 128.218 78.5144 127.989 77.7027 127.533C76.8911 127.077 76.2543 126.422 75.7949 125.568C75.3356 124.715 75.1045 123.718 75.1045 122.576C75.1045 121.434 75.3299 120.441 75.7836 119.593C76.2374 118.748 76.8686 118.098 77.6802 117.648C78.4918 117.197 79.4189 116.973 80.4588 116.973C81.4987 116.973 82.4315 117.197 83.2092 117.648C83.987 118.098 84.5788 118.695 84.9846 119.442C85.3904 120.186 85.5933 120.989 85.5933 121.849C85.5933 122.333 85.5792 122.694 85.5539 122.937ZM84.1646 119.733C83.7785 119.061 83.2543 118.56 82.5921 118.233C81.9298 117.903 81.2112 117.74 80.4419 117.74C79.6726 117.74 78.9568 117.905 78.3002 118.233C77.6436 118.563 77.111 119.061 76.6967 119.733C76.2853 120.405 76.0626 121.225 76.0373 122.19H84.6803C84.7197 121.222 84.5478 120.405 84.1618 119.733H84.1646Z" fill="#214521"/>
<path d="M13.731 97.0522C13.731 97.9876 13.5163 98.8462 13.087 99.6282C12.6577 100.395 11.9983 101.016 11.109 101.491C10.2197 101.967 9.11567 102.204 7.797 102.204H5.359V108H1.426V91.8542H7.797C9.085 91.8542 10.1737 92.0766 11.063 92.5212C11.9523 92.9659 12.6193 93.5792 13.064 94.3612C13.5087 95.1432 13.731 96.0402 13.731 97.0522ZM7.498 99.0762C8.24933 99.0762 8.809 98.8999 9.177 98.5472C9.545 98.1946 9.729 97.6962 9.729 97.0522C9.729 96.4082 9.545 95.9099 9.177 95.5572C8.809 95.2046 8.24933 95.0282 7.498 95.0282H5.359V99.0762H7.498ZM19.7115 90.9802V108H15.7785V90.9802H19.7115ZM21.7797 101.56C21.7797 100.242 22.0251 99.0839 22.5157 98.0872C23.0217 97.0906 23.7041 96.3239 24.5627 95.7872C25.4214 95.2506 26.3797 94.9822 27.4377 94.9822C28.3424 94.9822 29.1321 95.1662 29.8067 95.5342C30.4967 95.9022 31.0257 96.3852 31.3937 96.9832V95.1662H35.3267V108H31.3937V106.183C31.0104 106.781 30.4737 107.264 29.7837 107.632C29.1091 108 28.3194 108.184 27.4147 108.184C26.3721 108.184 25.4214 107.916 24.5627 107.379C23.7041 106.827 23.0217 106.053 22.5157 105.056C22.0251 104.044 21.7797 102.879 21.7797 101.56ZM31.3937 101.583C31.3937 100.602 31.1177 99.8276 30.5657 99.2602C30.0291 98.6929 29.3697 98.4092 28.5877 98.4092C27.8057 98.4092 27.1387 98.6929 26.5867 99.2602C26.0501 99.8122 25.7817 100.579 25.7817 101.56C25.7817 102.542 26.0501 103.324 26.5867 103.906C27.1387 104.474 27.8057 104.757 28.5877 104.757C29.3697 104.757 30.0291 104.474 30.5657 103.906C31.1177 103.339 31.3937 102.565 31.3937 101.583ZM45.9921 95.0282C47.4948 95.0282 48.6908 95.5189 49.5801 96.5002C50.4848 97.4662 50.9371 98.8002 50.9371 100.502V108H47.0271V101.031C47.0271 100.173 46.8048 99.5056 46.3601 99.0302C45.9154 98.5549 45.3174 98.3172 44.5661 98.3172C43.8148 98.3172 43.2168 98.5549 42.7721 99.0302C42.3274 99.5056 42.1051 100.173 42.1051 101.031V108H38.1721V95.1662H42.1051V96.8682C42.5038 96.3009 43.0404 95.8562 43.7151 95.5342C44.3898 95.1969 45.1488 95.0282 45.9921 95.0282ZM60.8231 104.665V108H58.8221C57.3961 108 56.2845 107.655 55.4871 106.965C54.6898 106.26 54.2911 105.118 54.2911 103.538V98.4322H52.7271V95.1662H54.2911V92.0382H58.2241V95.1662H60.8001V98.4322H58.2241V103.584C58.2241 103.968 58.3161 104.244 58.5001 104.412C58.6841 104.581 58.9908 104.665 59.4201 104.665H60.8231ZM68.8559 108.184C67.5986 108.184 66.4639 107.916 65.4519 107.379C64.4552 106.843 63.6656 106.076 63.0829 105.079C62.5156 104.083 62.2319 102.917 62.2319 101.583C62.2319 100.265 62.5232 99.1069 63.1059 98.1102C63.6886 97.0982 64.4859 96.3239 65.4979 95.7872C66.5099 95.2506 67.6446 94.9822 68.9019 94.9822C70.1592 94.9822 71.2939 95.2506 72.3059 95.7872C73.3179 96.3239 74.1152 97.0982 74.6979 98.1102C75.2806 99.1069 75.5719 100.265 75.5719 101.583C75.5719 102.902 75.2729 104.067 74.6749 105.079C74.0922 106.076 73.2872 106.843 72.2599 107.379C71.2479 107.916 70.1132 108.184 68.8559 108.184ZM68.8559 104.78C69.6072 104.78 70.2436 104.504 70.7649 103.952C71.3016 103.4 71.5699 102.611 71.5699 101.583C71.5699 100.556 71.3092 99.7662 70.7879 99.2142C70.2819 98.6622 69.6532 98.3862 68.9019 98.3862C68.1352 98.3862 67.4989 98.6622 66.9929 99.2142C66.4869 99.7509 66.2339 100.541 66.2339 101.583C66.2339 102.611 66.4792 103.4 66.9699 103.952C67.4759 104.504 68.1046 104.78 68.8559 104.78ZM81.5914 96.9832C81.9748 96.3852 82.5038 95.9022 83.1784 95.5342C83.8531 95.1662 84.6428 94.9822 85.5474 94.9822C86.6054 94.9822 87.5638 95.2506 88.4224 95.7872C89.2811 96.3239 89.9558 97.0906 90.4464 98.0872C90.9524 99.0839 91.2054 100.242 91.2054 101.56C91.2054 102.879 90.9524 104.044 90.4464 105.056C89.9558 106.053 89.2811 106.827 88.4224 107.379C87.5638 107.916 86.6054 108.184 85.5474 108.184C84.6581 108.184 83.8684 108 83.1784 107.632C82.5038 107.264 81.9748 106.789 81.5914 106.206V114.118H77.6584V95.1662H81.5914V96.9832ZM87.2034 101.56C87.2034 100.579 86.9274 99.8122 86.3754 99.2602C85.8388 98.6929 85.1718 98.4092 84.3744 98.4092C83.5924 98.4092 82.9254 98.6929 82.3734 99.2602C81.8368 99.8276 81.5684 100.602 81.5684 101.583C81.5684 102.565 81.8368 103.339 82.3734 103.906C82.9254 104.474 83.5924 104.757 84.3744 104.757C85.1564 104.757 85.8234 104.474 86.3754 103.906C86.9274 103.324 87.2034 102.542 87.2034 101.56ZM95.2468 93.8322C94.5568 93.8322 93.9894 93.6329 93.5448 93.2342C93.1154 92.8202 92.9008 92.3142 92.9008 91.7162C92.9008 91.1029 93.1154 90.5969 93.5448 90.1982C93.9894 89.7842 94.5568 89.5772 95.2468 89.5772C95.9214 89.5772 96.4734 89.7842 96.9028 90.1982C97.3474 90.5969 97.5698 91.1029 97.5698 91.7162C97.5698 92.3142 97.3474 92.8202 96.9028 93.2342C96.4734 93.6329 95.9214 93.8322 95.2468 93.8322ZM97.2018 95.1662V108H93.2688V95.1662H97.2018ZM99.27 101.56C99.27 100.242 99.5153 99.0839 100.006 98.0872C100.512 97.0906 101.194 96.3239 102.053 95.7872C102.912 95.2506 103.87 94.9822 104.928 94.9822C105.833 94.9822 106.622 95.1662 107.297 95.5342C107.987 95.9022 108.516 96.3852 108.884 96.9832V95.1662H112.817V108H108.884V106.183C108.501 106.781 107.964 107.264 107.274 107.632C106.599 108 105.81 108.184 104.905 108.184C103.862 108.184 102.912 107.916 102.053 107.379C101.194 106.827 100.512 106.053 100.006 105.056C99.5153 104.044 99.27 102.879 99.27 101.56ZM108.884 101.583C108.884 100.602 108.608 99.8276 108.056 99.2602C107.519 98.6929 106.86 98.4092 106.078 98.4092C105.296 98.4092 104.629 98.6929 104.077 99.2602C103.54 99.8122 103.272 100.579 103.272 101.56C103.272 102.542 103.54 103.324 104.077 103.906C104.629 104.474 105.296 104.757 106.078 104.757C106.86 104.757 107.519 104.474 108.056 103.906C108.608 103.339 108.884 102.565 108.884 101.583Z" fill="#214521"/>
</svg>
