<svg width="32" height="32" viewBox="0 0 32 32" fill="none" xmlns="http://www.w3.org/2000/svg">
<g clip-path="url(#clip0_553_3785)">
<mask id="mask0_553_3785" style="mask-type:luminance" maskUnits="userSpaceOnUse" x="6" y="9" width="20" height="15">
<path d="M6 9.00098H26V23.7516H6V9.00098Z" fill="white"/>
</mask>
<g mask="url(#mask0_553_3785)">
<path d="M26 16.0471V16.7055C25.9937 16.7412 25.9858 16.7763 25.9817 16.8118C25.9477 17.0983 25.9256 17.3865 25.8785 17.6708C25.7248 18.5947 25.3924 19.4535 24.8986 20.2476C24.1486 21.4532 23.1348 22.3725 21.8607 23.0003C21.1254 23.3644 20.3326 23.5984 19.5174 23.6918C19.3363 23.7128 19.1554 23.7315 18.9743 23.7514H11.9481C11.9128 23.7448 11.8775 23.7343 11.8418 23.7322C11.1333 23.6876 10.4517 23.5261 9.80198 23.2418C8.38749 22.6229 7.33284 21.6197 6.64247 20.239C6.33741 19.63 6.13998 18.9728 6.05893 18.2965C6.03901 18.132 6.01959 17.9677 6 17.8035V17.1646C6.00675 17.1292 6.01712 17.0938 6.01926 17.0583C6.05597 16.4444 6.18189 15.8484 6.40362 15.2755C7.00033 13.7342 8.04049 12.5909 9.51868 11.851C10.2856 11.467 11.103 11.2652 11.958 11.2204C12.3766 11.1987 12.7949 11.2221 13.211 11.2779C13.2487 11.283 13.303 11.2662 13.3292 11.2393C13.9276 10.6281 14.6089 10.1317 15.3771 9.75539C16.1223 9.39045 16.9065 9.15522 17.732 9.06106C17.9263 9.03884 18.121 9.02057 18.3156 9.00049H18.9146C18.9537 9.00658 18.9931 9.01349 19.0323 9.0181C19.3291 9.05267 19.6275 9.0744 19.9215 9.12362C20.8387 9.27753 21.6925 9.60674 22.4826 10.0958C23.6942 10.8458 24.6174 11.8609 25.2482 13.1389C25.613 13.8746 25.8472 14.6681 25.9404 15.4839C25.9618 15.6718 25.9801 15.8596 26 16.0471ZM14.8173 11.7865C14.8293 11.8023 14.8323 11.8097 14.8374 11.8122C15.2487 12.0149 15.6419 12.2527 16.0125 12.5228C16.0359 12.5397 16.0938 12.5327 16.1221 12.5149C17.1407 11.8695 18.2449 11.6467 19.4311 11.8571C20.5934 12.0632 21.5393 12.6439 22.2619 13.5715C23.0802 14.6212 23.3921 15.8082 23.1663 17.1289C23.0148 18.014 22.6602 18.8081 22.0576 19.4732C20.958 20.6859 19.5811 21.1875 17.9602 20.9751C16.9623 20.8444 16.1009 20.414 15.388 19.6935C14.4729 18.7692 13.5519 17.851 12.6342 16.9292C12.5119 16.8064 12.3758 16.7076 12.1997 16.6861C11.892 16.6484 11.6128 16.802 11.48 17.0783C11.3615 17.3251 11.3768 17.6033 11.6339 17.8561C12.657 18.8604 13.6709 19.8739 14.6928 20.8792C14.8677 21.0521 15.0553 21.2117 15.254 21.3567C16.0005 21.8988 16.8421 22.1985 17.7536 22.3192C18.469 22.4137 19.1788 22.3934 19.8831 22.2351C21.2267 21.9333 22.3396 21.2476 23.2161 20.1895C23.9399 19.3151 24.3776 18.3103 24.5302 17.1822C24.6186 16.5389 24.6002 15.8855 24.4756 15.2482C24.2723 14.2062 23.8314 13.2739 23.1251 12.4803C21.7774 10.9671 20.082 10.2915 18.0644 10.4423C17.2882 10.5002 16.5541 10.7282 15.8632 11.0899C15.4904 11.2836 15.1397 11.5171 14.8173 11.7865ZM14.3236 22.3504C14.2959 22.3247 14.2682 22.2989 14.2407 22.2729C13.8224 21.878 13.4018 21.4856 12.9885 21.0856C12.9085 21.0082 12.8349 20.9705 12.7216 20.9732C12.303 20.9834 11.8841 20.9852 11.4716 20.892C9.42058 20.4281 8.22963 18.1982 8.98551 16.236C9.58173 14.6889 11.2323 13.7467 12.8599 14.0372C13.5895 14.1674 14.2298 14.4762 14.7554 15.0183C15.3964 15.68 16.0565 16.3228 16.7044 16.9778C16.8519 17.1269 17.0212 17.1949 17.2255 17.1658C17.4895 17.1281 17.6998 17.0023 17.7952 16.7434C17.8887 16.4886 17.8435 16.2472 17.6505 16.0518C16.9705 15.363 16.3067 14.6568 15.5992 13.9972C14.227 12.7174 12.6089 12.3368 10.8193 12.881C8.41218 13.6123 7.00346 16.0979 7.55342 18.5506C8.05465 20.7853 10.0091 22.3537 12.296 22.3557C12.9345 22.3564 13.5732 22.356 14.2117 22.3557C14.2433 22.3557 14.2749 22.3529 14.3236 22.3504Z" fill="#DA1F26"/>
</g>
</g>
<defs>
<clipPath id="clip0_553_3785">
<rect width="20" height="14.752" fill="white" transform="translate(6 9)"/>
</clipPath>
</defs>
</svg>
