<svg width="40" height="40" viewBox="0 0 40 40" fill="none" xmlns="http://www.w3.org/2000/svg">
<path d="M19.9853 36.8758L10.1842 34.1549L8 9.65723H32L29.8136 34.1511L19.9853 36.8758Z" fill="#264DE4"/>
<path d="M27.9417 32.5913L29.8101 11.6602H20V34.793L27.9417 32.5913Z" fill="#2965F1"/>
<path d="M13.0074 20.7463L13.2767 23.7508H20.0003V20.7463H13.0074ZM12.4663 14.665L12.7394 17.6696H20.0003V14.665H12.4663ZM20.0003 28.5494L19.9871 28.5529L16.641 27.6494L16.427 25.2531H13.4109L13.8318 29.9707L19.9865 31.6791L20.0003 31.6754V28.5494Z" fill="#EBEBEB"/>
<path d="M13.6479 3H17.2869V4.52179H15.1697V6.04358H17.287V7.56527H13.6479V3ZM18.0147 3H21.6537V4.32329H19.5365V4.58793H21.6537V7.6315H18.0148V6.24189H20.132V5.97725H18.0146L18.0147 3ZM22.3816 3H26.0206V4.32329H23.9034V4.58793H26.0206V7.6315H22.3816V6.24189H24.4988V5.97725H22.3817V3H22.3816Z" fill="black"/>
<path d="M26.9738 20.7463L27.5162 14.665H19.9898V17.6696H24.2235L23.9501 20.7463H19.9898V23.7508H23.6896L23.3408 27.6475L19.9897 28.5519V31.6777L26.1493 29.9707L26.1944 29.4631L26.9006 21.5531L26.9738 20.7463Z" fill="white"/>
</svg>
