<svg width="40" height="40" viewBox="0 0 40 40" fill="none" xmlns="http://www.w3.org/2000/svg">
<path d="M32.2599 7H15.0799C13.5887 7 12.3799 8.20884 12.3799 9.7V30.14C12.3799 31.6312 13.5887 32.84 15.0799 32.84H32.2599C33.751 32.84 34.9599 31.6312 34.9599 30.14V9.7C34.9599 8.20884 33.751 7 32.2599 7Z" fill="#408854" stroke="#366F45" stroke-miterlimit="10"/>
<path d="M34.4599 19.9302H11.8799V26.1402H34.4599V19.9302Z" fill="#49985C"/>
<path d="M15.0301 7.5H32.3201C33.5001 7.5 34.4601 8.46 34.4601 9.64V13.71H12.8701V9.66C12.8701 8.47 13.8401 7.5 15.0301 7.5Z" fill="#56B26A"/>
<path d="M34.4599 13.71H11.8799V19.92H34.4599V13.71Z" fill="#4EA464"/>
<g filter="url(#filter0_d_820_1012)">
<path d="M17.52 12.54H7.33C6.04317 12.54 5 13.5832 5 14.87V25.47C5 26.7569 6.04317 27.8 7.33 27.8H17.52C18.8068 27.8 19.85 26.7569 19.85 25.47V14.87C19.85 13.5832 18.8068 12.54 17.52 12.54Z" fill="#408854"/>
<path d="M17.52 12.54H7.33C6.04317 12.54 5 13.5832 5 14.87V25.47C5 26.7569 6.04317 27.8 7.33 27.8H17.52C18.8068 27.8 19.85 26.7569 19.85 25.47V14.87C19.85 13.5832 18.8068 12.54 17.52 12.54Z" stroke="#366F45" stroke-miterlimit="10"/>
</g>
<path d="M9.95002 24.0098L12.242 19.9418L10.106 16.1378H11.21L12.278 18.1538C12.382 18.3298 12.478 18.5058 12.566 18.6818C12.662 18.8578 12.77 19.0618 12.89 19.2938H12.938C13.05 19.0618 13.146 18.8578 13.226 18.6818C13.314 18.5058 13.406 18.3298 13.502 18.1538L14.546 16.1378H15.602L13.454 19.9898L15.746 24.0098H14.642L13.49 21.8858C13.386 21.6938 13.278 21.4978 13.166 21.2978C13.062 21.0898 12.946 20.8658 12.818 20.6258H12.77C12.658 20.8658 12.55 21.0898 12.446 21.2978C12.342 21.4978 12.242 21.6938 12.146 21.8858L11.006 24.0098H9.95002Z" fill="white"/>
<defs>
<filter id="filter0_d_820_1012" x="4.5" y="12.04" width="16.8501" height="17.2598" filterUnits="userSpaceOnUse" color-interpolation-filters="sRGB">
<feFlood flood-opacity="0" result="BackgroundImageFix"/>
<feColorMatrix in="SourceAlpha" type="matrix" values="0 0 0 0 0 0 0 0 0 0 0 0 0 0 0 0 0 0 127 0" result="hardAlpha"/>
<feOffset dx="1" dy="1"/>
<feColorMatrix type="matrix" values="0 0 0 0 0.188235 0 0 0 0 0.4 0 0 0 0 0.239216 0 0 0 0.6 0"/>
<feBlend mode="normal" in2="BackgroundImageFix" result="effect1_dropShadow_820_1012"/>
<feBlend mode="normal" in="SourceGraphic" in2="effect1_dropShadow_820_1012" result="shape"/>
</filter>
</defs>
</svg>
