<svg width="40" height="40" viewBox="0 0 40 40" fill="none" xmlns="http://www.w3.org/2000/svg">
<g clip-path="url(#clip0_820_868)">
<path d="M15.3947 33.3679C17.8205 33.3679 19.7893 31.3991 19.7893 28.9733V24.5786H15.3947C12.9688 24.5786 11 26.5474 11 28.9733C11 31.3991 12.9688 33.3679 15.3947 33.3679Z" fill="#0ACF83"/>
<path d="M11 20.1842C11 17.7584 12.9688 15.7896 15.3947 15.7896H19.7893V24.5789H15.3947C12.9688 24.5789 11 22.6101 11 20.1842Z" fill="#A259FF"/>
<path d="M11 11.3947C11 8.96881 12.9688 7 15.3947 7H19.7893V15.7893H15.3947C12.9688 15.7893 11 13.8205 11 11.3947Z" fill="#F24E1E"/>
<path d="M19.7896 7H24.1842C26.6101 7 28.5789 8.96881 28.5789 11.3947C28.5789 13.8205 26.6101 15.7893 24.1842 15.7893H19.7896V7Z" fill="#FF7262"/>
<path d="M28.5789 20.1842C28.5789 22.6101 26.6101 24.5789 24.1842 24.5789C21.7584 24.5789 19.7896 22.6101 19.7896 20.1842C19.7896 17.7584 21.7584 15.7896 24.1842 15.7896C26.6101 15.7896 28.5789 17.7584 28.5789 20.1842Z" fill="#1ABCFE"/>
</g>
<defs>
<clipPath id="clip0_820_868">
<rect width="17.5787" height="26.368" fill="white" transform="translate(11 7)"/>
</clipPath>
</defs>
</svg>
