<svg width="40" height="40" viewBox="0 0 40 40" fill="none" xmlns="http://www.w3.org/2000/svg">
<path d="M32.2264 24.3966C32.2264 24.3966 32.1841 24.1405 32.1594 24.1428L27.4528 24.5912C27.0783 24.6269 26.7874 24.9217 26.7611 25.2922L26.6318 27.122L22.9906 27.3784L22.7429 25.7202C22.6877 25.3513 22.3615 25.0733 21.9839 25.0733H17.0163C16.6388 25.0733 16.3126 25.3513 16.2574 25.7202L16.0096 27.3784L12.3684 27.122L12.2391 25.2922C12.2128 24.9216 11.9219 24.6267 11.5474 24.591L6.83847 24.1428C6.81415 24.1405 6.79633 24.3968 6.772 24.3968L6.76562 25.4024L10.7537 26.0374L10.8843 27.8834C10.9107 28.2571 11.2161 28.5593 11.5949 28.5862L16.6097 28.9394C16.6287 28.9406 16.6474 28.9414 16.6661 28.9414C17.043 28.9414 17.3687 28.6632 17.4239 28.2944L17.6787 26.5881H21.3216L21.5765 28.2944C21.6315 28.6631 21.9576 28.9413 22.335 28.9413C22.3534 28.9413 22.3719 28.9406 22.39 28.9394L27.4054 28.5862C27.7841 28.5593 28.0896 28.2571 28.116 27.8834L28.2465 26.0374L32.2329 25.3996L32.2264 24.3966Z" fill="white"/>
<path d="M6.77184 16.8143V22.9164V23.6915V24.3968C6.78589 24.397 6.79994 24.3975 6.81386 24.3988L11.5223 24.847C11.7689 24.8705 11.9622 25.0665 11.9794 25.3105L12.1246 27.3625L16.2318 27.6519L16.5147 25.7579C16.5514 25.5124 16.7647 25.3304 17.0163 25.3304H21.9838C22.2353 25.3304 22.4486 25.5124 22.4853 25.7579L22.7682 27.6519L26.8756 27.3625L27.0206 25.3105C27.0379 25.0665 27.2311 24.8706 27.4777 24.847L32.1843 24.3988C32.1982 24.3975 32.2122 24.397 32.2262 24.3968V23.7918L32.2282 23.7912V16.8143H32.2456C32.8693 16.0283 33.4465 15.2001 34 14.3165C33.2649 13.081 32.3642 11.9769 31.4015 10.954C30.5086 11.3977 29.6414 11.9004 28.8222 12.4353C28.4123 12.033 27.9507 11.704 27.4972 11.3601C27.0517 11.0068 26.5496 10.7477 26.0733 10.4459C26.2151 9.40347 26.2853 8.3772 26.3135 7.30611C25.0847 6.69556 23.7744 6.29076 22.449 6C21.9198 6.87806 21.4359 7.82894 21.0145 8.75851C20.5147 8.67606 20.0126 8.64549 19.5098 8.63958V8.63881C19.5063 8.63881 19.5031 8.63958 19.5001 8.63958C19.4969 8.63958 19.4937 8.63881 19.4906 8.63881V8.63958C18.9869 8.64549 18.4852 8.67606 17.9853 8.75851C17.5641 7.82894 17.0804 6.87806 16.5505 6C15.2257 6.29076 13.9153 6.69556 12.6867 7.30611C12.7147 8.3772 12.7849 9.40347 12.927 10.4459C12.4499 10.7477 11.9484 11.0068 11.5028 11.3601C11.05 11.704 10.5875 12.033 10.1775 12.4353C9.35838 11.9004 8.49139 11.3977 7.59825 10.954C6.63552 11.9769 5.73535 13.081 5 14.3165C5.55324 15.2001 6.1308 16.0283 6.75441 16.8143H6.77184Z" fill="#478CBF"/>
<path d="M28.0023 25.8027L27.8565 27.8657C27.8389 28.1143 27.6386 28.3122 27.3868 28.3301L22.3715 28.6834C22.3593 28.6843 22.347 28.6847 22.3349 28.6847C22.0857 28.6847 21.8707 28.5041 21.8339 28.257L21.5462 26.3314H17.454L17.1664 28.257C17.1278 28.5162 16.8931 28.7025 16.6288 28.6834L11.6135 28.3301C11.3616 28.3122 11.1613 28.1143 11.1437 27.8657L10.9979 25.8027L6.76416 25.3997C6.76611 25.849 6.77197 26.3411 6.77197 26.4391C6.77197 30.8537 12.4442 32.9756 19.4915 33H19.5001H19.5088C26.5561 32.9756 32.2263 30.8537 32.2263 26.4391C32.2263 26.3393 32.2324 25.8492 32.2345 25.3997L28.0023 25.8027Z" fill="#478CBF"/>
<path d="M15.6628 19.8922C15.6628 21.44 14.3926 22.6938 12.8254 22.6938C11.2589 22.6938 9.98828 21.44 9.98828 19.8922C9.98828 18.3454 11.2589 17.0922 12.8254 17.0922C14.3926 17.0922 15.6628 18.3454 15.6628 19.8922Z" fill="white"/>
<path d="M14.9803 20.0582C14.9803 21.0849 14.1375 21.917 13.0968 21.917C12.0567 21.917 11.2134 21.0849 11.2134 20.0582C11.2134 19.0316 12.0567 18.1987 13.0968 18.1987C14.1375 18.1987 14.9803 19.0316 14.9803 20.0582Z" fill="#414042"/>
<path d="M19.4997 22.9487C18.9953 22.9487 18.5864 22.5817 18.5864 22.1292V19.5503C18.5864 19.0982 18.9953 18.7308 19.4997 18.7308C20.0042 18.7308 20.4139 19.0982 20.4139 19.5503V22.1292C20.4139 22.5817 20.0042 22.9487 19.4997 22.9487Z" fill="white"/>
<path d="M23.3374 19.8922C23.3374 21.44 24.6076 22.6938 26.1751 22.6938C27.7414 22.6938 29.012 21.44 29.012 19.8922C29.012 18.3454 27.7414 17.0922 26.1751 17.0922C24.6076 17.0922 23.3374 18.3454 23.3374 19.8922Z" fill="white"/>
<path d="M24.02 20.0582C24.02 21.0849 24.8626 21.917 25.9024 21.917C26.9433 21.917 27.7859 21.0849 27.7859 20.0582C27.7859 19.0316 26.9433 18.1987 25.9024 18.1987C24.8626 18.1987 24.02 19.0316 24.02 20.0582Z" fill="#414042"/>
</svg>
