<svg width="40" height="40" viewBox="0 0 40 40" fill="none" xmlns="http://www.w3.org/2000/svg">
<path d="M32 9.65723L29.8136 34.1511L19.9853 36.8758L10.1842 34.1549L8 9.65723H32Z" fill="#E44D26"/>
<path d="M20 34.7935L27.9417 32.5918L29.8101 11.6606H20V34.7935Z" fill="#F16529"/>
<path d="M15.7494 17.6696H19.9998V14.665H12.4658L12.5377 15.4711L13.2762 23.7508H19.9998V20.7463H16.024L15.7494 17.6696ZM16.4266 25.2531H13.4104L13.8313 29.9707L19.986 31.6792L19.9998 31.6754V28.5494L19.9866 28.5529L16.6405 27.6494L16.4266 25.2531Z" fill="#EBEBEB"/>
<path d="M10.2329 3H11.7598V4.50853H13.1565V3H14.6835V7.56819H13.1566V6.0385H11.7599V7.56819H10.233L10.2329 3ZM16.6913 4.51492H15.3473V3H19.5633V4.51492H18.2185V7.56819H16.6916V4.51492H16.6913ZM20.2324 3H21.8244L22.8038 4.60514L23.7822 3H25.3749V7.56819H23.8542V5.30395L22.8038 6.92819H22.7774L21.7263 5.30395V7.56819H20.2324V3ZM26.1348 3H27.6621V6.05826H29.8093V7.56819H26.1347V3H26.1348Z" fill="black"/>
<path d="M19.9894 23.7508H23.6891L23.3403 27.6475L19.9893 28.5519V31.6777L26.1488 29.9707L26.1939 29.4631L26.9001 21.5531L26.9734 20.7463H19.9894V23.7508ZM19.9894 17.6622V17.6696H27.2467L27.3069 16.9943L27.4439 15.4711L27.5157 14.665H19.9894V17.6622Z" fill="white"/>
</svg>
