<svg width="22" height="22" viewBox="0 0 22 22" fill="none" xmlns="http://www.w3.org/2000/svg">
<path d="M19.772 8.156L18.404 4.051C18.2055 3.45348 17.8238 2.9337 17.3131 2.56551C16.8024 2.19732 16.1886 1.99944 15.559 2H6.441C5.81139 1.99944 5.19761 2.19732 4.68688 2.56551C4.17615 2.9337 3.79445 3.45348 3.596 4.051L2.228 8.156C1.86461 8.30848 1.55428 8.56476 1.33584 8.89276C1.11741 9.22077 1.00059 9.60592 1 10V15C1 15.753 1.423 16.402 2.039 16.743C2.026 16.809 2 16.869 2 16.938V19C2 19.2652 2.10536 19.5196 2.29289 19.7071C2.48043 19.8946 2.73478 20 3 20H4C4.26522 20 4.51957 19.8946 4.70711 19.7071C4.89464 19.5196 5 19.2652 5 19V17H17V19C17 19.2652 17.1054 19.5196 17.2929 19.7071C17.4804 19.8946 17.7348 20 18 20H19C19.2652 20 19.5196 19.8946 19.7071 19.7071C19.8946 19.5196 20 19.2652 20 19V16.938C20 16.869 19.974 16.808 19.961 16.743C20.2744 16.5721 20.5362 16.3202 20.7189 16.0136C20.9017 15.707 20.9988 15.3569 21 15V10C21 9.171 20.492 8.459 19.772 8.156ZM3 15V10H19L19.002 15H3ZM6.441 4H15.558C15.989 4 16.371 4.274 16.507 4.684L17.613 8H4.387L5.492 4.684C5.55835 4.4848 5.68572 4.31153 5.85605 4.18876C6.02638 4.06599 6.23103 3.99995 6.441 4Z" fill="#748B80"/>
<path d="M5.49997 13.9998C6.3284 13.9998 6.99997 13.3282 6.99997 12.4998C6.99997 11.6713 6.3284 10.9998 5.49997 10.9998C4.67154 10.9998 3.99997 11.6713 3.99997 12.4998C3.99997 13.3282 4.67154 13.9998 5.49997 13.9998Z" fill="#748B80"/>
<path d="M16.5 13.9998C17.3284 13.9998 18 13.3282 18 12.4998C18 11.6713 17.3284 10.9998 16.5 10.9998C15.6716 10.9998 15 11.6713 15 12.4998C15 13.3282 15.6716 13.9998 16.5 13.9998Z" fill="#748B80"/>
</svg>
