<svg width="21" height="22" viewBox="0 0 21 22" fill="none" xmlns="http://www.w3.org/2000/svg">
<path fill-rule="evenodd" clip-rule="evenodd" d="M4 0.5C1.79086 0.5 0 2.29086 0 4.5V17.5C0 19.7091 1.79086 21.5 4 21.5H17C19.2091 21.5 21 19.7091 21 17.5V4.5C21 2.29086 19.2091 0.5 17 0.5H4ZM8.09329 13.2007L7.47369 12.5811L8.35883 11.696L10.8119 14.1364L7.61278 17.3356C7.49898 17.4494 7.35989 17.5 7.22079 17.5C7.0817 17.5 6.94261 17.4367 6.8288 17.3356L5.17232 15.6791C4.94471 15.4641 4.94471 15.1101 5.15968 14.8951L5.77927 14.2755L6.41152 14.9078C6.47474 14.9583 6.55061 14.9963 6.63913 14.9963C6.72764 14.9963 6.80351 14.971 6.86674 14.9078C6.99318 14.7813 6.99318 14.5664 6.86674 14.4399L6.24714 13.8203L7.01847 13.049L7.63807 13.6686C7.68865 13.7318 7.77717 13.7571 7.86568 13.7571C7.9542 13.7571 8.03007 13.7318 8.09329 13.6686C8.21974 13.5421 8.21974 13.3272 8.09329 13.2007ZM16.8437 7.30822L15.1872 5.65174C14.9849 5.44942 14.6182 5.44942 14.4032 5.65174L13.7963 6.27134L14.4159 6.89094C14.5423 7.01739 14.5423 7.23235 14.4159 7.3588C14.3526 7.42202 14.2768 7.45996 14.1882 7.45996C14.0997 7.45996 14.0112 7.42202 13.9606 7.3588L13.341 6.7392L12.5697 7.51054L13.1893 8.13014C13.3157 8.25659 13.3157 8.47155 13.1893 8.598C13.1261 8.66122 13.0502 8.68651 12.9617 8.68651C12.8732 8.68651 12.7847 8.66122 12.7341 8.598L12.0892 7.95311L11.1914 8.8509L13.6319 11.2914L16.8437 8.07956C16.9448 7.9784 17.0081 7.8393 17.0081 7.68757C17.0081 7.53583 16.9448 7.40938 16.8437 7.30822ZM6.91536 9.31478L8.82878 7.40136L15.3112 13.8837L13.3977 15.7971L6.91536 9.31478ZM16.0343 14.6168L15.7814 14.3639L13.8594 16.2733L14.1123 16.5262C14.1881 16.6021 14.2767 16.64 14.3778 16.6653L15.8446 16.9056C16.1734 16.9561 16.4516 16.6779 16.401 16.3492L16.1607 14.8824C16.1481 14.7812 16.1102 14.6801 16.0343 14.6168ZM8.35878 6.94159L6.4494 8.85097L5.67806 8.07963C5.48839 7.88995 5.48839 7.58648 5.67806 7.3968L6.90462 6.17025C7.09429 5.98058 7.39777 5.98058 7.58744 6.17025L8.35878 6.94159Z" fill="#234340"/>
</svg>
