<svg width="10" height="11" viewBox="0 0 10 11" fill="none" xmlns="http://www.w3.org/2000/svg">
<path fill-rule="evenodd" clip-rule="evenodd" d="M3.60513 5.52134C3.87979 5.16061 4.28209 4.91367 4.7319 4.82969C5.2183 4.73974 5.71898 4.84994 6.12269 5.13232C6.52478 5.41529 6.79833 5.84097 6.88586 6.31993C6.97541 6.79853 6.87218 7.29389 6.59788 7.70193C6.4157 7.97127 6.23482 8.24608 6.05297 8.52192C5.68336 9.08269 5.30993 9.6496 4.91326 10.1917L4.91262 10.1929C4.81379 10.3257 4.66584 10.4152 4.50092 10.4421C4.33599 10.4689 4.16742 10.4308 4.03183 10.3361L1.58986 8.62806C0.757942 8.04584 0.545984 6.89968 1.11471 6.05873C1.37683 5.66634 1.78514 5.38994 2.25124 5.28936C2.71735 5.18878 3.20375 5.27212 3.60513 5.52134Z" fill="#356461"/>
<path fill-rule="evenodd" clip-rule="evenodd" d="M8.13587 1.87991C8.32526 1.78189 8.53776 1.76261 8.73103 1.82591C8.93982 1.89473 9.10796 2.05515 9.1989 2.26995C9.28907 2.48466 9.29663 2.73371 9.21998 2.96478C9.14419 3.19613 8.99002 3.39187 8.78985 3.51086C8.65728 3.58916 8.52396 3.67016 8.39003 3.7514C8.11778 3.91657 7.84263 4.08361 7.56424 4.23449L7.5637 4.2349C7.49486 4.27149 7.41701 4.27801 7.34707 4.25304C7.27712 4.22807 7.22073 4.17364 7.19015 4.10156L6.6401 2.80223C6.45279 2.35943 6.63525 1.80593 7.04911 1.56145C7.24096 1.44665 7.46257 1.4157 7.66597 1.47531C7.86937 1.53491 8.03818 1.68027 8.13587 1.87991Z" fill="#356461"/>
<path fill-rule="evenodd" clip-rule="evenodd" d="M2.44373 0.419065C2.52497 0.28129 2.65227 0.184324 2.80028 0.147478C2.96036 0.107958 3.13113 0.142825 3.27453 0.243029C3.41741 0.343472 3.52151 0.49867 3.56494 0.676016C3.60903 0.853197 3.58913 1.03901 3.50941 1.19441C3.45641 1.29699 3.40401 1.4016 3.35132 1.50661C3.24422 1.72008 3.13603 1.93588 3.01933 2.14272L3.01915 2.1432C2.99001 2.19389 2.94316 2.22907 2.88877 2.24109C2.83438 2.25312 2.77686 2.24102 2.7287 2.20743L1.86125 1.60131C1.56572 1.3947 1.46096 0.970342 1.6264 0.650035C1.7025 0.50062 1.83094 0.392606 1.98392 0.349378C2.13689 0.306149 2.30208 0.331185 2.44373 0.419065Z" fill="#356461"/>
</svg>
