<svg width="21" height="21" viewBox="0 0 21 21" fill="none" xmlns="http://www.w3.org/2000/svg">
<g clip-path="url(#clip0_1185_977)">
<path fill-rule="evenodd" clip-rule="evenodd" d="M0.972817 9.77068C2.41782 6.06902 5.81865 3.40735 10.082 3.40735C14.3453 3.40735 17.7461 6.06902 19.192 9.77068C19.2682 9.96572 19.2682 10.1823 19.192 10.3773C17.7461 14.079 14.3453 16.7407 10.082 16.7407C5.81865 16.7407 2.41782 14.079 0.972817 10.3773C0.896594 10.1823 0.896594 9.96572 0.972817 9.77068ZM10.082 12.574C10.745 12.574 11.3809 12.3106 11.8498 11.8418C12.3186 11.3729 12.582 10.7371 12.582 10.074C12.582 9.41097 12.3186 8.77509 11.8498 8.30625C11.3809 7.83741 10.745 7.57402 10.082 7.57402C9.41894 7.57402 8.78306 7.83741 8.31422 8.30625C7.84538 8.77509 7.58198 9.41097 7.58198 10.074C7.58198 10.7371 7.84538 11.3729 8.31422 11.8418C8.78306 12.3106 9.41894 12.574 10.082 12.574Z" fill="#356461"/>
</g>
<defs>
<clipPath id="clip0_1185_977">
<rect width="20" height="20" fill="white" transform="translate(0.0819702 0.0739746)"/>
</clipPath>
</defs>
</svg>
