<svg width="26" height="26" viewBox="0 0 26 26" fill="none" xmlns="http://www.w3.org/2000/svg">
<path d="M12.778 3C13.1484 3.22222 13.8891 4.68889 13.8891 5.66667C13.8891 6.64444 13.3928 7 12.778 7C12.1632 7 11.6669 6.86667 11.6669 5.88889C11.6669 4.91111 12.4077 4.33333 12.778 3ZM17.9632 10.5556C19.8151 10.5556 21.2965 12.3333 21.2965 14.5556C21.2965 15.9422 20.7114 17.16 19.8151 17.88V23H6.48173V17.88C5.58543 17.16 5.00024 15.9422 5.00024 14.5556C5.00024 12.3333 6.48173 10.5556 8.33358 10.5556H11.6669V7.88889H13.8891V10.5556H17.9632ZM13.1484 16.7778C13.6395 16.7778 14.1106 16.5437 14.4579 16.1269C14.8051 15.7102 15.0002 15.1449 15.0002 14.5556H16.1114C16.1114 15.1449 16.3065 15.7102 16.6538 16.1269C17.001 16.5437 17.4721 16.7778 17.9632 16.7778C18.4544 16.7778 18.9254 16.5437 19.2727 16.1269C19.62 15.7102 19.8151 15.1449 19.8151 14.5556C19.8151 13.9662 19.62 13.401 19.2727 12.9842C18.9254 12.5675 18.4544 12.3333 17.9632 12.3333H8.33358C7.84244 12.3333 7.37141 12.5675 7.02412 12.9842C6.67683 13.401 6.48173 13.9662 6.48173 14.5556C6.48173 15.1449 6.67683 15.7102 7.02412 16.1269C7.37141 16.5437 7.84244 16.7778 8.33358 16.7778C8.82472 16.7778 9.29575 16.5437 9.64303 16.1269C9.99032 15.7102 10.1854 15.1449 10.1854 14.5556H11.2965C11.2965 15.1449 11.4916 15.7102 11.8389 16.1269C12.1862 16.5437 12.6573 16.7778 13.1484 16.7778Z" fill="#F1F3F2"/>
</svg>
