<svg width="42" height="18" viewBox="0 0 42 18" fill="none" xmlns="http://www.w3.org/2000/svg">
<path d="M0 0.5V7.71882C0.711878 6.80952 1.63501 6.10008 2.68385 5.65621C3.73269 5.21234 4.8733 5.04842 6 5.17964V0.5H0ZM10.863 15.9545C11.7499 14.5917 12.138 12.9485 11.958 11.3182H25.5405C25.3605 12.9485 25.7486 14.5917 26.6355 15.9545H10.863ZM32.25 17.5C30.8576 17.5 29.5223 16.9301 28.5377 15.9157C27.5531 14.9013 27 13.5255 27 12.0909C27 10.6563 27.5531 9.2805 28.5377 8.2661C29.5223 7.2517 30.8576 6.68182 32.25 6.68182C33.6424 6.68182 34.9777 7.2517 35.9623 8.2661C36.9469 9.2805 37.5 10.6563 37.5 12.0909C37.5 13.5255 36.9469 14.9013 35.9623 15.9157C34.9777 16.9301 33.6424 17.5 32.25 17.5ZM32.25 14.4091C32.8467 14.4091 33.419 14.1649 33.841 13.7301C34.2629 13.2954 34.5 12.7057 34.5 12.0909C34.5 11.4761 34.2629 10.8865 33.841 10.4517C33.419 10.017 32.8467 9.77273 32.25 9.77273C31.6533 9.77273 31.081 10.017 30.659 10.4517C30.2371 10.8865 30 11.4761 30 12.0909C30 12.7057 30.2371 13.2954 30.659 13.7301C31.081 14.1649 31.6533 14.4091 32.25 14.4091ZM5.25 17.5C3.85761 17.5 2.52226 16.9301 1.53769 15.9157C0.553123 14.9013 0 13.5255 0 12.0909C0 10.6563 0.553123 9.2805 1.53769 8.2661C2.52226 7.2517 3.85761 6.68182 5.25 6.68182C6.64239 6.68182 7.97774 7.2517 8.96231 8.2661C9.94688 9.2805 10.5 10.6563 10.5 12.0909C10.5 13.5255 9.94688 14.9013 8.96231 15.9157C7.97774 16.9301 6.64239 17.5 5.25 17.5ZM5.25 14.4091C5.84674 14.4091 6.41903 14.1649 6.84099 13.7301C7.26294 13.2954 7.5 12.7057 7.5 12.0909C7.5 11.4761 7.26294 10.8865 6.84099 10.4517C6.41903 10.017 5.84674 9.77273 5.25 9.77273C4.65326 9.77273 4.08097 10.017 3.65901 10.4517C3.23706 10.8865 3 11.4761 3 12.0909C3 12.7057 3.23706 13.2954 3.65901 13.7301C4.08097 14.1649 4.65326 14.4091 5.25 14.4091ZM13.5 8.22727H10.863C11.1757 8.708 11.4286 9.2272 11.616 9.77273H25.884C26.2545 8.69635 26.8762 7.73039 27.6945 6.96C26.4712 6.7749 25.2364 6.68192 24 6.68182H21L19.5 8.22727H16.5V5.13636C16.5 4.28636 15.825 3.59091 15 3.59091C13.313 3.59022 11.649 3.99448 10.14 4.77164L13.5 8.22727ZM39 11.3182H38.9595C39.1394 12.9485 38.7513 14.5916 37.8645 15.9545H42V12.8636L39 11.3182Z" fill="#DB6757"/>
</svg>
