<svg width="22" height="22" viewBox="0 0 22 22" fill="none" xmlns="http://www.w3.org/2000/svg">
<path d="M1 5.22222C1 4.63285 1.23413 4.06762 1.65087 3.65087C2.06762 3.23413 2.63285 3 3.22222 3H18.7778C19.3671 3 19.9324 3.23413 20.3491 3.65087C20.7659 4.06762 21 4.63285 21 5.22222V16.3333C21 16.9227 20.7659 17.4879 20.3491 17.9047C19.9324 18.3214 19.3671 18.5556 18.7778 18.5556H3.22222C2.63285 18.5556 2.06762 18.3214 1.65087 17.9047C1.23413 17.4879 1 16.9227 1 16.3333V5.22222Z" stroke="#748B80" stroke-width="2" stroke-linecap="round" stroke-linejoin="round"/>
<path d="M1 5.22192L11 11.8886L21 5.22192" stroke="#748B80" stroke-width="2" stroke-linecap="round" stroke-linejoin="round"/>
</svg>
