<svg width="19" height="19" viewBox="0 0 19 19" fill="none" xmlns="http://www.w3.org/2000/svg">
<path d="M4.50307 7.98064L0.544999 13.7655C0.429501 13.9511 0.548749 14.1923 0.767371 14.216L8.57701 15.035L4.50307 7.98064ZM0.777871 11.7053L3.6012 7.16499L0.727247 5.45872C0.627123 5.39934 0.5 5.47059 0.5 5.586V11.6277C0.5 11.7772 0.698372 11.8329 0.777871 11.7053ZM1.18437 15.7193L8.47426 18.9723C8.67301 19.0632 8.89988 18.9192 8.89988 18.7029V16.2659L1.26686 15.4384C1.09999 15.4199 1.03324 15.6459 1.18437 15.7193ZM4.23007 6.1534L7.2274 0.849051C7.39015 0.587063 7.09278 0.283141 6.82316 0.435658L1.16787 4.09497C1.07524 4.15508 1.07824 4.29016 1.17274 4.34656L4.23007 6.1534ZM9.49987 6.53117H13.5952L10.011 0.28277C9.89361 0.0942566 9.69674 0 9.49987 0C9.303 0 9.10612 0.0942566 8.98875 0.28277L5.40455 6.53117H9.49987ZM18.2725 5.45872L15.3985 7.16536L18.2219 11.7056C18.301 11.8333 18.4997 11.7776 18.4997 11.6277V5.586C18.4997 5.47059 18.3726 5.39934 18.2725 5.45872ZM14.7697 6.1534L17.827 4.34619C17.9219 4.28979 17.9245 4.15471 17.8319 4.0946L12.1766 0.435658C11.907 0.283141 11.6096 0.587063 11.7723 0.849051L14.7697 6.1534ZM17.7329 15.4384L10.0999 16.2656V18.7025C10.0999 18.9192 10.3267 19.0628 10.5255 18.9719L17.8154 15.719C17.9665 15.6459 17.8997 15.4199 17.7329 15.4384ZM14.4967 7.98064L10.4231 15.035L18.2327 14.216C18.4514 14.1919 18.5706 13.9511 18.4551 13.7655L14.4967 7.98064ZM9.49987 7.71865H5.7338L9.49987 14.2405L13.2659 7.71865H9.49987Z" fill="#606C68"/>
</svg>
