<svg width="21" height="20" viewBox="0 0 21 20" fill="none" xmlns="http://www.w3.org/2000/svg">
<path d="M7.51072 3.40801C8.84104 1.136 9.50567 0 10.5 0C11.4943 0 12.159 1.136 13.4893 3.40801L13.8337 3.99601C14.2117 4.64201 14.4007 4.96502 14.6947 5.17802C14.9886 5.39102 15.3561 5.47002 16.0911 5.62802L16.7589 5.77202C19.3418 6.32902 20.6323 6.60702 20.9399 7.54802C21.2465 8.48803 20.3666 9.46903 18.6058 11.43L18.1501 11.937C17.6503 12.494 17.3994 12.773 17.287 13.117C17.1747 13.462 17.2125 13.834 17.2881 14.577L17.3574 15.254C17.623 17.8711 17.7564 19.1791 16.9521 19.7601C16.1478 20.3421 14.9382 19.8111 12.5212 18.7511L11.8944 18.4771C11.2077 18.1751 10.8643 18.0251 10.5 18.0251C10.1357 18.0251 9.79232 18.1751 9.10563 18.4771L8.47985 18.7511C6.06175 19.8111 4.85218 20.3411 4.04895 19.7611C3.24362 19.1791 3.37697 17.8711 3.64261 15.254L3.71191 14.578C3.78751 13.834 3.82531 13.462 3.71191 13.118C3.60061 12.773 3.34967 12.494 2.84988 11.938L2.39419 11.43C0.633382 9.47003 -0.246497 8.48903 0.0600953 7.54802C0.367738 6.60702 1.65921 6.32802 4.24215 5.77202L4.90993 5.62802C5.64386 5.47002 6.01031 5.39102 6.30535 5.17802C6.59934 4.96502 6.78834 4.64201 7.16633 3.99601L7.51072 3.40801Z" fill="#9BCAC7"/>
</svg>
