<svg width="26" height="26" viewBox="0 0 26 26" fill="none" xmlns="http://www.w3.org/2000/svg">
<path d="M21.772 10.155L20.404 6.051C20.2056 5.45348 19.8238 4.9337 19.3131 4.56551C18.8024 4.19732 18.1886 3.99944 17.559 4H8.441C7.81139 3.99944 7.19761 4.19732 6.68688 4.56551C6.17615 4.9337 5.79445 5.45348 5.596 6.051L4.228 10.155C3.86422 10.3072 3.55356 10.5636 3.33507 10.8918C3.11657 11.2201 3 11.6057 3 12V17C3 17.738 3.404 18.376 4 18.723V21C4 21.2652 4.10536 21.5196 4.29289 21.7071C4.48043 21.8946 4.73478 22 5 22H6C6.26522 22 6.51957 21.8946 6.70711 21.7071C6.89464 21.5196 7 21.2652 7 21V19H19V21C19 21.2652 19.1054 21.5196 19.2929 21.7071C19.4804 21.8946 19.7348 22 20 22H21C21.2652 22 21.5196 21.8946 21.7071 21.7071C21.8946 21.5196 22 21.2652 22 21V18.723C22.3034 18.549 22.5556 18.2981 22.7311 17.9956C22.9067 17.6932 22.9994 17.3497 23 17V12C23 11.6057 22.8834 11.2201 22.6649 10.8918C22.4464 10.5636 22.1358 10.3072 21.772 10.155ZM8.441 6H17.558C17.989 6 18.371 6.274 18.507 6.684L19.613 10H6.387L7.492 6.684C7.55835 6.4848 7.68572 6.31153 7.85605 6.18876C8.02638 6.06599 8.23104 5.99995 8.441 6ZM6.5 16C6.30295 15.9999 6.10785 15.9611 5.92582 15.8856C5.7438 15.8101 5.57842 15.6995 5.43913 15.5602C5.29984 15.4208 5.18937 15.2553 5.11403 15.0733C5.03868 14.8912 4.99993 14.696 5 14.499C5.00007 14.302 5.03894 14.1068 5.11441 13.9248C5.18988 13.7428 5.30046 13.5774 5.43984 13.4381C5.57922 13.2988 5.74467 13.1884 5.92675 13.113C6.10882 13.0377 6.30395 12.9989 6.501 12.999C6.89896 12.9991 7.28056 13.1573 7.56187 13.4388C7.84317 13.7203 8.00113 14.102 8.001 14.5C8.00087 14.898 7.84265 15.2796 7.56116 15.5609C7.27967 15.8422 6.89796 16.0001 6.5 16ZM19.5 16C19.303 15.9999 19.1078 15.9611 18.9258 15.8856C18.7438 15.8101 18.5784 15.6995 18.4391 15.5602C18.2998 15.4208 18.1894 15.2553 18.114 15.0733C18.0387 14.8912 17.9999 14.696 18 14.499C18.0001 14.302 18.0389 14.1068 18.1144 13.9248C18.1899 13.7428 18.3005 13.5774 18.4398 13.4381C18.5792 13.2988 18.7447 13.1884 18.9267 13.113C19.1088 13.0377 19.304 12.9989 19.501 12.999C19.899 12.9991 20.2806 13.1573 20.5619 13.4388C20.8432 13.7203 21.0011 14.102 21.001 14.5C21.0009 14.898 20.8427 15.2796 20.5612 15.5609C20.2797 15.8422 19.898 16.0001 19.5 16Z" fill="#F1F3F2"/>
</svg>
