<svg width="12" height="11" viewBox="0 0 12 11" fill="none" xmlns="http://www.w3.org/2000/svg">
<path d="M11.0751 8.77468L8.83279 6.76823C9.2322 6.09813 9.46596 5.31831 9.46596 4.48298C9.46596 2.01094 7.45481 0 4.98298 0C2.51115 0 0.5 2.01094 0.5 4.48298C0.5 6.95502 2.51115 8.96596 4.98298 8.96596C5.81809 8.96596 6.59792 8.7322 7.26823 8.33279L9.27447 10.5749C9.50716 10.8349 9.84039 10.9897 10.1892 10.9995C10.201 10.9997 10.2125 10.9999 10.2242 10.9999C10.5609 10.9999 10.8879 10.865 11.1266 10.6266C11.3731 10.3798 11.5091 10.0382 11.4995 9.68964C11.4897 9.34082 11.3351 9.00737 11.0753 8.77468H11.0751ZM1.3539 4.48298C1.3539 2.48186 2.98186 0.853901 4.98298 0.853901C6.9841 0.853901 8.61206 2.48186 8.61206 4.48298C8.61206 6.4841 6.9841 8.11206 4.98298 8.11206C2.98186 8.11206 1.3539 6.4841 1.3539 4.48298Z" fill="#356461"/>
<path d="M7.76947 4.14715C7.99682 4.08439 8.13003 3.84914 8.06727 3.62178C7.76968 2.54779 6.91813 1.69602 5.84414 1.39865C5.61764 1.33568 5.38153 1.4691 5.31877 1.69624C5.2558 1.92338 5.38901 2.15884 5.61657 2.2216C6.40301 2.43935 7.02657 3.06312 7.24432 3.84956C7.29662 4.0387 7.46847 4.16273 7.65569 4.16273C7.69347 4.16273 7.73147 4.15782 7.76947 4.14715Z" fill="#356461"/>
</svg>
