<svg width="21" height="22" viewBox="0 0 21 22" fill="none" xmlns="http://www.w3.org/2000/svg">
<g clip-path="url(#clip0_79_650)">
<path fill-rule="evenodd" clip-rule="evenodd" d="M15.6557 21.6084C14.1197 21.5519 9.76663 20.9503 5.20769 16.3924C0.649828 11.8335 0.0492943 7.48149 -0.00830567 5.94442C-0.093639 3.60202 1.70049 1.32682 3.77303 0.438288C4.0226 0.33052 4.29591 0.289489 4.56613 0.319222C4.83635 0.348955 5.09419 0.448431 5.31436 0.607888C7.02103 1.85162 8.19863 3.73322 9.20983 5.21269C9.43232 5.53773 9.52745 5.93327 9.47709 6.32394C9.42673 6.7146 9.23441 7.07309 8.93676 7.33109L6.85569 8.87669C6.75515 8.94929 6.68438 9.05592 6.65652 9.17677C6.62867 9.29761 6.64562 9.42446 6.70423 9.53375C7.17569 10.3903 8.0141 11.666 8.9741 12.626C9.93516 13.586 11.2706 14.4799 12.1869 15.0047C12.3018 15.0692 12.437 15.0872 12.5648 15.0551C12.6925 15.0229 12.8031 14.9431 12.8738 14.8319L14.2285 12.77C14.4775 12.4392 14.8449 12.2176 15.2538 12.1515C15.6626 12.0855 16.081 12.1803 16.4216 12.4159C17.9224 13.4548 19.6738 14.6122 20.956 16.2538C21.1284 16.4755 21.238 16.7395 21.2735 17.0182C21.309 17.2968 21.2689 17.5799 21.1576 17.8378C20.2648 19.921 18.0056 21.6948 15.6557 21.6084Z" fill="#F1F3F2"/>
</g>
<defs>
<clipPath id="clip0_79_650">
<rect width="21" height="21" fill="white" transform="translate(0 0.5)"/>
</clipPath>
</defs>
</svg>
