<svg width="11" height="13" viewBox="0 0 11 13" fill="none" xmlns="http://www.w3.org/2000/svg">
<path d="M10.3075 12H2.26946C1.93278 12 1.60989 11.8663 1.37182 11.6282C1.13375 11.3901 1 11.0672 1 10.7305C1 10.3939 1.13375 10.071 1.37182 9.83289C1.60989 9.59482 1.93278 9.46108 2.26946 9.46108H9.46151M9.46151 9.46108C9.68588 9.46108 9.90107 9.37194 10.0597 9.21328C10.2184 9.05462 10.3075 8.83943 10.3075 8.61505V1.84602C10.3075 1.62164 10.2184 1.40645 10.0597 1.24779C9.90107 1.08913 9.68588 1 9.46151 1H2.26946C1.93879 1.00011 1.62121 1.12929 1.38435 1.36003C1.14749 1.59078 1.01005 1.90487 1.00129 2.23543V10.6965M9.46151 9.46108V12" stroke="#356461" stroke-linecap="round" stroke-linejoin="round"/>
<path d="M6.08776 7.53026C6.37454 7.65168 6.69254 7.67865 6.99568 7.60724C7.29881 7.53583 7.57134 7.36976 7.77377 7.13309L7.98571 6.9203C8.07823 6.84618 8.13851 6.73916 8.15392 6.62161C8.16934 6.50407 8.1387 6.38512 8.06841 6.28966L7.38264 5.60474C7.28727 5.53436 7.16839 5.50358 7.05086 5.51883C6.93332 5.53409 6.82623 5.59419 6.752 5.68659C6.67778 5.77874 6.57087 5.83868 6.45354 5.85393C6.33621 5.86918 6.21752 5.83855 6.12222 5.76843L5.02463 4.67343C4.95425 4.57807 4.92347 4.45918 4.93872 4.34165C4.95398 4.22411 5.01409 4.11703 5.10648 4.04279C5.199 3.96868 5.25928 3.86165 5.27469 3.74411C5.29011 3.62657 5.25947 3.50762 5.18918 3.41215L4.50341 2.72637C4.40794 2.65609 4.28899 2.62545 4.17145 2.64086C4.05391 2.65628 3.94688 2.71656 3.87277 2.80908L3.66169 3.01929C3.42577 3.22226 3.26018 3.49472 3.18867 3.79761C3.11717 4.1005 3.14342 4.41826 3.26367 4.7053C3.95868 5.86442 4.92865 6.83438 6.08776 7.5294V7.53026Z" stroke="#356461" stroke-linecap="round" stroke-linejoin="round"/>
</svg>
