<svg width="24" height="24" viewBox="0 0 24 24" fill="none" xmlns="http://www.w3.org/2000/svg">
<path d="M13.9412 15.3596V5.1725M13.9412 15.3596L21.064 19.3645C21.2608 19.4751 21.4836 19.5329 21.7103 19.5321C21.9369 19.5314 22.1593 19.4721 22.3553 19.3602C22.5514 19.2483 22.7141 19.0877 22.8272 18.8944C22.9403 18.7012 22.9999 18.4822 23 18.2592V2.27298C22.9999 2.04999 22.9403 1.83092 22.8272 1.6377C22.7141 1.44448 22.5514 1.28388 22.3553 1.17197C22.1593 1.06006 21.9369 1.00076 21.7103 1.00001C21.4836 0.999254 21.2608 1.05707 21.064 1.16768L13.9412 5.1725M13.9412 15.3596H10.0588M13.9412 5.1725H6.17647C4.80359 5.1725 3.48693 5.70914 2.51615 6.66437C1.54538 7.6196 1 8.91517 1 10.2661C1 11.617 1.54538 12.9125 2.51615 13.8678C3.48693 14.823 4.80359 15.3596 6.17647 15.3596M10.0588 15.3596V21.0899C10.0588 21.5965 9.85431 22.0823 9.49027 22.4405C9.12623 22.7988 8.63248 23 8.11765 23C7.60282 23 7.10907 22.7988 6.74503 22.4405C6.38099 22.0823 6.17647 21.5965 6.17647 21.0899V15.3596M10.0588 15.3596H6.17647" stroke="#9BCAC7" stroke-width="2" stroke-linecap="round" stroke-linejoin="round"/>
</svg>
