<svg width="25" height="26" viewBox="0 0 25 26" fill="none" xmlns="http://www.w3.org/2000/svg">
<path d="M9.375 3.625H4.16667C3.8904 3.625 3.62545 3.73475 3.4301 3.9301C3.23475 4.12545 3.125 4.3904 3.125 4.66667V9.875C3.125 10.1513 3.23475 10.4162 3.4301 10.6116C3.62545 10.8069 3.8904 10.9167 4.16667 10.9167H9.375C9.65127 10.9167 9.91622 10.8069 10.1116 10.6116C10.3069 10.4162 10.4167 10.1513 10.4167 9.875V4.66667C10.4167 4.3904 10.3069 4.12545 10.1116 3.9301C9.91622 3.73475 9.65127 3.625 9.375 3.625ZM9.375 15.0833H4.16667C3.8904 15.0833 3.62545 15.1931 3.4301 15.3884C3.23475 15.5838 3.125 15.8487 3.125 16.125V21.3333C3.125 21.6096 3.23475 21.8746 3.4301 22.0699C3.62545 22.2653 3.8904 22.375 4.16667 22.375H9.375C9.65127 22.375 9.91622 22.2653 10.1116 22.0699C10.3069 21.8746 10.4167 21.6096 10.4167 21.3333V16.125C10.4167 15.8487 10.3069 15.5838 10.1116 15.3884C9.91622 15.1931 9.65127 15.0833 9.375 15.0833ZM20.8333 3.625H15.625C15.3487 3.625 15.0838 3.73475 14.8884 3.9301C14.6931 4.12545 14.5833 4.3904 14.5833 4.66667V9.875C14.5833 10.1513 14.6931 10.4162 14.8884 10.6116C15.0838 10.8069 15.3487 10.9167 15.625 10.9167H20.8333C21.1096 10.9167 21.3746 10.8069 21.5699 10.6116C21.7653 10.4162 21.875 10.1513 21.875 9.875V4.66667C21.875 4.3904 21.7653 4.12545 21.5699 3.9301C21.3746 3.73475 21.1096 3.625 20.8333 3.625ZM20.8333 15.0833H15.625C15.3487 15.0833 15.0838 15.1931 14.8884 15.3884C14.6931 15.5838 14.5833 15.8487 14.5833 16.125V21.3333C14.5833 21.6096 14.6931 21.8746 14.8884 22.0699C15.0838 22.2653 15.3487 22.375 15.625 22.375H20.8333C21.1096 22.375 21.3746 22.2653 21.5699 22.0699C21.7653 21.8746 21.875 21.6096 21.875 21.3333V16.125C21.875 15.8487 21.7653 15.5838 21.5699 15.3884C21.3746 15.1931 21.1096 15.0833 20.8333 15.0833Z" fill="#234340" stroke="#234340" stroke-width="2" stroke-linejoin="round"/>
</svg>
