<svg width="20" height="20" viewBox="0 0 20 20" fill="none" xmlns="http://www.w3.org/2000/svg">
<path d="M18.154 7.30769C18.1533 6.73665 17.9262 6.18917 17.5224 5.78538C17.1186 5.38159 16.5712 5.15447 16.0001 5.15385H14.3847V4.61538C14.3843 4.18709 14.214 3.77647 13.9111 3.47363C13.6083 3.17078 13.1976 3.00045 12.7694 3H7.38474C6.95645 3.00045 6.54583 3.17078 6.24298 3.47363C5.94013 3.77647 5.7698 4.18709 5.76935 4.61538V5.15385H4.15397C3.58292 5.15447 3.03545 5.38159 2.63166 5.78538C2.22787 6.18917 2.00075 6.73665 2.00012 7.30769V8.92308H18.154V7.30769ZM13.3078 5.15385H6.84628V4.61538C6.84628 4.47258 6.90301 4.33562 7.00399 4.23463C7.10497 4.13365 7.24193 4.07692 7.38474 4.07692H12.7694C12.9122 4.07692 13.0491 4.13365 13.1501 4.23463C13.2511 4.33562 13.3078 4.47258 13.3078 4.61538V5.15385ZM12.7694 10.2692C12.7694 10.4834 12.6843 10.6889 12.5328 10.8404C12.3813 10.9918 12.1759 11.0769 11.9617 11.0769H8.19243C7.97822 11.0769 7.77278 10.9918 7.62131 10.8404C7.46983 10.6889 7.38474 10.4834 7.38474 10.2692V10.1346C7.38474 10.0989 7.37056 10.0647 7.34531 10.0394C7.32006 10.0142 7.28582 10 7.25012 10H2.00012V14.8462C2.00012 15.4174 2.22704 15.9652 2.63097 16.3692C3.03489 16.7731 3.58273 17 4.15397 17H16.0001C16.5714 17 17.1192 16.7731 17.5231 16.3692C17.927 15.9652 18.154 15.4174 18.154 14.8462V10H12.904C12.8683 10 12.834 10.0142 12.8088 10.0394C12.7835 10.0647 12.7694 10.0989 12.7694 10.1346V10.2692Z" fill="#F9EDEB"/>
</svg>
