<svg width="13" height="13" viewBox="0 0 13 13" fill="none" xmlns="http://www.w3.org/2000/svg">
<path d="M3.91667 3.33333H2.16667C1.85725 3.33333 1.5605 3.45625 1.34171 3.67504C1.12292 3.89383 1 4.19058 1 4.5V6.83333M3.91667 3.33333H8.58333M3.91667 3.33333V2.16667C3.91667 1.85725 4.03958 1.5605 4.25838 1.34171C4.47717 1.12292 4.77391 1 5.08333 1H7.41667C7.72609 1 8.02283 1.12292 8.24162 1.34171C8.46042 1.5605 8.58333 1.85725 8.58333 2.16667V3.33333M1 6.83333V10.3333C1 10.6428 1.12292 10.9395 1.34171 11.1583C1.5605 11.3771 1.85725 11.5 2.16667 11.5H10.3333C10.6428 11.5 10.9395 11.3771 11.1583 11.1583C11.3771 10.9395 11.5 10.6428 11.5 10.3333V6.83333M1 6.83333C1 6.83333 3.33333 8 6.25 8C9.16667 8 11.5 6.83333 11.5 6.83333M8.58333 3.33333H10.3333C10.6428 3.33333 10.9395 3.45625 11.1583 3.67504C11.3771 3.89383 11.5 4.19058 11.5 4.5V6.83333M6.25 5.66667H6.25583" stroke="#356461" stroke-width="1.2" stroke-linecap="round" stroke-linejoin="round"/>
</svg>
