<svg width="22" height="22" viewBox="0 0 22 22" fill="none" xmlns="http://www.w3.org/2000/svg">
<path d="M11.103 2.80067C9.43152 2.80067 7.82849 3.46466 6.64658 4.64658C5.46466 5.82849 4.80067 7.43152 4.80067 9.103C4.80067 11.6798 6.40506 14.1656 8.16611 16.0914C9.06706 17.0719 10.0495 17.9743 11.103 18.7888C12.1564 17.9749 13.1389 17.0732 14.0399 16.0932C15.8009 14.1656 17.4053 11.6807 17.4053 9.103C17.4053 7.43152 16.7413 5.82849 15.5594 4.64658C14.3775 3.46466 12.7745 2.80067 11.103 2.80067ZM11.103 21L10.5925 20.6489L10.5898 20.6471L10.5844 20.6426L10.5664 20.63L10.4989 20.5822C10.1261 20.3112 9.76157 20.029 9.40587 19.7359C8.49417 18.987 7.63587 18.1753 6.83722 17.3068C4.99694 15.2937 3 12.3775 3 9.103C3 6.95395 3.85371 4.89292 5.37331 3.37331C6.89292 1.85371 8.95395 1 11.103 1C13.252 1 15.3131 1.85371 16.8327 3.37331C18.3523 4.89292 19.206 6.95395 19.206 9.103C19.206 12.3775 17.2091 15.2946 15.3688 17.3068C14.3261 18.441 13.1821 19.4776 11.9511 20.404C11.8485 20.4806 11.745 20.556 11.6405 20.63L11.6216 20.6426L11.6162 20.6471L11.6144 20.648L11.103 21ZM11.103 7.30233C10.6254 7.30233 10.1674 7.49204 9.82974 7.82974C9.49204 8.16743 9.30233 8.62543 9.30233 9.103C9.30233 9.58056 9.49204 10.0386 9.82974 10.3763C10.1674 10.714 10.6254 10.9037 11.103 10.9037C11.5806 10.9037 12.0386 10.714 12.3763 10.3763C12.714 10.0386 12.9037 9.58056 12.9037 9.103C12.9037 8.62543 12.714 8.16743 12.3763 7.82974C12.0386 7.49204 11.5806 7.30233 11.103 7.30233ZM7.50167 9.103C7.50167 8.14787 7.88109 7.23185 8.55647 6.55647C9.23185 5.88109 10.1479 5.50167 11.103 5.50167C12.0581 5.50167 12.9741 5.88109 13.6495 6.55647C14.3249 7.23185 14.7043 8.14787 14.7043 9.103C14.7043 10.0581 14.3249 10.9741 13.6495 11.6495C12.9741 12.3249 12.0581 12.7043 11.103 12.7043C10.1479 12.7043 9.23185 12.3249 8.55647 11.6495C7.88109 10.9741 7.50167 10.0581 7.50167 9.103Z" fill="#748B80"/>
</svg>
