<svg width="13" height="11" viewBox="0 0 13 11" fill="none" xmlns="http://www.w3.org/2000/svg">
<path d="M12.5054 3.62699H11.9494V3.00485C11.9494 2.89896 11.8965 2.79306 11.8171 2.72687C11.7376 2.66069 11.6318 2.63422 11.5259 2.64745L9.75209 3.00485C9.50059 3.17693 9.32851 3.44167 9.26233 3.75936C9.26233 3.78584 9.24909 3.81231 9.23585 3.82555L11.2346 3.44167V9.38509L6.93261 10.2323V5.49341C6.81348 5.58607 6.66787 5.65226 6.50903 5.65226C6.40313 5.65226 6.31047 5.62578 6.21781 5.58607V10.2323L1.90254 9.38509V3.42844L4.66908 3.97115C4.64261 3.90497 4.64261 3.85202 4.64261 3.78584C4.64261 3.58728 4.73527 3.4152 4.86764 3.28283L1.62457 2.64745C1.51867 2.62098 1.41277 2.66069 1.33335 2.72687C1.25393 2.79306 1.20098 2.89896 1.20098 3.00485V3.62699H0.645028C0.446472 3.62699 0.287628 3.78584 0.287628 3.98439V10.6426C0.287628 10.8412 0.446472 11 0.645028 11H12.5054C12.7039 11 12.8628 10.8412 12.8628 10.6426V3.97115C12.8628 3.78584 12.7039 3.62699 12.5054 3.62699Z" fill="#356461"/>
<path d="M5.22502 5.03002L3.05415 4.60643C2.85559 4.56672 2.67028 4.69909 2.6438 4.88441C2.60409 5.08297 2.73646 5.26828 2.92178 5.29476L5.09265 5.71834C5.11912 5.71834 5.13236 5.73158 5.15884 5.73158C5.33092 5.73158 5.47652 5.61245 5.503 5.44037C5.54271 5.25505 5.41034 5.06973 5.22502 5.03002Z" fill="#356461"/>
<path d="M5.22502 6.6848L3.05415 6.26122C2.85559 6.22151 2.67028 6.35388 2.6438 6.5392C2.60409 6.73775 2.73646 6.92307 2.92178 6.94954L5.09265 7.37313C5.11912 7.37313 5.13236 7.38637 5.15884 7.38637C5.33092 7.38637 5.47652 7.26723 5.503 7.09515C5.54271 6.90983 5.41034 6.72451 5.22502 6.6848Z" fill="#356461"/>
<path d="M5.22502 8.35253L3.05415 7.92894C2.85559 7.88923 2.67028 8.0216 2.6438 8.20692C2.60409 8.40548 2.73646 8.59079 2.92178 8.61727L5.09265 9.04085C5.11912 9.04085 5.13236 9.05409 5.15884 9.05409C5.33092 9.05409 5.47652 8.93496 5.503 8.76287C5.54271 8.57756 5.41034 8.39224 5.22502 8.35253Z" fill="#356461"/>
<path d="M10.1093 4.60649L7.93842 5.03007C7.73986 5.06978 7.62073 5.2551 7.66044 5.44042C7.68691 5.6125 7.84576 5.73163 8.0046 5.73163C8.03108 5.73163 8.04431 5.73163 8.07079 5.7184L10.2417 5.29481C10.4402 5.2551 10.5593 5.06978 10.5196 4.88446C10.4799 4.68591 10.2946 4.56677 10.1093 4.60649Z" fill="#356461"/>
<path d="M10.1093 6.26122L7.92523 6.6848C7.72668 6.72451 7.60755 6.90983 7.64726 7.09515C7.67373 7.26723 7.83258 7.38637 7.99142 7.38637C8.01789 7.38637 8.03113 7.38636 8.0576 7.37313L10.2285 6.94954C10.427 6.90983 10.5462 6.72451 10.5065 6.5392C10.48 6.35388 10.2947 6.22151 10.1093 6.26122Z" fill="#356461"/>
<path d="M10.1093 7.92894L7.93842 8.35253C7.73986 8.39224 7.62073 8.57756 7.66044 8.76287C7.68691 8.93496 7.84576 9.05409 8.0046 9.05409C8.03108 9.05409 8.04431 9.05409 8.07079 9.04085L10.2417 8.61727C10.4402 8.57756 10.5593 8.39224 10.5196 8.20692C10.4799 8.0216 10.2946 7.88923 10.1093 7.92894Z" fill="#356461"/>
<path d="M7.10476 2.21054C7.81956 2.35614 8.37551 2.92533 8.53436 3.64013C8.54759 3.67984 8.57407 3.70632 8.61378 3.70632C8.65349 3.70632 8.67996 3.67984 8.6932 3.64013C8.83881 2.92533 9.408 2.36938 10.1228 2.21054C10.1625 2.1973 10.189 2.17082 10.189 2.13111C10.189 2.0914 10.1625 2.06493 10.1228 2.05169C9.408 1.90608 8.85205 1.33689 8.6932 0.622093C8.67996 0.582382 8.65349 0.555908 8.61378 0.555908C8.57407 0.555908 8.54759 0.582382 8.53436 0.622093C8.37551 1.35013 7.81956 1.90608 7.10476 2.05169C7.06505 2.06493 7.03857 2.0914 7.03857 2.13111C7.03857 2.17082 7.06505 2.1973 7.10476 2.21054Z" fill="#356461"/>
<path d="M6.50905 2.52832C6.48258 2.52832 6.4561 2.55479 6.44286 2.58127C6.32373 3.1637 5.87367 3.61376 5.29124 3.73289C5.26477 3.73289 5.2383 3.75936 5.2383 3.79907C5.2383 3.82555 5.26477 3.85202 5.29124 3.86526C5.86044 3.98439 6.31049 4.43445 6.44286 5.01688C6.44286 5.04335 6.46934 5.06983 6.50905 5.06983C6.53552 5.06983 6.562 5.04335 6.57523 5.01688C6.69437 4.44769 7.14443 3.99763 7.72686 3.86526C7.75333 3.86526 7.7798 3.83878 7.7798 3.79907C7.7798 3.7726 7.75333 3.74613 7.72686 3.73289C7.15766 3.61376 6.70761 3.1637 6.57523 2.58127C6.562 2.54156 6.53552 2.52832 6.50905 2.52832Z" fill="#356461"/>
<path d="M4.58964 1.29723C5.11912 1.4296 5.5427 1.83995 5.66184 2.36943C5.67507 2.40914 5.70155 2.43561 5.74126 2.43561C5.78097 2.43561 5.80744 2.40914 5.82068 2.36943C5.95305 1.83995 6.3634 1.41636 6.89288 1.29723C6.93259 1.28399 6.95906 1.25752 6.95906 1.21781C6.95906 1.17809 6.93259 1.15162 6.89288 1.13838C6.3634 1.00601 5.95305 0.595666 5.82068 0.0661851C5.80744 0.026474 5.78097 0 5.74126 0C5.70155 0 5.67507 0.026474 5.66184 0.0661851C5.52947 0.595666 5.11912 1.01925 4.58964 1.13838C4.54993 1.15162 4.52345 1.17809 4.52345 1.21781C4.53669 1.25752 4.56316 1.28399 4.58964 1.29723Z" fill="#356461"/>
</svg>
