<svg width="9" height="9" viewBox="0 0 9 9" fill="none" xmlns="http://www.w3.org/2000/svg">
<path d="M8.76321 6.34543L6.938 4.5L8.47717 2.96101C8.63552 2.80345 8.76117 2.61616 8.84692 2.4099C8.93266 2.20364 8.9768 1.98247 8.9768 1.7591C8.9768 1.53573 8.93266 1.31456 8.84692 1.1083C8.76117 0.902035 8.63552 0.714745 8.47717 0.557186C8.15802 0.23907 7.72576 0.0604384 7.27512 0.0604384C6.82448 0.0604384 6.39222 0.23907 6.07307 0.557186L5.46693 1.15644L4.50666 2.11661L2.65421 0.24394C2.49392 0.087544 2.27884 0 2.05488 0C1.83093 0 1.61584 0.087544 1.45556 0.24394L0.250104 1.44926C0.170825 1.52833 0.107925 1.62226 0.0650082 1.72567C0.0220912 1.82909 0 1.93995 0 2.05191C0 2.16388 0.0220912 2.27474 0.0650082 2.37816C0.107925 2.48157 0.170825 2.5755 0.250104 2.65457L2.12299 4.5L1.97316 4.64981L1.36702 5.24907L0.175189 7.74142C0.0980533 7.90057 0.0724103 8.07979 0.101823 8.25418C0.131236 8.42857 0.214243 8.58947 0.339313 8.71453C0.464383 8.83958 0.625303 8.92258 0.799715 8.95199C0.974128 8.9814 1.15337 8.95576 1.31254 8.87864L3.77793 7.68694L4.11165 7.35326L4.37726 7.08768L4.50666 6.93106L6.33187 8.75606C6.49215 8.91246 6.70723 9 6.93119 9C7.15514 9 7.37023 8.91246 7.53051 8.75606L8.73597 7.55074C8.81706 7.47348 8.8821 7.38097 8.92737 7.27853C8.97265 7.17608 8.99725 7.06571 8.99978 6.95374C9.00231 6.84177 8.98272 6.7304 8.94212 6.62601C8.90153 6.52162 8.84073 6.42628 8.76321 6.34543ZM7.27171 0.897671C7.49805 0.896939 7.71566 0.984951 7.87785 1.14282C7.95713 1.22189 8.02003 1.31582 8.06294 1.41924C8.10586 1.52265 8.12795 1.63351 8.12795 1.74548C8.12795 1.85744 8.10586 1.96831 8.06294 2.07172C8.02003 2.17513 7.95713 2.26907 7.87785 2.34814L6.67239 1.17687C6.83288 1.02064 7.04773 0.93276 7.27171 0.931719V0.897671ZM0.849427 2.04851L2.05488 0.850003L2.61334 1.4084L2.02083 2.00765L2.62015 2.6069L3.21948 2.00765L3.90052 2.68862L2.72231 3.92118L0.849427 2.04851ZM0.937963 8.11595L2.00721 5.91642L3.14456 7.04683L0.937963 8.11595ZM3.77793 6.48162L2.57248 5.27631L6.07307 1.77612L7.27171 2.97463L3.77793 6.48162ZM6.95843 8.15L5.13322 6.33181L6.33868 5.12649L6.97205 5.75979L6.37273 6.35905L6.97205 6.96511L7.57818 6.35905L8.16389 6.95149L6.95843 8.15Z" fill="#356461"/>
</svg>
