<svg width="13" height="13" viewBox="0 0 13 13" fill="none" xmlns="http://www.w3.org/2000/svg">
<path d="M6.5 4.66667H6.50611M1 2.22222C1 1.89807 1.12877 1.58719 1.35798 1.35798C1.58719 1.12877 1.89807 1 2.22222 1H10.7778C11.1019 1 11.4128 1.12877 11.642 1.35798C11.8712 1.58719 12 1.89807 12 2.22222V10.7778C12 11.1019 11.8712 11.4128 11.642 11.642C11.4128 11.8712 11.1019 12 10.7778 12H2.22222C1.89807 12 1.58719 11.8712 1.35798 11.642C1.12877 11.4128 1 11.1019 1 10.7778V2.22222Z" stroke="#356461" stroke-width="1.1" stroke-linecap="round" stroke-linejoin="round"/>
<path d="M5.88889 6.5H6.5V8.94444H7.11111" stroke="#356461" stroke-width="1.1" stroke-linecap="round" stroke-linejoin="round"/>
</svg>
