<svg width="31" height="31" viewBox="0 0 31 31" fill="none" xmlns="http://www.w3.org/2000/svg">
<path d="M30.4575 3.51172L21.9239 0.0696329C21.846 0.0407408 21.7651 0.0205393 21.6828 0.0093962C21.6315 0.000890108 21.5791 0.000890108 21.5278 0.0093962C21.4508 -0.00313207 21.3723 -0.00313207 21.2953 0.0093962H21.2264L9.52389 3.45148L1.17972 0.0696329C1.04902 0.0176154 0.90756 -0.00160934 0.767706 0.0136402C0.627853 0.0288898 0.493867 0.0781491 0.377469 0.15711C0.26107 0.236071 0.165804 0.342328 0.100002 0.466589C0.0341989 0.590851 -0.000135839 0.72933 4.03887e-07 0.869918V26.6856C-0.00016655 26.8579 0.0514561 27.0263 0.148181 27.169C0.244906 27.3117 0.382277 27.4221 0.542501 27.4859L9.0675 30.9279H9.15361C9.20779 30.9368 9.26304 30.9368 9.31722 30.9279C9.36493 30.957 9.4174 30.9774 9.47222 30.9882C9.54922 31.0007 9.62773 31.0007 9.70472 30.9882H9.75639L21.4761 27.6408L29.8203 30.9796C29.9249 31.0035 30.0332 31.0064 30.1389 30.9882C30.3673 30.9882 30.5863 30.8975 30.7478 30.7361C30.9093 30.5748 31 30.3559 31 30.1277V4.31201C31.0002 4.13966 30.9485 3.97124 30.8518 3.82855C30.7551 3.68586 30.6177 3.57549 30.4575 3.51172ZM4.52945 20.4382C4.6281 20.2332 4.80395 20.0756 5.01857 19.9998C5.23318 19.924 5.46909 19.9362 5.67472 20.0337C6.67915 20.5197 7.72532 20.9142 8.80055 21.2127C8.9105 21.2416 9.01362 21.292 9.10397 21.361C9.19431 21.43 9.27009 21.5162 9.32693 21.6146C9.38377 21.713 9.42055 21.8217 9.43514 21.9343C9.44973 22.047 9.44185 22.1615 9.41194 22.2711C9.36148 22.4588 9.2489 22.624 9.09254 22.7396C8.93617 22.8552 8.74524 22.9145 8.55083 22.9079H8.32694C7.14145 22.5809 5.98847 22.146 4.8825 21.6085C4.78206 21.5552 4.69318 21.4825 4.62099 21.3947C4.5488 21.3069 4.49473 21.2057 4.46191 21.0969C4.42908 20.9881 4.41815 20.8738 4.42974 20.7608C4.44133 20.6477 4.47522 20.5381 4.52945 20.4382ZM20.5892 8.70927C21.6053 8.61461 22.3889 8.61461 22.3889 8.61461C22.6173 8.61461 22.8363 8.70528 22.9978 8.86665C23.1593 9.02803 23.25 9.24691 23.25 9.47514C23.25 9.70336 23.1593 9.92224 22.9978 10.0836C22.8363 10.245 22.6173 10.3357 22.3889 10.3357C22.3889 10.3357 21.6828 10.3357 20.7442 10.4217H20.6667C20.5536 10.4268 20.4406 10.4096 20.3342 10.371C20.2278 10.3325 20.13 10.2734 20.0464 10.1971C19.9629 10.1207 19.8952 10.0287 19.8472 9.92627C19.7992 9.82381 19.7719 9.71292 19.7668 9.59991C19.7617 9.48691 19.779 9.37401 19.8175 9.26766C19.8561 9.16131 19.9153 9.06359 19.9916 8.98009C20.068 8.89659 20.1601 8.82893 20.2626 8.78099C20.3651 8.73304 20.4761 8.70575 20.5892 8.70067V8.70927ZM16.7228 16.3593C16.6086 16.1608 16.578 15.925 16.6378 15.7039C16.6975 15.4828 16.8427 15.2945 17.0414 15.1804C17.2401 15.0663 17.476 15.0357 17.6972 15.0954C17.9185 15.1551 18.1069 15.3002 18.2211 15.4988C18.7072 16.2766 18.9887 17.1647 19.0392 18.0804C19.0376 18.5915 18.926 19.0963 18.7119 19.5605C18.644 19.7114 18.534 19.8396 18.395 19.9297C18.256 20.0197 18.094 20.0678 17.9283 20.0682C17.8027 20.0685 17.6787 20.0391 17.5667 19.9821C17.3607 19.8866 17.2008 19.7137 17.1217 19.501C17.0427 19.2882 17.051 19.0529 17.1447 18.8462C17.2604 18.6076 17.3193 18.3455 17.3169 18.0804C17.2647 17.4663 17.0605 16.8749 16.7228 16.3593ZM16.4817 12.616C16.5632 12.8283 16.5574 13.0643 16.4654 13.2723C16.3734 13.4803 16.2028 13.6434 15.9908 13.7261C15.8926 13.7668 15.7872 13.7873 15.6808 13.7864C15.5074 13.7858 15.3381 13.733 15.1952 13.6347C15.0523 13.5364 14.9424 13.3973 14.88 13.2356C14.7237 12.862 14.6418 12.4616 14.6389 12.0567C14.6389 11.2736 15.035 10.1894 16.895 9.47514C17.0007 9.43389 17.1136 9.41386 17.227 9.41619C17.3405 9.41851 17.4524 9.44315 17.5564 9.4887C17.6603 9.53425 17.7543 9.59981 17.8329 9.68164C17.9115 9.76347 17.9732 9.85997 18.0144 9.96563C18.0557 10.0713 18.0758 10.184 18.0734 10.2974C18.0711 10.4108 18.0465 10.5227 18.0009 10.6266C17.9553 10.7304 17.8897 10.8243 17.8078 10.9029C17.7259 10.9814 17.6293 11.0431 17.5236 11.0843C17.0844 11.2478 16.3611 11.6006 16.3611 12.0653C16.3712 12.2459 16.4119 12.4234 16.4817 12.5902V12.616ZM15.8186 22.3571C14.6593 22.9764 13.3698 23.3125 12.0556 23.3381C11.8272 23.3381 11.6081 23.2475 11.4467 23.0861C11.2852 22.9247 11.1944 22.7058 11.1944 22.4776C11.1944 22.2494 11.2852 22.0305 11.4467 21.8691C11.6081 21.7078 11.8272 21.6171 12.0556 21.6171C13.0941 21.5885 14.1115 21.3174 15.0264 20.8254C15.1253 20.7689 15.2345 20.7324 15.3475 20.7181C15.4606 20.7037 15.5753 20.7117 15.6853 20.7417C15.7952 20.7717 15.8982 20.823 15.9883 20.8927C16.0784 20.9625 16.1539 21.0492 16.2104 21.1481C16.267 21.247 16.3035 21.356 16.3178 21.469C16.3322 21.582 16.3242 21.6967 16.2942 21.8066C16.2642 21.9164 16.2128 22.0193 16.1431 22.1094C16.0733 22.1994 15.9864 22.2748 15.8875 22.3313L15.8186 22.3571ZM27.6589 10.0861C27.8193 10.2473 27.9093 10.4654 27.9093 10.6928C27.9093 10.9201 27.8193 11.1382 27.6589 11.2994C27.4975 11.4597 27.2793 11.5497 27.0518 11.5497C26.8243 11.5497 26.6061 11.4597 26.4447 11.2994L25.8333 10.6885L25.2219 11.2994C25.0606 11.4597 24.8424 11.5497 24.6149 11.5497C24.3874 11.5497 24.1691 11.4597 24.0078 11.2994C23.8474 11.1382 23.7574 10.9201 23.7574 10.6928C23.7574 10.4654 23.8474 10.2473 24.0078 10.0861L24.6192 9.47514L24.0078 8.86417C23.8667 8.69955 23.793 8.48779 23.8014 8.27122C23.8097 8.05465 23.8996 7.84921 24.0529 7.69595C24.2063 7.5427 24.4119 7.45292 24.6286 7.44455C24.8453 7.43619 25.0572 7.50985 25.2219 7.65083L25.8333 8.2618L26.4447 7.65083C26.6095 7.50985 26.8214 7.43619 27.0381 7.44455C27.2548 7.45292 27.4604 7.5427 27.6137 7.69595C27.7671 7.84921 27.8569 8.05465 27.8653 8.27122C27.8737 8.48779 27.8 8.69955 27.6589 8.86417L27.0475 9.47514L27.6589 10.0861ZM2.73833 18.3557C2.89494 18.4568 3.0145 18.6059 3.07903 18.7807C3.14356 18.9555 3.14958 19.1465 3.09618 19.325C3.04279 19.5035 2.93287 19.6599 2.78293 19.7706C2.633 19.8814 2.45115 19.9405 2.26472 19.9391C2.0968 19.9403 1.93217 19.8925 1.79111 19.8014H1.72222V17.6501C1.94611 17.8222 2.29917 18.0804 2.73833 18.3557Z" fill="#9BCAC7"/>
</svg>
