<svg width="18" height="15" viewBox="0 0 18 15" fill="none" xmlns="http://www.w3.org/2000/svg">
<path d="M1 2.88886C1 2.41737 1.1873 1.96518 1.5207 1.63178C1.8541 1.29838 2.30628 1.11108 2.77778 1.11108H15.2222C15.6937 1.11108 16.1459 1.29838 16.4793 1.63178C16.8127 1.96518 17 2.41737 17 2.88886V11.7778C17 12.2492 16.8127 12.7014 16.4793 13.0348C16.1459 13.3682 15.6937 13.5555 15.2222 13.5555H2.77778C2.30628 13.5555 1.8541 13.3682 1.5207 13.0348C1.1873 12.7014 1 12.2492 1 11.7778V2.88886Z" stroke="#356461" stroke-width="2" stroke-linecap="round" stroke-linejoin="round"/>
<path d="M1 2.88867L9 8.22201L17 2.88867" stroke="#356461" stroke-width="2" stroke-linecap="round" stroke-linejoin="round"/>
</svg>
