<svg width="20" height="20" viewBox="0 0 20 20" fill="none" xmlns="http://www.w3.org/2000/svg">
<path d="M17.1633 13.2092V8.47565L10.7049 11.9857C10.4642 12.1194 10.2101 12.1862 9.94269 12.1862C9.67526 12.1862 9.4212 12.1194 9.18051 11.9857L2.40115 8.29513C2.25407 8.2149 2.1503 8.11462 2.08986 7.99427C2.02942 7.87393 1.99947 7.74021 2.00001 7.59313C2.00001 7.44604 2.03023 7.31233 2.09067 7.19198C2.15111 7.07164 2.2546 6.97135 2.40115 6.89112L9.18051 3.20059C9.30085 3.13373 9.42467 3.08345 9.55197 3.04975C9.67927 3.01606 9.80951 2.99948 9.94269 3.00001C10.0764 3.00001 10.2069 3.01686 10.3342 3.05056C10.4615 3.08425 10.5851 3.13426 10.7049 3.20059L18.3467 7.3725C18.4804 7.43936 18.5842 7.53643 18.658 7.66373C18.7318 7.79103 18.7684 7.92795 18.7679 8.0745V13.2092C18.7679 13.4365 18.6909 13.6272 18.5368 13.7812C18.3828 13.9352 18.1924 14.012 17.9656 14.0115C17.7383 14.0115 17.5476 13.9344 17.3936 13.7804C17.2395 13.6264 17.1628 13.4359 17.1633 13.2092ZM9.18051 16.7994L5.16906 14.6332C4.90163 14.4861 4.69437 14.2856 4.54728 14.0315C4.40019 13.7775 4.32665 13.5033 4.32665 13.2092V10.1605L9.18051 12.788C9.4212 12.9217 9.67526 12.9885 9.94269 12.9885C10.2101 12.9885 10.4642 12.9217 10.7049 12.788L15.5587 10.1605V13.2092C15.5587 13.5033 15.4852 13.7775 15.3381 14.0315C15.191 14.2856 14.9837 14.4861 14.7163 14.6332L10.7049 16.7994C10.5845 16.8663 10.461 16.9165 10.3342 16.9502C10.2074 16.9839 10.0769 17.0005 9.94269 17C9.80897 17 9.67847 16.9831 9.55117 16.9494C9.42387 16.9157 9.30032 16.8657 9.18051 16.7994Z" fill="#F9EDEB"/>
</svg>
