<svg width="13" height="10" viewBox="0 0 13 10" fill="none" xmlns="http://www.w3.org/2000/svg">
<path d="M1.2093 10C0.876744 10 0.592155 9.87771 0.355535 9.63312C0.118915 9.38854 0.000403101 9.09417 0 8.75V1.25C0 0.90625 0.118512 0.612083 0.355535 0.3675C0.592558 0.122917 0.877147 0.000416667 1.2093 0H4.83721L6.04651 1.25H10.8837C11.2163 1.25 11.5011 1.3725 11.7381 1.6175C11.9751 1.8625 12.0934 2.15667 12.093 2.5H5.54767L4.33837 1.25H1.2093V8.75L2.66047 3.75H13L11.443 9.10937C11.3624 9.38021 11.2139 9.59646 10.9974 9.75812C10.7809 9.91979 10.5415 10.0004 10.2791 10H1.2093ZM2.47907 8.75H10.2791L11.3674 5H3.56744L2.47907 8.75Z" fill="#356461"/>
</svg>
