<svg width="20" height="20" viewBox="0 0 20 20" fill="none" xmlns="http://www.w3.org/2000/svg">
<path d="M10 10C11.0609 10 12.0783 9.63125 12.8284 8.97487C13.5786 8.3185 14 7.42826 14 6.5C14 5.57174 13.5786 4.6815 12.8284 4.02513C12.0783 3.36875 11.0609 3 10 3C8.93913 3 7.92172 3.36875 7.17157 4.02513C6.42143 4.6815 6 5.57174 6 6.5C6 7.42826 6.42143 8.3185 7.17157 8.97487C7.92172 9.63125 8.93913 10 10 10ZM8.57188 11.3125C5.49375 11.3125 3 13.4945 3 16.1879C3 16.6363 3.41563 17 3.92813 17H16.0719C16.5844 17 17 16.6363 17 16.1879C17 13.4945 14.5063 11.3125 11.4281 11.3125H8.57188Z" fill="#F9EDEB"/>
</svg>
