<svg width="20" height="20" viewBox="0 0 20 20" fill="none" xmlns="http://www.w3.org/2000/svg">
<path d="M16.8628 3.10688C16.936 3.16933 16.987 3.25377 17.0082 3.34759C17.0294 3.44141 17.0197 3.53958 16.9805 3.62742C15.6167 6.68471 12.7529 10.9097 10.6564 13.1113C10.0688 13.7272 9.34411 14.1956 8.54128 14.4786C8.52523 14.6809 8.4878 14.9581 8.39866 15.2523C8.2195 15.8396 7.80414 16.5705 6.87626 16.8032C5.97764 17.0172 5.04636 17.0571 4.13272 16.9208C3.96283 16.894 3.79533 16.8538 3.63178 16.8005C3.48048 16.7545 3.33946 16.6797 3.21642 16.5804C3.13528 16.5113 3.07276 16.4231 3.03459 16.3236C2.98727 16.196 2.98854 16.0555 3.03815 15.9288C3.12283 15.7104 3.31981 15.5901 3.44906 15.5259C3.80025 15.3503 4.00615 15.1221 4.22185 14.7897C4.30653 14.6613 4.38586 14.5249 4.47766 14.3689L4.58195 14.1925C4.71654 13.9652 4.87253 13.7111 5.06862 13.4366C5.53925 12.7779 6.13912 12.6121 6.6249 12.638C6.73721 12.6442 6.84149 12.6602 6.93508 12.6807C6.99035 12.5274 7.06165 12.342 7.14722 12.1388C7.37986 11.5871 7.73372 10.874 8.20524 10.2946C10.1448 7.91476 13.7137 4.76298 16.3316 3.07122C16.4122 3.0192 16.5074 2.99458 16.6031 3.001C16.6988 3.00742 16.7899 3.04456 16.8628 3.10688Z" fill="#F9EDEB"/>
</svg>
