<svg width="24" height="24" viewBox="0 0 24 24" fill="none" xmlns="http://www.w3.org/2000/svg">
<path fill-rule="evenodd" clip-rule="evenodd" d="M11.9999 4.57397C13.0895 3.56457 14.5193 3.0026 16.0046 3C17.6102 3 19.1432 3.66047 20.2651 4.82328C21.3815 5.98701 22.0033 7.53815 22 9.15077C22.0033 10.7634 21.3815 12.3145 20.2651 13.4783C19.5246 14.2457 18.7851 15.0318 18.0418 15.8206C16.5311 17.4243 15.0046 19.0448 13.4185 20.5723L13.4157 20.576C13.0219 20.9489 12.4968 21.1514 11.9546 21.1394C11.4123 21.1274 10.8968 20.9018 10.5199 20.5118L3.73374 13.4783C1.42209 11.081 1.42209 7.22051 3.73374 4.82421C4.80198 3.70413 6.26837 3.04986 7.81546 3.00302C9.36256 2.95619 10.8658 3.52057 11.9999 4.57397Z" fill="#ECE3DF"/>
</svg>
