<svg width="9" height="11" viewBox="0 0 9 11" fill="none" xmlns="http://www.w3.org/2000/svg">
<path d="M8.87068 3.30742V8.84216C8.87069 8.99218 8.84114 9.14074 8.78373 9.27934C8.72632 9.41795 8.64217 9.54388 8.53609 9.64996C8.43001 9.75605 8.30407 9.84019 8.16547 9.8976C8.02686 9.95501 7.87831 9.98455 7.72829 9.98455H7.47445C7.32434 9.98469 7.17568 9.95525 7.03695 9.89791C6.89823 9.84057 6.77217 9.75644 6.66598 9.65035C6.55978 9.54426 6.47554 9.41828 6.41806 9.27961C6.36058 9.14094 6.331 8.99231 6.331 8.8422C6.331 8.69209 6.36058 8.54345 6.41806 8.40479C6.47554 8.26612 6.55978 8.14014 6.66598 8.03405C6.77217 7.92795 6.89823 7.84383 7.03695 7.78649C7.17568 7.72915 7.32434 7.69971 7.47445 7.69985H8.10909V4.56538L4.80889 5.58083V9.98455H4.79611C4.76583 10.2632 4.63385 10.5208 4.42543 10.7082C4.21701 10.8955 3.94681 10.9994 3.66656 11H3.41267C3.10988 10.9997 2.8196 10.8792 2.6056 10.665C2.3916 10.4508 2.27139 10.1604 2.27139 9.85762C2.27139 9.55483 2.3916 9.26443 2.6056 9.05023C2.8196 8.83602 3.10988 8.71553 3.41267 8.71524H4.04736V4.26308C4.04737 4.13146 4.09095 4.00355 4.17131 3.89931C4.25167 3.79507 4.36429 3.72038 4.49157 3.68689L8.12319 2.73121C8.21136 2.708 8.30367 2.70534 8.39303 2.72342C8.48239 2.74151 8.56641 2.77985 8.63862 2.83552C8.71083 2.89118 8.7693 2.96267 8.80953 3.04448C8.84976 3.1263 8.87068 3.21625 8.87068 3.30742ZM2.81601 6.71646H2.82883V2.6106L5.76899 1.93045C5.9002 1.9001 6.01726 1.82619 6.10108 1.72077C6.1849 1.61535 6.23053 1.48465 6.23053 1.34997V0.595828C6.23053 0.505981 6.2102 0.417298 6.17108 0.336415C6.13196 0.255532 6.07506 0.184543 6.00462 0.128759C5.93419 0.0729754 5.85206 0.0338417 5.76436 0.0142857C5.67667 -0.00527021 5.58569 -0.00474192 5.49823 0.015831L2.44572 0.734035C2.33727 0.76257 2.24132 0.826214 2.17284 0.915032C2.10437 1.00385 2.06724 1.11284 2.06724 1.22499V5.44715H1.4326C1.12962 5.44715 0.839054 5.56751 0.624817 5.78174C0.410579 5.99598 0.290222 6.28655 0.290222 6.58953C0.290222 6.8925 0.410579 7.18307 0.624817 7.39731C0.839054 7.61155 1.12962 7.7319 1.4326 7.7319H1.68643C1.96669 7.73134 2.23689 7.62744 2.4453 7.44008C2.65372 7.25272 2.78572 6.99507 2.81601 6.71646Z" fill="#356461"/>
</svg>
