<svg width="22" height="22" viewBox="0 0 22 22" fill="none" xmlns="http://www.w3.org/2000/svg">
<path fill-rule="evenodd" clip-rule="evenodd" d="M17 8C17.7652 7.99996 18.5015 8.29233 19.0583 8.81728C19.615 9.34224 19.9501 10.0601 19.995 10.824L20 11V14C20 14.64 19.621 15.139 19.118 15.367L19 15.414C19 15.414 18.9998 18.4954 19 19C19 19 18.8096 19.9906 18.4665 20.3605C18.1234 20.7305 17.6532 20.9572 17.15 20.995L17 21H5C4.49542 21.0002 4.00943 20.8096 3.63945 20.4665C3.26947 20.1234 3.04284 19.6532 3.005 19.15L3 19V15.415C2.73003 15.321 2.49284 15.1512 2.31676 14.926C2.14067 14.7008 2.03314 14.4297 2.007 14.145L2 14V11C1.99996 10.2348 2.29233 9.49849 2.81728 8.94174C3.34224 8.38499 4.06011 8.04989 4.824 8.005L5 8H17ZM16.933 14.7C16.7779 14.5836 16.5922 14.5148 16.3987 14.502C16.2052 14.4892 16.0121 14.533 15.843 14.628L15.733 14.7L15.467 14.9C14.9763 15.2682 14.3845 15.4771 13.7713 15.4986C13.1582 15.5201 12.5533 15.353 12.038 15.02L11.867 14.9L11.6 14.7C11.4449 14.5836 11.2592 14.5148 11.0657 14.502C10.8722 14.4892 10.6791 14.533 10.51 14.628L10.4 14.7L10.133 14.9C9.64238 15.268 9.05076 15.4768 8.43784 15.4982C7.82492 15.5197 7.22015 15.3528 6.705 15.02L6.533 14.9L6.267 14.7C6.11187 14.5836 5.92623 14.5148 5.7327 14.502C5.53917 14.4892 5.3461 14.533 5.177 14.628L5.067 14.7L5 14.75V19H17V14.75L16.933 14.7ZM17 10H5C4.73478 10 4.48043 10.1054 4.29289 10.2929C4.10536 10.4804 4 10.7348 4 11V13.005C4.5166 12.6599 5.12759 12.4837 5.74862 12.5007C6.36965 12.5177 6.97008 12.7271 7.467 13.1L7.733 13.3C7.9061 13.4298 8.11663 13.5 8.333 13.5C8.54937 13.5 8.7599 13.4298 8.933 13.3L9.2 13.1C9.71929 12.7105 10.3509 12.5 11 12.5C11.6491 12.5 12.2807 12.7105 12.8 13.1L13.067 13.3C13.2401 13.4298 13.4506 13.5 13.667 13.5C13.8834 13.5 14.0939 13.4298 14.267 13.3L14.533 13.1C15.0299 12.7271 15.6304 12.5177 16.2514 12.5007C16.8724 12.4837 17.4834 12.6599 18 13.005V11C18 10.7348 17.8946 10.4804 17.7071 10.2929C17.5196 10.1054 17.2652 10 17 10ZM11.6 1.2C12.0134 1.52294 12.3972 1.88202 12.747 2.273C13.271 2.862 14 3.855 14 5C14 5.79565 13.6839 6.55871 13.1213 7.12132C12.5587 7.68393 11.7956 8 11 8C10.2044 8 9.44129 7.68393 8.87868 7.12132C8.31607 6.55871 8 5.79565 8 5C8 3.855 8.73 2.862 9.253 2.273C9.60275 1.88202 9.9866 1.52294 10.4 1.2C10.5731 1.07018 10.7836 1 11 1C11.2164 1 11.4269 1.07018 11.6 1.2ZM11 3.334C10.9131 3.42088 10.8287 3.51025 10.747 3.602C10.271 4.138 10 4.645 10 5C10 5.26522 10.1054 5.51957 10.2929 5.70711C10.4804 5.89464 10.7348 6 11 6C11.2652 6 11.5196 5.89464 11.7071 5.70711C11.8946 5.51957 12 5.26522 12 5C12 4.645 11.73 4.138 11.253 3.602C11.1713 3.51025 11.0869 3.42088 11 3.334Z" fill="#748B80"/>
</svg>
