<svg width="26" height="26" viewBox="0 0 26 26" fill="none" xmlns="http://www.w3.org/2000/svg">
<path d="M13.4476 22.5506C15.4567 20.0363 20.0389 13.9424 20.0389 10.5195C20.0389 6.36809 16.6708 3 12.5195 3C8.36809 3 5 6.36809 5 10.5195C5 13.9424 9.58217 20.0363 11.5913 22.5506C12.073 23.1498 12.9659 23.1498 13.4476 22.5506ZM12.5195 8.01297C13.1842 8.01297 13.8218 8.27705 14.2918 8.74711C14.7619 9.21716 15.0259 9.8547 15.0259 10.5195C15.0259 11.1842 14.7619 11.8218 14.2918 12.2918C13.8218 12.7619 13.1842 13.0259 12.5195 13.0259C11.8547 13.0259 11.2172 12.7619 10.7471 12.2918C10.277 11.8218 10.013 11.1842 10.013 10.5195C10.013 9.8547 10.277 9.21716 10.7471 8.74711C11.2172 8.27705 11.8547 8.01297 12.5195 8.01297Z" fill="#F1F3F2"/>
</svg>
