<svg width="20" height="20" viewBox="0 0 20 20" fill="none" xmlns="http://www.w3.org/2000/svg">
<path d="M7.66667 17H4.55556C3.7 17 3 16.3 3 15.4444V4.55556C3 3.7 3.7 3 4.55556 3H7.66667C8.52222 3 9.22222 3.7 9.22222 4.55556V15.4444C9.22222 16.3 8.52222 17 7.66667 17ZM12.3333 17H15.4444C16.3 17 17 16.3 17 15.4444V11.5556C17 10.7 16.3 10 15.4444 10H12.3333C11.4778 10 10.7778 10.7 10.7778 11.5556V15.4444C10.7778 16.3 11.4778 17 12.3333 17ZM17 6.88889V4.55556C17 3.7 16.3 3 15.4444 3H12.3333C11.4778 3 10.7778 3.7 10.7778 4.55556V6.88889C10.7778 7.74444 11.4778 8.44444 12.3333 8.44444H15.4444C16.3 8.44444 17 7.74444 17 6.88889Z" fill="#F9EDEB"/>
</svg>
