<svg width="10" height="14" viewBox="0 0 10 14" fill="none" xmlns="http://www.w3.org/2000/svg">
<path d="M5.61719 13.3506C6.95312 11.6787 10 7.62663 10 5.35059C10 2.59017 7.76042 0.350586 5 0.350586C2.23958 0.350586 0 2.59017 0 5.35059C0 7.62663 3.04688 11.6787 4.38281 13.3506C4.70312 13.749 5.29688 13.749 5.61719 13.3506ZM5 3.68392C5.44203 3.68392 5.86595 3.85951 6.17851 4.17207C6.49107 4.48464 6.66667 4.90856 6.66667 5.35059C6.66667 5.79261 6.49107 6.21654 6.17851 6.5291C5.86595 6.84166 5.44203 7.01725 5 7.01725C4.55797 7.01725 4.13405 6.84166 3.82149 6.5291C3.50893 6.21654 3.33333 5.79261 3.33333 5.35059C3.33333 4.90856 3.50893 4.48464 3.82149 4.17207C4.13405 3.85951 4.55797 3.68392 5 3.68392Z" fill="#2C294B"/>
</svg>
