<svg width="28" height="28" viewBox="0 0 28 28" fill="none" xmlns="http://www.w3.org/2000/svg">
<path fill-rule="evenodd" clip-rule="evenodd" d="M18.4183 21.7324C18.6998 21.7327 18.9707 21.8405 19.1754 22.0338C19.3801 22.2271 19.5033 22.4913 19.5198 22.7723C19.5363 23.0534 19.4449 23.3302 19.2642 23.5461C19.0835 23.762 18.8271 23.9007 18.5475 23.934L18.4183 23.9417H9.58106C9.2995 23.9414 9.02869 23.8336 8.82396 23.6403C8.61923 23.4471 8.49602 23.1829 8.47952 22.9018C8.46302 22.6207 8.55447 22.344 8.73518 22.1281C8.91589 21.9122 9.17223 21.7734 9.45181 21.7402L9.58106 21.7324H18.4183ZM22.8369 5.1626C23.3943 5.16242 23.9312 5.37293 24.3399 5.75193C24.7486 6.13092 24.9989 6.6504 25.0407 7.20621L25.0462 7.37191V18.4185C25.0464 18.9758 24.8359 19.5127 24.4569 19.9214C24.0779 20.3301 23.5584 20.5804 23.0026 20.6222L22.8369 20.6278H5.16244C4.60505 20.6279 4.0682 20.4174 3.6595 20.0384C3.2508 19.6594 3.00045 19.14 2.95865 18.5842L2.95313 18.4185V7.37191C2.95295 6.81453 3.16346 6.27767 3.54246 5.86897C3.92145 5.46027 4.44092 5.20992 4.99674 5.16812L5.16244 5.1626H22.8369ZM22.8369 7.37191H5.16244V18.4185H22.8369V7.37191Z" fill="#488480"/>
</svg>
