<svg width="12" height="11" viewBox="0 0 12 11" fill="none" xmlns="http://www.w3.org/2000/svg">
<path d="M4.81209 1.44293C5.30524 1.35358 5.79323 1.35358 6.28638 1.44293C6.32762 1.4498 6.36886 1.45324 6.4101 1.45324C6.73657 1.45324 7.02524 1.21955 7.08538 0.887923C7.1524 0.515056 6.90496 0.157653 6.53038 0.0889212C5.87571 -0.0296404 5.22104 -0.0296404 4.5681 0.0889212C4.19523 0.155934 3.94608 0.513337 4.01309 0.887923C4.0801 1.26079 4.43751 1.50994 4.81209 1.44293Z" fill="#356461"/>
<path d="M2.32358 1.86397C2.03319 1.61826 1.60019 1.65434 1.35447 1.94473C1.13969 2.19904 0.948956 2.46881 0.787438 2.7506C0.625919 3.03069 0.486738 3.33139 0.373331 3.64411C0.24446 4.00152 0.430035 4.395 0.787438 4.52387C0.86476 4.55137 0.942083 4.56511 1.01941 4.56511C1.3012 4.56511 1.56582 4.38985 1.66548 4.10977C1.74968 3.87436 1.85449 3.64755 1.97649 3.43792C2.09677 3.22829 2.24111 3.02553 2.40262 2.83308C2.64834 2.54269 2.61226 2.10968 2.32187 1.86397H2.32358Z" fill="#356461"/>
<path d="M2.40434 8.16654C2.24282 7.97581 2.09849 7.77133 1.97821 7.5617C1.85793 7.35207 1.75311 7.12526 1.6672 6.88985C1.53833 6.53245 1.14484 6.34688 0.787438 6.47575C0.430035 6.60462 0.24446 6.99811 0.373331 7.35551C0.48502 7.66824 0.624201 7.96894 0.787438 8.24902C0.948956 8.5291 1.13969 8.80059 1.35447 9.05489C1.49022 9.21641 1.68438 9.29889 1.88027 9.29889C2.03663 9.29889 2.19471 9.24562 2.32358 9.13565C2.61397 8.88994 2.65006 8.45693 2.40434 8.16654Z" fill="#356461"/>
<path d="M10.2515 8.34705C10.2704 8.3144 10.2927 8.28175 10.3116 8.24911C10.3322 8.21302 10.3529 8.17522 10.3718 8.13914C10.3786 8.12711 10.3855 8.11508 10.3924 8.10305C10.4216 8.04807 10.4491 7.99308 10.4766 7.9381C10.492 7.90717 10.5058 7.87796 10.5213 7.84703C10.5367 7.81266 10.5522 7.7783 10.5694 7.74221C10.5917 7.6941 10.6123 7.64427 10.6329 7.59444C10.6381 7.58069 10.6433 7.56866 10.6484 7.55492C10.9062 6.91915 11.0488 6.22668 11.0488 5.49985C11.0488 4.77302 10.901 4.02384 10.6072 3.33997C10.6037 3.33138 10.5969 3.3245 10.5934 3.31591C10.5092 3.12175 10.4164 2.93273 10.3116 2.75231C10.1501 2.47223 9.95766 2.20074 9.74459 1.94644C9.49888 1.65605 9.06587 1.61996 8.77548 1.86568C8.48509 2.11139 8.44901 2.5444 8.69472 2.83479C8.85624 3.02552 9.00058 3.23 9.12085 3.43963C9.24285 3.64926 9.34595 3.87607 9.43186 4.11148C9.43186 4.11491 9.4353 4.11663 9.4353 4.12007C9.59338 4.56167 9.67414 5.0256 9.67414 5.50157C9.67414 5.97753 9.58823 6.45522 9.43358 6.88822C9.43358 6.88822 9.43358 6.88994 9.43358 6.89166C9.39406 7.00335 9.34767 7.1116 9.29956 7.21813C9.2944 7.22844 9.29096 7.23875 9.28581 7.24906C9.24285 7.34357 9.19474 7.43464 9.14319 7.52227C9.12945 7.54805 9.11398 7.5721 9.10024 7.59788C9.05212 7.67863 9.00057 7.75768 8.94731 7.83672C8.93013 7.86249 8.91122 7.88655 8.89404 7.91232C8.83906 7.98964 8.78063 8.06353 8.72049 8.13742C8.11222 8.86597 7.25823 9.38317 6.28569 9.55844C6.16541 9.58078 6.04513 9.59624 5.92485 9.60655C5.91969 9.60655 5.91454 9.60655 5.90938 9.60655C5.54511 9.6392 5.18083 9.62201 4.81483 9.55672C4.44025 9.48799 4.08456 9.73714 4.01583 10.1117C3.94882 10.4846 4.19625 10.842 4.57084 10.9107C4.89731 10.9691 5.22722 11.0001 5.55198 11.0001C5.63789 11.0001 5.72381 10.9984 5.80972 10.9932C5.86127 10.9915 5.91282 10.9863 5.96437 10.9829C5.9953 10.9812 6.02622 10.9795 6.05715 10.976C6.12245 10.9691 6.18774 10.9623 6.25304 10.9537C6.27022 10.952 6.28569 10.9502 6.30287 10.9468C6.3716 10.9365 6.44033 10.9262 6.50906 10.9142C6.51765 10.9142 6.52453 10.9124 6.53312 10.9107C6.53312 10.9107 6.53655 10.9107 6.53827 10.9107C7.80293 10.6805 8.91982 10.0155 9.72397 9.07732C9.73085 9.07044 9.73944 9.06529 9.74631 9.0567C9.93532 8.83504 10.1037 8.59792 10.2515 8.35392C10.2515 8.35392 10.2532 8.35048 10.2549 8.34877L10.2515 8.34705Z" fill="#356461"/>
</svg>
