<svg width="24" height="24" viewBox="0 0 24 24" fill="none" xmlns="http://www.w3.org/2000/svg">
<path d="M18.3549 6.54H16.4149V4.69C16.4159 4.15983 16.2601 3.64121 15.9673 3.19926C15.6744 2.75731 15.2575 2.41176 14.7689 2.206C14.4446 2.07033 14.0965 2.00032 13.7449 2H5.69492C5.34298 2.00131 4.99474 2.07193 4.67009 2.20782C4.34544 2.34372 4.05073 2.54223 3.8028 2.79202C3.55487 3.04181 3.35856 3.33799 3.22509 3.66364C3.09162 3.9893 3.02361 4.33806 3.02492 4.69V14.78C3.02361 15.1319 3.09162 15.4807 3.22509 15.8064C3.35856 16.132 3.55487 16.4282 3.8028 16.678C4.05073 16.9278 4.34544 17.1263 4.67009 17.2622C4.99474 17.3981 5.34298 17.4687 5.69492 17.47H7.63492V19.32C7.63492 20.0291 7.9159 20.7092 8.41634 21.2115C8.91677 21.7138 9.59588 21.9974 10.3049 22H18.3049C19.014 21.9974 19.6931 21.7138 20.1935 21.2115C20.6939 20.7092 20.9749 20.0291 20.9749 19.32V9.23C20.9752 8.52853 20.7014 7.85472 20.2119 7.35221C19.7225 6.8497 19.0562 6.55825 18.3549 6.54ZM7.63492 9.23V15.97H5.69492C5.53996 15.9687 5.38677 15.9369 5.24411 15.8764C5.10145 15.8158 4.9721 15.7278 4.86345 15.6173C4.75481 15.5068 4.66899 15.376 4.6109 15.2323C4.55282 15.0887 4.5236 14.935 4.52492 14.78V4.69C4.5236 4.53504 4.55282 4.38133 4.6109 4.23767C4.66899 4.094 4.75481 3.96318 4.86345 3.85267C4.9721 3.74217 5.10145 3.65415 5.24411 3.59364C5.38677 3.53313 5.53996 3.50131 5.69492 3.5H13.7449C13.8999 3.50131 14.0531 3.53313 14.1957 3.59364C14.3384 3.65415 14.4677 3.74217 14.5764 3.85267C14.685 3.96318 14.7709 4.094 14.8289 4.23767C14.887 4.38133 14.9162 4.53504 14.9149 4.69V6.54H10.3049C9.59496 6.54528 8.91587 6.83102 8.41572 7.33492C7.91556 7.83882 7.6349 8.52002 7.63492 9.23Z" fill="black"/>
</svg>
