<svg width="40" height="40" viewBox="0 0 40 40" fill="none" xmlns="http://www.w3.org/2000/svg">
<path d="M7 7H34V34H7V7Z" fill="#F7DF1E"/>
<path d="M14.0997 29.5631L16.1658 28.3127C16.5645 29.0194 16.9271 29.6174 17.7969 29.6174C18.6307 29.6174 19.1564 29.2913 19.1564 28.0227V19.3956H21.6937V28.0586C21.6937 30.6866 20.1532 31.8828 17.9057 31.8828C15.8759 31.8828 14.6977 30.8316 14.0996 29.5629M23.0718 29.2912L25.1378 28.0951C25.6817 28.9832 26.3885 29.6357 27.639 29.6357C28.6904 29.6357 29.3607 29.11 29.3607 28.385C29.3607 27.5151 28.672 27.2069 27.5121 26.6996L26.8779 26.4275C25.0473 25.6484 23.833 24.6697 23.833 22.6036C23.833 20.7005 25.2829 19.2505 27.5485 19.2505C29.1615 19.2505 30.3214 19.8124 31.1551 21.2804L29.1794 22.5492C28.7444 21.7699 28.2733 21.4619 27.5484 21.4619C26.8052 21.4619 26.334 21.9331 26.334 22.5492C26.334 23.3104 26.8052 23.6187 27.8926 24.0899L28.5269 24.3617C30.6837 25.2861 31.898 26.2285 31.898 28.3489C31.898 30.6327 30.1038 31.8831 27.6933 31.8831C25.3372 31.8831 23.8148 30.7594 23.0717 29.2913" fill="black"/>
</svg>
