<svg width="40" height="40" viewBox="0 0 40 40" fill="none" xmlns="http://www.w3.org/2000/svg">
<path d="M20.2411 29.1301C29.7631 29.1301 37.4822 25.0716 37.4822 20.0651C37.4822 15.0586 29.7631 11 20.2411 11C10.7191 11 3 15.0586 3 20.0651C3 25.0716 10.7191 29.1301 20.2411 29.1301Z" fill="url(#paint0_radial_820_769)"/>
<path d="M20.2415 28.4565C29.3915 28.4565 36.8091 24.6995 36.8091 20.0649C36.8091 15.4304 29.3915 11.6733 20.2415 11.6733C11.0914 11.6733 3.67383 15.4304 3.67383 20.0649C3.67383 24.6995 11.0914 28.4565 20.2415 28.4565Z" fill="#6181B6"/>
<path d="M23.5947 22.7859L24.4163 18.5564C24.6049 17.6001 24.4433 16.8862 23.9584 16.4417C23.4869 16.0107 22.6787 15.7951 21.4934 15.7951H20.0656L20.4697 13.6939C20.4832 13.6131 20.4697 13.5322 20.4158 13.4649C20.362 13.3975 20.2946 13.3706 20.2138 13.3706H18.2472C18.1125 13.3706 18.0048 13.4649 17.9778 13.5861L17.1023 18.0715C17.0215 17.5597 16.8329 17.1286 16.5096 16.7784C15.9305 16.1184 15.028 15.7817 13.8023 15.7817H10.0173C9.88259 15.7817 9.77483 15.876 9.74789 15.9972L7.98337 25.1027C7.9699 25.1835 7.98337 25.2643 8.03725 25.3316C8.09113 25.399 8.15848 25.4259 8.2393 25.4259H10.2193C10.354 25.4259 10.4618 25.3316 10.4887 25.2104L10.9198 23.0149H12.3879C13.1557 23.0149 13.8157 22.934 14.3141 22.7724C14.8394 22.5973 15.3109 22.3144 15.7284 21.9238C16.0652 21.614 16.348 21.2638 16.5635 20.8867L16.2133 22.7051C16.1998 22.7859 16.2133 22.8667 16.2672 22.934C16.3211 23.0014 16.3884 23.0283 16.4692 23.0283H18.4358C18.5705 23.0283 18.6783 22.934 18.7052 22.8128L19.675 17.8291H21.022C21.6012 17.8291 21.7628 17.9368 21.8167 17.9907C21.8571 18.0311 21.9379 18.1927 21.8436 18.6911L21.0624 22.7185C21.0489 22.7993 21.0624 22.8802 21.1163 22.9475C21.1701 23.0149 21.2375 23.0418 21.3183 23.0418H23.3387C23.46 23.0014 23.5677 22.9071 23.5947 22.7859ZM14.4892 19.2838C14.368 19.9168 14.139 20.3748 13.8023 20.6307C13.4655 20.8867 12.9133 21.0214 12.1859 21.0214H11.3104L11.9434 17.7617H13.0749C13.91 17.7617 14.2468 17.9368 14.3814 18.085C14.5566 18.3005 14.597 18.718 14.4892 19.2838ZM31.9997 16.7784C31.4205 16.1184 30.5181 15.7817 29.2923 15.7817H25.4804C25.3457 15.7817 25.238 15.876 25.211 15.9972L23.4465 25.0892C23.433 25.17 23.4465 25.2508 23.5004 25.3182C23.5543 25.3855 23.6216 25.4125 23.7024 25.4125H25.6825C25.8172 25.4125 25.9249 25.3182 25.9519 25.1969L26.3829 23.0014H27.8511C28.6188 23.0014 29.2789 22.9206 29.7772 22.7589C30.3025 22.5838 30.774 22.301 31.1915 21.9104C31.5418 21.5871 31.8381 21.2234 32.0536 20.8328C32.2691 20.4422 32.4307 20.0111 32.525 19.5397C32.754 18.3678 32.5789 17.4519 31.9997 16.7784ZM29.9389 19.2838C29.8176 19.9168 29.5887 20.3748 29.2519 20.6307C28.9152 20.8867 28.3629 21.0214 27.6356 21.0214H26.76L27.3931 17.7617H28.5246C29.3597 17.7617 29.6964 17.9368 29.8311 18.085C30.0197 18.3005 30.0601 18.718 29.9389 19.2838Z" fill="white"/>
<path d="M13.0751 17.4925C13.8294 17.4925 14.3277 17.6271 14.5837 17.91C14.8396 18.1929 14.8935 18.6643 14.7588 19.3378C14.6241 20.0382 14.3547 20.5501 13.9641 20.8464C13.5734 21.1427 12.9808 21.2909 12.1861 21.2909H10.9873L11.7281 17.4925H13.0751ZM8.25293 25.1432H10.233L10.7044 22.7321H12.4016C13.1559 22.7321 13.762 22.6513 14.2469 22.4897C14.7318 22.328 15.1628 22.0721 15.5669 21.695C15.9037 21.3852 16.1731 21.0484 16.3751 20.6848C16.5772 20.3211 16.7253 19.917 16.8061 19.4725C17.0217 18.3949 16.86 17.5598 16.3347 16.9537C15.8094 16.3475 14.9743 16.0512 13.8294 16.0512H10.0175L8.25293 25.1432ZM18.2609 13.6401H20.2274L19.756 16.0512H21.507C22.6116 16.0512 23.3659 16.2398 23.7834 16.6304C24.201 17.021 24.3222 17.6406 24.1606 18.5027L23.3389 22.7321H21.3454L22.1266 18.7047C22.2209 18.2467 22.1805 17.9369 22.0324 17.7753C21.8842 17.6137 21.5475 17.5194 21.0491 17.5194H19.4731L18.4629 22.7321H16.4963L18.2609 13.6401ZM28.5247 17.4925C29.279 17.4925 29.7774 17.6271 30.0333 17.91C30.2892 18.1929 30.3431 18.6643 30.2084 19.3378C30.0737 20.0382 29.8043 20.5501 29.4137 20.8464C29.0231 21.1427 28.4304 21.2909 27.6357 21.2909H26.4369L27.1778 17.4925H28.5247ZM23.7026 25.1432H25.6826L26.1541 22.7321H27.8512C28.6055 22.7321 29.2117 22.6513 29.6966 22.4897C30.1815 22.328 30.6125 22.0721 31.0166 21.695C31.3533 21.3852 31.6227 21.0484 31.8248 20.6848C32.0268 20.3211 32.175 19.917 32.2558 19.4725C32.4713 18.3949 32.3097 17.5598 31.7844 16.9537C31.2591 16.3475 30.4239 16.0512 29.279 16.0512H25.4671L23.7026 25.1432Z" fill="#000004"/>
<defs>
<radialGradient id="paint0_radial_820_769" cx="0" cy="0" r="1" gradientUnits="userSpaceOnUse" gradientTransform="translate(13.3516 14.1879) scale(22.6418 22.6418)">
<stop stop-color="white"/>
<stop offset="0.5" stop-color="#4C6B97"/>
<stop offset="1" stop-color="#231F20"/>
</radialGradient>
</defs>
</svg>
