<svg width="40" height="40" viewBox="0 0 40 40" fill="none" xmlns="http://www.w3.org/2000/svg">
<path d="M22.67 32.84C29.8055 32.84 35.59 27.0555 35.59 19.92C35.59 12.7845 29.8055 7 22.67 7C15.5345 7 9.75 12.7845 9.75 19.92C9.75 27.0555 15.5345 32.84 22.67 32.84Z" fill="#C56230" stroke="#B44C30" stroke-miterlimit="10"/>
<path d="M22.6199 32.36C29.5069 32.36 35.0899 26.7949 35.0899 19.93C35.0899 13.0651 29.5069 7.5 22.6199 7.5C15.7329 7.5 10.1499 13.0651 10.1499 19.93C10.1499 26.7949 15.7329 32.36 22.6199 32.36Z" fill="#C56230"/>
<path d="M22.6701 7.5C29.6501 7.5 35.5901 13.43 35.0901 20.42H22.6201L22.6601 7.5H22.6701Z" fill="#D5793C"/>
<path d="M22.6101 7.5C15.6301 7.5 9.69008 13.43 10.1901 20.42H22.6601L22.6201 7.5H22.6101Z" fill="#CB7239"/>
<g filter="url(#filter0_d_820_1014)">
<path d="M16.52 12.5298H6.33C5.04318 12.5298 4 13.573 4 14.8598V25.4598C4 26.7466 5.04318 27.7898 6.33 27.7898H16.52C17.8068 27.7898 18.85 26.7466 18.85 25.4598V14.8598C18.85 13.573 17.8068 12.5298 16.52 12.5298Z" fill="#C56230"/>
<path d="M16.52 12.5298H6.33C5.04318 12.5298 4 13.573 4 14.8598V25.4598C4 26.7466 5.04318 27.7898 6.33 27.7898H16.52C17.8068 27.7898 18.85 26.7466 18.85 25.4598V14.8598C18.85 13.573 17.8068 12.5298 16.52 12.5298Z" stroke="#B44C30" stroke-miterlimit="10"/>
</g>
<path d="M9.57023 24.4399V16.5679H11.8142C12.4062 16.5679 12.9222 16.6399 13.3622 16.7839C13.8022 16.9279 14.1462 17.1719 14.3942 17.5159C14.6422 17.8519 14.7662 18.3079 14.7662 18.8839C14.7662 19.7079 14.4982 20.3199 13.9622 20.7199C13.4262 21.1199 12.7262 21.3199 11.8622 21.3199H10.5662V24.4399H9.57023ZM10.5662 20.5039H11.7422C12.4302 20.5039 12.9382 20.3759 13.2662 20.1199C13.6022 19.8559 13.7702 19.4439 13.7702 18.8839C13.7702 18.3159 13.5942 17.9239 13.2422 17.7079C12.8982 17.4839 12.3822 17.3719 11.6942 17.3719H10.5662V20.5039Z" fill="white"/>
<defs>
<filter id="filter0_d_820_1014" x="3.5" y="12.0298" width="16.8501" height="17.2598" filterUnits="userSpaceOnUse" color-interpolation-filters="sRGB">
<feFlood flood-opacity="0" result="BackgroundImageFix"/>
<feColorMatrix in="SourceAlpha" type="matrix" values="0 0 0 0 0 0 0 0 0 0 0 0 0 0 0 0 0 0 127 0" result="hardAlpha"/>
<feOffset dx="1" dy="1"/>
<feColorMatrix type="matrix" values="0 0 0 0 0.686275 0 0 0 0 0.329412 0 0 0 0 0.168627 0 0 0 0.6 0"/>
<feBlend mode="normal" in2="BackgroundImageFix" result="effect1_dropShadow_820_1014"/>
<feBlend mode="normal" in="SourceGraphic" in2="effect1_dropShadow_820_1014" result="shape"/>
</filter>
</defs>
</svg>
