<svg width="40" height="40" viewBox="0 0 40 40" fill="none" xmlns="http://www.w3.org/2000/svg">
<path d="M27.6719 7H13.3281C9.8332 7 7 9.8332 7 13.3281V27.6719C7 31.1668 9.8332 34 13.3281 34H27.6719C31.1668 34 34 31.1668 34 27.6719V13.3281C34 9.8332 31.1668 7 27.6719 7Z" fill="#CD6799"/>
<mask id="mask0_820_767" style="mask-type:luminance" maskUnits="userSpaceOnUse" x="9" y="12" width="23" height="17">
<path d="M9.95312 12.5898H31.0469V28.4006H9.95312V12.5898Z" fill="white"/>
</mask>
<g mask="url(#mask0_820_767)">
<path d="M28.105 21.6774C27.3695 21.6812 26.7304 21.8584 26.1951 22.1202C25.9987 21.7313 25.8023 21.3847 25.7676 21.1306C25.7291 20.8341 25.6829 20.6531 25.7291 20.2988C25.7753 19.9446 25.9833 19.4402 25.9794 19.4017C25.9756 19.3631 25.9332 19.1822 25.5097 19.1783C25.0861 19.1745 24.7203 19.2592 24.6779 19.3709C24.6355 19.4825 24.5547 19.7367 24.5008 19.9986C24.4277 20.3836 23.6536 21.7583 23.2109 22.4783C23.0684 22.1973 22.9452 21.9508 22.9182 21.7544C22.8797 21.4579 22.8335 21.2769 22.8797 20.9227C22.9259 20.5684 23.1339 20.0639 23.13 20.0254C23.1262 19.987 23.0838 19.806 22.6602 19.8022C22.2366 19.7983 21.8708 19.883 21.8285 19.9947C21.7861 20.1063 21.7399 20.3682 21.6513 20.6223C21.5628 20.8765 20.5347 23.1715 20.2651 23.7644C20.1562 24.0044 20.0419 24.2419 19.9224 24.4768C19.9224 24.4768 19.9185 24.4884 19.9071 24.5076C19.8695 24.5812 19.8309 24.6544 19.7915 24.727V24.7309C19.7338 24.8349 19.6721 24.9311 19.6413 24.9311C19.6182 24.9311 19.5759 24.6539 19.649 24.2766C19.8031 23.4794 20.1688 22.2396 20.165 22.1973C20.165 22.1742 20.2343 21.9585 19.9262 21.8468C19.6259 21.7351 19.5181 21.92 19.4911 21.92C19.4642 21.92 19.4449 21.9855 19.4449 21.9855C19.4449 21.9855 19.78 20.5915 18.8057 20.5915C18.1973 20.5915 17.3579 21.2576 16.9421 21.8584C16.4693 22.1156 15.9969 22.3736 15.5249 22.6323C15.2979 22.7594 15.063 22.8865 14.8434 23.0059C14.828 22.9905 14.8126 22.9712 14.7972 22.9558C13.6189 21.6966 11.4395 20.8072 11.5319 19.1167C11.5666 18.5006 11.7784 16.8833 15.7175 14.9195C18.9597 13.3215 21.5397 13.7643 21.9864 14.7462C22.6255 16.1479 20.604 18.7509 17.254 19.1282C15.9755 19.2707 15.3056 18.7779 15.1362 18.5931C14.959 18.4005 14.932 18.389 14.8665 18.4275C14.7587 18.4852 14.828 18.6585 14.8665 18.7586C14.9667 19.0204 15.3786 19.4825 16.0756 19.7097C16.6917 19.91 18.1896 20.0217 20.0032 19.3208C22.0326 18.5353 23.619 16.3519 23.1531 14.5229C22.6872 12.6669 19.6067 12.0546 16.6917 13.0905C14.9589 13.7066 13.0798 14.6769 11.7283 15.9399C10.1225 17.4418 9.86843 18.7471 9.97242 19.2938C10.3459 21.2345 13.0221 22.4975 14.0926 23.4333C14.0387 23.464 13.9886 23.491 13.9463 23.5141C13.411 23.7798 11.3702 24.8464 10.8618 25.9747C10.2843 27.2531 10.9543 28.1695 11.3971 28.2927C12.7718 28.674 14.1849 27.9886 14.9436 26.8565C15.7021 25.7243 15.6097 24.2535 15.2593 23.5796C15.2555 23.5711 15.2503 23.5633 15.2439 23.5565C15.3825 23.4756 15.5249 23.391 15.6636 23.3101C15.9184 23.1595 16.1765 23.0144 16.4376 22.8749C16.3067 23.2331 16.2104 23.6604 16.1642 24.2766C16.1065 25.0005 16.403 25.94 16.7918 26.3097C16.9651 26.4714 17.1692 26.4753 17.3002 26.4753C17.7545 26.4753 17.9586 26.0979 18.1858 25.6513C18.463 25.1044 18.7134 24.4691 18.7134 24.4691C18.7134 24.4691 18.4014 26.1865 19.2485 26.1865C19.5566 26.1865 19.8684 25.786 20.0071 25.582V25.5858C20.0071 25.5858 20.0148 25.5743 20.0302 25.5473C20.061 25.4972 20.0802 25.4664 20.0802 25.4664V25.4587C20.2035 25.2431 20.4807 24.754 20.8928 23.9415C21.4241 22.8942 21.9363 21.585 21.9363 21.585C21.9363 21.585 21.9825 21.9046 22.1404 22.4359C22.2327 22.7479 22.4253 23.0906 22.5793 23.4218C22.4561 23.595 22.3791 23.6912 22.3791 23.6912L22.3829 23.6951C22.2828 23.826 22.1751 23.9685 22.0557 24.1071C21.6359 24.6078 21.1353 25.1815 21.066 25.3471C20.9852 25.5435 21.0045 25.6859 21.1584 25.8014C21.2701 25.8861 21.4703 25.8976 21.6744 25.8861C22.0518 25.8591 22.3175 25.7667 22.4484 25.709C22.6525 25.6359 22.8913 25.5242 23.1146 25.3586C23.5266 25.0544 23.7769 24.6192 23.7538 24.0455C23.7422 23.7297 23.6382 23.4141 23.5112 23.1175C23.5497 23.0636 23.5843 23.0097 23.6228 22.9558C24.2737 22.0047 24.778 20.9612 24.778 20.9612C24.778 20.9612 24.8242 21.2807 24.9821 21.8122C25.0591 22.0817 25.217 22.3743 25.3557 22.6593C24.7434 23.1561 24.3661 23.7336 24.2313 24.111C23.9887 24.8118 24.1774 25.1275 24.5354 25.2007C24.6972 25.2354 24.9282 25.1584 25.0977 25.0852C25.3133 25.0159 25.5675 24.8965 25.81 24.7193C26.222 24.4152 26.6187 23.9916 26.5956 23.4179C26.584 23.1561 26.5147 22.898 26.4184 22.6477C26.9382 22.4321 27.6083 22.3128 28.4631 22.4128C30.296 22.6285 30.658 23.7721 30.5886 24.2535C30.5193 24.7347 30.1343 24.9966 30.0072 25.0775C29.8802 25.1584 29.8378 25.1853 29.8494 25.2431C29.8648 25.3278 29.9264 25.3239 30.0342 25.3085C30.1843 25.2816 30.9968 24.9196 31.0315 24.034C31.0893 22.9019 30.0111 21.6658 28.105 21.6774ZM13.9655 26.4445C13.3571 27.1067 12.51 27.3571 12.1441 27.1453C11.7514 26.918 11.9053 25.94 12.6525 25.2392C13.1067 24.8118 13.6921 24.4152 14.081 24.1726C14.1696 24.1187 14.3004 24.0417 14.4583 23.9454C14.4853 23.93 14.5007 23.9223 14.5007 23.9223L14.5931 23.8645C14.8665 24.8657 14.6046 25.7476 13.9655 26.4445ZM18.3937 23.4333C18.1819 23.9493 17.7391 25.27 17.4696 25.1969C17.2386 25.1352 17.0961 24.1341 17.4234 23.1445C17.589 22.6477 17.9393 22.0548 18.1434 21.8237C18.4746 21.454 18.8403 21.3308 18.9289 21.481C19.0406 21.6774 18.5247 23.1098 18.3937 23.4333ZM22.048 25.1815C21.9594 25.2277 21.8747 25.2585 21.8362 25.2354C21.8092 25.22 21.8747 25.1584 21.8747 25.1584C21.8747 25.1584 22.3329 24.6654 22.5139 24.4422C22.6178 24.3112 22.7411 24.1572 22.872 23.9839V24.034C22.872 24.6232 22.3021 25.0197 22.048 25.1815ZM24.8666 24.5384C24.8011 24.4922 24.8127 24.3382 25.0322 23.8568C25.1169 23.6681 25.3172 23.3525 25.6598 23.0482C25.6983 23.1715 25.7253 23.2908 25.7214 23.4025C25.7176 24.1457 25.1862 24.4229 24.8666 24.5384Z" fill="white"/>
</g>
</svg>
