<svg width="17" height="17" viewBox="0 0 17 17" fill="none" xmlns="http://www.w3.org/2000/svg">
<g clip-path="url(#clip0_6_2550)">
<path fill-rule="evenodd" clip-rule="evenodd" d="M11.2909 11.5553V6.06057C11.2909 5.96661 11.2536 5.8765 11.1871 5.81006C11.1207 5.74363 11.0305 5.70631 10.9366 5.70631H5.44827V0.0345154H16.6021C16.6486 0.0345062 16.6947 0.0436646 16.7377 0.0614674C16.7807 0.0792703 16.8198 0.105369 16.8527 0.138273C16.8856 0.171177 16.9117 0.210241 16.9295 0.253236C16.9473 0.29623 16.9565 0.342312 16.9565 0.38885V11.5553H11.2909Z" fill="#8E75FF"/>
<path opacity="0.405" fill-rule="evenodd" clip-rule="evenodd" d="M5.44829 0.0345154V5.70631H0.210113C0.175081 5.7063 0.140838 5.6959 0.111711 5.67644C0.082583 5.65698 0.0598778 5.62932 0.046464 5.59696C0.0330501 5.56459 0.0295295 5.52898 0.0363469 5.49462C0.0431643 5.46026 0.0600139 5.42869 0.0847666 5.4039L5.44829 0.0345154ZM11.2909 16.799V11.5553H16.9565L11.5934 16.9242C11.5686 16.949 11.5371 16.9658 11.5027 16.9727C11.4683 16.9795 11.4327 16.976 11.4004 16.9626C11.368 16.9492 11.3403 16.9265 11.3208 16.8974C11.3014 16.8683 11.291 16.834 11.2909 16.799ZM5.44829 5.70631H11.1137C11.1607 5.70631 11.2058 5.72497 11.239 5.75818C11.2722 5.7914 11.2909 5.83645 11.2909 5.88344V11.5553H5.80262C5.75609 11.5553 5.71001 11.5461 5.66702 11.5283C5.62403 11.5105 5.58497 11.4844 5.55207 11.4515C5.51917 11.4186 5.49307 11.3796 5.47526 11.3366C5.45745 11.2936 5.44829 11.2475 5.44829 11.201V5.70631Z" fill="#8E75FF"/>
</g>
<defs>
<clipPath id="clip0_6_2550">
<rect width="17" height="17" fill="white"/>
</clipPath>
</defs>
</svg>
