<svg width="40" height="40" viewBox="0 0 40 40" fill="none" xmlns="http://www.w3.org/2000/svg">
<mask id="mask0_820_765" style="mask-type:luminance" maskUnits="userSpaceOnUse" x="6" y="7" width="28" height="27">
<path d="M25.8553 33.8846C26.0781 33.9688 26.3164 34.0077 26.5554 33.9988C26.7943 33.9899 27.0288 33.9334 27.2443 33.8329L33.009 31.1442C33.3059 31.0057 33.5564 30.7887 33.7318 30.5182C33.9071 30.2478 34 29.9349 34 29.6155V11.3845C34 11.0651 33.907 10.7522 33.7317 10.4818C33.5564 10.2114 33.3059 9.99439 33.009 9.85585L27.2444 7.16712C26.9187 7.01519 26.5523 6.96516 26.1959 7.02397C25.8396 7.08277 25.5109 7.2475 25.2553 7.49535L14.2195 17.2544L9.41231 13.7175C9.19547 13.558 8.92785 13.4771 8.65588 13.4888C8.38392 13.5005 8.12477 13.6041 7.92339 13.7817L6.38166 15.1411C5.87327 15.5893 5.87273 16.3646 6.38034 16.8135L10.5492 20.5L6.38034 24.1864C5.87273 24.6354 5.87327 25.4105 6.38166 25.8588L7.92339 27.2181C8.12475 27.3957 8.3839 27.4994 8.65587 27.5111C8.92783 27.5229 9.19546 27.442 9.41231 27.2824L14.2195 23.7455L25.2553 33.5045C25.426 33.6702 25.6303 33.7996 25.8553 33.8846V33.8846ZM27.0043 14.3389L18.6305 20.5L27.0043 26.661V14.3389V14.3389Z" fill="white"/>
</mask>
<g mask="url(#mask0_820_765)">
<path d="M33.0261 9.85981L27.2569 7.16735C26.9311 7.0153 26.5646 6.96517 26.2081 7.0239C25.8515 7.08263 25.5227 7.24731 25.267 7.49516L6.38055 24.1862C5.8726 24.6352 5.87326 25.4104 6.38187 25.8586L7.92459 27.218C8.12613 27.3956 8.38543 27.4992 8.65756 27.511C8.92968 27.5227 9.19747 27.4418 9.41449 27.2822L32.1581 10.5583C32.9211 9.99732 34.017 10.5248 34.017 11.4531V11.3881C34.017 11.0688 33.924 10.756 33.7487 10.4856C33.5734 10.2153 33.323 9.99833 33.0261 9.85981Z" fill="#0065A9"/>
</g>
<mask id="mask1_820_765" style="mask-type:luminance" maskUnits="userSpaceOnUse" x="6" y="7" width="28" height="27">
<path d="M25.8553 33.8846C26.0781 33.9688 26.3164 34.0077 26.5554 33.9988C26.7943 33.9899 27.0288 33.9334 27.2443 33.8329L33.009 31.1442C33.3059 31.0057 33.5564 30.7887 33.7318 30.5182C33.9071 30.2478 34 29.9349 34 29.6155V11.3845C34 11.0651 33.907 10.7522 33.7317 10.4818C33.5564 10.2114 33.3059 9.99439 33.009 9.85585L27.2444 7.16712C26.9187 7.01519 26.5523 6.96516 26.1959 7.02397C25.8396 7.08277 25.5109 7.2475 25.2553 7.49535L14.2195 17.2544L9.41231 13.7175C9.19547 13.558 8.92785 13.4771 8.65588 13.4888C8.38392 13.5005 8.12477 13.6041 7.92339 13.7817L6.38166 15.1411C5.87327 15.5893 5.87273 16.3646 6.38034 16.8135L10.5492 20.5L6.38034 24.1864C5.87273 24.6354 5.87327 25.4105 6.38166 25.8588L7.92339 27.2181C8.12475 27.3957 8.3839 27.4994 8.65587 27.5111C8.92783 27.5229 9.19546 27.442 9.41231 27.2824L14.2195 23.7455L25.2553 33.5045C25.426 33.6702 25.6303 33.7996 25.8553 33.8846V33.8846ZM27.0043 14.3389L18.6305 20.5L27.0043 26.661V14.3389V14.3389Z" fill="white"/>
</mask>
<g mask="url(#mask1_820_765)">
<path d="M33.0261 31.14L27.2569 33.8325C26.9311 33.9845 26.5646 34.0346 26.2081 33.9759C25.8516 33.9172 25.5227 33.7525 25.267 33.5047L6.38055 16.8136C5.8726 16.3647 5.87326 15.5895 6.38187 15.1413L7.92459 13.7819C8.12614 13.6043 8.38545 13.5006 8.65758 13.4889C8.9297 13.4772 9.19748 13.5581 9.41449 13.7177L32.1581 30.4415C32.9211 31.0025 34.017 30.4751 34.017 29.5467V29.6117C34.017 29.931 33.924 30.2438 33.7487 30.5142C33.5734 30.7846 33.323 31.0015 33.0261 31.14Z" fill="#007ACC"/>
</g>
<mask id="mask2_820_765" style="mask-type:luminance" maskUnits="userSpaceOnUse" x="6" y="7" width="28" height="27">
<path d="M25.8553 33.8846C26.0781 33.9688 26.3164 34.0077 26.5554 33.9988C26.7943 33.9899 27.0288 33.9334 27.2443 33.8329L33.009 31.1442C33.3059 31.0057 33.5564 30.7887 33.7318 30.5182C33.9071 30.2478 34 29.9349 34 29.6155V11.3845C34 11.0651 33.907 10.7522 33.7317 10.4818C33.5564 10.2114 33.3059 9.99439 33.009 9.85585L27.2444 7.16712C26.9187 7.01519 26.5523 6.96516 26.1959 7.02397C25.8396 7.08277 25.5109 7.2475 25.2553 7.49535L14.2195 17.2544L9.41231 13.7175C9.19547 13.558 8.92785 13.4771 8.65588 13.4888C8.38392 13.5005 8.12477 13.6041 7.92339 13.7817L6.38166 15.1411C5.87327 15.5893 5.87273 16.3646 6.38034 16.8135L10.5492 20.5L6.38034 24.1864C5.87273 24.6354 5.87327 25.4105 6.38166 25.8588L7.92339 27.2181C8.12475 27.3957 8.3839 27.4994 8.65587 27.5111C8.92783 27.5229 9.19546 27.442 9.41231 27.2824L14.2195 23.7455L25.2553 33.5045C25.426 33.6702 25.6303 33.7996 25.8553 33.8846V33.8846ZM27.0043 14.3389L18.6305 20.5L27.0043 26.661V14.3389V14.3389Z" fill="white"/>
</mask>
<g mask="url(#mask2_820_765)">
<path d="M27.2387 33.8342C26.9128 33.9862 26.5462 34.0362 26.1897 33.9774C25.8332 33.9187 25.5043 33.754 25.2485 33.5061C25.8943 34.1319 26.9986 33.6886 26.9986 32.8033V8.19947C26.9986 7.31419 25.8943 6.87091 25.2485 7.49682C25.5043 7.24896 25.8331 7.08423 26.1897 7.02543C26.5462 6.96663 26.9128 7.01666 27.2387 7.16859L33.0069 9.85733C33.304 9.99577 33.5546 10.2127 33.73 10.4831C33.9054 10.7536 33.9985 11.0665 33.9985 11.386V29.6171C33.9985 30.2689 33.6131 30.8632 33.0069 31.1457L27.2387 33.8342Z" fill="#1F9CF0"/>
</g>
<mask id="mask3_820_765" style="mask-type:luminance" maskUnits="userSpaceOnUse" x="6" y="7" width="28" height="27">
<path d="M25.8553 33.8846C26.0781 33.9688 26.3164 34.0077 26.5554 33.9988C26.7943 33.9899 27.0288 33.9334 27.2443 33.8329L33.009 31.1442C33.3059 31.0057 33.5564 30.7887 33.7318 30.5182C33.9071 30.2478 34 29.9349 34 29.6155V11.3845C34 11.0651 33.907 10.7522 33.7317 10.4818C33.5564 10.2114 33.3059 9.99439 33.009 9.85585L27.2444 7.16712C26.9187 7.01519 26.5523 6.96516 26.1959 7.02397C25.8396 7.08277 25.5109 7.2475 25.2553 7.49535L14.2195 17.2544L9.41231 13.7175C9.19547 13.558 8.92785 13.4771 8.65588 13.4888C8.38392 13.5005 8.12477 13.6041 7.92339 13.7817L6.38166 15.1411C5.87327 15.5893 5.87273 16.3646 6.38034 16.8135L10.5492 20.5L6.38034 24.1864C5.87273 24.6354 5.87327 25.4105 6.38166 25.8588L7.92339 27.2181C8.12475 27.3957 8.3839 27.4994 8.65587 27.5111C8.92783 27.5229 9.19546 27.442 9.41231 27.2824L14.2195 23.7455L25.2553 33.5045C25.426 33.6702 25.6303 33.7996 25.8553 33.8846V33.8846ZM27.0043 14.3389L18.6305 20.5L27.0043 26.661V14.3389V14.3389Z" fill="white"/>
</mask>
<g mask="url(#mask3_820_765)">
<path d="M25.8553 33.8847C26.0781 33.9688 26.3164 34.0077 26.5554 33.9988C26.7943 33.9899 27.0288 33.9334 27.2443 33.8329L33.0089 31.1442C33.3058 31.0057 33.5564 30.7887 33.7317 30.5183C33.907 30.2479 34 29.9349 34 29.6155V11.3846C34 11.0652 33.907 10.7523 33.7317 10.4819C33.5564 10.2114 33.3059 9.99446 33.009 9.85592L27.2442 7.16708C26.9185 7.01518 26.5521 6.96517 26.1958 7.02397C25.8394 7.08278 25.5108 7.24749 25.2552 7.49531L14.2195 17.2545L9.41231 13.7176C9.19547 13.5581 8.92785 13.4771 8.65588 13.4889C8.38392 13.5006 8.12477 13.6042 7.92339 13.7818L6.38166 15.1412C5.87327 15.5894 5.87273 16.3646 6.38034 16.8135L10.5492 20.5001L6.38034 24.1865C5.87273 24.6355 5.87327 25.4106 6.38166 25.8589L7.92339 27.2182C8.12475 27.3958 8.3839 27.4995 8.65587 27.5112C8.92783 27.5229 9.19546 27.442 9.41231 27.2825L14.2195 23.7455L25.2552 33.5046C25.4259 33.6702 25.6303 33.7997 25.8553 33.8847ZM27.0043 14.3388L18.6305 20.5001L27.0043 26.6611V14.3388Z" fill="url(#paint0_linear_820_765)" fill-opacity="0.25"/>
</g>
<defs>
<linearGradient id="paint0_linear_820_765" x1="1406" y1="7" x2="1406" y2="2707.01" gradientUnits="userSpaceOnUse">
<stop stop-color="white"/>
<stop offset="1" stop-color="white" stop-opacity="0"/>
</linearGradient>
</defs>
</svg>
