<svg width="40" height="40" viewBox="0 0 40 40" fill="none" xmlns="http://www.w3.org/2000/svg">
<path d="M26.6 7H13C9.68629 7 7 9.68629 7 13V26.6C7 29.9137 9.68629 32.6 13 32.6H26.6C29.9137 32.6 32.6 29.9137 32.6 26.6V13C32.6 9.68629 29.9137 7 26.6 7Z" fill="#0073AA"/>
<path d="M11.2217 19.7992C11.2217 23.1947 13.195 26.1291 16.0564 27.5197L11.9644 16.3081C11.4739 17.4065 11.2208 18.5962 11.2217 19.7992ZM25.5911 19.3663C25.5911 18.3062 25.2103 17.572 24.8837 17.0005C24.4488 16.2939 24.0412 15.6955 24.0412 14.9889C24.0412 14.2003 24.6393 13.4663 25.4817 13.4663C25.5198 13.4663 25.5558 13.471 25.5929 13.4731C24.0667 12.0749 22.0334 11.2212 19.8 11.2212C16.8032 11.2212 14.1665 12.7588 12.6327 15.0878C12.8339 15.0938 13.0236 15.0981 13.1847 15.0981C14.082 15.0981 15.4709 14.9891 15.4709 14.9891C15.9333 14.9619 15.9879 15.6411 15.5259 15.6958C15.5259 15.6958 15.0612 15.7505 14.5441 15.7776L17.6679 25.0694L19.5452 19.4391L18.2087 15.7773C17.7468 15.7502 17.3092 15.6955 17.3092 15.6955C16.8469 15.6684 16.9011 14.9616 17.3634 14.9889C17.3634 14.9889 18.78 15.0977 19.6229 15.0977C20.5201 15.0977 21.9091 14.9889 21.9091 14.9889C22.3719 14.9616 22.4262 15.6408 21.9641 15.6955C21.9641 15.6955 21.4984 15.7502 20.9823 15.7773L24.0824 24.9987L24.938 22.1395C25.3089 20.9529 25.5911 20.1007 25.5911 19.3663Z" fill="white"/>
<path d="M19.9508 20.5496L17.377 28.0286C18.1639 28.2604 18.9799 28.3781 19.8003 28.3781C20.7705 28.3784 21.7337 28.214 22.6489 27.8918C22.625 27.8543 22.6046 27.8147 22.5879 27.7736L19.9508 20.5496ZM27.3274 15.6836C27.3664 15.976 27.3857 16.2706 27.3852 16.5656C27.3852 17.4361 27.2226 18.4147 26.7329 19.6383L24.1126 27.2142C26.6629 25.727 28.3783 22.9641 28.3783 19.7994C28.3784 18.3079 27.9975 16.9054 27.3274 15.6836Z" fill="white"/>
<path d="M19.7996 9.7998C14.2858 9.7998 9.7998 14.2855 9.7998 19.7992C9.7998 25.3136 14.2858 29.7991 19.7996 29.7991C25.3131 29.7991 29.7998 25.3136 29.7998 19.7992C29.7996 14.2855 25.3131 9.7998 19.7996 9.7998ZM19.7996 29.3408C14.5386 29.3408 10.2583 25.0604 10.2583 19.7992C10.2583 14.5383 14.5385 10.2583 19.7996 10.2583C25.0603 10.2583 29.3403 14.5383 29.3403 19.7992C29.3403 25.0604 25.0603 29.3408 19.7996 29.3408Z" fill="white"/>
</svg>
