<svg width="40" height="40" viewBox="0 0 40 40" fill="none" xmlns="http://www.w3.org/2000/svg">
<path d="M32.2501 7H15.0701C13.5789 7 12.3701 8.20884 12.3701 9.7V30.14C12.3701 31.6312 13.5789 32.84 15.0701 32.84H32.2501C33.7413 32.84 34.9501 31.6312 34.9501 30.14V9.7C34.9501 8.20884 33.7413 7 32.2501 7Z" fill="#515AA4" stroke="#3A4595" stroke-miterlimit="10"/>
<path d="M34.4501 19.9302H11.8701V26.1402H34.4501V19.9302Z" fill="#6673B4"/>
<path d="M15.0199 7.5H32.3099C33.4899 7.5 34.4499 8.46 34.4499 9.64V13.71H12.8599V9.66C12.8599 8.47 13.8299 7.5 15.0199 7.5Z" fill="#8393CA"/>
<path d="M34.4501 13.71H11.8701V19.92H34.4501V13.71Z" fill="#7282BF"/>
<g filter="url(#filter0_d_820_1010)">
<path d="M17.52 12.54H7.33C6.04318 12.54 5 13.5832 5 14.87V25.47C5 26.7569 6.04318 27.8 7.33 27.8H17.52C18.8068 27.8 19.85 26.7569 19.85 25.47V14.87C19.85 13.5832 18.8068 12.54 17.52 12.54Z" fill="#515AA4"/>
<path d="M17.52 12.54H7.33C6.04318 12.54 5 13.5832 5 14.87V25.47C5 26.7569 6.04318 27.8 7.33 27.8H17.52C18.8068 27.8 19.85 26.7569 19.85 25.47V14.87C19.85 13.5832 18.8068 12.54 17.52 12.54Z" stroke="#3A4595" stroke-miterlimit="10"/>
</g>
<path d="M10.2838 23.96L8.61584 16.088H9.64784L10.4758 20.372C10.5478 20.796 10.6238 21.22 10.7038 21.644C10.7838 22.068 10.8598 22.492 10.9318 22.916H10.9798C11.0678 22.492 11.1598 22.068 11.2558 21.644C11.3518 21.212 11.4438 20.788 11.5318 20.372L12.6238 16.088H13.5358L14.6278 20.372C14.7238 20.788 14.8198 21.212 14.9158 21.644C15.0118 22.068 15.1078 22.492 15.2038 22.916H15.2518C15.3238 22.492 15.3958 22.068 15.4678 21.644C15.5398 21.212 15.6158 20.788 15.6958 20.372L16.5238 16.088H17.4838L15.8518 23.96H14.6518L13.4638 19.22C13.3918 18.916 13.3238 18.62 13.2598 18.332C13.2038 18.036 13.1438 17.736 13.0798 17.432H13.0318C12.9758 17.736 12.9118 18.036 12.8398 18.332C12.7678 18.62 12.6998 18.916 12.6358 19.22L11.4718 23.96H10.2838Z" fill="white"/>
<defs>
<filter id="filter0_d_820_1010" x="4.5" y="12.04" width="16.8501" height="17.2598" filterUnits="userSpaceOnUse" color-interpolation-filters="sRGB">
<feFlood flood-opacity="0" result="BackgroundImageFix"/>
<feColorMatrix in="SourceAlpha" type="matrix" values="0 0 0 0 0 0 0 0 0 0 0 0 0 0 0 0 0 0 127 0" result="hardAlpha"/>
<feOffset dx="1" dy="1"/>
<feColorMatrix type="matrix" values="0 0 0 0 0.168627 0 0 0 0 0.168627 0 0 0 0 0.403922 0 0 0 0.6 0"/>
<feBlend mode="normal" in2="BackgroundImageFix" result="effect1_dropShadow_820_1010"/>
<feBlend mode="normal" in="SourceGraphic" in2="effect1_dropShadow_820_1010" result="shape"/>
</filter>
</defs>
</svg>
